<svg xmlns="http://www.w3.org/2000/svg" viewBox="0 0 51.7 47.94"><defs><style>.cls-1{fill:#352722;}</style></defs><title>アセット 4</title><g id="レイヤー_2" data-name="レイヤー 2"><g id="レイヤー_1-2" data-name="レイヤー 1"><path class="cls-1" d="M24.11,15.33c-4.86.6-2.93-5.37-1.89-7.74C22.79,6.3,23.36,5,23.94,3.73c.14-.31.33-1.12.62-1.35l1.84.06a8.82,8.82,0,0,1,1.05,1.32,11.93,11.93,0,0,1,2.1,7.13c-.18,4.18-3.86,5.87-7.25,3.7a.79.79,0,0,0-1,1.24,5.86,5.86,0,0,0,9.39-2c1.69-4-.21-10.71-3.8-13.21A2.45,2.45,0,0,0,23.35,1a19.37,19.37,0,0,0-1.86,4c-.55,1.25-1.16,2.48-1.64,3.76-.77,2-1.23,4.59.18,6.49a3.66,3.66,0,0,0,4.25,1.35c.64-.23.61-1.37-.17-1.27Z" transform="translate(-0.19 -0.02)"/><path class="cls-1" d="M19.2,9.4C14.15,13,9,16.32,3.59,19.39a.77.77,0,0,0,.18,1.39,153.31,153.31,0,0,0,20.32,5.43c1,.19,1.45-1.36.43-1.56A153.76,153.76,0,0,1,4.17,19.32l.18,1.38A145.63,145.63,0,0,0,19.86,10.54c.67-.5,0-1.64-.66-1.14Z" transform="translate(-0.19 -0.02)"/><path class="cls-1" d="M30.81,8.54a38.14,38.14,0,0,1,8.48-1.47A8.13,8.13,0,0,1,41.6,7l.93,0L44,10c.07,1.14-.9,3-1.24,4C41.21,18.75,39.67,26.68,32.9,25a.84.84,0,0,0-.44,1.61C41,28.79,43,18.63,44.94,12.66c.77-2.41,1.79-6.42-1.63-7.15-3.93-.84-9.12.61-12.84,1.79a.64.64,0,0,0,.34,1.24Z" transform="translate(-0.19 -0.02)"/><path class="cls-1" d="M45,8.14c-.45,8.48-.74,16.94-1.41,25.42-.09,1.1,1.62,1.08,1.71,0a215.85,215.85,0,0,0,1-25.42.67.67,0,0,0-1.33,0Z" transform="translate(-0.19 -0.02)"/><path class="cls-1" d="M5.56,18.94c-2,.63-2.6,1.17-2,3.49a120.89,120.89,0,0,1,2.56,12c.13,1,1.82.74,1.71-.24a60.19,60.19,0,0,0-1.4-7.63C6,24.81,4,21,6.05,20.12c.67-.29.19-1.39-.49-1.18Z" transform="translate(-0.19 -0.02)"/><path class="cls-1" d="M6.44,35.13c9.17,3.8,19.2,6.41,28.85,8.65a.86.86,0,0,0,.46-1.66C26,39.56,16.49,36.42,6.8,33.85a.67.67,0,0,0-.36,1.28Z" transform="translate(-0.19 -0.02)"/><path class="cls-1" d="M35.59,43.76A48.42,48.42,0,0,0,46,34.65c.68-.81-.49-2-1.18-1.18a52.53,52.53,0,0,1-9.9,9.17c-.68.47,0,1.58.66,1.12Z" transform="translate(-0.19 -0.02)"/><path class="cls-1" d="M9.17,28.85a54.59,54.59,0,0,0,23.31,6.93c1.07.08,1-1.54,0-1.65A74.79,74.79,0,0,1,9.8,27.76c-.72-.31-1.34.67-.63,1.09Z" transform="translate(-0.19 -0.02)"/><path class="cls-1" d="M35.82,29.68c.28,2.9.35,5.87.84,8.74.14.84,1.51.64,1.48-.2-.1-2.85-.63-5.7-.93-8.54-.1-.87-1.48-.89-1.39,0Z" transform="translate(-0.19 -0.02)"/><path class="cls-1" d="M5.46,30.55C0,30.34-1.13,36.8,1.66,40.44c3.34,4.35,9.92,5.88,15,6.67a67.7,67.7,0,0,0,19.07.32c5.8-.77,11.72-2.26,14.9-7.62,2.77-4.67.84-11.87-5.62-10.92-1.09.16-.62,1.8.45,1.65,4.56-.64,5.6,4.59,4,7.77a11.74,11.74,0,0,1-6,5.54C38.14,46,31.85,46.33,26.07,46.21a56.89,56.89,0,0,1-14.75-2,19.93,19.93,0,0,1-7-3.39c-2.91-2.37-4.21-8.66,1.15-9a.66.66,0,0,0,0-1.31Z" transform="translate(-0.19 -0.02)"/></g></g></svg>