<svg xmlns="http://www.w3.org/2000/svg" viewBox="0 0 58.82 44.45"><defs><style>.cls-1{fill:#352722;}</style></defs><title>アセット 3</title><g id="レイヤー_2" data-name="レイヤー 2"><g id="レイヤー_1-2" data-name="レイヤー 1"><path class="cls-1" d="M19.41,4.06q-.26,18.5-.09,37a.82.82,0,0,0,1.64,0c.08-12.33.08-24.67-.09-37a.73.73,0,0,0-1.46,0Z" transform="translate(-0.01 -0.04)"/><path class="cls-1" d="M2.64,24.24c11.5.07,23,.2,34.5.17a.85.85,0,0,0,0-1.7c-11.5,0-23,.1-34.5.17a.68.68,0,0,0,0,1.36Z" transform="translate(-0.01 -0.04)"/><path class="cls-1" d="M29.59,12.21c-6.78,6.56-13.46,13.25-20.09,20a.82.82,0,0,0,1.16,1.16c6.72-6.62,13.41-13.31,20-20.09a.73.73,0,0,0-1-1Z" transform="translate(-0.01 -0.04)"/><path class="cls-1" d="M9.6,14.29c6.18,6.27,12.33,12.57,18.55,18.8a.86.86,0,0,0,1.21-1.21c-6.22-6.22-12.52-12.38-18.8-18.55a.68.68,0,0,0-1,1Z" transform="translate(-0.01 -0.04)"/><path class="cls-1" d="M19.56,2.87c.06-.17.09,0,0,0s-.09,0-.12,0,0-.24,0-.34c.08-.26.62-1,.89-.78s.08.87-.22,1c-.07,0-.14,0-.11,0s-.44.16-.35-.17l.79-.61a5.72,5.72,0,0,0-1,.17.77.77,0,0,0,.2,1.5,3.75,3.75,0,0,0,.82,0,.85.85,0,0,0,.79-.6,1.44,1.44,0,0,0-2.73-.91A1.7,1.7,0,0,0,21.12,4c1.27-.83,1.3-3.24-.23-3.84s-3.14,1.18-3,2.64A1.53,1.53,0,0,0,19.39,4.2,1.24,1.24,0,0,0,20.76,3c0-.73-1-.78-1.2-.17Z" transform="translate(-0.01 -0.04)"/><path class="cls-1" d="M10,13.55a.79.79,0,0,1-.43-.31c-.05-.11,0-.23,0-.3,0,.12-.22-.07-.17-.08s-.09.1-.12.17l0,.07c-.2.19-.08.39.38.6a.78.78,0,0,0-1.22-.95,1.1,1.1,0,0,0,0,1.59,1.27,1.27,0,0,0,1.5.28c1-.5,1.58-2.07.62-2.88A1.54,1.54,0,0,0,8,12.63a1.85,1.85,0,0,0,1.83,2.15c.74.08.81-1,.17-1.23Z" transform="translate(-0.01 -0.04)"/><path class="cls-1" d="M31,12.79c.16-.06.24.08,0,0a.42.42,0,0,1-.13-.07c-.06-.05-.11-.07-.1-.16a.18.18,0,0,1,.35,0c0,.16-.13.23-.1.2s-.2-.22-.08.09c0,0,.1.08.11.09.64.46,1.49-.44,1.07-1.07a1.5,1.5,0,0,0-2-.45,1.54,1.54,0,0,0-.58,2.05,1.73,1.73,0,0,0,3.24-.85,1.79,1.79,0,0,0-3.26-1,1.59,1.59,0,0,0,2.15,2.26c.69-.34.08-1.31-.6-1Z" transform="translate(-0.01 -0.04)"/><path class="cls-1" d="M38.16,23.47c-.11,0-.08.05-.17-.07s-.12-.18-.11-.23,0-.14.16-.13c.53,0,.21.71-.17.66l.64.83a2.63,2.63,0,0,0-.09-.93.81.81,0,0,0-1.56,0,2.63,2.63,0,0,0-.09.93.9.9,0,0,0,.87.87A2.21,2.21,0,0,0,40,23.52a1.91,1.91,0,0,0-1.83-2.07,1.64,1.64,0,1,0,.17,3.25.63.63,0,0,0-.16-1.23Z" transform="translate(-0.01 -0.04)"/><path class="cls-1" d="M1.93,24c-.06,0-.32-.33-.24-.45s.13.07.21.11.13.08,0,.13a.32.32,0,0,1-.35-.1.84.84,0,0,0-1-.33.81.81,0,0,0-.47,1,1.91,1.91,0,0,0,2.77.87,1.72,1.72,0,0,0,0-2.94A1.67,1.67,0,0,0,.11,23.28a1.73,1.73,0,0,0,2.14,1.85A.61.61,0,0,0,1.93,24Z" transform="translate(-0.01 -0.04)"/><path class="cls-1" d="M9.62,33.14c-.3,0-.51-.47-.1-.47,0,0-.2.18,0,.07s0,.1,0,0a2.09,2.09,0,0,0,0-.26c.1-.83-1.11-1-1.48-.4a1.64,1.64,0,0,0,1.85,2.31,1.74,1.74,0,0,0,.78-2.75A1.75,1.75,0,0,0,8,32a1.72,1.72,0,0,0,1.67,2.46.66.66,0,0,0,0-1.32Z" transform="translate(-0.01 -0.04)"/><path class="cls-1" d="M19.89,43c-.47,0-1-.74-.58-1.06.26-.2,1,.17.87.52a.59.59,0,0,1-.6.33c-.13,0-.12-.24-.08-.38a.33.33,0,0,1,.11-.17s.11.08.1.08a.4.4,0,0,1,.05-.15c-.15.25.31-.41.06-.09.08-.09.12.14,0,0,0,.05.14.09.18.17a.81.81,0,0,0-1.58.22,1.43,1.43,0,0,0,1.91,1.27,1.51,1.51,0,0,0,.83-2.28A1.79,1.79,0,0,0,18.5,41a2.15,2.15,0,0,0-.63,2.23c.64,2,3.57,1.49,4-.4a2.27,2.27,0,0,0-3.38-2.23,2,2,0,0,0-.64,2.58,2.09,2.09,0,0,0,2.27,1.23c.77-.1.59-1.43-.19-1.37Z" transform="translate(-0.01 -0.04)"/><path class="cls-1" d="M29.7,33.35a.55.55,0,0,1-.23-.71c.14-.17.55-.06.63.12s0,.18-.05.28.06,0,.06,0h-.05c0,.14.05.28-.11.28s-.3-.31,0-.33c-1.09.09-1.11,1.79,0,1.72a1.61,1.61,0,0,0,1.49-1.23,1.48,1.48,0,0,0-.92-1.76,1.54,1.54,0,0,0-1.58,2.56,1.74,1.74,0,0,0,2.81-1.7,2,2,0,0,0-3.11-1.26,1.86,1.86,0,0,0,.73,3.28.65.65,0,0,0,.35-1.25Z" transform="translate(-0.01 -0.04)"/><path class="cls-1" d="M47.39,19.94c3.58.11,7.17.15,10.75.08a.71.71,0,0,0,0-1.42c-3.58-.06-7.17,0-10.75.08a.63.63,0,0,0,0,1.26Z" transform="translate(-0.01 -0.04)"/><path class="cls-1" d="M52.21,11.81c0,4.32-.23,8.68,0,13a.72.72,0,0,0,1.44,0c.18-4.32,0-8.68,0-13a.68.68,0,0,0-1.35,0Z" transform="translate(-0.01 -0.04)"/><path class="cls-1" d="M40.89,36.22c3.41,0,6.83.16,10.25.06a.72.72,0,0,0,0-1.44c-3.42-.1-6.84,0-10.25.06a.66.66,0,0,0,0,1.32Z" transform="translate(-0.01 -0.04)"/><path class="cls-1" d="M45.48,29.06c0,4.57-.29,9.18-.07,13.75a.73.73,0,0,0,1.46,0c.21-4.57-.06-9.18-.08-13.75a.66.66,0,0,0-1.31,0Z" transform="translate(-0.01 -0.04)"/></g></g></svg>