<svg xmlns="http://www.w3.org/2000/svg" viewBox="0 0 90 29.73"><defs><style>.cls-1{fill:#49403a;}</style></defs><title>アセット 1</title><g id="レイヤー_2" data-name="レイヤー 2"><g id="レイヤー_1-2" data-name="レイヤー 1"><path class="cls-1" d="M89.17,22.53c-.16-.32-.1-.36-.26-.68s-.24-.26-.4-.58-.1-.36-.26-.67-.19-.31-.35-.63-.23-.27-.39-.59-.21-.29-.38-.61-.07-.37-.23-.69-.17-.31-.34-.62,0-.39-.21-.71-.22-.28-.38-.6-.19-.29-.35-.61-.25-.26-.41-.58-.26-.26-.42-.57.09-.48-.07-.8-.31-.22-.47-.54-.25-.26-.41-.58-.36-.36-.35-.72.2-.41.37-.73.27-.25.45-.57.11-.36.28-.68.29-.25.46-.57,0-.4.22-.71.25-.28.42-.6.35-.19.53-.51,0-.4.22-.72.3-.24.47-.56-.09-.49.08-.81.1-.36.27-.68.3-.24.47-.55.34-.21.51-.53.07-.38.24-.7.28-.25.45-.57.16-.33.33-.64,0-.41.21-.73.64-.38.47-.7-.45-.14-.79-.14-.34.1-.67.1-.34.06-.67.06-.34.11-.68.11-.33.09-.66.09S86.13.26,85.8.26s-.33-.17-.67-.17-.34.13-.67.13-.33-.07-.67-.07-.33.23-.66.23-.34-.24-.68-.24-.33.33-.66.33-.34-.28-.67-.28-.33,0-.66,0-.34.05-.67.05-.34,0-.67,0-.33-.06-.67-.06-.33.17-.66.17-.34-.2-.67-.2-.34.11-.67.11-.33,0-.66,0-.34-.19-.67-.19-.34,0-.67,0-.34,0-.67,0-.33.19-.67.19-.33-.17-.66-.17-.33-.08-.67-.08-.33.33-.67.33-.33-.14-.66-.14-.33.15-.67.15-.33-.29-.67-.29-.33,0-.66,0h-.67c-.33,0-.33.27-.66.27s-.33,0-.67,0-.33-.32-.66-.32-.33.1-.66.1-.33.18-.67.18h-.67c-.33,0-.33-.17-.66-.17S62.8.06,62.47.06s-.34.29-.67.29-.34,0-.67,0-.33,0-.66,0-.33-.19-.66-.19-.34,0-.67,0-.34.39-.67.39-.33-.4-.66-.4-.34.35-.67.35-.33-.18-.67-.18h-.66c-.34,0-.34-.13-.67-.13s-.33.21-.66.21-.34-.2-.67-.2-.33.13-.66.13-.34,0-.67,0-.33-.1-.67-.1h-.67c-.33,0-.33.16-.66.16s-.33.06-.67.06-.33-.05-.66-.05-.34.07-.67.07-.33,0-.66,0-.33-.28-.67-.28-.33.37-.66.37-.34,0-.67,0-.33-.28-.66-.28-.34.13-.67.13-.33,0-.67,0-.33-.12-.66-.12-.33.37-.67.37h-.66c-.34,0-.34-.09-.67-.09H40.5c-.34,0-.34-.26-.67-.26s-.34.29-.66.29-.34,0-.67,0-.33,0-.66,0S37.5.18,37.17.18s-.33.16-.66.16-.33-.28-.67-.28-.33.2-.66.2-.33-.09-.67-.09-.33-.11-.66-.11-.33.16-.67.16-.33-.11-.66-.11-.33.32-.67.32-.33-.26-.66-.26-.34.19-.67.19-.33-.1-.66-.1-.34.18-.67.18-.33-.36-.66-.36-.34.2-.67.2-.33.17-.66.17-.34-.07-.67-.07-.33-.3-.66-.3-.34.3-.67.3h-.66c-.33,0-.33-.21-.66-.21s-.34.08-.67.08-.33-.07-.66-.07-.33-.08-.66-.08-.33.24-.67.24-.33-.11-.66-.11-.33-.13-.67-.13-.33.17-.66.17-.33.22-.66.22S18.24.41,17.9.41s-.33,0-.66,0-.33-.23-.66-.23-.34,0-.67,0-.33-.11-.66-.11-.34.32-.67.32S14.25.2,13.92.2s-.33-.14-.67-.14-.33.23-.67.23-.33.1-.66.1-.33,0-.66,0h-.67c-.33,0-.33,0-.66,0S9.6.3,9.26.3,8.93.05,8.6.05s-.33.43-.67.43S7.6.06,7.27.06s-.33.18-.66.18-.33.1-.66.1S5.62.16,5.28.16s-.33,0-.66,0S4.29.42,4,.42s-.33,0-.66,0S3,.37,2.64.37,2.3.46,2,.46s-.34-.2-.67-.2S1,.33.65.33.31.07,0,.07V24H.08c.34,0,.34-.08.67-.08s.34,0,.67,0h.67c.33,0,.33-.22.66-.22s.34,0,.67,0,.34.23.67.23.33.08.67.08.33-.06.66-.06.34.06.67.06.34-.29.67-.29.33.18.67.18.33-.16.66-.16.34.14.67.14h.66c.34,0,.34.17.67.17s.33-.17.67-.17.33-.09.66-.09.34.3.67.3.33-.24.66-.24h.67c.33,0,.33,0,.66,0s.34-.07.67-.07.33.21.66.21.34-.24.67-.24.33.17.67.17.33,0,.66,0,.33-.13.67-.13.33-.09.66-.09.34-.06.67-.06.33.25.66.25.34-.15.67-.15.33.26.66.26.34-.33.67-.33.33.38.67.38.33-.19.66-.19.34.1.67.1.33-.33.66-.33.34.38.67.38.33-.36.67-.36.33.24.66.24.33,0,.67,0,.33,0,.66,0,.33.05.67.05.34-.07.67-.07.33-.29.66-.29h.67c.33,0,.33.35.67.35h.66c.33,0,.33-.3.66-.3h.67c.33,0,.33.28.67.28s.33-.17.66-.17.33-.08.66-.08.34,0,.67,0,.33.17.67.17.33-.14.66-.14.34.05.67.05.33.29.67.29.33-.15.66-.15.33.09.67.09.33-.11.66-.11.33-.06.67-.06.33.07.66.07.33.19.66.19.34-.12.67-.12.33-.18.66-.18.34.12.67.12h.66c.33,0,.33-.23.67-.23s.33.18.66.18.33.21.67.21.33,0,.66,0h1.34c.33,0,.33-.28.66-.28s.33.18.67.18.33-.26.66-.26.34,0,.67,0,.33,0,.66,0,.34.06.67.06.33.16.66.16.33-.15.66-.15.34-.05.67-.05H56c.33,0,.33,0,.67,0s.33.3.66.3.33-.19.66-.19.33.07.66.07.34,0,.67,0,.33.12.66.12.33,0,.66,0,.34-.18.67-.18.33.13.66.13.34.18.66.18.34-.39.67-.39.33.1.66.1.34-.11.67-.11.33,0,.66,0,.34.09.67.09.33.25.66.25.34-.25.67-.25.33.14.67.14.33-.08.66-.08.33.08.66.08.34-.17.67-.17.33.17.67.17.33,0,.66,0h.66c.33,0,.33-.11.67-.11s.33-.17.66-.17.33,0,.66,0,.33.14.66.14.34.23.67.23.33-.38.66-.38.33.36.66.36.33-.15.66-.15.34.07.66.07.34-.15.67-.15.33.11.66.11.33-.2.66-.2.33.23.66.23.33-.27.66-.27h.67c.33,0,.33.2.66.2s.33-.1.66-.1.33.17.66.17h.66c.34,0,.34,0,.67,0s.33,0,.66,0h.66c.33,0,.33-.16.66-.16s.34.17.67.17.33-.05.66-.05,1.31.37,1.48.05S89.34,22.85,89.17,22.53ZM84.78,2.71h.93a.34.34,0,0,1,0,.68h-.93a.34.34,0,0,1,0-.68ZM4,21.52H2.08a.34.34,0,0,1,0-.68H4a.34.34,0,0,1,0,.68ZM4,3.39H2.08a.34.34,0,0,1,0-.68H4a.34.34,0,0,1,0,.68ZM8.3,21.52H6.44a.34.34,0,0,1,0-.68H8.3a.34.34,0,0,1,0,.68Zm0-18.13H6.44a.34.34,0,0,1,0-.68H8.3a.34.34,0,0,1,0,.68Zm4.35,18.13H10.79a.34.34,0,0,1,0-.68h1.86a.34.34,0,0,1,0,.68Zm0-18.13H10.79a.34.34,0,0,1,0-.68h1.86a.34.34,0,0,1,0,.68ZM17,21.52H15.14a.34.34,0,0,1,0-.68H17a.34.34,0,0,1,0,.68ZM17,3.39H15.14a.34.34,0,0,1,0-.68H17a.32.32,0,0,1,.3.34A.32.32,0,0,1,17,3.39Zm4.35,18.13H19.5a.34.34,0,0,1,0-.68h1.86a.34.34,0,0,1,0,.68Zm0-18.13H19.5a.32.32,0,0,1-.31-.34.32.32,0,0,1,.31-.34h1.86a.34.34,0,0,1,0,.68Zm4.35,18.13H23.85a.34.34,0,0,1,0-.68h1.86a.34.34,0,0,1,0,.68Zm0-18.13H23.85a.34.34,0,0,1,0-.68h1.86a.34.34,0,0,1,0,.68Zm4.35,18.13H28.2a.34.34,0,0,1,0-.68h1.86a.34.34,0,0,1,0,.68Zm0-18.13H28.2a.34.34,0,0,1,0-.68h1.86a.34.34,0,0,1,0,.68Zm4.36,18.13H32.55a.34.34,0,0,1,0-.68h1.87a.34.34,0,0,1,0,.68Zm0-18.13H32.55a.34.34,0,0,1,0-.68h1.87a.32.32,0,0,1,.3.34A.32.32,0,0,1,34.42,3.39Zm4.35,18.13H36.9a.34.34,0,0,1,0-.68h1.87a.34.34,0,0,1,0,.68Zm0-18.13H36.9a.32.32,0,0,1-.3-.34.32.32,0,0,1,.3-.34h1.87a.34.34,0,0,1,0,.68Zm4.35,18.13H41.26a.34.34,0,0,1,0-.68h1.86a.34.34,0,0,1,0,.68Zm0-18.13H41.26A.32.32,0,0,1,41,3.05a.32.32,0,0,1,.31-.34h1.86a.34.34,0,0,1,0,.68Zm4.35,18.13H45.61a.34.34,0,0,1,0-.68h1.86a.34.34,0,0,1,0,.68Zm0-18.13H45.61a.34.34,0,0,1,0-.68h1.86a.32.32,0,0,1,.31.34A.32.32,0,0,1,47.47,3.39Zm4.36,18.13H50a.34.34,0,0,1,0-.68h1.87a.34.34,0,0,1,0,.68Zm0-18.13H50a.34.34,0,0,1,0-.68h1.87a.34.34,0,0,1,0,.68Zm4.35,18.13H54.31a.34.34,0,0,1,0-.68h1.87a.34.34,0,0,1,0,.68Zm0-18.13H54.31a.34.34,0,0,1,0-.68h1.87a.34.34,0,0,1,0,.68Zm4.35,18.13H58.66a.34.34,0,0,1,0-.68h1.87a.34.34,0,0,1,0,.68Zm0-18.13H58.66a.32.32,0,0,1-.3-.34.32.32,0,0,1,.3-.34h1.87a.34.34,0,0,1,0,.68Zm4.36,18.13H63a.34.34,0,0,1,0-.68h1.87a.34.34,0,0,1,0,.68Zm0-18.13H63a.34.34,0,0,1,0-.68h1.87a.32.32,0,0,1,.3.34A.32.32,0,0,1,64.89,3.39Zm4.34,18.13H67.37a.34.34,0,0,1,0-.68h1.86a.34.34,0,0,1,0,.68Zm0-18.13H67.37a.34.34,0,0,1,0-.68h1.86a.34.34,0,0,1,0,.68Zm4.36,18.13H71.72a.34.34,0,0,1,0-.68h1.87a.34.34,0,0,1,0,.68Zm0-18.13H71.72a.32.32,0,0,1-.3-.34.32.32,0,0,1,.3-.34h1.87a.34.34,0,0,1,0,.68Zm4.35,18.13H76.08a.34.34,0,0,1,0-.68h1.86a.34.34,0,0,1,0,.68Zm0-18.13H76.08a.34.34,0,0,1,0-.68h1.86a.34.34,0,0,1,0,.68Zm4.35,18.13H80.43a.34.34,0,0,1,0-.68h1.86a.34.34,0,0,1,0,.68Zm0-18.13H80.43a.34.34,0,0,1,0-.68h1.86a.32.32,0,0,1,.31.34A.32.32,0,0,1,82.29,3.39Zm3.42,18.13h-.93a.34.34,0,0,1,0-.68h.93a.34.34,0,0,1,0,.68Z"/><polygon class="cls-1" points="6.82 29.73 5.55 28.79 4.28 27.85 3 26.91 1.72 25.97 0.44 25.02 2.56 25.02 4.69 25.02 6.82 25.02 6.82 26.59 6.82 28.16 6.82 29.73"/></g></g></svg>