<svg xmlns="http://www.w3.org/2000/svg" viewBox="0 0 39.8 36.2"><defs><style>.cls-1{fill:#352722;}</style></defs><title>アセット 6</title><g id="レイヤー_2" data-name="レイヤー 2"><g id="レイヤー_1-2" data-name="レイヤー 1"><path class="cls-1" d="M3.24,30.63a92.16,92.16,0,0,1-1.1-22A9.48,9.48,0,0,1,3.25,4.35c1.41-2.18,4.08-1.92,6.37-2C14,2.2,18.42,2,22.82,1.9c2.1-.06,4.21-.1,6.32,0,1.94.07,5.26-.23,6.77,1,1.28,1.07,1.33,4,1.57,5.64a65.14,65.14,0,0,1,.69,7.25,50.41,50.41,0,0,1-.69,12.69c-1.09,5-6,5-10.21,5.38a88,88,0,0,1-14.34.33c-3.4-.26-8.29.43-9.49-3.63a.91.91,0,0,0-1.75.48c.92,3.08,3.09,4.29,6.17,4.62A89.81,89.81,0,0,0,23,36c4.15-.26,10.33.16,13.78-2.62,3.09-2.49,3-7.45,3.19-11a70,70,0,0,0-1-16.16c-.26-1.48-.34-3.62-1.52-4.73C36,.2,33.28.32,31.56.19,25.74-.25,19.85.19,14,.4,10.36.53,4.63-.46,2.09,2.93,0,5.74.36,9.76.35,13.07c0,6,0,12.12,1.54,17.93C2.12,31.89,3.38,31.5,3.24,30.63Z" transform="translate(-0.24)"/><path class="cls-1" d="M17.7,23.11c-1.19,0-2.44-1.27-3.08-2.19a3.78,3.78,0,0,1,0-4.42,6.49,6.49,0,0,1,8-2.66,4.8,4.8,0,0,1,1.82,7.79c-2.38,2.56-5.73,2.11-8.61.79a.75.75,0,0,0-.76,1.3c3.54,2.51,8.89,1.88,11.32-1.89a6.49,6.49,0,0,0-3.21-9.61,8.22,8.22,0,0,0-10.47,4.34c-1.34,3.19,1.12,8.26,5,7.77.76-.09.81-1.26,0-1.22Z" transform="translate(-0.24)"/><path class="cls-1" d="M19,20a1.07,1.07,0,0,1-1.1-1.36,2.25,2.25,0,0,1,1.17-1.29c1.95-1.09,2.55,1.51.76,1.9-.71.16-2.07-.25-1.61-1.14.24-.48,1.32-.77,1.79-.82a1.91,1.91,0,0,1,1.59.42c.69.72-.2,1.47-.78,1.88s-2.78,1.43-3.15,0c-.31-1.25,1.64-2.48,2.64-2.59.8-.09,1.53.36,1.14,1.23a2.12,2.12,0,0,1-1.36,1.1c-.79.19-1.35-.27-.55-.94.05,0,.67-.49.69-.17,0,.17-.8.44-.69.65l.09.67a2,2,0,0,1,1.43-1.45l-1-.39,0,.33c-.39,1,1,1.35,1.55.66l.3-.39c.56-.75-.71-1.74-1.32-1l-.31.37,1.33,1a1.88,1.88,0,0,0-.06-1.85.86.86,0,0,0-1-.39c-1.11.38-2.77,1.47-2.67,2.86s1.77,1.3,2.68.8A2.32,2.32,0,0,0,21.83,17c-.67-1.29-2.11-1.07-3.08-.26s-2,2.51-.8,3.69a3,3,0,0,0,3.38.26,3.47,3.47,0,0,0,2-3.3,2.7,2.7,0,0,0-2.77-2.22c-2.57,0-6.22,3.39-4,5.9,2,2.23,6.4.35,7-2.3a2.66,2.66,0,0,0-1.88-3,4.55,4.55,0,0,0-4.1.64c-1.16.81-1.88,2.15-.83,3.38a3.61,3.61,0,0,0,4.1.89,3,3,0,0,0,1.6-3.78,2.7,2.7,0,0,0-3.79-1.25c-1.33.6-2.6,1.89-2.44,3.46a2.39,2.39,0,0,0,3,2.13c.65-.21.58-1.3-.17-1.26Z" transform="translate(-0.24)"/><path class="cls-1" d="M.82,10.07c6,.1,12-.36,18-.58s12-.41,18-.71c1,0,1-1.63,0-1.59-6,.19-12,.51-18,.77s-12,.3-18,.9a.61.61,0,0,0,0,1.21Z" transform="translate(-0.24)"/><path class="cls-1" d="M32.31,4.69c.07.12-.12-.19,0-.1-.1-.07-.13.18-.23-.06l.11-.31c.12-.06.2,0,.26.17.42.45,0,.08.07.29,0,0,.17.1.17.1.24-.4.28-.55.13-.47a.2.2,0,0,1-.11,0,2.53,2.53,0,0,0-.27,0c-.16,0-.12-.1,0,0l.2.35,0-.1V5l-.05.08-.35.2h.1a.76.76,0,0,0,.55-.73.81.81,0,0,0-.55-.74c-.79-.31-1.43.6-1.2,1.31a1.5,1.5,0,0,0,1.56.82,1.6,1.6,0,0,0,1.51-.83,1.44,1.44,0,0,0-.77-1.74,1.59,1.59,0,0,0-1.88.18,1.36,1.36,0,0,0-.11,1.81,1.25,1.25,0,0,0,1.95-1.55,1.32,1.32,0,0,0-1.83-.33,1.4,1.4,0,0,0-.3,1.89c.45.7,1.55.07,1.12-.65Z" transform="translate(-0.24)"/></g></g></svg>