<svg xmlns="http://www.w3.org/2000/svg" viewBox="0 0 45.98 53.31"><defs><style>.cls-1{fill:#352722;}</style></defs><title>アセット 7</title><g id="レイヤー_2" data-name="レイヤー 2"><g id="レイヤー_1-2" data-name="レイヤー 1"><path class="cls-1" d="M14.06,15.48a9.58,9.58,0,0,1-4.89-5.16c-.83-1.81-2.33-5.61-.94-7.47C11-.81,12.68,6.65,13,8.15a26.34,26.34,0,0,1,.51,7.46l1.22-.69C11.67,13.55,1.25,7.38.09,14.33c-1,6,7,7.06,10.76,4.53,2.59-1.77,4-4.47,5.44-7.14a13,13,0,0,1,1.92-3,2.84,2.84,0,0,1,1.1-.82L20,7.55l1.28,1.9c.3,2.38-3.83,4.09-5.51,4.48-1.12.26-2.86-.08-3.74.68-1.12,1-1.81,3.44-2.33,4.79-.89,2.27-2.52,5.94-1,8.26,1.44,2.15,3.84,1.47,5-.48A14.14,14.14,0,0,0,14.9,16.7l-1.6.44c1,2.8,5.95,11.27,9.5,6.38a4.21,4.21,0,0,0-.12-4.83c-1.91-2.74-5.63-2.94-8.42-4.24-1-.47-1.84,1-.85,1.46,2.35,1.09,6,1.26,7.68,3.37a3.09,3.09,0,0,1,.69,2.61c-1.13,2.81-3.37.47-4.17-.39a13.44,13.44,0,0,1-2.71-4.8.83.83,0,0,0-1.6.44,13,13,0,0,1,.17,6.05,7.88,7.88,0,0,1-1,2.88q-.85,2.14-2.63-1.56c.07-.41.17-.81.28-1.21a31.71,31.71,0,0,1,2.14-5.79c.9-1.86,1.67-1.64,3.49-2a9.13,9.13,0,0,0,6.49-4.1c.84-1.48,1.23-3.73-.22-5-4.15-3.59-8,6.37-9.42,8.37-2,2.76-7.84,6.32-10.35,2-1.88-3.26,1-4.23,3.16-3.9A13.07,13.07,0,0,1,8.52,14l5.41,2.36a.82.82,0,0,0,1.22-.7,27.19,27.19,0,0,0-2-12.16C12.21,1.1,10-1.4,7.6,1.09,5.34,3.4,6.33,7.26,7.38,9.88c1.23,3.09,3.16,5.66,6.33,6.86.79.3,1.11-.94.35-1.26Z" transform="translate(0 -0.06)"/><path class="cls-1" d="M36.47,35a15.76,15.76,0,0,1,.23-6.7c.27-.88.85-2.69,1.72-3.15,2.5-1.34,2.51,1.38,2.24,3A13,13,0,0,1,38,34.07c-.46.58-.67,1.13-1.47,1.06s-.43-.16-.88-.74c-.67-.86-1.1-1.89-1.8-2.76-1.46-1.8-4.27-4.71-6.8-3.07s-1.67,5.12-.65,7.36c1.1,2.41,3.22,4,5.88,2.9,1.46-.57,2.59-1.74,4-2.43a10,10,0,0,1,4.27-1A4.69,4.69,0,0,1,43,36a2.43,2.43,0,0,1,.31,3.76c-2.15,2-4.82-2.07-6.08-3.15a3.41,3.41,0,0,0-3.59-.68c-2.51.91-4.56,4.67-4.72,7.22a3.57,3.57,0,0,0,5,3.55c3.63-1.43,3.33-5.92,2.81-9-.15-.88-1.35-.69-1.6,0a9.2,9.2,0,0,0,3.56,10.76.81.81,0,0,0,1-.13c3.17-3.88.58-8.22-2.49-11.22-.76-.74-1.94.44-1.17,1.17,2.32,2.2,5.15,5.8,2.5,8.9l1-.13a7.57,7.57,0,0,1-2.78-8.91h-1.6a12.27,12.27,0,0,1,.24,3.82c-.18,1.36-1.19,3.6-3,3.4-3.17-.34-1.48-3.63-.86-4.8a6.43,6.43,0,0,1,1-1.54q.55-1.21,2.1-.75c1-.6,1.76-.48,2.22.37,2,1.7,3.67,4,6.67,2.88a3.59,3.59,0,0,0,2-5.2C44.07,33.57,40.61,33.39,38,34a13.38,13.38,0,0,0-4.46,2.16c-1,.7-1.88,1.4-3.21,1.16-1.57-.29-2.21-1.5-2.72-2.94a4.79,4.79,0,0,1-.43-1.77l-.1-.69,2.88-1.76c.79.1,1.92,1.62,2.45,2.22a15.48,15.48,0,0,1,1.88,2.81A5,5,0,0,0,35.36,37c2.08,1.5,4.48-2.52,5.27-4,1.26-2.3,2.51-5.82,1.46-8.42-1.14-2.83-3.87-2-5.37.06-2.23,3-2.18,7.07-1.52,10.58.16.84,1.39.46,1.27-.35Z" transform="translate(0 -0.06)"/><path class="cls-1" d="M8.72,43C7.88,43.56,7,39.47,7,39c0-1.13.44-4,2-2.74,1.94,1.52.67,5.8-.36,7.38l1.31.76a9.54,9.54,0,0,1,5-4.55c1.38-.85,1.95-.16,1.72,2.09a5.13,5.13,0,0,1-2.15,1,7.84,7.84,0,0,1-4.27-.11l-.21,1.53A4.79,4.79,0,0,1,14,46.7c.75,1.31,1.17,4.43-.76,4.57-2.47.18-3-5.46-3-7.25,0-1-1.45-1-1.55,0-.25,2.24-1.93,5-4.46,4.92-2.77,0-3-3.13-1-4.46,1.63-1.08,3.41-.46,4.81.76.78.69,1.93-.46,1.14-1.15-2-1.71-4.78-2.55-7.09-.88A4.19,4.19,0,0,0,.82,48.74C2,50.74,4.3,51,6.27,50.09a7.36,7.36,0,0,0,4-6.07H8.72c0,2.81.6,6,2.51,8.22,1,1.2,2.56,1.62,3.73.35,3.62-3.93-.54-9.42-4.91-9.77-.88-.07-1,1.3-.2,1.53A8.92,8.92,0,0,0,17,43.64c1.44-.94,2.57-2.72,1.56-4.37-2.69-4.39-8.57,1.93-10,4.35-.5.85.76,1.56,1.31.76a8.26,8.26,0,0,0,1-7.84c-.64-1.65-2.06-3.87-3.9-2.27s-2,5.12-1.2,7.3c.5,1.31,2.07,4,3.67,2.45a.64.64,0,0,0-.77-1Z" transform="translate(0 -0.06)"/></g></g></svg>