<?xml version="1.0" encoding="utf-8"?>
<!-- Generator: Adobe Illustrator 23.0.4, SVG Export Plug-In . SVG Version: 6.00 Build 0)  -->
<svg version="1.1" id="レイヤー_1" xmlns="http://www.w3.org/2000/svg" xmlns:xlink="http://www.w3.org/1999/xlink" x="0px"
	 y="0px" viewBox="0 0 210 35" style="enable-background:new 0 0 210 35;" xml:space="preserve">
<style type="text/css">
	.st0{opacity:0.8;}
	.st1{opacity:0.6;clip-path:url(#SVGID_2_);}
	.st2{opacity:0.6;}
	.st3{clip-path:url(#SVGID_4_);}
	.st4{opacity:0.4;clip-path:url(#SVGID_6_);fill-rule:evenodd;clip-rule:evenodd;fill:#86B81B;}
</style>
<g class="st0">
	<defs>
		<path id="SVGID_1_" class="st0" d="M209.2,34.3c-0.3,0.8-0.4-0.1-1.1-0.1s-0.7,0.8-1.5,0.8c-0.7,0-0.7-0.4-1.4-0.4
			s-0.7,0.3-1.4,0.3c-0.7,0-0.7-0.6-1.4-0.6c-0.7,0-0.7-0.2-1.4-0.2c-0.7,0-0.7,0.4-1.4,0.4c-0.7,0-0.7-0.3-1.4-0.3
			c-0.7,0-0.7,0.2-1.4,0.2c-0.7,0-0.7-0.3-1.4-0.3c-0.7,0-0.7,0-1.4,0c-0.7,0-0.7,0-1.4,0s-0.7,0.3-1.4,0.3c-0.7,0-0.7,0.4-1.4,0.4
			c-0.7,0-0.7-0.8-1.4-0.8c-0.7,0-0.7,0.3-1.5,0.3c-0.7,0-0.7,0.3-1.5,0.3s-0.7,0.1-1.4,0.1s-0.7,0.2-1.5,0.2s-0.7-0.3-1.5-0.3
			c-0.7,0-0.7,0-1.5,0c-0.7,0-0.7-0.3-1.5-0.3c-0.7,0-0.7,0.1-1.5,0.1c-0.7,0-0.7,0.2-1.5,0.2c-0.7,0-0.7,0.1-1.5,0.1
			c-0.7,0-0.7-0.2-1.5-0.2c-0.7,0-0.7,0.2-1.5,0.2c-0.7,0-0.7-0.2-1.5-0.2c-0.7,0-0.7-0.4-1.5-0.4c-0.7,0-0.7,0.3-1.5,0.3
			c-0.7,0-0.7,0.2-1.5,0.2c-0.7,0-0.7-0.7-1.5-0.7c-0.7,0-0.7,0.7-1.5,0.7c-0.7,0-0.7,0.3-1.5,0.3c-0.7,0-0.7-0.6-1.5-0.6
			c-0.7,0-0.7-0.3-1.5-0.3c-0.7,0-0.7,0.8-1.5,0.8c-0.7,0-0.7-0.1-1.5-0.1s-0.7-0.6-1.5-0.6c-0.7,0-0.7,0.6-1.5,0.6
			c-0.7,0-0.7-0.6-1.5-0.6c-0.7,0-0.7,0.9-1.5,0.9c-0.7,0-0.7-0.9-1.5-0.9c-0.7,0-0.7,0.1-1.5,0.1c-0.7,0-0.7-0.1-1.5-0.1
			c-0.7,0-0.7,0.8-1.5,0.8c-0.7,0-0.7-0.6-1.5-0.6c-0.7,0-0.7-0.1-1.5-0.1c-0.7,0-0.7,0.3-1.5,0.3c-0.7,0-0.7,0.5-1.5,0.5
			c-0.7,0-0.7,0-1.5,0c-0.7,0-0.7-1-1.5-1c-0.7,0-0.7,0.9-1.5,0.9c-0.7,0-0.7-0.4-1.5-0.4c-0.7,0-0.7,0.4-1.5,0.4
			c-0.7,0-0.7-0.6-1.5-0.6c-0.7,0-0.7,0.1-1.5,0.1c-0.7,0-0.7,0.6-1.5,0.6c-0.7,0-0.7,0-1.5,0c-0.7,0-0.7-0.4-1.5-0.4
			c-0.7,0-0.7,0.1-1.5,0.1c-0.7,0-0.7-0.2-1.5-0.2s-0.7,0.4-1.5,0.4c-0.7,0-0.7-0.5-1.5-0.5c-0.7,0-0.7,0.2-1.5,0.2
			c-0.7,0-0.7,0.2-1.5,0.2c-0.7,0-0.7-0.1-1.5-0.1c-0.7,0-0.7,0-1.5,0c-0.7,0-0.7,0.2-1.5,0.2c-0.7,0-0.7-0.3-1.5-0.3
			c-0.7,0-0.7,0.4-1.5,0.4c-0.7,0-0.7-0.3-1.5-0.3c-0.7,0-0.7-0.2-1.5-0.2c-0.7,0-0.7-0.1-1.5-0.1c-0.7,0-0.7,0-1.5,0
			c-0.7,0-0.7-0.1-1.5-0.1c-0.7,0-0.7-0.2-1.5-0.2c-0.7,0-0.7,0-1.5,0c-0.7,0-0.7,0-1.5,0c-0.7,0-0.7,0.9-1.5,0.9
			c-0.7,0-0.7-0.6-1.5-0.6c-0.7,0-0.7,0.2-1.5,0.2c-0.7,0-0.7,0.4-1.5,0.4c-0.7,0-0.7-0.4-1.5-0.4c-0.7,0-0.7-0.2-1.5-0.2
			c-0.7,0-0.7,0-1.5,0c-0.7,0-0.7,0.1-1.5,0.1c-0.7,0-0.7,0.1-1.5,0.1c-0.7,0-0.7,0.3-1.5,0.3c-0.7,0-0.7-0.6-1.5-0.6
			C78,34.3,78,35,77.3,35c-0.7,0-0.7-0.3-1.5-0.3c-0.7,0-0.7-0.4-1.5-0.4c-0.7,0-0.7,0-1.5,0c-0.7,0-0.7,0.5-1.5,0.5S70.7,35,70,35
			c-0.7,0-0.7-0.8-1.4-0.8c-0.7,0-0.7,0.6-1.5,0.6c-0.7,0-0.7-0.1-1.5-0.1c-0.7,0-0.7-0.2-1.5-0.2c-0.7,0-0.7-0.4-1.5-0.4
			s-0.7,0.7-1.5,0.7c-0.7,0-0.7,0-1.5,0c-0.7,0-0.7-0.1-1.5-0.1c-0.7,0-0.7-0.1-1.5-0.1c-0.7,0-0.7,0.3-1.5,0.3
			c-0.7,0-0.7,0.1-1.5,0.1c-0.7,0-0.7-0.6-1.5-0.6c-0.7,0-0.7,0.5-1.5,0.5c-0.7,0-0.7-0.5-1.5-0.5c-0.7,0-0.7-0.2-1.5-0.2
			c-0.7,0-0.7,0.8-1.5,0.8c-0.7,0-0.7-0.1-1.5-0.1c-0.7,0-0.7-0.4-1.5-0.4c-0.7,0-0.7,0.5-1.5,0.5c-0.7,0-0.7-0.2-1.5-0.2
			c-0.7,0-0.7-0.4-1.5-0.4c-0.7,0-0.7,0.7-1.5,0.7c-0.7,0-0.7-0.7-1.5-0.7c-0.7,0-0.7-0.1-1.5-0.1c-0.7,0-0.7,0-1.5,0
			c-0.7,0-0.7,0.1-1.5,0.1c-0.7,0-0.7-0.1-1.5-0.1c-0.7,0-0.7,0.7-1.5,0.7c-0.7,0-0.7-0.5-1.5-0.5C27,34.2,27,35,26.3,35
			s-0.7-0.1-1.5-0.1c-0.7,0-0.7-0.2-1.5-0.2c-0.7,0-0.7-0.2-1.5-0.2c-0.7,0-0.7-0.2-1.5-0.2c-0.7,0-0.7,0-1.5,0c-0.7,0-0.7,0-1.5,0
			c-0.7,0-0.7-0.2-1.5-0.2c-0.7,0-0.7,0.6-1.5,0.6c-0.7,0-0.7-0.2-1.5-0.2c-0.7,0-0.7-0.5-1.5-0.5c-0.7,0-0.7,0.7-1.5,0.7
			c-0.7,0-0.7,0-1.5,0c-0.7,0-0.7-0.5-1.5-0.5c-0.7,0-0.7-0.1-1.5-0.1c-0.7,0-0.7,0.1-1.5,0.1c-0.7,0-0.7,0.3-1.5,0.3
			c-0.7,0-0.7-0.4-1.5-0.4c-0.7,0-0.9,0.9-1.3,0.1C-0.3,33.6,0.6,34,1,33.3c0.4-0.7,0.3-0.8,0.7-1.5C2.1,31,2,30.9,2.4,30.2
			c0.4-0.7,0.2-0.9,0.6-1.6c0.4-0.7,0.3-0.8,0.7-1.5c0.4-0.7,0.7-0.5,1.1-1.2c0.4-0.7,0.4-0.8,0.8-1.5C6,23.6,6.2,23.7,6.6,23
			c0.4-0.7,0.2-0.9,0.6-1.6c0.4-0.7-0.1-1.2,0.3-1.9c0.4-0.7,0.7-0.5,1.1-1.2c0.4-0.7,1.1-0.6,1.1-1.5c0-0.9-0.4-1-0.9-1.7
			c-0.4-0.7-0.5-0.6-1-1.4c-0.4-0.7-0.3-0.8-0.7-1.6c-0.4-0.7-0.5-0.6-1-1.4c-0.4-0.7-0.6-0.6-1-1.3C4.6,8.7,4.9,8.5,4.4,7.8
			C4,7,3.7,7.3,3.2,6.6c-0.4-0.7-0.6-0.6-1-1.4C1.8,4.5,2.2,4.1,1.7,3.4C1.3,2.7,0.9,3,0.5,2.2C0,1.5-0.2,1.5,0.2,0.7
			c0.3-0.8,0.5,0,1.2,0c0.7,0,0.7-0.3,1.4-0.3c0.7,0,0.7,0.6,1.4,0.6C5,0.9,5,0.3,5.7,0.3s0.7-0.2,1.4-0.2c0.7,0,0.7,0.1,1.4,0.1
			c0.7,0,0.7,0.5,1.4,0.5c0.7,0,0.7-0.1,1.4-0.1c0.7,0,0.7,0.1,1.4,0.1c0.7,0,0.7-0.2,1.4-0.2c0.7,0,0.7,0.2,1.4,0.2
			c0.7,0,0.7-0.3,1.4-0.3c0.7,0,0.7,0,1.4,0c0.7,0,0.7,0.1,1.4,0.1c0.7,0,0.7,0,1.4,0c0.7,0,0.7-0.2,1.5-0.2s0.7-0.1,1.5-0.1
			c0.7,0,0.7,0,1.4,0c0.7,0,0.7,0.1,1.5,0.1c0.7,0,0.7-0.2,1.5-0.2c0.7,0,0.7,0,1.5,0c0.7,0,0.7,1,1.5,1c0.7,0,0.7-0.6,1.5-0.6
			c0.7,0,0.7-0.2,1.5-0.2s0.7,0.4,1.5,0.4c0.7,0,0.7-0.4,1.5-0.4c0.7,0,0.7,0.8,1.5,0.8c0.7,0,0.7-0.8,1.5-0.8c0.7,0,0.7,0,1.5,0
			c0.7,0,0.7-0.2,1.5-0.2c0.7,0,0.7,0.8,1.5,0.8c0.7,0,0.7-0.5,1.5-0.5c0.7,0,0.7-0.1,1.5-0.1c0.7,0,0.7,0.3,1.5,0.3
			c0.7,0,0.7-0.4,1.5-0.4c0.7,0,0.7-0.2,1.5-0.2c0.7,0,0.7,0.7,1.5,0.7c0.7,0,0.7,0.1,1.5,0.1c0.7,0,0.7,0,1.5,0
			c0.7,0,0.7-0.7,1.5-0.7c0.7,0,0.7,0.6,1.5,0.6c0.7,0,0.7,0,1.5,0c0.7,0,0.7,0.1,1.5,0.1c0.7,0,0.7-0.7,1.5-0.7
			c0.7,0,0.7,0.4,1.5,0.4c0.7,0,0.7-0.5,1.5-0.5c0.7,0,0.7,0.2,1.5,0.2c0.7,0,0.7,0.7,1.5,0.7c0.7,0,0.7-0.6,1.5-0.6
			c0.7,0,0.7-0.2,1.5-0.2c0.7,0,0.7,0.4,1.5,0.4c0.7,0,0.7-0.3,1.5-0.3c0.7,0,0.7,0.5,1.5,0.5c0.7,0,0.7,0.1,1.5,0.1
			C79,0.9,79,0,79.8,0C80.5,0,80.5,1,81.2,1C82,1,82,0.4,82.7,0.4c0.7,0,0.7-0.1,1.5-0.1c0.7,0,0.7,0,1.5,0s0.7,0.1,1.5,0.1
			c0.7,0,0.7,0.5,1.5,0.5c0.7,0,0.7-0.5,1.5-0.5c0.7,0,0.7,0.5,1.5,0.5c0.7,0,0.7-0.8,1.5-0.8s0.7,0.5,1.5,0.5
			c0.7,0,0.7-0.6,1.5-0.6c0.7,0,0.7,0.2,1.5,0.2C98,0.3,98,0,98.7,0c0.7,0,0.7,0.3,1.5,0.3c0.7,0,0.7,0,1.5,0c0.7,0,0.7,0.3,1.5,0.3
			c0.7,0,0.7,0.3,1.5,0.3c0.7,0,0.7,0.1,1.5,0.1c0.7,0,0.7-1,1.5-1c0.7,0,0.7,0.9,1.5,0.9c0.7,0,0.7-0.9,1.5-0.9
			c0.7,0,0.7,0.2,1.5,0.2c0.7,0,0.7-0.3,1.5-0.3c0.7,0,0.7,0.9,1.5,0.9c0.7,0,0.7-0.2,1.5-0.2c0.7,0,0.7-0.4,1.5-0.4
			c0.7,0,0.7,0.5,1.5,0.5c0.7,0,0.7,0,1.5,0c0.7,0,0.7-0.1,1.5-0.1c0.7,0,0.7-0.3,1.5-0.3c0.7,0,0.7-0.2,1.5-0.2
			c0.7,0,0.7,0.7,1.5,0.7c0.7,0,0.7-0.2,1.5-0.2c0.7,0,0.7,0,1.5,0c0.7,0,0.7,0,1.5,0c0.7,0,0.7,0,1.5,0c0.7,0,0.7,0,1.5,0
			c0.7,0,0.7-0.3,1.5-0.3c0.7,0,0.7,0.4,1.5,0.4c0.7,0,0.7-0.6,1.5-0.6c0.7,0,0.7-0.1,1.4-0.1c0.7,0,0.7,0.8,1.5,0.8
			c0.7,0,0.7-0.8,1.4-0.8c0.7,0,0.7,0.7,1.5,0.7s0.7-0.6,1.5-0.6s0.7,0.7,1.5,0.7c0.7,0,0.7,0,1.5,0c0.7,0,0.7,0,1.5,0
			c0.7,0,0.7-0.6,1.5-0.6c0.7,0,0.7,0.2,1.5,0.2c0.7,0,0.7,0.3,1.5,0.3c0.7,0,0.7-0.6,1.5-0.6c0.7,0,0.7,0.6,1.5,0.6
			c0.7,0,0.7-0.7,1.5-0.7c0.7,0,0.7,0.5,1.5,0.5c0.7,0,0.7-0.3,1.5-0.3c0.7,0,0.7-0.2,1.5-0.2c0.7,0,0.7,0.1,1.5,0.1
			c0.7,0,0.7,0.4,1.5,0.4c0.7,0,0.7,0.2,1.5,0.2c0.7,0,0.7,0.2,1.5,0.2c0.7,0,0.7,0,1.5,0c0.7,0,0.7-0.8,1.5-0.8
			c0.7,0,0.7,0.6,1.5,0.6c0.7,0,0.7-0.3,1.5-0.3c0.7,0,0.7-0.4,1.5-0.4c0.7,0,0.7,0.3,1.5,0.3c0.7,0,0.7-0.3,1.5-0.3
			c0.7,0,0.7,0,1.5,0c0.7,0,0.7,0.7,1.5,0.7c0.7,0,0.7,0.3,1.5,0.3c0.7,0,0.7-0.4,1.5-0.4c0.7,0,0.7-0.4,1.5-0.4
			c0.7,0,0.7,0.5,1.5,0.5c0.7,0,0.7-0.7,1.5-0.7c0.7,0,0.7,0.3,1.5,0.3c0.7,0,0.7,0.2,1.5,0.2c0.7,0,0.7-0.4,1.5-0.4
			c0.7,0,0.7,0.5,1.5,0.5c0.7,0,0.7-0.7,1.5-0.7c0.7,0,0.7,0.7,1.5,0.7c0.7,0,0.7-0.3,1.5-0.3c0.7,0,0.7,0.1,1.5,0.1
			c0.7,0,0.7,0.4,1.5,0.4c0.7,0,0.7-0.6,1.5-0.6c0.7,0,0.7,0,1.5,0c0.7,0,0.7-0.3,1.5-0.3c0.7,0,0.7,0.6,1.5,0.6
			c0.7,0,1.5-1.2,1.9-0.4c0.3,0.8-1.1,0.7-1.5,1.5c-0.4,0.7-0.5,0.7-0.9,1.4c-0.4,0.7-0.4,0.8-0.8,1.5c-0.4,0.7,0,1.1-0.4,1.9
			c-0.4,0.7-0.8,0.4-1.2,1.2c-0.4,0.7-0.3,0.8-0.7,1.6c-0.4,0.7-0.3,0.8-0.8,1.6c-0.4,0.7-0.5,0.7-1,1.4c-0.4,0.7-0.2,1-0.6,1.7
			c-0.4,0.7-0.6,0.6-1,1.4c-0.4,0.7-1.1,0.5-1.2,1.4c0,0.9,0.9,0.5,1.3,1.2c0.4,0.7,0.1,0.9,0.5,1.7c0.4,0.7,0.4,0.7,0.8,1.5
			c0.4,0.7,0.2,0.9,0.6,1.6c0.4,0.7,0.6,0.5,1,1.3c0.4,0.7,0.4,0.8,0.8,1.5c0.4,0.7,0.3,0.8,0.6,1.6c0.4,0.7,0.5,0.6,0.9,1.3
			c0.4,0.7,0.7,0.5,1.1,1.3c0.4,0.7-0.1,1.1,0.3,1.9c0.4,0.7,0.4,0.8,0.9,1.4C209.2,33.6,209.6,33.5,209.2,34.3z"/>
	</defs>
	<clipPath id="SVGID_2_">
		<use xlink:href="#SVGID_1_"  style="overflow:visible;"/>
	</clipPath>
	<g class="st1">
		<defs>
			<path id="SVGID_3_" class="st2" d="M221.6,99.4h-280c-2.2,0-4-1.8-4-4v-154c0-2.2,1.8-4,4-4h280c2.2,0,4,1.8,4,4v154
				C225.6,97.6,223.8,99.4,221.6,99.4z"/>
		</defs>
		<clipPath id="SVGID_4_">
			<use xlink:href="#SVGID_3_"  style="overflow:visible;"/>
		</clipPath>
		<g class="st3">
			<defs>
				<rect id="SVGID_5_" x="-62.8" y="-107.6" width="288" height="288"/>
			</defs>
			<use xlink:href="#SVGID_5_"  style="overflow:visible;opacity:0.4;fill:#E0E8D4;"/>
			<clipPath id="SVGID_6_">
				<use xlink:href="#SVGID_5_"  style="overflow:visible;opacity:0.4;"/>
			</clipPath>
			<path class="st4" d="M225.2-79.1c-2.5,0-4.8,0-7.3,0c-2.1,0-4.1,0-6.2,0c-2.2,0-4.6,0-6.4-0.1c-2.3-0.2-3.8,0.1-5.6,0.1
				c-0.6,0-1.2-0.1-1.8-0.1c-2.6-0.1-5.2-0.2-7.8,0.1c-1.9-0.2-3.6-0.2-8-0.3c-1.9,0-3.5,0.2-5.3,0.1c-2-0.1-4.1,0-6.2,0
				c-1.3,0-2.5-0.1-3.7-0.2c-1.1,0.1-2.2,0.2-3.2,0.2c-1.4,0-2.3-0.3-4.1-0.1c-1,0.1-2.6-0.1-4-0.1c-9.9-0.1-19.8,0.2-29.6-0.2
				c-17.2,0-34.5,0-51.7,0c-0.7,0-1.5,0.1-2,0.2c-1-0.1-2.2-0.2-2.8-0.1c-2,0.3-4.2,0.2-6.4,0.2c-11.7,0-23.4,0-35.2,0
				c-2.3,0-4.7-0.2-6.8,0.2c-0.4,0.1-1.6,0-1.9,0c-1.1-0.3-2.5-0.2-3.8-0.2c-3.3,0-6.6,0.1-9.9,0.2c-6.3,0.2-12.8,0.2-19.2,0.3
				c-0.7,0-1.4,0-2.1,0c-0.4,0-0.8,0.1-1,0.2c-0.6-0.1-1.2-0.2-1.8-0.2c-2.1,0-4.1,0-6.2,0c-1.9,0-3.8,0-5.7,0c-1.8,0-3.4-0.1-5.4,0
				c-4.6,0.3-9.4-0.3-14.2,0c-0.3-0.1-0.7-0.1-0.9-0.2c-1.9,0.1-3.6,0.2-5.4,0.2c-2,0-4.1,0-6.1,0c-0.1,0-0.2,0-0.4,0.1v2.6
				c3.3,0,6.5,0,9.6,0c3.6-0.1,6.9,0.3,10.4,0.2c3,0,6,0.1,8.9-0.2c1.4-0.1,3.4,0,5.1,0c1.4,0,3,0.1,4.4-0.1c1.7-0.3,3,0.1,4.6,0.2
				c1.6,0,3-0.3,4.5-0.1c1.9,0.2,3.5-0.1,5.1-0.1c5.1,0,10-0.4,15.1-0.3c2,0,4.4,0.2,6.3-0.2c0.3-0.1,1.6-0.1,1.9,0
				c1.3,0.3,2.9,0.1,4.3,0.2c2.7,0.1,5.2-0.2,7.9-0.2c6.7,0,13.4,0,20.2,0c6.8,0,13.6,0.2,20.5-0.2c0.4,0.1,1.1,0.1,1.7,0.2
				c0.6-0.1,1-0.2,1.3-0.3c1.6,0.1,2.6,0.2,3.7,0.2c1.2,0,2.8,0.1,3.5,0c1.7-0.3,2.8,0.2,4.5,0.1c1.4-0.1,3.1,0,4.6,0
				c1.6,0,3.2-0.1,4.8-0.2c0.3,0,0.8,0,0.9,0.1c0.9,0.3,2.2,0.2,3.3,0.2c7.2,0,14.5,0,21.7,0c0.9,0,1.8,0,2.6,0
				c6.7-0.3,8-0.3,14.7,0c1.4,0.1,3.4,0.1,4.4-0.1c2-0.3,3.1,0.1,4.6,0.1c2.1-0.4,4.2-0.2,6.2,0c0.6-0.1,0.9-0.2,1.3-0.3
				c0.4,0.1,0.7,0.1,0.9,0.2c0.9-0.1,1.7-0.2,2.4-0.2c4,0.1,7.9,0,12,0.2c4.5,0.2,9.3,0,14,0.2c2.9,0.1,5.9,0,8.9,0.2
				c1.7,0.1,3.8,0,5.8-0.2c1.7-0.2,3.6,0.4,5.7,0.2c1.1-0.1,2.5-0.3,3.1-0.2c2.3,0.3,4.3,0,6.4,0c2.8,0,5.2,0.1,7.5-0.2
				c1.5-0.2,2.5,0.3,4.9,0.4c0.6,0.2,2.9,0.1,3.6,0.3c0,0,0.1,0,0.1,0V-79.1z"/>
			<path class="st4" d="M225.2-93.2c-2.4,0.1-4.4-0.2-7.3-0.1c-2.1,0.1-4.1,0.1-6.2,0c-2.2-0.1-4.6,0.1-6.4-0.4
				c-2.3-0.7-3.8,0.3-5.6,0.4c-0.6,0-1.2-0.3-1.8-0.4c-2.6-0.3-5.2-0.8-7.8,0.4c-1.9-0.6-3.6-0.6-8-0.8c-1.9-0.1-3.5,0.5-5.3,0.3
				c-2-0.3-4.1,0-6.2-0.1c-1.3-0.1-2.5-0.4-3.7-0.6c-1.1,0.2-2.2,0.6-3.2,0.5c-1.4-0.1-2.3-1-4.1-0.4c-1,0.4-2.6-0.2-4-0.3
				c-9.9-0.4-19.8,0.7-29.6-0.7c-17.2,0-34.5,0-51.7,0c-0.7,0-1.5,0.3-2,0.5c-1-0.2-2.2-0.7-2.8-0.4c-2,0.9-4.2,0.6-6.4,0.6
				c-11.7,0-23.4,0-35.2,0c-2.3,0-4.7-0.6-6.8,0.6c-0.4,0.2-1.6,0.1-1.9-0.1c-1.1-0.9-2.5-0.5-3.8-0.5c-3.3,0-6.6,0.2-9.9,0.6
				c-6.3,0.6-12.8,0.6-19.2,0.8c-0.7,0-1.4-0.1-2.1,0c-0.4,0.1-0.8,0.4-1,0.6c-0.6-0.2-1.2-0.6-1.8-0.6c-2.1-0.1-4.1,0-6.2,0
				c-1.9,0-3.8,0-5.7,0c-1.8,0-3.4-0.5-5.4-0.1c-4.6,0.9-9.4-1.1-14.2,0.1c-0.3-0.2-0.7-0.4-0.9-0.6c-1.9,0.2-3.6,0.5-5.4,0.6
				c-2,0.1-4.1,0-6.1,0c-0.1,0.1-0.2,0.2-0.4,0.2v8.2c3.3,0,6.5,0.1,9.6-0.1c3.6-0.2,6.9,0.9,10.4,0.7c3-0.1,6,0.3,8.9-0.6
				c1.4-0.5,3.4,0,5.1-0.1c1.4-0.1,3,0.4,4.4-0.5c1.7-1,3,0.5,4.6,0.6c1.6,0.1,3-0.8,4.5-0.3c1.9,0.6,3.5-0.3,5.1-0.3
				c5.1,0,10-1.2,15.1-0.9c2,0.1,4.4,0.6,6.3-0.6c0.3-0.2,1.6-0.2,1.9,0.1c1.3,1,2.9,0.4,4.3,0.6c2.7,0.4,5.2-0.6,7.9-0.7
				c6.7-0.1,13.4,0.1,20.2-0.1c6.8-0.1,13.6,0.6,20.5-0.6c0.4,0.2,1.1,0.5,1.7,0.7c0.6-0.4,1-0.6,1.3-0.8c1.6,0.3,2.6,0.6,3.7,0.7
				c1.2,0.1,2.8,0.3,3.5-0.1c1.7-0.9,2.8,0.6,4.5,0.2c1.4-0.3,3.1,0,4.6-0.1c1.6-0.1,3.2-0.5,4.8-0.7c0.3,0,0.8,0,0.9,0.2
				c0.9,0.8,2.2,0.5,3.3,0.5c7.2,0,14.5,0,21.7,0c0.9,0,1.8,0.1,2.6,0c6.7-0.9,8-0.9,14.7,0c1.4,0.2,3.4,0.2,4.4-0.3
				c2-1,3.1,0.2,4.6,0.4c2.1-1.3,4.2-0.7,6.2,0.1c0.6-0.4,0.9-0.6,1.3-0.8c0.4,0.2,0.7,0.4,0.9,0.5c0.9-0.2,1.7-0.6,2.4-0.5
				c4,0.2,7.9-0.1,12,0.5c4.5,0.7,9.3,0.1,14,0.8c2.9,0.4,5.9,0,8.9,0.7c1.7,0.4,3.8,0.1,5.8-0.5c1.7-0.5,3.6,1.1,5.7,0.6
				c1.1-0.2,2.5-0.9,3.1-0.6c2.3,1,4.3,0,6.4,0c2.8,0.1,5.2,1.1,7.4,0.2c1.5-0.6,2.5,0.2,4.9,0.4c2.1,1.7,2.2-0.6,3.8,0.8
				c0,0,0,0,0,0V-93.2z"/>
			<path class="st4" d="M225.2-102.5c-2.5,0-4.4-0.1-7.3,0c-2.1,0-4.1,0-6.2,0c-2.2,0-4.6,0-6.4-0.1c-2.3-0.2-3.8,0.1-5.6,0.1
				c-0.6,0-1.2-0.1-1.8-0.1c-2.6-0.1-5.2-0.2-7.8,0.1c-1.9-0.2-3.6-0.2-8-0.3c-1.9,0-3.5,0.2-5.3,0.1c-2-0.1-4.1,0-6.2,0
				c-1.3,0-2.5-0.1-3.7-0.2c-1.1,0.1-2.2,0.2-3.2,0.2c-1.4,0-2.3-0.3-4.1-0.1c-1,0.1-2.6-0.1-4-0.1c-9.9-0.1-19.8,0.2-29.6-0.2
				c-17.2,0-34.5,0-51.7,0c-0.7,0-1.5,0.1-2,0.1c-1-0.1-2.2-0.2-2.8-0.1c-2,0.3-4.2,0.2-6.4,0.2c-11.7,0-23.4,0-35.2,0
				c-2.3,0-4.7-0.2-6.8,0.2c-0.4,0.1-1.6,0-1.9,0c-1.1-0.3-2.5-0.2-3.8-0.2c-3.3,0-6.6,0.1-9.9,0.2c-6.3,0.2-12.8,0.2-19.2,0.3
				c-0.7,0-1.4,0-2.1,0c-0.4,0-0.8,0.1-1,0.2c-0.6-0.1-1.2-0.2-1.8-0.2c-2.1,0-4.1,0-6.2,0c-1.9,0-3.8,0-5.7,0c-1.8,0-3.4-0.2-5.4,0
				c-4.6,0.3-9.4-0.3-14.2,0c-0.3-0.1-0.7-0.1-0.9-0.2c-1.9,0.1-3.6,0.2-5.4,0.2c-2,0-4.1,0-6.1,0c-0.1,0-0.2,0-0.4,0.1v2.6
				c3.3,0,6.5,0,9.6,0c3.6-0.1,6.9,0.3,10.4,0.2c3,0,6,0.1,8.9-0.2c1.4-0.1,3.4,0,5.1,0c1.4,0,3,0.1,4.4-0.2c1.7-0.3,3,0.1,4.6,0.2
				c1.6,0,3-0.3,4.5-0.1c1.9,0.2,3.5-0.1,5.1-0.1c5.1,0,10-0.4,15.1-0.3c2,0,4.4,0.2,6.3-0.2c0.3-0.1,1.6-0.1,1.9,0
				c1.3,0.3,2.9,0.1,4.3,0.2c2.7,0.1,5.2-0.2,7.9-0.2c6.7,0,13.4,0,20.2,0c6.8,0,13.6,0.2,20.5-0.2c0.4,0.1,1.1,0.1,1.7,0.2
				c0.6-0.1,1-0.2,1.3-0.3c1.6,0.1,2.6,0.2,3.7,0.2c1.2,0,2.8,0.1,3.5,0c1.7-0.3,2.8,0.2,4.5,0.1c1.4-0.1,3.1,0,4.6,0
				c1.6,0,3.2-0.1,4.8-0.2c0.3,0,0.8,0,0.9,0.1c0.9,0.3,2.2,0.2,3.3,0.2c7.2,0,14.5,0,21.7,0c0.9,0,1.8,0,2.6,0
				c6.7-0.3,8-0.3,14.7,0c1.4,0.1,3.4,0.1,4.4-0.1c2-0.3,3.1,0.1,4.6,0.1c2.1-0.4,4.2-0.2,6.2,0c0.6-0.1,0.9-0.2,1.3-0.3
				c0.4,0.1,0.7,0.1,0.9,0.2c0.9-0.1,1.7-0.2,2.4-0.2c4,0.1,7.9,0,12,0.2c4.5,0.2,9.3,0,14,0.2c2.9,0.1,5.9,0,8.9,0.2
				c1.7,0.1,3.8,0,5.8-0.2c1.7-0.2,3.6,0.4,5.7,0.2c1.1-0.1,2.5-0.3,3.1-0.2c2.3,0.3,4.3,0,6.4,0c2.8,0,5.2-0.2,7.4-0.5
				c1.5-0.2,2.7,0.6,5.1,0.6c0.6,0.2,2.2,0.1,2.9,0.2c0.3,0,0.5,0,0.7,0V-102.5z"/>
			<path class="st4" d="M225.2-43.1c-2.5,0-4.8,0-7.3,0c-2.1,0-4.1,0-6.2,0c-2.2,0-4.6,0-6.4-0.1c-2.3-0.2-3.8,0.1-5.6,0.1
				c-0.6,0-1.2-0.1-1.8-0.1c-2.6-0.1-5.2-0.2-7.8,0.1c-1.9-0.2-3.6-0.2-8-0.3c-1.9,0-3.5,0.2-5.3,0.1c-2-0.1-4.1,0-6.2,0
				c-1.3,0-2.5-0.1-3.7-0.2c-1.1,0.1-2.2,0.2-3.2,0.2c-1.4,0-2.3-0.3-4.1-0.1c-1,0.1-2.6-0.1-4-0.1c-9.9-0.1-19.8,0.2-29.6-0.2
				c-17.2,0-34.5,0-51.7,0c-0.7,0-1.5,0.1-2,0.2c-1-0.1-2.2-0.2-2.8-0.1c-2,0.3-4.2,0.2-6.4,0.2c-11.7,0-23.4,0-35.2,0
				c-2.3,0-4.7-0.2-6.8,0.2c-0.4,0.1-1.6,0-1.9,0c-1.1-0.3-2.5-0.2-3.8-0.2c-3.3,0-6.6,0.1-9.9,0.2c-6.3,0.2-12.8,0.2-19.2,0.3
				c-0.7,0-1.4,0-2.1,0c-0.4,0-0.8,0.1-1,0.2c-0.6-0.1-1.2-0.2-1.8-0.2c-2.1,0-4.1,0-6.2,0c-1.9,0-3.8,0-5.7,0c-1.8,0-3.4-0.2-5.4,0
				c-4.6,0.3-9.4-0.3-14.2,0c-0.3-0.1-0.7-0.1-0.9-0.2c-1.9,0.1-3.6,0.2-5.4,0.2c-2,0-4.1,0-6.1,0c-0.1,0-0.2,0-0.4,0.1v2.6
				c3.3,0,6.5,0,9.6,0c3.6-0.1,6.9,0.3,10.4,0.2c3,0,6,0.1,8.9-0.2c1.4-0.1,3.4,0,5.1,0c1.4,0,3,0.1,4.4-0.1c1.7-0.3,3,0.1,4.6,0.2
				c1.6,0,3-0.3,4.5-0.1c1.9,0.2,3.5-0.1,5.1-0.1c5.1,0,10-0.4,15.1-0.3c2,0,4.4,0.2,6.3-0.2c0.3-0.1,1.6-0.1,1.9,0
				c1.3,0.3,2.9,0.1,4.3,0.2c2.7,0.1,5.2-0.2,7.9-0.2c6.7,0,13.4,0,20.2,0c6.8,0,13.6,0.2,20.5-0.2c0.4,0.1,1.1,0.1,1.7,0.2
				c0.6-0.1,1-0.2,1.3-0.3c1.6,0.1,2.6,0.2,3.7,0.2c1.2,0,2.8,0.1,3.5,0c1.7-0.3,2.8,0.2,4.5,0.1c1.4-0.1,3.1,0,4.6,0
				c1.6,0,3.2-0.1,4.8-0.2c0.3,0,0.8,0,0.9,0.1c0.9,0.3,2.2,0.2,3.3,0.2c7.2,0,14.5,0,21.7,0c0.9,0,1.8,0,2.6,0
				c6.7-0.3,8-0.3,14.7,0c1.4,0.1,3.4,0.1,4.4-0.1c2-0.3,3.1,0.1,4.6,0.1c2.1-0.4,4.2-0.2,6.2,0c0.6-0.1,0.9-0.2,1.3-0.3
				c0.4,0.1,0.7,0.1,0.9,0.2c0.9-0.1,1.7-0.2,2.4-0.2c4,0.1,7.9,0,12,0.2c4.5,0.2,9.3,0,14,0.3c2.9,0.1,5.9,0,8.9,0.2
				c1.7,0.1,3.8,0,5.8-0.2c1.7-0.2,3.6,0.4,5.7,0.2c1.1-0.1,2.5-0.3,3.1-0.2c2.3,0.3,4.3,0,6.4,0c2.8,0,5.2,0.1,7.5-0.2
				c1.5-0.2,2.5,0.3,4.9,0.4c0.6,0.2,2.9,0.1,3.6,0.3c0,0,0.1,0,0.1,0V-43.1z"/>
			<path class="st4" d="M225.2-57.2c-2.4,0.1-4.4-0.1-7.3-0.1c-2.1,0.1-4.1,0.1-6.2,0c-2.2-0.1-4.6,0.1-6.4-0.4
				c-2.3-0.7-3.8,0.3-5.6,0.4c-0.6,0-1.2-0.3-1.8-0.4c-2.6-0.3-5.2-0.8-7.8,0.4c-1.9-0.6-3.6-0.6-8-0.8c-1.9-0.1-3.5,0.5-5.3,0.3
				c-2-0.3-4.1,0-6.2-0.1c-1.3-0.1-2.5-0.4-3.7-0.6c-1.1,0.2-2.2,0.6-3.2,0.5c-1.4-0.1-2.3-1-4.1-0.4c-1,0.4-2.6-0.2-4-0.3
				c-9.9-0.4-19.8,0.7-29.6-0.7c-17.2,0-34.5,0-51.7,0c-0.7,0-1.5,0.3-2,0.5c-1-0.2-2.2-0.7-2.8-0.4c-2,0.9-4.2,0.6-6.4,0.6
				c-11.7,0-23.4,0-35.2,0c-2.3,0-4.7-0.6-6.8,0.6c-0.4,0.2-1.6,0.1-1.9-0.1c-1.1-0.9-2.5-0.5-3.8-0.6c-3.3,0-6.6,0.2-9.9,0.6
				c-6.3,0.6-12.8,0.6-19.2,0.8c-0.7,0-1.4-0.1-2.1,0c-0.4,0.1-0.8,0.4-1,0.6c-0.6-0.2-1.2-0.6-1.8-0.6c-2.1-0.1-4.1,0-6.2,0
				c-1.9,0-3.8,0-5.7,0c-1.8,0-3.4-0.5-5.4-0.1c-4.6,0.9-9.4-1.1-14.2,0.1c-0.3-0.2-0.7-0.4-0.9-0.6c-1.9,0.2-3.6,0.5-5.4,0.6
				c-2,0.1-4.1,0-6.1,0c-0.1,0.1-0.2,0.2-0.4,0.2v8.2c3.3,0,6.5,0.1,9.6-0.1c3.6-0.2,6.9,0.9,10.4,0.7c3-0.1,6,0.3,8.9-0.6
				c1.4-0.5,3.4,0,5.1-0.1c1.4-0.1,3,0.4,4.4-0.5c1.7-1,3,0.5,4.6,0.6c1.6,0.1,3-0.8,4.5-0.3c1.9,0.6,3.5-0.3,5.1-0.3
				c5.1,0,10-1.2,15.1-0.9c2,0.1,4.4,0.6,6.3-0.6c0.3-0.2,1.6-0.2,1.9,0.1c1.3,1,2.9,0.4,4.3,0.6c2.7,0.4,5.2-0.6,7.9-0.7
				c6.7-0.1,13.4,0.1,20.2-0.1c6.8-0.1,13.6,0.6,20.5-0.6c0.4,0.2,1.1,0.5,1.7,0.7c0.6-0.4,1-0.6,1.3-0.8c1.6,0.3,2.6,0.6,3.7,0.7
				c1.2,0.1,2.8,0.3,3.5-0.1c1.7-0.9,2.8,0.6,4.5,0.2c1.4-0.3,3.1,0,4.6-0.1c1.6-0.1,3.2-0.5,4.8-0.7c0.3,0,0.8,0,0.9,0.2
				c0.9,0.8,2.2,0.5,3.3,0.5c7.2,0,14.5,0,21.7,0c0.9,0,1.8,0.1,2.6,0c6.7-0.9,8-0.9,14.7,0c1.4,0.2,3.4,0.2,4.4-0.3
				c2-1,3.1,0.2,4.6,0.4c2.1-1.3,4.2-0.6,6.2,0.1c0.6-0.4,0.9-0.6,1.3-0.8c0.4,0.2,0.7,0.4,0.9,0.5c0.9-0.2,1.7-0.6,2.4-0.5
				c4,0.2,7.9-0.1,12,0.5c4.5,0.7,9.3,0.1,14,0.8c2.9,0.4,5.9-0.1,8.9,0.7c1.7,0.4,3.8,0.1,5.8-0.5c1.7-0.5,3.6,1.1,5.7,0.6
				c1.1-0.2,2.5-0.9,3.1-0.6c2.3,1,4.3,0,6.4,0c2.8,0.1,5.2,1.1,7.4,0.2c1.5-0.6,2.5,0.2,4.9,0.4c2.1,1.7,2.2-0.6,3.8,0.8
				c0,0,0,0,0,0V-57.2z"/>
			<path class="st4" d="M225.2-66.5c-2.5,0-4.4-0.1-7.3,0c-2.1,0-4.1,0-6.2,0c-2.2,0-4.6,0-6.4-0.1c-2.3-0.2-3.8,0.1-5.6,0.1
				c-0.6,0-1.2-0.1-1.8-0.1c-2.6-0.1-5.2-0.2-7.8,0.1c-1.9-0.2-3.6-0.2-8-0.3c-1.9,0-3.5,0.2-5.3,0.1c-2-0.1-4.1,0-6.2,0
				c-1.3,0-2.5-0.1-3.7-0.2c-1.1,0.1-2.2,0.2-3.2,0.2c-1.4,0-2.3-0.3-4.1-0.1c-1,0.1-2.6-0.1-4-0.1c-9.9-0.1-19.8,0.2-29.6-0.2
				c-17.2,0-34.5,0-51.7,0c-0.7,0-1.5,0.1-2,0.2c-1-0.1-2.2-0.2-2.8-0.1c-2,0.3-4.2,0.2-6.4,0.2c-11.7,0-23.4,0-35.2,0
				c-2.3,0-4.7-0.2-6.8,0.2c-0.4,0.1-1.6,0-1.9,0c-1.1-0.3-2.5-0.2-3.8-0.2c-3.3,0-6.6,0.1-9.9,0.2c-6.3,0.2-12.8,0.2-19.2,0.3
				c-0.7,0-1.4,0-2.1,0c-0.4,0-0.8,0.1-1,0.2c-0.6-0.1-1.2-0.2-1.8-0.2c-2.1,0-4.1,0-6.2,0c-1.9,0-3.8,0-5.7,0c-1.8,0-3.4-0.2-5.4,0
				c-4.6,0.3-9.4-0.3-14.2,0c-0.3-0.1-0.7-0.1-0.9-0.2c-1.9,0.1-3.6,0.2-5.4,0.2c-2,0-4.1,0-6.1,0c-0.1,0-0.2,0-0.4,0.1v2.6
				c3.3,0,6.5,0,9.6,0c3.6-0.1,6.9,0.3,10.4,0.2c3,0,6,0.1,8.9-0.2c1.4-0.1,3.4,0,5.1,0c1.4,0,3,0.1,4.4-0.2c1.7-0.3,3,0.1,4.6,0.2
				c1.6,0,3-0.3,4.5-0.1c1.9,0.2,3.5-0.1,5.1-0.1c5.1,0,10-0.4,15.1-0.3c2,0,4.4,0.2,6.3-0.2c0.3-0.1,1.6-0.1,1.9,0
				c1.3,0.3,2.9,0.1,4.3,0.2c2.7,0.1,5.2-0.2,7.9-0.2c6.7,0,13.4,0,20.2,0c6.8,0,13.6,0.2,20.5-0.2c0.4,0.1,1.1,0.1,1.7,0.2
				c0.6-0.1,1-0.2,1.3-0.3c1.6,0.1,2.6,0.2,3.7,0.2c1.2,0,2.8,0.1,3.5,0c1.7-0.3,2.8,0.2,4.5,0.1c1.4-0.1,3.1,0,4.6,0
				c1.6,0,3.2-0.1,4.8-0.2c0.3,0,0.8,0,0.9,0.1c0.9,0.3,2.2,0.2,3.3,0.2c7.2,0,14.5,0,21.7,0c0.9,0,1.8,0,2.6,0
				c6.7-0.3,8-0.3,14.7,0c1.4,0.1,3.4,0.1,4.4-0.1c2-0.3,3.1,0.1,4.6,0.1c2.1-0.4,4.2-0.2,6.2,0c0.6-0.1,0.9-0.2,1.3-0.3
				c0.4,0.1,0.7,0.1,0.9,0.2c0.9-0.1,1.7-0.2,2.4-0.2c4,0.1,7.9,0,12,0.2c4.5,0.2,9.3,0,14,0.2c2.9,0.1,5.9,0,8.9,0.2
				c1.7,0.1,3.8,0,5.8-0.2c1.7-0.2,3.6,0.4,5.7,0.2c1.1-0.1,2.5-0.3,3.1-0.2c2.3,0.3,4.3,0,6.4,0c2.8,0,5.2-0.2,7.4-0.5
				c1.5-0.2,2.7,0.6,5.1,0.6c0.6,0.2,2.2,0.1,2.9,0.2c0.3,0,0.5,0,0.7,0V-66.5z"/>
			<path class="st4" d="M225.2-7c-2.5,0-4.8,0-7.3,0c-2.1,0-4.1,0-6.2,0c-2.2,0-4.6,0-6.4-0.1c-2.3-0.2-3.8,0.1-5.6,0.1
				c-0.6,0-1.2-0.1-1.8-0.1c-2.6-0.1-5.2-0.2-7.8,0.1c-1.9-0.2-3.6-0.2-8-0.3c-1.9,0-3.5,0.2-5.3,0.1c-2-0.1-4.1,0-6.2,0
				c-1.3,0-2.5-0.1-3.7-0.2c-1.1,0.1-2.2,0.2-3.2,0.2c-1.4,0-2.3-0.3-4.1-0.1c-1,0.1-2.6-0.1-4-0.1c-9.9-0.1-19.8,0.2-29.6-0.2
				c-17.2,0-34.5,0-51.7,0c-0.7,0-1.5,0.1-2,0.2c-1-0.1-2.2-0.2-2.8-0.1c-2,0.3-4.2,0.2-6.4,0.2c-11.7,0-23.4,0-35.2,0
				c-2.3,0-4.7-0.2-6.8,0.2c-0.4,0.1-1.6,0-1.9,0c-1.1-0.3-2.5-0.2-3.8-0.2c-3.3,0-6.6,0.1-9.9,0.2C-0.8-7.1-7.3-7.1-13.7-7
				c-0.7,0-1.4,0-2.1,0c-0.4,0-0.8,0.1-1,0.2C-17.4-6.9-18-7-18.5-7c-2.1,0-4.1,0-6.2,0c-1.9,0-3.8,0-5.7,0c-1.8,0-3.4-0.2-5.4,0
				c-4.6,0.3-9.4-0.3-14.2,0c-0.3-0.1-0.7-0.1-0.9-0.2c-1.9,0.1-3.6,0.2-5.4,0.2c-2,0-4.1,0-6.1,0c-0.1,0-0.2,0-0.4,0.1v2.6
				c3.3,0,6.5,0,9.6,0c3.6-0.1,6.9,0.3,10.4,0.2c3,0,6,0.1,8.9-0.2c1.4-0.1,3.4,0,5.1,0c1.4,0,3,0.1,4.4-0.1c1.7-0.3,3,0.1,4.6,0.2
				c1.6,0,3-0.3,4.5-0.1c1.9,0.2,3.5-0.1,5.1-0.1c5.1,0,10-0.4,15.1-0.3c2,0,4.4,0.2,6.3-0.2c0.3-0.1,1.6-0.1,1.9,0
				c1.3,0.3,2.9,0.1,4.3,0.2C20.2-4.7,22.7-5,25.4-5c6.7,0,13.4,0,20.2,0c6.8,0,13.6,0.2,20.5-0.2c0.4,0.1,1.1,0.1,1.7,0.2
				c0.6-0.1,1-0.2,1.3-0.3c1.6,0.1,2.6,0.2,3.7,0.2c1.2,0,2.8,0.1,3.5,0C78-5.4,79.1-4.9,80.8-5c1.4-0.1,3.1,0,4.6,0
				c1.6,0,3.2-0.1,4.8-0.2c0.3,0,0.8,0,0.9,0.1C91.9-4.9,93.2-5,94.3-5c7.2,0,14.5,0,21.7,0c0.9,0,1.8,0,2.6,0c6.7-0.3,8-0.3,14.7,0
				c1.4,0.1,3.4,0.1,4.4-0.1c2-0.3,3.1,0.1,4.6,0.1c2.1-0.4,4.2-0.2,6.2,0c0.6-0.1,0.9-0.2,1.3-0.3c0.4,0.1,0.7,0.1,0.9,0.2
				c0.9-0.1,1.7-0.2,2.4-0.2c4,0.1,7.9,0,12,0.2c4.5,0.2,9.3,0,14,0.2c2.9,0.1,5.9,0,8.9,0.2c1.7,0.1,3.8,0,5.8-0.2
				c1.7-0.2,3.6,0.4,5.7,0.2c1.1-0.1,2.5-0.3,3.1-0.2c2.3,0.3,4.3,0,6.4,0c2.8,0,5.2,0.1,7.5-0.2c1.5-0.2,2.5,0.3,4.9,0.4
				c0.6,0.2,2.9,0.1,3.6,0.3c0,0,0.1,0,0.1,0V-7z"/>
			<path class="st4" d="M225.2-21.1c-2.4,0.1-4.4-0.1-7.3-0.1c-2.1,0.1-4.1,0.1-6.2,0c-2.2-0.1-4.6,0.1-6.4-0.4
				c-2.3-0.7-3.8,0.3-5.6,0.4c-0.6,0-1.2-0.3-1.8-0.4c-2.6-0.3-5.2-0.8-7.8,0.4c-1.9-0.6-3.6-0.6-8-0.8c-1.9-0.1-3.5,0.5-5.3,0.3
				c-2-0.3-4.1,0-6.2-0.1c-1.3-0.1-2.5-0.4-3.7-0.6c-1.1,0.2-2.2,0.6-3.2,0.5c-1.4-0.1-2.3-1-4.1-0.4c-1,0.4-2.6-0.2-4-0.3
				c-9.9-0.4-19.8,0.7-29.6-0.7c-17.2,0-34.5,0-51.7,0c-0.7,0-1.5,0.3-2,0.5c-1-0.2-2.2-0.7-2.8-0.4c-2,0.9-4.2,0.6-6.4,0.6
				c-11.7,0-23.4,0-35.2,0c-2.3,0-4.7-0.6-6.8,0.6c-0.4,0.2-1.6,0.1-1.9-0.1c-1.1-0.9-2.5-0.5-3.8-0.6c-3.3,0-6.6,0.2-9.9,0.6
				c-6.3,0.6-12.8,0.6-19.2,0.8c-0.7,0-1.4-0.1-2.1,0c-0.4,0.1-0.8,0.4-1,0.6c-0.6-0.2-1.2-0.6-1.8-0.6c-2.1-0.1-4.1,0-6.2,0
				c-1.9,0-3.8,0-5.7,0c-1.8,0-3.4-0.5-5.4-0.1c-4.6,0.9-9.4-1.1-14.2,0.1c-0.3-0.2-0.7-0.4-0.9-0.6c-1.9,0.2-3.6,0.5-5.4,0.6
				c-2,0.1-4.1,0-6.1,0c-0.1,0.1-0.2,0.2-0.4,0.2v8.2c3.3,0,6.5,0.1,9.6-0.1c3.6-0.2,6.9,0.9,10.4,0.7c3-0.1,6,0.3,8.9-0.6
				c1.4-0.5,3.4,0,5.1-0.1c1.4-0.1,3,0.4,4.4-0.5c1.7-1.1,3,0.5,4.6,0.6c1.6,0.1,3-0.8,4.5-0.3c1.9,0.6,3.5-0.3,5.1-0.3
				c5.1,0,10-1.2,15.1-0.9c2,0.1,4.4,0.6,6.3-0.6c0.3-0.2,1.6-0.2,1.9,0.1c1.3,1,2.9,0.4,4.3,0.6c2.7,0.4,5.2-0.6,7.9-0.7
				c6.7-0.1,13.4,0.1,20.2-0.1c6.8-0.1,13.6,0.6,20.5-0.6c0.4,0.2,1.1,0.5,1.7,0.7c0.6-0.4,1-0.6,1.3-0.8c1.6,0.3,2.6,0.6,3.7,0.7
				c1.2,0.1,2.8,0.3,3.5-0.1c1.7-0.9,2.8,0.6,4.5,0.2c1.4-0.3,3.1,0,4.6-0.1c1.6-0.1,3.2-0.5,4.8-0.7c0.3,0,0.8,0,0.9,0.2
				c0.9,0.8,2.2,0.5,3.3,0.5c7.2,0,14.5,0,21.7,0c0.9,0,1.8,0.1,2.6,0c6.7-0.9,8-0.9,14.7,0c1.4,0.2,3.4,0.2,4.4-0.3
				c2-1,3.1,0.2,4.6,0.4c2.1-1.3,4.2-0.7,6.2,0.1c0.6-0.4,0.9-0.6,1.3-0.8c0.4,0.2,0.7,0.4,0.9,0.5c0.9-0.2,1.7-0.6,2.4-0.5
				c4,0.2,7.9-0.1,12,0.5c4.5,0.7,9.3,0.1,14,0.8c2.9,0.4,5.9,0,8.9,0.7c1.7,0.4,3.8,0.1,5.8-0.5c1.7-0.5,3.6,1.1,5.7,0.6
				c1.1-0.2,2.5-0.9,3.1-0.6c2.3,1,4.3,0,6.4,0c2.8,0.1,5.2,1.1,7.4,0.2c1.5-0.6,2.5,0.2,4.9,0.4c2.1,1.7,2.2-0.6,3.8,0.8
				c0,0,0,0,0,0V-21.1z"/>
			<path class="st4" d="M225.2-30.5c-2.5,0-4.4-0.1-7.3,0c-2.1,0-4.1,0-6.2,0c-2.2,0-4.6,0-6.4-0.1c-2.3-0.2-3.8,0.1-5.6,0.1
				c-0.6,0-1.2-0.1-1.8-0.1c-2.6-0.1-5.2-0.2-7.8,0.1c-1.9-0.2-3.6-0.2-8-0.3c-1.9,0-3.5,0.2-5.3,0.1c-2-0.1-4.1,0-6.2,0
				c-1.3,0-2.5-0.1-3.7-0.2c-1.1,0.1-2.2,0.2-3.2,0.2c-1.4,0-2.3-0.3-4.1-0.1c-1,0.1-2.6-0.1-4-0.1c-9.9-0.1-19.8,0.2-29.6-0.2
				c-17.2,0-34.5,0-51.7,0c-0.7,0-1.5,0.1-2,0.2c-1-0.1-2.2-0.2-2.8-0.1c-2,0.3-4.2,0.2-6.4,0.2c-11.7,0-23.4,0-35.2,0
				c-2.3,0-4.7-0.2-6.8,0.2c-0.4,0.1-1.6,0-1.9,0c-1.1-0.3-2.5-0.2-3.8-0.2c-3.3,0-6.6,0.1-9.9,0.2c-6.3,0.2-12.8,0.2-19.2,0.3
				c-0.7,0-1.4,0-2.1,0c-0.4,0-0.8,0.1-1,0.2c-0.6-0.1-1.2-0.2-1.8-0.2c-2.1,0-4.1,0-6.2,0c-1.9,0-3.8,0-5.7,0c-1.8,0-3.4-0.2-5.4,0
				c-4.6,0.3-9.4-0.3-14.2,0c-0.3-0.1-0.7-0.1-0.9-0.2c-1.9,0.1-3.6,0.2-5.4,0.2c-2,0-4.1,0-6.1,0c-0.1,0-0.2,0-0.4,0.1v2.6
				c3.3,0,6.5,0,9.6,0c3.6-0.1,6.9,0.3,10.4,0.2c3,0,6,0.1,8.9-0.2c1.4-0.1,3.4,0,5.1,0c1.4,0,3,0.1,4.4-0.2c1.7-0.3,3,0.1,4.6,0.2
				c1.6,0,3-0.3,4.5-0.1c1.9,0.2,3.5-0.1,5.1-0.1c5.1,0,10-0.4,15.1-0.3c2,0,4.4,0.2,6.3-0.2c0.3-0.1,1.6-0.1,1.9,0
				c1.3,0.3,2.9,0.1,4.3,0.2c2.7,0.1,5.2-0.2,7.9-0.2c6.7,0,13.4,0,20.2,0c6.8,0,13.6,0.2,20.5-0.2c0.4,0.1,1.1,0.1,1.7,0.2
				c0.6-0.1,1-0.2,1.3-0.3c1.6,0.1,2.6,0.2,3.7,0.2c1.2,0,2.8,0.1,3.5,0c1.7-0.3,2.8,0.2,4.5,0.1c1.4-0.1,3.1,0,4.6,0
				c1.6,0,3.2-0.1,4.8-0.2c0.3,0,0.8,0,0.9,0.1c0.9,0.3,2.2,0.2,3.3,0.2c7.2,0,14.5,0,21.7,0c0.9,0,1.8,0,2.6,0
				c6.7-0.3,8-0.3,14.7,0c1.4,0.1,3.4,0.1,4.4-0.1c2-0.3,3.1,0.1,4.6,0.1c2.1-0.4,4.2-0.2,6.2,0c0.6-0.1,0.9-0.2,1.3-0.3
				c0.4,0.1,0.7,0.1,0.9,0.2c0.9-0.1,1.7-0.2,2.4-0.2c4,0.1,7.9,0,12,0.2c4.5,0.2,9.3,0,14,0.2c2.9,0.1,5.9,0,8.9,0.2
				c1.7,0.1,3.8,0,5.8-0.2c1.7-0.2,3.6,0.4,5.7,0.2c1.1-0.1,2.5-0.3,3.1-0.2c2.3,0.3,4.3,0,6.4,0c2.8,0,5.2-0.2,7.4-0.5
				c1.5-0.2,2.7,0.6,5.1,0.6c0.6,0.2,2.2,0.1,2.9,0.2c0.3,0,0.5,0,0.7,0V-30.5z"/>
			<path class="st4" d="M225.2,29c-2.5,0-4.8,0-7.3,0c-2.1,0-4.1,0-6.2,0c-2.2,0-4.6,0-6.4-0.1c-2.3-0.2-3.8,0.1-5.6,0.1
				c-0.6,0-1.2-0.1-1.8-0.1c-2.6-0.1-5.2-0.2-7.8,0.1c-1.9-0.2-3.6-0.2-8-0.3c-1.9,0-3.5,0.2-5.3,0.1c-2-0.1-4.1,0-6.2,0
				c-1.3,0-2.5-0.1-3.7-0.2c-1.1,0.1-2.2,0.2-3.2,0.2c-1.4,0-2.3-0.3-4.1-0.1c-1,0.1-2.6-0.1-4-0.1c-9.9-0.1-19.8,0.2-29.6-0.2
				c-17.2,0-34.5,0-51.7,0c-0.7,0-1.5,0.1-2,0.2c-1-0.1-2.2-0.2-2.8-0.1c-2,0.3-4.2,0.2-6.4,0.2c-11.7,0-23.4,0-35.2,0
				c-2.3,0-4.7-0.2-6.8,0.2c-0.4,0.1-1.6,0-1.9,0c-1.1-0.3-2.5-0.2-3.8-0.2c-3.3,0-6.6,0.1-9.9,0.2c-6.3,0.2-12.8,0.2-19.2,0.3
				c-0.7,0-1.4,0-2.1,0c-0.4,0-0.8,0.1-1,0.2c-0.6-0.1-1.2-0.2-1.8-0.2c-2.1,0-4.1,0-6.2,0c-1.9,0-3.8,0-5.7,0c-1.8,0-3.4-0.2-5.4,0
				c-4.6,0.3-9.4-0.3-14.2,0c-0.3-0.1-0.7-0.1-0.9-0.2c-1.9,0.1-3.6,0.2-5.4,0.2c-2,0-4.1,0-6.1,0c-0.1,0-0.2,0-0.4,0.1v2.6
				c3.3,0,6.5,0,9.6,0c3.6-0.1,6.9,0.3,10.4,0.2c3,0,6,0.1,8.9-0.2c1.4-0.1,3.4,0,5.1,0c1.4,0,3,0.1,4.4-0.1c1.7-0.3,3,0.1,4.6,0.2
				c1.6,0,3-0.3,4.5-0.1c1.9,0.2,3.5-0.1,5.1-0.1c5.1,0,10-0.4,15.1-0.3c2,0,4.4,0.2,6.3-0.2c0.3-0.1,1.6-0.1,1.9,0
				c1.3,0.3,2.9,0.1,4.3,0.2c2.7,0.1,5.2-0.2,7.9-0.2c6.7,0,13.4,0,20.2,0c6.8,0,13.6,0.2,20.5-0.2c0.4,0.1,1.1,0.1,1.7,0.2
				c0.6-0.1,1-0.2,1.3-0.3c1.6,0.1,2.6,0.2,3.7,0.2c1.2,0,2.8,0.1,3.5,0c1.7-0.3,2.8,0.2,4.5,0.1c1.4-0.1,3.1,0,4.6,0
				c1.6,0,3.2-0.1,4.8-0.2c0.3,0,0.8,0,0.9,0.1c0.9,0.3,2.2,0.2,3.3,0.2c7.2,0,14.5,0,21.7,0c0.9,0,1.8,0,2.6,0
				c6.7-0.3,8-0.3,14.7,0c1.4,0.1,3.4,0.1,4.4-0.1c2-0.3,3.1,0.1,4.6,0.1c2.1-0.4,4.2-0.2,6.2,0c0.6-0.1,0.9-0.2,1.3-0.3
				c0.4,0.1,0.7,0.1,0.9,0.2c0.9-0.1,1.7-0.2,2.4-0.2c4,0.1,7.9,0,12,0.2c4.5,0.2,9.3,0,14,0.2c2.9,0.1,5.9,0,8.9,0.2
				c1.7,0.1,3.8,0,5.8-0.2c1.7-0.2,3.6,0.4,5.7,0.2c1.1-0.1,2.5-0.3,3.1-0.2c2.3,0.3,4.3,0,6.4,0c2.8,0,5.2,0.1,7.5-0.2
				c1.5-0.2,2.5,0.3,4.9,0.4c0.6,0.2,2.9,0.1,3.6,0.3c0,0,0.1,0,0.1,0V29z"/>
			<path class="st4" d="M225.2,14.9c-2.4,0.1-4.4-0.1-7.3-0.1c-2.1,0.1-4.1,0.1-6.2,0c-2.2-0.1-4.6,0.1-6.4-0.4
				c-2.3-0.7-3.8,0.3-5.6,0.4c-0.6,0-1.2-0.3-1.8-0.4c-2.6-0.3-5.2-0.8-7.8,0.4c-1.9-0.6-3.6-0.6-8-0.8c-1.9-0.1-3.5,0.5-5.3,0.3
				c-2-0.3-4.1,0-6.2-0.1c-1.3-0.1-2.5-0.4-3.7-0.6c-1.1,0.2-2.2,0.6-3.2,0.5c-1.4-0.1-2.3-1-4.1-0.4c-1,0.4-2.6-0.2-4-0.3
				c-9.9-0.4-19.8,0.7-29.6-0.7c-17.2,0-34.5,0-51.7,0c-0.7,0-1.5,0.3-2,0.5c-1-0.2-2.2-0.7-2.8-0.4c-2,0.9-4.2,0.6-6.4,0.6
				c-11.7,0-23.4,0-35.2,0c-2.3,0-4.7-0.6-6.8,0.6c-0.4,0.2-1.6,0.1-1.9-0.1c-1.1-0.9-2.5-0.5-3.8-0.6c-3.3,0-6.6,0.2-9.9,0.6
				c-6.3,0.6-12.8,0.6-19.2,0.8c-0.7,0-1.4-0.1-2.1,0c-0.4,0.1-0.8,0.4-1,0.6c-0.6-0.2-1.2-0.6-1.8-0.6c-2.1-0.1-4.1,0-6.2,0
				c-1.9,0-3.8,0-5.7,0c-1.8,0-3.4-0.5-5.4-0.1c-4.6,0.9-9.4-1.1-14.2,0.1c-0.3-0.2-0.7-0.4-0.9-0.6c-1.9,0.2-3.6,0.5-5.4,0.6
				c-2,0.1-4.1,0-6.1,0c-0.1,0.1-0.2,0.2-0.4,0.2v8.2c3.3,0,6.5,0.1,9.6-0.1c3.6-0.2,6.9,0.9,10.4,0.7c3-0.1,6,0.3,8.9-0.6
				c1.4-0.5,3.4,0,5.1-0.1c1.4-0.1,3,0.4,4.4-0.5c1.7-1.1,3,0.5,4.6,0.6c1.6,0.1,3-0.8,4.5-0.3c1.9,0.6,3.5-0.3,5.1-0.3
				c5.1,0,10-1.2,15.1-0.9c2,0.1,4.4,0.6,6.3-0.6c0.3-0.2,1.6-0.2,1.9,0.1c1.3,1,2.9,0.4,4.3,0.6c2.7,0.4,5.2-0.6,7.9-0.7
				c6.7-0.1,13.4,0.1,20.2-0.1c6.8-0.1,13.6,0.6,20.5-0.6c0.4,0.2,1.1,0.5,1.7,0.7c0.6-0.4,1-0.6,1.3-0.8c1.6,0.3,2.6,0.6,3.7,0.7
				c1.2,0.1,2.8,0.3,3.5-0.1c1.7-0.9,2.8,0.6,4.5,0.2c1.4-0.3,3.1,0,4.6-0.1c1.6-0.1,3.2-0.5,4.8-0.7c0.3,0,0.8,0,0.9,0.2
				c0.9,0.8,2.2,0.5,3.3,0.5c7.2,0,14.5,0,21.7,0c0.9,0,1.8,0.1,2.6,0c6.7-0.9,8-0.9,14.7,0c1.4,0.2,3.4,0.2,4.4-0.3
				c2-1,3.1,0.2,4.6,0.4c2.1-1.3,4.2-0.7,6.2,0.1c0.6-0.4,0.9-0.6,1.3-0.8c0.4,0.2,0.7,0.4,0.9,0.5c0.9-0.2,1.7-0.6,2.4-0.5
				c4,0.2,7.9-0.1,12,0.5c4.5,0.7,9.3,0.1,14,0.8c2.9,0.4,5.9-0.1,8.9,0.7c1.7,0.4,3.8,0.1,5.8-0.5c1.7-0.5,3.6,1.1,5.7,0.6
				c1.1-0.2,2.5-0.9,3.1-0.6c2.3,1,4.3,0,6.4,0c2.8,0.1,5.2,1.1,7.4,0.2c1.5-0.6,2.5,0.2,4.9,0.4c2.1,1.7,2.2-0.6,3.8,0.8
				c0,0,0,0,0,0V14.9z"/>
			<path class="st4" d="M225.2,5.6c-2.5,0-4.4-0.1-7.3,0c-2.1,0-4.1,0-6.2,0c-2.2,0-4.6,0-6.4-0.1c-2.3-0.2-3.8,0.1-5.6,0.1
				c-0.6,0-1.2-0.1-1.8-0.1c-2.6-0.1-5.2-0.2-7.8,0.1c-1.9-0.2-3.6-0.2-8-0.3c-1.9,0-3.5,0.2-5.3,0.1c-2-0.1-4.1,0-6.2,0
				c-1.3,0-2.5-0.1-3.7-0.2c-1.1,0.1-2.2,0.2-3.2,0.2c-1.4,0-2.3-0.3-4.1-0.1c-1,0.1-2.6-0.1-4-0.1C145.8,5,135.8,5.3,126,4.9
				c-17.2,0-34.5,0-51.7,0c-0.7,0-1.5,0.1-2,0.1c-1-0.1-2.2-0.2-2.8-0.1c-2,0.3-4.2,0.2-6.4,0.2c-11.7,0-23.4,0-35.2,0
				c-2.3,0-4.7-0.2-6.8,0.2c-0.4,0.1-1.6,0-1.9,0c-1.1-0.3-2.5-0.2-3.8-0.2c-3.3,0-6.6,0.1-9.9,0.2C-0.8,5.5-7.3,5.5-13.7,5.5
				c-0.7,0-1.4,0-2.1,0c-0.4,0-0.8,0.1-1,0.2c-0.6-0.1-1.2-0.2-1.8-0.2c-2.1,0-4.1,0-6.2,0c-1.9,0-3.8,0-5.7,0c-1.8,0-3.4-0.2-5.4,0
				c-4.6,0.3-9.4-0.3-14.2,0c-0.3-0.1-0.7-0.1-0.9-0.2c-1.9,0.1-3.6,0.2-5.4,0.2c-2,0-4.1,0-6.1,0c-0.1,0-0.2,0-0.4,0.1v2.6
				c3.3,0,6.5,0,9.6,0c3.6-0.1,6.9,0.3,10.4,0.2c3,0,6,0.1,8.9-0.2c1.4-0.1,3.4,0,5.1,0c1.4,0,3,0.1,4.4-0.2c1.7-0.3,3,0.1,4.6,0.2
				c1.6,0,3-0.3,4.5-0.1c1.9,0.2,3.5-0.1,5.1-0.1c5.1,0,10-0.4,15.1-0.3c2,0,4.4,0.2,6.3-0.2c0.3-0.1,1.6,0,1.9,0
				c1.3,0.3,2.9,0.1,4.3,0.2c2.7,0.1,5.2-0.2,7.9-0.2c6.7,0,13.4,0,20.2,0c6.8,0,13.6,0.2,20.5-0.2c0.4,0.1,1.1,0.1,1.7,0.2
				c0.6-0.1,1-0.2,1.3-0.3c1.6,0.1,2.6,0.2,3.7,0.2c1.2,0,2.8,0.1,3.5,0c1.7-0.3,2.8,0.2,4.5,0.1c1.4-0.1,3.1,0,4.6,0
				c1.6,0,3.2-0.1,4.8-0.2c0.3,0,0.8,0,0.9,0.1c0.9,0.3,2.2,0.2,3.3,0.2c7.2,0,14.5,0,21.7,0c0.9,0,1.8,0,2.6,0
				c6.7-0.3,8-0.3,14.7,0c1.4,0.1,3.4,0.1,4.4-0.1c2-0.3,3.1,0.1,4.6,0.1c2.1-0.4,4.2-0.2,6.2,0c0.6-0.1,0.9-0.2,1.3-0.3
				c0.4,0.1,0.7,0.1,0.9,0.2c0.9-0.1,1.7-0.2,2.4-0.2c4,0.1,7.9,0,12,0.2c4.5,0.2,9.3,0,14,0.2c2.9,0.1,5.9,0,8.9,0.2
				c1.7,0.1,3.8,0,5.8-0.2c1.7-0.2,3.6,0.4,5.7,0.2c1.1-0.1,2.5-0.3,3.1-0.2c2.3,0.3,4.3,0,6.4,0c2.8,0,5.2-0.2,7.4-0.5
				c1.5-0.2,2.7,0.5,5.1,0.6c0.6,0.2,2.2,0.1,2.9,0.2c0.3,0,0.5,0,0.7,0V5.6z"/>
			<path class="st4" d="M225.2,65.1c-2.5,0-4.8,0-7.3,0c-2.1,0-4.1,0-6.2,0c-2.2,0-4.6,0-6.4-0.1c-2.3-0.2-3.8,0.1-5.6,0.1
				c-0.6,0-1.2-0.1-1.8-0.1c-2.6-0.1-5.2-0.2-7.8,0.1c-1.9-0.2-3.6-0.2-8-0.3c-1.9,0-3.5,0.2-5.3,0.1c-2-0.1-4.1,0-6.2,0
				c-1.3,0-2.5-0.1-3.7-0.2c-1.1,0.1-2.2,0.2-3.2,0.2c-1.4,0-2.3-0.3-4.1-0.1c-1,0.1-2.6-0.1-4-0.1c-9.9-0.1-19.8,0.2-29.6-0.2
				c-17.2,0-34.5,0-51.7,0c-0.7,0-1.5,0.1-2,0.2c-1-0.1-2.2-0.2-2.8-0.1c-2,0.3-4.2,0.2-6.4,0.2c-11.7,0-23.4,0-35.2,0
				c-2.3,0-4.7-0.2-6.8,0.2c-0.4,0.1-1.6,0-1.9,0c-1.1-0.3-2.5-0.2-3.8-0.2c-3.3,0-6.6,0.1-9.9,0.2C-0.8,65-7.3,65-13.7,65.1
				c-0.7,0-1.4,0-2.1,0c-0.4,0-0.8,0.1-1,0.2c-0.6-0.1-1.2-0.2-1.8-0.2c-2.1,0-4.1,0-6.2,0c-1.9,0-3.8,0-5.7,0c-1.8,0-3.4-0.2-5.4,0
				c-4.6,0.3-9.4-0.3-14.2,0c-0.3-0.1-0.7-0.1-0.9-0.2c-1.9,0.1-3.6,0.2-5.4,0.2c-2,0-4.1,0-6.1,0c-0.1,0-0.2,0-0.4,0.1v2.6
				c3.3,0,6.5,0,9.6,0c3.6-0.1,6.9,0.3,10.4,0.2c3,0,6,0.1,8.9-0.2c1.4-0.1,3.4,0,5.1,0c1.4,0,3,0.1,4.4-0.1c1.7-0.3,3,0.1,4.6,0.2
				c1.6,0,3-0.3,4.5-0.1c1.9,0.2,3.5-0.1,5.1-0.1c5.1,0,10-0.4,15.1-0.3c2,0,4.4,0.2,6.3-0.2c0.3-0.1,1.6-0.1,1.9,0
				c1.3,0.3,2.9,0.1,4.3,0.2c2.7,0.1,5.2-0.2,7.9-0.2c6.7,0,13.4,0,20.2,0c6.8,0,13.6,0.2,20.5-0.2c0.4,0.1,1.1,0.1,1.7,0.2
				c0.6-0.1,1-0.2,1.3-0.3c1.6,0.1,2.6,0.2,3.7,0.2c1.2,0,2.8,0.1,3.5,0c1.7-0.3,2.8,0.2,4.5,0.1c1.4-0.1,3.1,0,4.6,0
				c1.6,0,3.2-0.1,4.8-0.2c0.3,0,0.8,0,0.9,0.1c0.9,0.3,2.2,0.2,3.3,0.2c7.2,0,14.5,0,21.7,0c0.9,0,1.8,0,2.6,0
				c6.7-0.3,8-0.3,14.7,0c1.4,0.1,3.4,0.1,4.4-0.1c2-0.3,3.1,0.1,4.6,0.1c2.1-0.4,4.2-0.2,6.2,0c0.6-0.1,0.9-0.2,1.3-0.3
				c0.4,0.1,0.7,0.1,0.9,0.2c0.9-0.1,1.7-0.2,2.4-0.2c4,0.1,7.9,0,12,0.2c4.5,0.2,9.3,0,14,0.2c2.9,0.1,5.9,0,8.9,0.2
				c1.7,0.1,3.8,0,5.8-0.2c1.7-0.2,3.6,0.4,5.7,0.2c1.1-0.1,2.5-0.3,3.1-0.2c2.3,0.3,4.3,0,6.4,0c2.8,0,5.2,0.1,7.5-0.2
				c1.5-0.2,2.5,0.3,4.9,0.4c0.6,0.2,2.9,0.1,3.6,0.3c0,0,0.1,0,0.1,0V65.1z"/>
			<path class="st4" d="M225.2,51c-2.4,0.1-4.4-0.1-7.3-0.1c-2.1,0.1-4.1,0.1-6.2,0c-2.2-0.1-4.6,0.1-6.4-0.4
				c-2.3-0.7-3.8,0.3-5.6,0.4c-0.6,0-1.2-0.3-1.8-0.4c-2.6-0.3-5.2-0.8-7.8,0.4c-1.9-0.6-3.6-0.6-8-0.8c-1.9-0.1-3.5,0.5-5.3,0.3
				c-2-0.3-4.1,0-6.2-0.1c-1.3-0.1-2.5-0.4-3.7-0.6c-1.1,0.2-2.2,0.6-3.2,0.5c-1.4-0.1-2.3-1-4.1-0.4c-1,0.4-2.6-0.2-4-0.3
				c-9.9-0.4-19.8,0.7-29.6-0.7c-17.2,0-34.5,0-51.7,0c-0.7,0-1.5,0.3-2,0.5c-1-0.2-2.2-0.7-2.8-0.4c-2,0.9-4.2,0.6-6.4,0.6
				c-11.7,0-23.4,0-35.2,0c-2.3,0-4.7-0.6-6.8,0.6c-0.4,0.2-1.6,0.1-1.9-0.1c-1.1-0.9-2.5-0.5-3.8-0.6c-3.3,0-6.6,0.2-9.9,0.6
				c-6.3,0.6-12.8,0.6-19.2,0.8c-0.7,0-1.4-0.1-2.1,0c-0.4,0.1-0.8,0.4-1,0.6c-0.6-0.2-1.2-0.6-1.8-0.6c-2.1-0.1-4.1,0-6.2,0
				c-1.9,0-3.8,0-5.7,0c-1.8,0-3.4-0.5-5.4-0.1c-4.6,0.9-9.4-1.1-14.2,0.1c-0.3-0.2-0.7-0.4-0.9-0.6c-1.9,0.2-3.6,0.5-5.4,0.6
				c-2,0.1-4.1,0-6.1,0c-0.1,0.1-0.2,0.2-0.4,0.2v8.2c3.3,0,6.5,0.1,9.6-0.1c3.6-0.2,6.9,0.9,10.4,0.7c3-0.1,6,0.3,8.9-0.6
				c1.4-0.5,3.4,0,5.1-0.1c1.4-0.1,3,0.4,4.4-0.5c1.7-1,3,0.5,4.6,0.6c1.6,0.1,3-0.8,4.5-0.3c1.9,0.6,3.5-0.3,5.1-0.3
				c5.1,0,10-1.2,15.1-0.9c2,0.1,4.4,0.6,6.3-0.6c0.3-0.2,1.6-0.2,1.9,0.1c1.3,1,2.9,0.4,4.3,0.6c2.7,0.4,5.2-0.6,7.9-0.7
				c6.7-0.1,13.4,0.1,20.2-0.1c6.8-0.1,13.6,0.6,20.5-0.6c0.4,0.2,1.1,0.5,1.7,0.7c0.6-0.4,1-0.6,1.3-0.8c1.6,0.3,2.6,0.6,3.7,0.7
				c1.2,0.1,2.8,0.3,3.5-0.1c1.7-0.9,2.8,0.6,4.5,0.2c1.4-0.3,3.1,0,4.6-0.1c1.6-0.1,3.2-0.5,4.8-0.7c0.3,0,0.8,0,0.9,0.2
				c0.9,0.8,2.2,0.5,3.3,0.5c7.2,0,14.5,0,21.7,0c0.9,0,1.8,0.1,2.6,0c6.7-0.9,8-0.9,14.7,0c1.4,0.2,3.4,0.2,4.4-0.3
				c2-1,3.1,0.2,4.6,0.4c2.1-1.3,4.2-0.7,6.2,0.1c0.6-0.4,0.9-0.6,1.3-0.8c0.4,0.2,0.7,0.4,0.9,0.5c0.9-0.2,1.7-0.6,2.4-0.5
				c4,0.2,7.9-0.1,12,0.5c4.5,0.7,9.3,0.1,14,0.8c2.9,0.4,5.9-0.1,8.9,0.7c1.7,0.4,3.8,0.1,5.8-0.5c1.7-0.5,3.6,1.1,5.7,0.6
				c1.1-0.2,2.5-0.9,3.1-0.6c2.3,1,4.3,0,6.4,0c2.8,0.1,5.2,1.1,7.4,0.2c1.5-0.6,2.5,0.2,4.9,0.4c2.1,1.7,2.2-0.6,3.8,0.8
				c0,0,0,0,0,0V51z"/>
			<path class="st4" d="M225.2,41.6c-2.5,0-4.4-0.1-7.3,0c-2.1,0-4.1,0-6.2,0c-2.2,0-4.6,0-6.4-0.1c-2.3-0.2-3.8,0.1-5.6,0.1
				c-0.6,0-1.2-0.1-1.8-0.1c-2.6-0.1-5.2-0.2-7.8,0.1c-1.9-0.2-3.6-0.2-8-0.3c-1.9,0-3.5,0.2-5.3,0.1c-2-0.1-4.1,0-6.2,0
				c-1.3,0-2.5-0.1-3.7-0.2c-1.1,0.1-2.2,0.2-3.2,0.2c-1.4,0-2.3-0.3-4.1-0.1c-1,0.1-2.6-0.1-4-0.1c-9.9-0.1-19.8,0.2-29.6-0.2
				c-17.2,0-34.5,0-51.7,0c-0.7,0-1.5,0.1-2,0.1c-1-0.1-2.2-0.2-2.8-0.1c-2,0.3-4.2,0.2-6.4,0.2c-11.7,0-23.4,0-35.2,0
				c-2.3,0-4.7-0.2-6.8,0.2c-0.4,0.1-1.6,0-1.9,0c-1.1-0.3-2.5-0.2-3.8-0.2c-3.3,0-6.6,0.1-9.9,0.2c-6.3,0.2-12.8,0.2-19.2,0.3
				c-0.7,0-1.4,0-2.1,0c-0.4,0-0.8,0.1-1,0.2c-0.6-0.1-1.2-0.2-1.8-0.2c-2.1,0-4.1,0-6.2,0c-1.9,0-3.8,0-5.7,0c-1.8,0-3.4-0.2-5.4,0
				c-4.6,0.3-9.4-0.3-14.2,0c-0.3-0.1-0.7-0.1-0.9-0.2c-1.9,0.1-3.6,0.2-5.4,0.2c-2,0-4.1,0-6.1,0c-0.1,0-0.2,0.1-0.4,0.1v2.6
				c3.3,0,6.5,0,9.6,0c3.6-0.1,6.9,0.3,10.4,0.2c3,0,6,0.1,8.9-0.2c1.4-0.1,3.4,0,5.1,0c1.4,0,3,0.1,4.4-0.2c1.7-0.3,3,0.1,4.6,0.2
				c1.6,0,3-0.3,4.5-0.1c1.9,0.2,3.5-0.1,5.1-0.1c5.1,0,10-0.4,15.1-0.3c2,0,4.4,0.2,6.3-0.2c0.3-0.1,1.6-0.1,1.9,0
				c1.3,0.3,2.9,0.1,4.3,0.2c2.7,0.1,5.2-0.2,7.9-0.2c6.7,0,13.4,0,20.2,0c6.8,0,13.6,0.2,20.5-0.2c0.4,0.1,1.1,0.1,1.7,0.2
				c0.6-0.1,1-0.2,1.3-0.3c1.6,0.1,2.6,0.2,3.7,0.2c1.2,0,2.8,0.1,3.5,0c1.7-0.3,2.8,0.2,4.5,0.1c1.4-0.1,3.1,0,4.6,0
				c1.6,0,3.2-0.1,4.8-0.2c0.3,0,0.8,0,0.9,0.1c0.9,0.3,2.2,0.2,3.3,0.2c7.2,0,14.5,0,21.7,0c0.9,0,1.8,0,2.6,0
				c6.7-0.3,8-0.3,14.7,0c1.4,0.1,3.4,0.1,4.4-0.1c2-0.3,3.1,0.1,4.6,0.1c2.1-0.4,4.2-0.2,6.2,0c0.6-0.1,0.9-0.2,1.3-0.3
				c0.4,0.1,0.7,0.1,0.9,0.2c0.9-0.1,1.7-0.2,2.4-0.2c4,0.1,7.9,0,12,0.2c4.5,0.2,9.3,0,14,0.2c2.9,0.1,5.9,0,8.9,0.2
				c1.7,0.1,3.8,0,5.8-0.2c1.7-0.2,3.6,0.4,5.7,0.2c1.1-0.1,2.5-0.3,3.1-0.2c2.3,0.3,4.3,0,6.4,0c2.8,0,5.2-0.2,7.4-0.5
				c1.5-0.2,2.7,0.6,5.1,0.6c0.6,0.2,2.2,0.1,2.9,0.2c0.3,0,0.5,0,0.7,0V41.6z"/>
			<path class="st4" d="M225.2,101.1c-2.5,0-4.8,0-7.3,0c-2.1,0-4.1,0-6.2,0c-2.2,0-4.6,0-6.4-0.1c-2.3-0.2-3.8,0.1-5.6,0.1
				c-0.6,0-1.2-0.1-1.8-0.1c-2.6-0.1-5.2-0.2-7.8,0.1c-1.9-0.2-3.6-0.2-8-0.3c-1.9,0-3.5,0.2-5.3,0.1c-2-0.1-4.1,0-6.2,0
				c-1.3,0-2.5-0.1-3.7-0.2c-1.1,0.1-2.2,0.2-3.2,0.2c-1.4,0-2.3-0.3-4.1-0.1c-1,0.1-2.6-0.1-4-0.1c-9.9-0.1-19.8,0.2-29.6-0.2
				c-17.2,0-34.5,0-51.7,0c-0.7,0-1.5,0.1-2,0.1c-1-0.1-2.2-0.2-2.8-0.1c-2,0.3-4.2,0.2-6.4,0.2c-11.7,0-23.4,0-35.2,0
				c-2.3,0-4.7-0.2-6.8,0.2c-0.4,0.1-1.6,0-1.9,0c-1.1-0.3-2.5-0.2-3.8-0.2c-3.3,0-6.6,0.1-9.9,0.2c-6.3,0.2-12.8,0.2-19.2,0.3
				c-0.7,0-1.4,0-2.1,0c-0.4,0-0.8,0.1-1,0.2c-0.6-0.1-1.2-0.2-1.8-0.2c-2.1,0-4.1,0-6.2,0c-1.9,0-3.8,0-5.7,0c-1.8,0-3.4-0.2-5.4,0
				c-4.6,0.3-9.4-0.3-14.2,0c-0.3-0.1-0.7-0.1-0.9-0.2c-1.9,0.1-3.6,0.2-5.4,0.2c-2,0-4.1,0-6.1,0c-0.1,0-0.2,0-0.4,0.1v2.6
				c3.3,0,6.5,0,9.6,0c3.6-0.1,6.9,0.3,10.4,0.2c3,0,6,0.1,8.9-0.2c1.4-0.1,3.4,0,5.1,0c1.4,0,3,0.1,4.4-0.1c1.7-0.3,3,0.1,4.6,0.2
				c1.6,0,3-0.3,4.5-0.1c1.9,0.2,3.5-0.1,5.1-0.1c5.1,0,10-0.4,15.1-0.3c2,0,4.4,0.2,6.3-0.2c0.3-0.1,1.6-0.1,1.9,0
				c1.3,0.3,2.9,0.1,4.3,0.2c2.7,0.1,5.2-0.2,7.9-0.2c6.7,0,13.4,0,20.2,0c6.8,0,13.6,0.2,20.5-0.2c0.4,0.1,1.1,0.1,1.7,0.2
				c0.6-0.1,1-0.2,1.3-0.3c1.6,0.1,2.6,0.2,3.7,0.2c1.2,0,2.8,0.1,3.5,0c1.7-0.3,2.8,0.2,4.5,0.1c1.4-0.1,3.1,0,4.6,0
				c1.6,0,3.2-0.1,4.8-0.2c0.3,0,0.8,0,0.9,0.1c0.9,0.3,2.2,0.2,3.3,0.2c7.2,0,14.5,0,21.7,0c0.9,0,1.8,0,2.6,0
				c6.7-0.3,8-0.3,14.7,0c1.4,0.1,3.4,0.1,4.4-0.1c2-0.3,3.1,0.1,4.6,0.1c2.1-0.4,4.2-0.2,6.2,0c0.6-0.1,0.9-0.2,1.3-0.3
				c0.4,0.1,0.7,0.1,0.9,0.2c0.9-0.1,1.7-0.2,2.4-0.2c4,0.1,7.9,0,12,0.2c4.5,0.2,9.3,0,14,0.2c2.9,0.1,5.9,0,8.9,0.2
				c1.7,0.1,3.8,0,5.8-0.2c1.7-0.2,3.6,0.4,5.7,0.2c1.1-0.1,2.5-0.3,3.1-0.2c2.3,0.3,4.3,0,6.4,0c2.8,0,5.2,0.1,7.5-0.2
				c1.5-0.2,2.5,0.3,4.9,0.4c0.6,0.2,2.9,0.1,3.6,0.3c0,0,0.1,0,0.1,0V101.1z"/>
			<path class="st4" d="M225.2,87c-2.4,0.1-4.4-0.1-7.3-0.1c-2.1,0.1-4.1,0.1-6.2,0c-2.2-0.1-4.6,0.1-6.4-0.4
				c-2.3-0.7-3.8,0.3-5.6,0.4c-0.6,0-1.2-0.3-1.8-0.4c-2.6-0.3-5.2-0.8-7.8,0.4c-1.9-0.6-3.6-0.6-8-0.8c-1.9-0.1-3.5,0.5-5.3,0.3
				c-2-0.3-4.1,0-6.2-0.1c-1.3-0.1-2.5-0.4-3.7-0.6c-1.1,0.2-2.2,0.6-3.2,0.5c-1.4-0.1-2.3-1-4.1-0.4c-1,0.4-2.6-0.2-4-0.3
				c-9.9-0.4-19.8,0.7-29.6-0.7c-17.2,0-34.5,0-51.7,0c-0.7,0-1.5,0.3-2,0.5c-1-0.2-2.2-0.7-2.8-0.4c-2,0.9-4.2,0.6-6.4,0.6
				c-11.7,0-23.4,0-35.2,0c-2.3,0-4.7-0.6-6.8,0.6c-0.4,0.2-1.6,0.1-1.9-0.1c-1.1-0.9-2.5-0.5-3.8-0.6c-3.3,0-6.6,0.2-9.9,0.6
				c-6.3,0.6-12.8,0.6-19.2,0.8c-0.7,0-1.4-0.1-2.1,0c-0.4,0.1-0.8,0.4-1,0.6c-0.6-0.2-1.2-0.6-1.8-0.6c-2.1-0.1-4.1,0-6.2,0
				c-1.9,0-3.8,0-5.7,0c-1.8,0-3.4-0.5-5.4-0.1c-4.6,0.9-9.4-1.1-14.2,0.1c-0.3-0.2-0.7-0.4-0.9-0.6c-1.9,0.2-3.6,0.5-5.4,0.6
				c-2,0.1-4.1,0-6.1,0c-0.1,0.1-0.2,0.2-0.4,0.2v8.2c3.3,0,6.5,0.1,9.6-0.1c3.6-0.2,6.9,0.9,10.4,0.7c3-0.1,6,0.3,8.9-0.6
				c1.4-0.5,3.4,0,5.1-0.1c1.4-0.1,3,0.4,4.4-0.5c1.7-1,3,0.5,4.6,0.6c1.6,0.1,3-0.8,4.5-0.3c1.9,0.6,3.5-0.3,5.1-0.3
				c5.1,0,10-1.2,15.1-0.9c2,0.1,4.4,0.6,6.3-0.6c0.3-0.2,1.6-0.2,1.9,0.1c1.3,1,2.9,0.4,4.3,0.6c2.7,0.4,5.2-0.6,7.9-0.7
				c6.7-0.1,13.4,0.1,20.2-0.1c6.8-0.1,13.6,0.6,20.5-0.6c0.4,0.2,1.1,0.5,1.7,0.7c0.6-0.4,1-0.6,1.3-0.8c1.6,0.3,2.6,0.6,3.7,0.7
				c1.2,0.1,2.8,0.3,3.5-0.1c1.7-0.9,2.8,0.6,4.5,0.2c1.4-0.3,3.1,0,4.6-0.1c1.6-0.1,3.2-0.5,4.8-0.7c0.3,0,0.8,0,0.9,0.2
				c0.9,0.8,2.2,0.5,3.3,0.5c7.2,0,14.5,0,21.7,0c0.9,0,1.8,0.1,2.6,0c6.7-0.9,8-0.9,14.7,0c1.4,0.2,3.4,0.2,4.4-0.3
				c2-1,3.1,0.2,4.6,0.4c2.1-1.3,4.2-0.7,6.2,0.1c0.6-0.4,0.9-0.6,1.3-0.8c0.4,0.2,0.7,0.4,0.9,0.5c0.9-0.2,1.7-0.6,2.4-0.5
				c4,0.2,7.9-0.1,12,0.5c4.5,0.7,9.3,0.1,14,0.8c2.9,0.4,5.9-0.1,8.9,0.7c1.7,0.4,3.8,0.1,5.8-0.5c1.7-0.6,3.6,1.1,5.7,0.6
				c1.1-0.2,2.5-0.9,3.1-0.6c2.3,1,4.3,0,6.4,0c2.8,0.1,5.2,1.1,7.4,0.2c1.5-0.6,2.5,0.2,4.9,0.4c2.1,1.7,2.2-0.6,3.8,0.8
				c0,0,0,0,0,0V87z"/>
			<path class="st4" d="M225.2,77.7c-2.5,0-4.4-0.1-7.3,0c-2.1,0-4.1,0-6.2,0c-2.2,0-4.6,0-6.4-0.1c-2.3-0.2-3.8,0.1-5.6,0.1
				c-0.6,0-1.2-0.1-1.8-0.1c-2.6-0.1-5.2-0.2-7.8,0.1c-1.9-0.2-3.6-0.2-8-0.3c-1.9,0-3.5,0.2-5.3,0.1c-2-0.1-4.1,0-6.2,0
				c-1.3,0-2.5-0.1-3.7-0.2c-1.1,0.1-2.2,0.2-3.2,0.2c-1.4,0-2.3-0.3-4.1-0.1c-1,0.1-2.6-0.1-4-0.1c-9.9-0.1-19.8,0.2-29.6-0.2
				c-17.2,0-34.5,0-51.7,0c-0.7,0-1.5,0.1-2,0.1c-1-0.1-2.2-0.2-2.8-0.1c-2,0.3-4.2,0.2-6.4,0.2c-11.7,0-23.4,0-35.2,0
				c-2.3,0-4.7-0.2-6.8,0.2c-0.4,0.1-1.6,0-1.9,0c-1.1-0.3-2.5-0.2-3.8-0.2c-3.3,0-6.6,0.1-9.9,0.2c-6.3,0.2-12.8,0.2-19.2,0.3
				c-0.7,0-1.4,0-2.1,0c-0.4,0-0.8,0.1-1,0.2c-0.6-0.1-1.2-0.2-1.8-0.2c-2.1,0-4.1,0-6.2,0c-1.9,0-3.8,0-5.7,0c-1.8,0-3.4-0.2-5.4,0
				c-4.6,0.3-9.4-0.3-14.2,0c-0.3-0.1-0.7-0.1-0.9-0.2c-1.9,0.1-3.6,0.2-5.4,0.2c-2,0-4.1,0-6.1,0c-0.1,0-0.2,0.1-0.4,0.1v2.6
				c3.3,0,6.5,0,9.6,0c3.6-0.1,6.9,0.3,10.4,0.2c3,0,6,0.1,8.9-0.2c1.4-0.1,3.4,0,5.1,0c1.4,0,3,0.1,4.4-0.2c1.7-0.3,3,0.1,4.6,0.2
				c1.6,0,3-0.3,4.5-0.1c1.9,0.2,3.5-0.1,5.1-0.1c5.1,0,10-0.4,15.1-0.3c2,0,4.4,0.2,6.3-0.2c0.3-0.1,1.6-0.1,1.9,0
				c1.3,0.3,2.9,0.1,4.3,0.2c2.7,0.1,5.2-0.2,7.9-0.2c6.7,0,13.4,0,20.2,0c6.8,0,13.6,0.2,20.5-0.2c0.4,0.1,1.1,0.1,1.7,0.2
				c0.6-0.1,1-0.2,1.3-0.3c1.6,0.1,2.6,0.2,3.7,0.2c1.2,0,2.8,0.1,3.5,0c1.7-0.3,2.8,0.2,4.5,0.1c1.4-0.1,3.1,0,4.6,0
				c1.6,0,3.2-0.1,4.8-0.2c0.3,0,0.8,0,0.9,0.1c0.9,0.3,2.2,0.2,3.3,0.2c7.2,0,14.5,0,21.7,0c0.9,0,1.8,0,2.6,0
				c6.7-0.3,8-0.3,14.7,0c1.4,0.1,3.4,0.1,4.4-0.1c2-0.3,3.1,0.1,4.6,0.1c2.1-0.4,4.2-0.2,6.2,0c0.6-0.1,0.9-0.2,1.3-0.3
				c0.4,0.1,0.7,0.1,0.9,0.2c0.9-0.1,1.7-0.2,2.4-0.2c4,0.1,7.9,0,12,0.2c4.5,0.2,9.3,0,14,0.2c2.9,0.1,5.9,0,8.9,0.2
				c1.7,0.1,3.8,0,5.8-0.2c1.7-0.2,3.6,0.4,5.7,0.2c1.1-0.1,2.5-0.3,3.1-0.2c2.3,0.3,4.3,0,6.4,0c2.8,0,5.2-0.2,7.4-0.5
				c1.5-0.2,2.7,0.6,5.1,0.6c0.6,0.2,2.2,0.1,2.9,0.2c0.3,0,0.5,0,0.7,0V77.7z"/>
			<path class="st4" d="M225.2,137.2c-2.5,0-4.8,0-7.3,0c-2.1,0-4.1,0-6.2,0c-2.2,0-4.6,0-6.4-0.1c-2.3-0.2-3.8,0.1-5.6,0.1
				c-0.6,0-1.2-0.1-1.8-0.1c-2.6-0.1-5.2-0.2-7.8,0.1c-1.9-0.2-3.6-0.2-8-0.3c-1.9,0-3.5,0.2-5.3,0.1c-2-0.1-4.1,0-6.2,0
				c-1.3,0-2.5-0.1-3.7-0.2c-1.1,0.1-2.2,0.2-3.2,0.2c-1.4,0-2.3-0.3-4.1-0.1c-1,0.1-2.6-0.1-4-0.1c-9.9-0.1-19.8,0.2-29.6-0.2
				c-17.2,0-34.5,0-51.7,0c-0.7,0-1.5,0.1-2,0.1c-1-0.1-2.2-0.2-2.8-0.1c-2,0.3-4.2,0.2-6.4,0.2c-11.7,0-23.4,0-35.2,0
				c-2.3,0-4.7-0.2-6.8,0.2c-0.4,0.1-1.6,0-1.9,0c-1.1-0.3-2.5-0.2-3.8-0.2c-3.3,0-6.6,0.1-9.9,0.2c-6.3,0.2-12.8,0.2-19.2,0.3
				c-0.7,0-1.4,0-2.1,0c-0.4,0-0.8,0.1-1,0.2c-0.6-0.1-1.2-0.2-1.8-0.2c-2.1,0-4.1,0-6.2,0c-1.9,0-3.8,0-5.7,0c-1.8,0-3.4-0.2-5.4,0
				c-4.6,0.3-9.4-0.3-14.2,0c-0.3-0.1-0.7-0.1-0.9-0.2c-1.9,0.1-3.6,0.2-5.4,0.2c-2,0-4.1,0-6.1,0c-0.1,0-0.2,0-0.4,0.1v2.6
				c3.3,0,6.5,0,9.6,0c3.6-0.1,6.9,0.3,10.4,0.2c3,0,6,0.1,8.9-0.2c1.4-0.1,3.4,0,5.1,0c1.4,0,3,0.1,4.4-0.1c1.7-0.3,3,0.1,4.6,0.2
				c1.6,0,3-0.3,4.5-0.1c1.9,0.2,3.5-0.1,5.1-0.1c5.1,0,10-0.4,15.1-0.3c2,0,4.4,0.2,6.3-0.2c0.3-0.1,1.6-0.1,1.9,0
				c1.3,0.3,2.9,0.1,4.3,0.2c2.7,0.1,5.2-0.2,7.9-0.2c6.7,0,13.4,0,20.2,0c6.8,0,13.6,0.2,20.5-0.2c0.4,0.1,1.1,0.1,1.7,0.2
				c0.6-0.1,1-0.2,1.3-0.3c1.6,0.1,2.6,0.2,3.7,0.2c1.2,0,2.8,0.1,3.5,0c1.7-0.3,2.8,0.2,4.5,0.1c1.4-0.1,3.1,0,4.6,0
				c1.6,0,3.2-0.1,4.8-0.2c0.3,0,0.8,0,0.9,0.1c0.9,0.3,2.2,0.2,3.3,0.2c7.2,0,14.5,0,21.7,0c0.9,0,1.8,0,2.6,0
				c6.7-0.3,8-0.3,14.7,0c1.4,0.1,3.4,0.1,4.4-0.1c2-0.3,3.1,0.1,4.6,0.1c2.1-0.4,4.2-0.2,6.2,0c0.6-0.1,0.9-0.2,1.3-0.3
				c0.4,0.1,0.7,0.1,0.9,0.2c0.9-0.1,1.7-0.2,2.4-0.2c4,0.1,7.9,0,12,0.2c4.5,0.2,9.3,0,14,0.3c2.9,0.1,5.9,0,8.9,0.2
				c1.7,0.1,3.8,0,5.8-0.2c1.7-0.2,3.6,0.4,5.7,0.2c1.1-0.1,2.5-0.3,3.1-0.2c2.3,0.3,4.3,0,6.4,0c2.8,0,5.2,0.1,7.5-0.2
				c1.5-0.2,2.5,0.3,4.9,0.4c0.6,0.2,2.9,0.1,3.6,0.3c0,0,0.1,0,0.1,0V137.2z"/>
			<path class="st4" d="M225.2,123.1c-2.4,0.1-4.4-0.1-7.3-0.1c-2.1,0.1-4.1,0.1-6.2,0c-2.2-0.1-4.6,0.1-6.4-0.4
				c-2.3-0.7-3.8,0.3-5.6,0.4c-0.6,0-1.2-0.3-1.8-0.4c-2.6-0.3-5.2-0.8-7.8,0.4c-1.9-0.6-3.6-0.6-8-0.8c-1.9-0.1-3.5,0.5-5.3,0.3
				c-2-0.3-4.1,0-6.2-0.1c-1.3-0.1-2.5-0.4-3.7-0.6c-1.1,0.2-2.2,0.6-3.2,0.5c-1.4-0.1-2.3-1-4.1-0.4c-1,0.4-2.6-0.2-4-0.3
				c-9.9-0.4-19.8,0.7-29.6-0.7c-17.2,0-34.5,0-51.7,0c-0.7,0-1.5,0.3-2,0.5c-1-0.2-2.2-0.7-2.8-0.4c-2,0.9-4.2,0.6-6.4,0.6
				c-11.7,0-23.4,0-35.2,0c-2.3,0-4.7-0.6-6.8,0.6c-0.4,0.2-1.6,0.1-1.9-0.1c-1.1-0.9-2.5-0.5-3.8-0.6c-3.3,0-6.6,0.2-9.9,0.6
				c-6.3,0.6-12.8,0.6-19.2,0.8c-0.7,0-1.4-0.1-2.1,0c-0.4,0.1-0.8,0.4-1,0.6c-0.6-0.2-1.2-0.6-1.8-0.6c-2.1-0.1-4.1,0-6.2,0
				c-1.9,0-3.8,0-5.7,0c-1.8,0-3.4-0.5-5.4-0.1c-4.6,0.9-9.4-1.1-14.2,0.1c-0.3-0.2-0.7-0.4-0.9-0.6c-1.9,0.2-3.6,0.5-5.4,0.6
				c-2,0.1-4.1,0-6.1,0c-0.1,0.1-0.2,0.2-0.4,0.2v8.2c3.3,0,6.5,0.1,9.6-0.1c3.6-0.2,6.9,0.9,10.4,0.7c3-0.1,6,0.3,8.9-0.6
				c1.4-0.5,3.4,0,5.1-0.1c1.4-0.1,3,0.4,4.4-0.5c1.7-1,3,0.5,4.6,0.6c1.6,0.1,3-0.8,4.5-0.3c1.9,0.6,3.5-0.3,5.1-0.3
				c5.1,0,10-1.2,15.1-0.9c2,0.1,4.4,0.6,6.3-0.6c0.3-0.2,1.6-0.2,1.9,0.1c1.3,1,2.9,0.4,4.3,0.6c2.7,0.4,5.2-0.6,7.9-0.7
				c6.7-0.1,13.4,0.1,20.2-0.1c6.8-0.1,13.6,0.6,20.5-0.6c0.4,0.2,1.1,0.5,1.7,0.7c0.6-0.4,1-0.6,1.3-0.8c1.6,0.3,2.6,0.6,3.7,0.7
				c1.2,0.1,2.8,0.3,3.5-0.1c1.7-0.9,2.8,0.6,4.5,0.2c1.4-0.3,3.1,0,4.6-0.1c1.6-0.1,3.2-0.5,4.8-0.7c0.3,0,0.8,0,0.9,0.2
				c0.9,0.8,2.2,0.5,3.3,0.5c7.2,0,14.5,0,21.7,0c0.9,0,1.8,0.1,2.6,0c6.7-0.9,8-0.9,14.7,0c1.4,0.2,3.4,0.2,4.4-0.3
				c2-1,3.1,0.2,4.6,0.4c2.1-1.3,4.2-0.6,6.2,0.1c0.6-0.4,0.9-0.6,1.3-0.8c0.4,0.2,0.7,0.4,0.9,0.5c0.9-0.2,1.7-0.6,2.4-0.5
				c4,0.2,7.9-0.1,12,0.5c4.5,0.7,9.3,0.1,14,0.8c2.9,0.4,5.9-0.1,8.9,0.7c1.7,0.4,3.8,0.1,5.8-0.5c1.7-0.6,3.6,1.1,5.7,0.6
				c1.1-0.2,2.5-0.9,3.1-0.6c2.3,1,4.3,0,6.4,0c2.8,0.1,5.2,1.1,7.4,0.2c1.5-0.6,2.5,0.2,4.9,0.4c2.1,1.7,2.2-0.6,3.8,0.8
				c0,0,0,0,0,0V123.1z"/>
			<path class="st4" d="M225.2,113.7c-2.5,0-4.4-0.1-7.3,0c-2.1,0-4.1,0-6.2,0c-2.2,0-4.6,0-6.4-0.1c-2.3-0.2-3.8,0.1-5.6,0.1
				c-0.6,0-1.2-0.1-1.8-0.1c-2.6-0.1-5.2-0.2-7.8,0.1c-1.9-0.2-3.6-0.2-8-0.3c-1.9,0-3.5,0.2-5.3,0.1c-2-0.1-4.1,0-6.2,0
				c-1.3,0-2.5-0.1-3.7-0.2c-1.1,0.1-2.2,0.2-3.2,0.2c-1.4,0-2.3-0.3-4.1-0.1c-1,0.1-2.6-0.1-4-0.1c-9.9-0.1-19.8,0.2-29.6-0.2
				c-17.2,0-34.5,0-51.7,0c-0.7,0-1.5,0.1-2,0.1c-1-0.1-2.2-0.2-2.8-0.1c-2,0.3-4.2,0.2-6.4,0.2c-11.7,0-23.4,0-35.2,0
				c-2.3,0-4.7-0.2-6.8,0.2c-0.4,0.1-1.6,0-1.9,0c-1.1-0.3-2.5-0.2-3.8-0.2c-3.3,0-6.6,0.1-9.9,0.2c-6.3,0.2-12.8,0.2-19.2,0.3
				c-0.7,0-1.4,0-2.1,0c-0.4,0-0.8,0.1-1,0.2c-0.6-0.1-1.2-0.2-1.8-0.2c-2.1,0-4.1,0-6.2,0c-1.9,0-3.8,0-5.7,0c-1.8,0-3.4-0.2-5.4,0
				c-4.6,0.3-9.4-0.3-14.2,0c-0.3-0.1-0.7-0.1-0.9-0.2c-1.9,0.1-3.6,0.2-5.4,0.2c-2,0-4.1,0-6.1,0c-0.1,0-0.2,0-0.4,0.1v2.6
				c3.3,0,6.5,0,9.6,0c3.6-0.1,6.9,0.3,10.4,0.2c3,0,6,0.1,8.9-0.2c1.4-0.1,3.4,0,5.1,0c1.4,0,3,0.1,4.4-0.2c1.7-0.3,3,0.1,4.6,0.2
				c1.6,0,3-0.3,4.5-0.1c1.9,0.2,3.5-0.1,5.1-0.1c5.1,0,10-0.4,15.1-0.3c2,0,4.4,0.2,6.3-0.2c0.3-0.1,1.6-0.1,1.9,0
				c1.3,0.3,2.9,0.1,4.3,0.2c2.7,0.1,5.2-0.2,7.9-0.2c6.7,0,13.4,0,20.2,0c6.8,0,13.6,0.2,20.5-0.2c0.4,0.1,1.1,0.1,1.7,0.2
				c0.6-0.1,1-0.2,1.3-0.3c1.6,0.1,2.6,0.2,3.7,0.2c1.2,0,2.8,0.1,3.5,0c1.7-0.3,2.8,0.2,4.5,0.1c1.4-0.1,3.1,0,4.6,0
				c1.6,0,3.2-0.1,4.8-0.2c0.3,0,0.8,0,0.9,0.1c0.9,0.3,2.2,0.2,3.3,0.2c7.2,0,14.5,0,21.7,0c0.9,0,1.8,0,2.6,0
				c6.7-0.3,8-0.3,14.7,0c1.4,0.1,3.4,0.1,4.4-0.1c2-0.3,3.1,0.1,4.6,0.1c2.1-0.4,4.2-0.2,6.2,0c0.6-0.1,0.9-0.2,1.3-0.3
				c0.4,0.1,0.7,0.1,0.9,0.2c0.9-0.1,1.7-0.2,2.4-0.2c4,0.1,7.9,0,12,0.2c4.5,0.2,9.3,0,14,0.2c2.9,0.1,5.9,0,8.9,0.2
				c1.7,0.1,3.8,0,5.8-0.2c1.7-0.2,3.6,0.4,5.7,0.2c1.1-0.1,2.5-0.3,3.1-0.2c2.3,0.3,4.3,0,6.4,0c2.8,0,5.2-0.2,7.4-0.5
				c1.5-0.2,2.7,0.6,5.1,0.6c0.6,0.2,2.2,0.1,2.9,0.2c0.3,0,0.5,0,0.7,0V113.7z"/>
			<path class="st4" d="M225.2,173.2c-2.5,0-4.8,0-7.3,0c-2.1,0-4.1,0-6.2,0c-2.2,0-4.6,0-6.4-0.1c-2.3-0.2-3.8,0.1-5.6,0.1
				c-0.6,0-1.2-0.1-1.8-0.1c-2.6-0.1-5.2-0.2-7.8,0.1c-1.9-0.2-3.6-0.2-8-0.3c-1.9,0-3.5,0.2-5.3,0.1c-2-0.1-4.1,0-6.2,0
				c-1.3,0-2.5-0.1-3.7-0.2c-1.1,0.1-2.2,0.2-3.2,0.2c-1.4,0-2.3-0.3-4.1-0.1c-1,0.1-2.6-0.1-4-0.1c-9.9-0.1-19.8,0.2-29.6-0.2
				c-17.2,0-34.5,0-51.7,0c-0.7,0-1.5,0.1-2,0.1c-1-0.1-2.2-0.2-2.8-0.1c-2,0.3-4.2,0.2-6.4,0.2c-11.7,0-23.4,0-35.2,0
				c-2.3,0-4.7-0.2-6.8,0.2c-0.4,0.1-1.6,0-1.9,0c-1.1-0.3-2.5-0.2-3.8-0.2c-3.3,0-6.6,0.1-9.9,0.2c-6.3,0.2-12.8,0.2-19.2,0.3
				c-0.7,0-1.4,0-2.1,0c-0.4,0-0.8,0.1-1,0.2c-0.6-0.1-1.2-0.2-1.8-0.2c-2.1,0-4.1,0-6.2,0c-1.9,0-3.8,0-5.7,0c-1.8,0-3.4-0.2-5.4,0
				c-4.6,0.3-9.4-0.3-14.2,0c-0.3-0.1-0.7-0.1-0.9-0.2c-1.9,0.1-3.6,0.2-5.4,0.2c-2,0-4.1,0-6.1,0c-0.1,0-0.2,0-0.4,0.1v2.6
				c3.3,0,6.5,0,9.6,0c3.6-0.1,6.9,0.3,10.4,0.2c3,0,6,0.1,8.9-0.2c1.4-0.1,3.4,0,5.1,0c1.4,0,3,0.1,4.4-0.1c1.7-0.3,3,0.1,4.6,0.2
				c1.6,0,3-0.3,4.5-0.1c1.9,0.2,3.5-0.1,5.1-0.1c5.1,0,10-0.4,15.1-0.3c2,0,4.4,0.2,6.3-0.2c0.3-0.1,1.6-0.1,1.9,0
				c1.3,0.3,2.9,0.1,4.3,0.2c2.7,0.1,5.2-0.2,7.9-0.2c6.7,0,13.4,0,20.2,0c6.8,0,13.6,0.2,20.5-0.2c0.4,0.1,1.1,0.1,1.7,0.2
				c0.6-0.1,1-0.2,1.3-0.3c1.6,0.1,2.6,0.2,3.7,0.2c1.2,0,2.8,0.1,3.5,0c1.7-0.3,2.8,0.2,4.5,0.1c1.4-0.1,3.1,0,4.6,0
				c1.6,0,3.2-0.1,4.8-0.2c0.3,0,0.8,0,0.9,0.1c0.9,0.3,2.2,0.2,3.3,0.2c7.2,0,14.5,0,21.7,0c0.9,0,1.8,0,2.6,0
				c6.7-0.3,8-0.3,14.7,0c1.4,0.1,3.4,0.1,4.4-0.1c2-0.3,3.1,0.1,4.6,0.1c2.1-0.4,4.2-0.2,6.2,0c0.6-0.1,0.9-0.2,1.3-0.3
				c0.4,0.1,0.7,0.1,0.9,0.2c0.9-0.1,1.7-0.2,2.4-0.2c4,0.1,7.9,0,12,0.2c4.5,0.2,9.3,0,14,0.3c2.9,0.1,5.9,0,8.9,0.2
				c1.7,0.1,3.8,0,5.8-0.2c1.7-0.2,3.6,0.4,5.7,0.2c1.1-0.1,2.5-0.3,3.1-0.2c2.3,0.3,4.3,0,6.4,0c2.8,0,5.2,0.1,7.5-0.2
				c1.5-0.2,2.5,0.3,4.9,0.4c0.6,0.2,2.9,0.1,3.6,0.3c0,0,0.1,0,0.1,0V173.2z"/>
			<path class="st4" d="M225.2,159.1c-2.4,0.1-4.4-0.1-7.3-0.1c-2.1,0.1-4.1,0.1-6.2,0c-2.2-0.1-4.6,0.1-6.4-0.4
				c-2.3-0.7-3.8,0.3-5.6,0.4c-0.6,0-1.2-0.3-1.8-0.4c-2.6-0.3-5.2-0.8-7.8,0.4c-1.9-0.6-3.6-0.6-8-0.8c-1.9-0.1-3.5,0.5-5.3,0.3
				c-2-0.3-4.1,0-6.2-0.1c-1.3-0.1-2.5-0.4-3.7-0.6c-1.1,0.2-2.2,0.6-3.2,0.5c-1.4-0.1-2.3-1-4.1-0.4c-1,0.4-2.6-0.2-4-0.3
				c-9.9-0.4-19.8,0.7-29.6-0.7c-17.2,0-34.5,0-51.7,0c-0.7,0-1.5,0.3-2,0.5c-1-0.2-2.2-0.7-2.8-0.4c-2,0.9-4.2,0.6-6.4,0.6
				c-11.7,0-23.4,0-35.2,0c-2.3,0-4.7-0.6-6.8,0.6c-0.4,0.2-1.6,0.1-1.9-0.1c-1.1-0.9-2.5-0.5-3.8-0.5c-3.3,0-6.6,0.2-9.9,0.6
				c-6.3,0.6-12.8,0.6-19.2,0.8c-0.7,0-1.4-0.1-2.1,0c-0.4,0.1-0.8,0.4-1,0.6c-0.6-0.2-1.2-0.6-1.8-0.6c-2.1-0.1-4.1,0-6.2,0
				c-1.9,0-3.8,0-5.7,0c-1.8,0-3.4-0.5-5.4-0.1c-4.6,0.9-9.4-1.1-14.2,0.1c-0.3-0.2-0.7-0.4-0.9-0.6c-1.9,0.2-3.6,0.5-5.4,0.6
				c-2,0.1-4.1,0-6.1,0c-0.1,0.1-0.2,0.2-0.4,0.2v8.2c3.3,0,6.5,0.1,9.6-0.1c3.6-0.2,6.9,0.9,10.4,0.7c3-0.1,6,0.3,8.9-0.6
				c1.4-0.5,3.4,0,5.1-0.1c1.4-0.1,3,0.4,4.4-0.5c1.7-1,3,0.5,4.6,0.6c1.6,0.1,3-0.8,4.5-0.3c1.9,0.6,3.5-0.3,5.1-0.3
				c5.1,0,10-1.2,15.1-0.9c2,0.1,4.4,0.6,6.3-0.6c0.3-0.2,1.6-0.2,1.9,0.1c1.3,1,2.9,0.4,4.3,0.6c2.7,0.4,5.2-0.6,7.9-0.7
				c6.7-0.1,13.4,0.1,20.2-0.1c6.8-0.1,13.6,0.6,20.5-0.6c0.4,0.2,1.1,0.5,1.7,0.7c0.6-0.4,1-0.6,1.3-0.8c1.6,0.3,2.6,0.6,3.7,0.7
				c1.2,0.1,2.8,0.3,3.5-0.1c1.7-0.9,2.8,0.6,4.5,0.2c1.4-0.3,3.1,0,4.6-0.1c1.6-0.1,3.2-0.5,4.8-0.7c0.3,0,0.8,0,0.9,0.2
				c0.9,0.8,2.2,0.5,3.3,0.5c7.2,0,14.5,0,21.7,0c0.9,0,1.8,0.1,2.6,0c6.7-0.9,8-0.9,14.7,0c1.4,0.2,3.4,0.2,4.4-0.3
				c2-1,3.1,0.2,4.6,0.4c2.1-1.3,4.2-0.6,6.2,0.1c0.6-0.4,0.9-0.6,1.3-0.8c0.4,0.2,0.7,0.4,0.9,0.5c0.9-0.2,1.7-0.6,2.4-0.5
				c4,0.2,7.9-0.1,12,0.5c4.5,0.7,9.3,0.1,14,0.8c2.9,0.4,5.9,0,8.9,0.7c1.7,0.4,3.8,0.1,5.8-0.5c1.7-0.6,3.6,1.1,5.7,0.6
				c1.1-0.2,2.5-0.9,3.1-0.6c2.3,1,4.3,0,6.4,0c2.8,0.1,5.2,1.1,7.4,0.2c1.5-0.6,2.5,0.2,4.9,0.4c2.1,1.7,2.2-0.6,3.8,0.8
				c0,0,0,0,0,0V159.1z"/>
			<path class="st4" d="M225.2,149.8c-2.5,0-4.4-0.1-7.3,0c-2.1,0-4.1,0-6.2,0c-2.2,0-4.6,0-6.4-0.1c-2.3-0.2-3.8,0.1-5.6,0.1
				c-0.6,0-1.2-0.1-1.8-0.1c-2.6-0.1-5.2-0.2-7.8,0.1c-1.9-0.2-3.6-0.2-8-0.3c-1.9,0-3.5,0.2-5.3,0.1c-2-0.1-4.1,0-6.2,0
				c-1.3,0-2.5-0.1-3.7-0.2c-1.1,0.1-2.2,0.2-3.2,0.2c-1.4,0-2.3-0.3-4.1-0.1c-1,0.1-2.6-0.1-4-0.1c-9.9-0.1-19.8,0.2-29.6-0.2
				c-17.2,0-34.5,0-51.7,0c-0.7,0-1.5,0.1-2,0.1c-1-0.1-2.2-0.2-2.8-0.1c-2,0.3-4.2,0.2-6.4,0.2c-11.7,0-23.4,0-35.2,0
				c-2.3,0-4.7-0.2-6.8,0.2c-0.4,0.1-1.6,0-1.9,0c-1.1-0.3-2.5-0.2-3.8-0.2c-3.3,0-6.6,0.1-9.9,0.2c-6.3,0.2-12.8,0.2-19.2,0.3
				c-0.7,0-1.4,0-2.1,0c-0.4,0-0.8,0.1-1,0.2c-0.6-0.1-1.2-0.2-1.8-0.2c-2.1,0-4.1,0-6.2,0c-1.9,0-3.8,0-5.7,0c-1.8,0-3.4-0.2-5.4,0
				c-4.6,0.3-9.4-0.3-14.2,0c-0.3-0.1-0.7-0.1-0.9-0.2c-1.9,0.1-3.6,0.2-5.4,0.2c-2,0-4.1,0-6.1,0c-0.1,0-0.2,0-0.4,0.1v2.6
				c3.3,0,6.5,0,9.6,0c3.6-0.1,6.9,0.3,10.4,0.2c3,0,6,0.1,8.9-0.2c1.4-0.1,3.4,0,5.1,0c1.4,0,3,0.1,4.4-0.1c1.7-0.3,3,0.1,4.6,0.2
				c1.6,0,3-0.3,4.5-0.1c1.9,0.2,3.5-0.1,5.1-0.1c5.1,0,10-0.4,15.1-0.3c2,0,4.4,0.2,6.3-0.2c0.3-0.1,1.6-0.1,1.9,0
				c1.3,0.3,2.9,0.1,4.3,0.2c2.7,0.1,5.2-0.2,7.9-0.2c6.7,0,13.4,0,20.2,0c6.8,0,13.6,0.2,20.5-0.2c0.4,0.1,1.1,0.1,1.7,0.2
				c0.6-0.1,1-0.2,1.3-0.3c1.6,0.1,2.6,0.2,3.7,0.2c1.2,0,2.8,0.1,3.5,0c1.7-0.3,2.8,0.2,4.5,0.1c1.4-0.1,3.1,0,4.6,0
				c1.6,0,3.2-0.1,4.8-0.2c0.3,0,0.8,0,0.9,0.1c0.9,0.3,2.2,0.2,3.3,0.2c7.2,0,14.5,0,21.7,0c0.9,0,1.8,0,2.6,0
				c6.7-0.3,8-0.3,14.7,0c1.4,0.1,3.4,0.1,4.4-0.1c2-0.3,3.1,0.1,4.6,0.1c2.1-0.4,4.2-0.2,6.2,0c0.6-0.1,0.9-0.2,1.3-0.3
				c0.4,0.1,0.7,0.1,0.9,0.2c0.9-0.1,1.7-0.2,2.4-0.2c4,0.1,7.9,0,12,0.2c4.5,0.2,9.3,0,14,0.2c2.9,0.1,5.9,0,8.9,0.2
				c1.7,0.1,3.8,0,5.8-0.2c1.7-0.2,3.6,0.4,5.7,0.2c1.1-0.1,2.5-0.3,3.1-0.2c2.3,0.3,4.3,0,6.4,0c2.8,0,5.2-0.2,7.4-0.5
				c1.5-0.2,2.7,0.6,5.1,0.6c0.6,0.2,2.2,0.1,2.9,0.2c0.3,0,0.5,0,0.7,0V149.8z"/>
			<path class="st4" d="M-34.3-107.6c0,2.5,0,4.8,0,7.3c0,2.1,0,4.1,0,6.2c0,2.2,0,4.6-0.1,6.4c-0.2,2.3,0.1,3.8,0.1,5.6
				c0,0.6-0.1,1.2-0.1,1.8c-0.1,2.6-0.2,5.2,0.1,7.8c-0.2,1.9-0.2,3.6-0.3,8c0,1.9,0.2,3.5,0.1,5.3c-0.1,2,0,4.1,0,6.2
				c0,1.3-0.1,2.5-0.2,3.7c0.1,1.1,0.2,2.2,0.2,3.2c0,1.3-0.3,2.3-0.1,4.1c0.1,1-0.1,2.6-0.1,4c-0.1,9.8,0.2,19.8-0.2,29.6
				c0,17.2,0,34.5,0,51.7c0,0.7,0.1,1.5,0.2,2c-0.1,1-0.2,2.2-0.1,2.8c0.3,2,0.2,4.2,0.2,6.4c0,11.7,0,23.4,0,35.2
				c0,2.3-0.2,4.7,0.2,6.9c0.1,0.4,0,1.6,0,1.9c-0.3,1.1-0.2,2.5-0.2,3.8c0,3.3,0.1,6.6,0.2,9.9c0.2,6.3,0.2,12.8,0.3,19.2
				c0,0.7,0,1.4,0,2.1c0,0.4,0.1,0.7,0.2,1c-0.1,0.6-0.2,1.2-0.2,1.8c0,2.1,0,4.1,0,6.2c0,1.9,0,3.8,0,5.7c0,1.8-0.2,3.4,0,5.4
				c0.3,4.6-0.3,9.4,0,14.2c-0.1,0.3-0.1,0.7-0.2,0.9c0.1,1.9,0.2,3.6,0.2,5.4c0,2,0,4.1,0,6.1c0,0.1,0.1,0.2,0.1,0.4h2.6
				c0-3.3,0-6.5,0-9.6c-0.1-3.6,0.3-6.9,0.2-10.4c0-3,0.1-6-0.2-8.9c-0.1-1.4,0-3.4,0-5.1c0-1.4,0.1-3-0.2-4.4
				c-0.3-1.7,0.1-3,0.2-4.6c0-1.6-0.3-3-0.1-4.5c0.2-1.9-0.1-3.5-0.1-5.1c0-5.1-0.4-10-0.3-15.1c0-2,0.2-4.4-0.2-6.3
				c-0.1-0.3-0.1-1.6,0-1.9c0.3-1.3,0.1-2.9,0.2-4.3c0.1-2.7-0.2-5.2-0.2-7.9c0-6.7,0-13.4,0-20.2c0-6.8,0.2-13.6-0.2-20.5
				c0.1-0.4,0.1-1.1,0.2-1.7c-0.1-0.6-0.2-1-0.3-1.3c0.1-1.6,0.2-2.6,0.2-3.7c0-1.2,0.1-2.8,0-3.5c-0.3-1.7,0.2-2.8,0.1-4.4
				c-0.1-1.4,0-3.1,0-4.6c0-1.6-0.1-3.2-0.2-4.8c0-0.3,0-0.8,0.1-0.9c0.3-0.9,0.2-2.2,0.2-3.3c0-7.2,0-14.5,0-21.7
				c0-0.9,0-1.8,0-2.6c-0.3-6.7-0.3-8,0-14.7c0.1-1.4,0.1-3.4-0.1-4.4c-0.3-2,0.1-3.1,0.1-4.6c-0.4-2.1-0.2-4.2,0-6.2
				c-0.1-0.6-0.2-0.9-0.3-1.3c0.1-0.4,0.1-0.7,0.2-0.9c-0.1-0.9-0.2-1.7-0.2-2.4c0.1-4,0-7.9,0.2-12c0.2-4.5,0-9.3,0.2-14
				c0.1-2.9,0-5.9,0.2-8.9c0.1-1.7,0-3.8-0.2-5.8c-0.2-1.7,0.4-3.6,0.2-5.7c-0.1-1.1-0.3-2.5-0.2-3.1c0.3-2.3,0-4.3,0-6.4
				c0-2.8,0.1-5.2-0.2-7.5c-0.2-1.5,0.3-2.5,0.4-4.9c0.2-0.6,0.1-2.9,0.3-3.6c0,0,0-0.1,0-0.1H-34.3z"/>
			<path class="st4" d="M-48.4-107.6c0.1,2.4-0.2,4.4-0.1,7.3c0.1,2.1,0.1,4.1,0,6.2c-0.1,2.2,0.1,4.6-0.4,6.4
				c-0.7,2.3,0.3,3.8,0.4,5.6c0,0.6-0.3,1.2-0.4,1.8c-0.3,2.6-0.8,5.2,0.4,7.8c-0.6,1.9-0.6,3.6-0.8,8c-0.1,1.9,0.5,3.5,0.3,5.3
				c-0.3,2,0,4.1-0.1,6.2c-0.1,1.3-0.4,2.5-0.6,3.7c0.2,1.1,0.6,2.2,0.5,3.2c-0.1,1.3-1,2.3-0.4,4.1c0.4,1-0.2,2.6-0.3,4
				c-0.4,9.8,0.7,19.8-0.7,29.6c0,17.2,0,34.5,0,51.7c0,0.7,0.3,1.5,0.5,2c-0.2,1-0.7,2.2-0.4,2.8c0.9,2,0.6,4.2,0.6,6.4
				c0,11.7,0,23.4,0,35.2c0,2.3-0.6,4.7,0.6,6.9c0.2,0.4,0.1,1.6-0.1,1.9c-0.9,1.1-0.5,2.5-0.5,3.8c0,3.3,0.2,6.6,0.6,9.9
				c0.6,6.3,0.6,12.8,0.8,19.2c0,0.7-0.1,1.4,0,2.1c0.1,0.4,0.4,0.7,0.6,1c-0.2,0.6-0.6,1.2-0.6,1.8c-0.1,2.1,0,4.1,0,6.2
				c0,1.9,0,3.8,0,5.7c0,1.8-0.5,3.4-0.1,5.4c0.9,4.6-1.1,9.4,0.1,14.2c-0.2,0.3-0.4,0.7-0.6,0.9c0.2,1.9,0.5,3.6,0.6,5.4
				c0.1,2,0,4.1,0,6.1c0.1,0.1,0.2,0.2,0.2,0.4h8.2c0-3.3,0.1-6.5-0.1-9.6c-0.2-3.6,0.9-6.9,0.7-10.4c-0.1-3,0.3-6-0.6-8.9
				c-0.4-1.4,0-3.4-0.1-5.1c-0.1-1.4,0.4-3-0.5-4.4c-1-1.7,0.5-3,0.6-4.6c0.1-1.6-0.8-3-0.3-4.5c0.6-1.9-0.3-3.5-0.3-5.1
				c0-5.1-1.2-10-0.9-15.1c0.1-2,0.6-4.4-0.6-6.3c-0.2-0.3-0.2-1.6,0.1-1.9c1-1.3,0.4-2.9,0.6-4.3c0.4-2.7-0.6-5.2-0.7-7.9
				c-0.1-6.7,0.1-13.4-0.1-20.2c-0.1-6.8,0.7-13.6-0.6-20.5c0.2-0.4,0.5-1.1,0.7-1.7c-0.4-0.6-0.6-1-0.8-1.3
				c0.3-1.6,0.6-2.6,0.7-3.7c0.1-1.2,0.3-2.8-0.1-3.5c-0.9-1.7,0.6-2.8,0.2-4.4c-0.3-1.4,0-3.1-0.1-4.6c-0.1-1.6-0.5-3.2-0.7-4.8
				c0-0.3,0-0.8,0.2-0.9c0.8-0.9,0.5-2.2,0.5-3.3c0-7.2,0-14.5,0-21.7c0-0.9,0.1-1.8,0-2.6c-0.9-6.7-0.9-8,0-14.7
				c0.2-1.4,0.2-3.4-0.3-4.4c-1-2,0.2-3.1,0.4-4.6c-1.3-2.1-0.7-4.2,0.1-6.2c-0.4-0.6-0.6-0.9-0.8-1.3c0.2-0.4,0.4-0.7,0.5-0.9
				c-0.2-0.9-0.6-1.7-0.5-2.4c0.2-4-0.1-7.9,0.5-12c0.7-4.5,0.1-9.3,0.8-14c0.4-2.9-0.1-5.9,0.7-8.9c0.4-1.7,0.1-3.8-0.5-5.8
				c-0.5-1.7,1.1-3.6,0.6-5.7c-0.2-1.1-0.9-2.5-0.6-3.1c1-2.3,0-4.3,0-6.4c0.1-2.8,1.1-5.2,0.2-7.4c-0.6-1.5,0.2-2.5,0.4-4.9
				c1.7-2.1-0.6-2.2,0.8-3.8c0,0,0,0,0,0H-48.4z"/>
			<path class="st4" d="M-57.7-107.6c0,2.5-0.1,4.4,0,7.3c0,2.1,0,4.1,0,6.2c0,2.2,0,4.6-0.1,6.4c-0.2,2.3,0.1,3.8,0.1,5.6
				c0,0.6-0.1,1.2-0.1,1.8c-0.1,2.6-0.2,5.2,0.1,7.8c-0.2,1.9-0.2,3.6-0.3,8c0,1.9,0.2,3.5,0.1,5.3c-0.1,2,0,4.1,0,6.2
				c0,1.3-0.1,2.5-0.2,3.7C-58.1-48.1-58-47-58-46c0,1.3-0.3,2.3-0.1,4.1c0.1,1-0.1,2.6-0.1,4c-0.1,9.8,0.2,19.8-0.2,29.6
				c0,17.2,0,34.5,0,51.7c0,0.7,0.1,1.5,0.2,2c-0.1,1-0.2,2.2-0.1,2.8c0.3,2,0.2,4.2,0.2,6.4c0,11.7,0,23.4,0,35.2
				c0,2.3-0.2,4.7,0.2,6.9c0.1,0.4,0,1.6,0,1.9c-0.3,1.1-0.2,2.5-0.2,3.8c0,3.3,0.1,6.6,0.2,9.9c0.2,6.3,0.2,12.8,0.3,19.2
				c0,0.7,0,1.4,0,2.1c0,0.4,0.1,0.7,0.2,1c-0.1,0.6-0.2,1.2-0.2,1.8c0,2.1,0,4.1,0,6.2c0,1.9,0,3.8,0,5.7c0,1.8-0.2,3.4,0,5.4
				c0.3,4.6-0.3,9.4,0,14.2c-0.1,0.3-0.1,0.7-0.2,0.9c0.1,1.9,0.2,3.6,0.2,5.4c0,2,0,4.1,0,6.1c0,0.1,0,0.2,0.1,0.4h2.6
				c0-3.3,0-6.5,0-9.6c-0.1-3.6,0.3-6.9,0.2-10.4c0-3,0.1-6-0.2-8.9c-0.1-1.4,0-3.4,0-5.1c0-1.4,0.1-3-0.2-4.4
				c-0.3-1.7,0.1-3,0.2-4.6c0-1.6-0.3-3-0.1-4.5c0.2-1.9-0.1-3.5-0.1-5.1c0-5.1-0.4-10-0.3-15.1c0-2,0.2-4.4-0.2-6.3
				c-0.1-0.3-0.1-1.6,0-1.9c0.3-1.3,0.1-2.9,0.2-4.3c0.1-2.7-0.2-5.2-0.2-7.9c0-6.7,0-13.4,0-20.2c0-6.8,0.2-13.6-0.2-20.5
				c0.1-0.4,0.1-1.1,0.2-1.7c-0.1-0.6-0.2-1-0.3-1.3c0.1-1.6,0.2-2.6,0.2-3.7c0-1.2,0.1-2.8,0-3.5c-0.3-1.7,0.2-2.8,0.1-4.4
				c-0.1-1.4,0-3.1,0-4.6c0-1.6-0.1-3.2-0.2-4.8c0-0.3,0-0.8,0.1-0.9c0.3-0.9,0.2-2.2,0.2-3.3c0-7.2,0-14.5,0-21.7
				c0-0.9,0-1.8,0-2.6c-0.3-6.7-0.3-8,0-14.7c0.1-1.4,0.1-3.4-0.1-4.4c-0.3-2,0.1-3.1,0.1-4.6c-0.4-2.1-0.2-4.2,0-6.2
				c-0.1-0.6-0.2-0.9-0.3-1.3c0.1-0.4,0.1-0.7,0.2-0.9c-0.1-0.9-0.2-1.7-0.2-2.4c0.1-4,0-7.9,0.2-12c0.2-4.5,0-9.3,0.2-14
				c0.1-2.9,0-5.9,0.2-8.9c0.1-1.7,0-3.8-0.2-5.8c-0.2-1.7,0.4-3.6,0.2-5.7c-0.1-1.1-0.3-2.5-0.2-3.1c0.3-2.3,0-4.3,0-6.4
				c0-2.8-0.2-5.2-0.5-7.4c-0.2-1.5,0.6-2.7,0.6-5.1c0.2-0.6,0.1-2.2,0.2-2.9c0-0.3,0-0.5,0-0.7H-57.7z"/>
			<path class="st4" d="M1.7-107.6c0,2.5,0,4.8,0,7.3c0,2.1,0,4.1,0,6.2c0,2.2,0,4.6-0.1,6.4c-0.2,2.3,0.1,3.8,0.1,5.6
				c0,0.6-0.1,1.2-0.1,1.8c-0.1,2.6-0.2,5.2,0.1,7.8c-0.2,1.9-0.2,3.6-0.3,8c0,1.9,0.2,3.5,0.1,5.3c-0.1,2,0,4.1,0,6.2
				c0,1.3-0.1,2.5-0.2,3.7C1.4-48.1,1.5-47,1.5-46c0,1.3-0.3,2.3-0.1,4.1c0.1,1-0.1,2.6-0.1,4C1.2-28.1,1.5-18.2,1-8.4
				C1,8.8,1,26.1,1,43.3c0,0.7,0.1,1.5,0.2,2c-0.1,1-0.2,2.2-0.1,2.8c0.3,2,0.2,4.2,0.2,6.4c0,11.7,0,23.4,0,35.2
				c0,2.3-0.2,4.7,0.2,6.9c0.1,0.4,0,1.6,0,1.9c-0.3,1.1-0.2,2.5-0.2,3.8c0,3.3,0.1,6.6,0.2,9.9c0.2,6.3,0.2,12.8,0.3,19.2
				c0,0.7,0,1.4,0,2.1c0,0.4,0.1,0.7,0.2,1c-0.1,0.6-0.2,1.2-0.2,1.8c0,2.1,0,4.1,0,6.2c0,1.9,0,3.8,0,5.7c0,1.8-0.2,3.4,0,5.4
				c0.3,4.6-0.3,9.4,0,14.2c-0.1,0.3-0.1,0.7-0.2,0.9c0.1,1.9,0.2,3.6,0.2,5.4c0,2,0,4.1,0,6.1c0,0.1,0,0.2,0.1,0.4h2.6
				c0-3.3,0-6.5,0-9.6c-0.1-3.6,0.3-6.9,0.2-10.4c0-3,0.1-6-0.2-8.9c-0.1-1.4,0-3.4,0-5.1c0-1.4,0.1-3-0.1-4.4
				c-0.3-1.7,0.1-3,0.2-4.6c0-1.6-0.3-3-0.1-4.5c0.2-1.9-0.1-3.5-0.1-5.1c0-5.1-0.4-10-0.3-15.1c0-2,0.2-4.4-0.2-6.3
				c-0.1-0.3-0.1-1.6,0-1.9c0.3-1.3,0.1-2.9,0.2-4.3c0.1-2.7-0.2-5.2-0.2-7.9c0-6.7,0-13.4,0-20.2c0-6.8,0.2-13.6-0.2-20.5
				c0.1-0.4,0.1-1.1,0.2-1.7c-0.1-0.6-0.2-1-0.3-1.3c0.1-1.6,0.2-2.6,0.2-3.7c0-1.2,0.1-2.8,0-3.5c-0.3-1.7,0.2-2.8,0.1-4.4
				c-0.1-1.4,0-3.1,0-4.6c0-1.6-0.1-3.2-0.2-4.8c0-0.3,0-0.8,0.1-0.9c0.3-0.9,0.2-2.2,0.2-3.3c0-7.2,0-14.5,0-21.7
				c0-0.9,0-1.8,0-2.6c-0.3-6.7-0.3-8,0-14.7c0.1-1.4,0.1-3.4-0.1-4.4c-0.3-2,0.1-3.1,0.1-4.6c-0.4-2.1-0.2-4.2,0-6.2
				c-0.1-0.6-0.2-0.9-0.3-1.3c0.1-0.4,0.1-0.7,0.2-0.9c-0.1-0.9-0.2-1.7-0.2-2.4c0.1-4,0-7.9,0.2-12c0.2-4.5,0-9.3,0.3-14
				c0.1-2.9,0-5.9,0.2-8.9c0.1-1.7,0-3.8-0.2-5.8c-0.2-1.7,0.4-3.6,0.2-5.7C4.1-83,3.9-84.5,4-85.1c0.3-2.3,0-4.3,0-6.4
				c0-2.8,0.1-5.2-0.2-7.5c-0.2-1.5,0.3-2.5,0.4-4.9c0.2-0.6,0.1-2.9,0.3-3.6c0,0,0-0.1,0-0.1H1.7z"/>
			<path class="st4" d="M-12.4-107.6c0.1,2.4-0.2,4.4-0.1,7.3c0.1,2.1,0.1,4.1,0,6.2c-0.1,2.2,0.1,4.6-0.4,6.4
				c-0.7,2.3,0.3,3.8,0.4,5.6c0,0.6-0.3,1.2-0.4,1.8c-0.3,2.6-0.8,5.2,0.4,7.8c-0.6,1.9-0.6,3.6-0.8,8c-0.1,1.9,0.5,3.5,0.3,5.3
				c-0.3,2,0,4.1-0.1,6.2c-0.1,1.3-0.4,2.5-0.6,3.7c0.2,1.1,0.6,2.2,0.5,3.2c-0.1,1.3-1,2.3-0.4,4.1c0.4,1-0.2,2.6-0.3,4
				c-0.4,9.8,0.7,19.8-0.7,29.6c0,17.2,0,34.5,0,51.7c0,0.7,0.3,1.5,0.5,2c-0.2,1-0.7,2.2-0.4,2.8c0.9,2,0.6,4.2,0.6,6.4
				c0,11.7,0,23.4,0,35.2c0,2.3-0.6,4.7,0.6,6.9c0.2,0.4,0.1,1.6-0.1,1.9c-0.9,1.1-0.5,2.5-0.5,3.8c0,3.3,0.2,6.6,0.6,9.9
				c0.6,6.3,0.6,12.8,0.8,19.2c0,0.7-0.1,1.4,0,2.1c0.1,0.4,0.4,0.7,0.6,1c-0.2,0.6-0.6,1.2-0.6,1.8c-0.1,2.1,0,4.1,0,6.2
				c0,1.9,0,3.8,0,5.7c0,1.8-0.5,3.4-0.1,5.4c0.9,4.6-1.1,9.4,0.1,14.2c-0.2,0.3-0.4,0.7-0.6,0.9c0.2,1.9,0.5,3.6,0.6,5.4
				c0.1,2,0,4.1,0,6.1c0.1,0.1,0.2,0.2,0.2,0.4H-4c0-3.3,0.1-6.5-0.1-9.6c-0.2-3.6,0.9-6.9,0.7-10.4c-0.1-3,0.3-6-0.6-8.9
				c-0.5-1.4,0-3.4-0.1-5.1c-0.1-1.4,0.4-3-0.5-4.4c-1-1.7,0.5-3,0.6-4.6c0.1-1.6-0.8-3-0.3-4.5c0.6-1.9-0.3-3.5-0.3-5.1
				c0-5.1-1.2-10-0.9-15.1c0.1-2,0.6-4.4-0.6-6.3c-0.2-0.3-0.2-1.6,0.1-1.9c1-1.3,0.4-2.9,0.6-4.3C-5,97.4-6,94.9-6,92.3
				C-6.2,85.5-6,78.8-6.1,72.1c-0.1-6.8,0.6-13.6-0.6-20.5c0.2-0.4,0.5-1.1,0.7-1.7c-0.4-0.6-0.6-1-0.8-1.3c0.3-1.6,0.6-2.6,0.7-3.7
				c0.1-1.2,0.3-2.8-0.1-3.5c-0.9-1.7,0.6-2.8,0.2-4.4c-0.3-1.4,0-3.1-0.1-4.6c-0.1-1.6-0.5-3.2-0.7-4.8c0-0.3,0-0.8,0.2-0.9
				c0.8-0.9,0.5-2.2,0.5-3.3c0-7.2,0-14.5,0-21.7c0-0.9,0.1-1.8,0-2.6c-0.9-6.7-0.9-8,0-14.7c0.2-1.4,0.2-3.4-0.3-4.4
				c-1-2,0.2-3.1,0.4-4.6c-1.3-2.1-0.6-4.2,0.1-6.2c-0.4-0.6-0.6-0.9-0.8-1.3c0.2-0.4,0.4-0.7,0.5-0.9c-0.2-0.9-0.6-1.7-0.5-2.4
				c0.2-4-0.1-7.9,0.5-12c0.7-4.5,0.1-9.3,0.8-14c0.4-2.9-0.1-5.9,0.7-8.9c0.4-1.7,0.1-3.8-0.5-5.8c-0.5-1.7,1.1-3.6,0.6-5.7
				c-0.2-1.1-0.9-2.5-0.6-3.1c1-2.3,0-4.3,0-6.4c0.1-2.8,1.1-5.2,0.2-7.4c-0.6-1.5,0.2-2.5,0.4-4.9c1.7-2.1-0.6-2.2,0.8-3.8
				c0,0,0,0,0,0H-12.4z"/>
			<path class="st4" d="M-21.7-107.6c0,2.5-0.1,4.4,0,7.3c0,2.1,0,4.1,0,6.2c0,2.2,0,4.6-0.1,6.4c-0.2,2.3,0.1,3.8,0.1,5.6
				c0,0.6-0.1,1.2-0.1,1.8c-0.1,2.6-0.2,5.2,0.1,7.8c-0.2,1.9-0.2,3.6-0.3,8c0,1.9,0.2,3.5,0.1,5.3c-0.1,2,0,4.1,0,6.2
				c0,1.3-0.1,2.5-0.2,3.7C-22.1-48.1-22-47-22-46c0,1.3-0.3,2.3-0.1,4.1c0.1,1-0.1,2.6-0.1,4c-0.1,9.8,0.2,19.8-0.2,29.6
				c0,17.2,0,34.5,0,51.7c0,0.7,0.1,1.5,0.2,2c-0.1,1-0.2,2.2-0.1,2.8c0.3,2,0.2,4.2,0.2,6.4c0,11.7,0,23.4,0,35.2
				c0,2.3-0.2,4.7,0.2,6.9c0.1,0.4,0,1.6,0,1.9c-0.3,1.1-0.2,2.5-0.2,3.8c0,3.3,0.1,6.6,0.2,9.9c0.2,6.3,0.2,12.8,0.3,19.2
				c0,0.7,0,1.4,0,2.1c0,0.4,0.1,0.7,0.2,1c-0.1,0.6-0.2,1.2-0.2,1.8c0,2.1,0,4.1,0,6.2c0,1.9,0,3.8,0,5.7c0,1.8-0.2,3.4,0,5.4
				c0.3,4.6-0.3,9.4,0,14.2c-0.1,0.3-0.1,0.7-0.2,0.9c0.1,1.9,0.2,3.6,0.2,5.4c0,2,0,4.1,0,6.1c0,0.1,0.1,0.2,0.1,0.4h2.6
				c0-3.3,0-6.5,0-9.6c-0.1-3.6,0.3-6.9,0.2-10.4c0-3,0.1-6-0.2-8.9c-0.1-1.4,0-3.4,0-5.1c0-1.4,0.1-3-0.2-4.4
				c-0.3-1.7,0.1-3,0.2-4.6c0-1.6-0.3-3-0.1-4.5c0.2-1.9-0.1-3.5-0.1-5.1c0-5.1-0.4-10-0.3-15.1c0-2,0.2-4.4-0.2-6.3
				c-0.1-0.3-0.1-1.6,0-1.9c0.3-1.3,0.1-2.9,0.2-4.3c0.1-2.7-0.2-5.2-0.2-7.9c0-6.7,0-13.4,0-20.2c0-6.8,0.2-13.6-0.2-20.5
				c0.1-0.4,0.1-1.1,0.2-1.7c-0.1-0.6-0.2-1-0.3-1.3c0.1-1.6,0.2-2.6,0.2-3.7c0-1.2,0.1-2.8,0-3.5c-0.3-1.7,0.2-2.8,0.1-4.4
				c-0.1-1.4,0-3.1,0-4.6c0-1.6-0.1-3.2-0.2-4.8c0-0.3,0-0.8,0.1-0.9c0.3-0.9,0.2-2.2,0.2-3.3c0-7.2,0-14.5,0-21.7
				c0-0.9,0-1.8,0-2.6c-0.3-6.7-0.3-8,0-14.7c0.1-1.4,0.1-3.4-0.1-4.4c-0.3-2,0.1-3.1,0.1-4.6c-0.4-2.1-0.2-4.2,0-6.2
				c-0.1-0.6-0.2-0.9-0.3-1.3c0.1-0.4,0.1-0.7,0.2-0.9c-0.1-0.9-0.2-1.7-0.2-2.4c0.1-4,0-7.9,0.2-12c0.2-4.5,0-9.3,0.3-14
				c0.1-2.9,0-5.9,0.2-8.9c0.1-1.7,0-3.8-0.2-5.8c-0.2-1.7,0.4-3.6,0.2-5.7c-0.1-1.1-0.3-2.5-0.2-3.1c0.3-2.3,0-4.3,0-6.4
				c0-2.8-0.2-5.2-0.5-7.4c-0.2-1.5,0.5-2.7,0.6-5.1c0.2-0.6,0.1-2.2,0.2-2.9c0-0.3,0-0.5,0-0.7H-21.7z"/>
			<path class="st4" d="M37.8-107.6c0,2.5,0,4.8,0,7.3c0,2.1,0,4.1,0,6.2c0,2.2,0,4.6-0.1,6.4c-0.2,2.3,0.1,3.8,0.1,5.6
				c0,0.6-0.1,1.2-0.1,1.8c-0.1,2.6-0.2,5.2,0.1,7.8c-0.2,1.9-0.2,3.6-0.3,8c0,1.9,0.2,3.5,0.1,5.3c-0.1,2,0,4.1,0,6.2
				c0,1.3-0.1,2.5-0.2,3.7c0.1,1.1,0.2,2.2,0.2,3.2c0,1.3-0.3,2.3-0.1,4.1c0.1,1-0.1,2.6-0.1,4c-0.1,9.8,0.2,19.8-0.2,29.6
				c0,17.2,0,34.5,0,51.7c0,0.7,0.1,1.5,0.2,2c-0.1,1-0.2,2.2-0.1,2.8c0.3,2,0.2,4.2,0.2,6.4c0,11.7,0,23.4,0,35.2
				c0,2.3-0.2,4.7,0.2,6.9c0.1,0.4,0,1.6,0,1.9c-0.3,1.1-0.2,2.5-0.2,3.8c0,3.3,0.1,6.6,0.2,9.9c0.2,6.3,0.2,12.8,0.3,19.2
				c0,0.7,0,1.4,0,2.1c0,0.4,0.1,0.7,0.2,1c-0.1,0.6-0.2,1.2-0.2,1.8c0,2.1,0,4.1,0,6.2c0,1.9,0,3.8,0,5.7c0,1.8-0.2,3.4,0,5.4
				c0.3,4.6-0.3,9.4,0,14.2c-0.1,0.3-0.1,0.7-0.2,0.9c0.1,1.9,0.2,3.6,0.2,5.4c0,2,0,4.1,0,6.1c0,0.1,0,0.2,0.1,0.4h2.6
				c0-3.3,0-6.5,0-9.6c-0.1-3.6,0.3-6.9,0.2-10.4c0-3,0.1-6-0.2-8.9c-0.1-1.4,0-3.4,0-5.1c0-1.4,0.1-3-0.1-4.4
				c-0.3-1.7,0.1-3,0.2-4.6c0-1.6-0.3-3-0.1-4.5c0.2-1.9-0.1-3.5-0.1-5.1c0-5.1-0.4-10-0.3-15.1c0-2,0.2-4.4-0.2-6.3
				c-0.1-0.3-0.1-1.6,0-1.9c0.3-1.3,0.1-2.9,0.2-4.3c0.1-2.7-0.2-5.2-0.2-7.9c0-6.7,0-13.4,0-20.2c0-6.8,0.2-13.6-0.2-20.5
				c0.1-0.4,0.1-1.1,0.2-1.7c-0.1-0.6-0.2-1-0.3-1.3c0.1-1.6,0.2-2.6,0.2-3.7c0-1.2,0.1-2.8,0-3.5c-0.3-1.7,0.2-2.8,0.1-4.4
				c-0.1-1.4,0-3.1,0-4.6c0-1.6-0.1-3.2-0.2-4.8c0-0.3,0-0.8,0.1-0.9c0.3-0.9,0.2-2.2,0.2-3.3c0-7.2,0-14.5,0-21.7
				c0-0.9,0-1.8,0-2.6c-0.3-6.7-0.3-8,0-14.7c0.1-1.4,0.1-3.4-0.1-4.4c-0.3-2,0.1-3.1,0.1-4.6c-0.4-2.1-0.2-4.2,0-6.2
				c-0.1-0.6-0.2-0.9-0.3-1.3c0.1-0.4,0.1-0.7,0.2-0.9c-0.1-0.9-0.2-1.7-0.2-2.4c0.1-4,0-7.9,0.2-12c0.2-4.5,0-9.3,0.3-14
				c0.1-2.9,0-5.9,0.2-8.9c0.1-1.7,0-3.8-0.2-5.8c-0.2-1.7,0.4-3.6,0.2-5.7c-0.1-1.1-0.3-2.5-0.2-3.1c0.3-2.3,0-4.3,0-6.4
				c0-2.8,0.1-5.2-0.2-7.5c-0.2-1.5,0.3-2.5,0.4-4.9c0.2-0.6,0.1-2.9,0.3-3.6c0,0,0-0.1,0-0.1H37.8z"/>
			<path class="st4" d="M23.7-107.6c0.1,2.4-0.2,4.4-0.1,7.3c0.1,2.1,0.1,4.1,0,6.2c-0.1,2.2,0.1,4.6-0.4,6.4
				c-0.7,2.3,0.3,3.8,0.4,5.6c0,0.6-0.3,1.2-0.4,1.8c-0.3,2.6-0.8,5.2,0.4,7.8c-0.6,1.9-0.6,3.6-0.8,8c-0.1,1.9,0.5,3.5,0.3,5.3
				c-0.3,2,0,4.1-0.1,6.2c-0.1,1.3-0.4,2.5-0.6,3.7c0.2,1.1,0.6,2.2,0.5,3.2c-0.1,1.3-1,2.3-0.4,4.1c0.4,1-0.2,2.6-0.3,4
				c-0.4,9.8,0.7,19.8-0.7,29.6c0,17.2,0,34.5,0,51.7c0,0.7,0.3,1.5,0.5,2c-0.2,1-0.7,2.2-0.4,2.8c0.9,2,0.6,4.2,0.6,6.4
				c0,11.7,0,23.4,0,35.2c0,2.3-0.6,4.7,0.6,6.9c0.2,0.4,0.1,1.6-0.1,1.9c-0.9,1.1-0.5,2.5-0.5,3.8c0,3.3,0.2,6.6,0.6,9.9
				c0.6,6.3,0.6,12.8,0.8,19.2c0,0.7-0.1,1.4,0,2.1c0.1,0.4,0.4,0.7,0.6,1c-0.2,0.6-0.6,1.2-0.6,1.8c-0.1,2.1,0,4.1,0,6.2
				c0,1.9,0,3.8,0,5.7c0,1.8-0.5,3.4-0.1,5.4c0.9,4.6-1.1,9.4,0.1,14.2c-0.2,0.3-0.4,0.7-0.6,0.9c0.2,1.9,0.5,3.6,0.6,5.4
				c0.1,2,0,4.1,0,6.1c0.1,0.1,0.2,0.2,0.2,0.4h8.2c0-3.3,0.1-6.5-0.1-9.6c-0.2-3.6,0.9-6.9,0.7-10.4c-0.1-3,0.3-6-0.6-8.9
				c-0.5-1.4,0-3.4-0.1-5.1c-0.1-1.4,0.4-3-0.5-4.4c-1-1.7,0.5-3,0.6-4.6c0.1-1.6-0.8-3-0.3-4.5c0.6-1.9-0.3-3.5-0.3-5.1
				c0-5.1-1.2-10-0.9-15.1c0.1-2,0.6-4.4-0.6-6.3c-0.2-0.3-0.2-1.6,0.1-1.9c1-1.3,0.4-2.9,0.6-4.3c0.4-2.7-0.6-5.2-0.7-7.9
				c-0.1-6.7,0.1-13.4-0.1-20.2c-0.1-6.8,0.6-13.6-0.6-20.5c0.2-0.4,0.5-1.1,0.7-1.7c-0.4-0.6-0.6-1-0.8-1.3
				c0.3-1.6,0.6-2.6,0.7-3.7c0.1-1.2,0.3-2.8-0.1-3.5c-0.9-1.7,0.6-2.8,0.2-4.4c-0.3-1.4,0-3.1-0.1-4.6c-0.1-1.6-0.5-3.2-0.7-4.8
				c0-0.3,0-0.8,0.2-0.9c0.8-0.9,0.5-2.2,0.5-3.3c0-7.2,0-14.5,0-21.7c0-0.9,0.1-1.8,0-2.6c-0.9-6.7-0.9-8,0-14.7
				c0.2-1.4,0.2-3.4-0.3-4.4c-1-2,0.2-3.1,0.4-4.6c-1.3-2.1-0.7-4.2,0.1-6.2c-0.4-0.6-0.6-0.9-0.8-1.3c0.2-0.4,0.4-0.7,0.5-0.9
				c-0.2-0.9-0.6-1.7-0.5-2.4c0.2-4-0.1-7.9,0.5-12c0.7-4.5,0.1-9.3,0.8-14c0.4-2.9-0.1-5.9,0.7-8.9c0.4-1.7,0.1-3.8-0.5-5.8
				c-0.5-1.7,1.1-3.6,0.6-5.7c-0.2-1.1-0.9-2.5-0.6-3.1c1-2.3,0-4.3,0-6.4c0.1-2.8,1.1-5.2,0.2-7.4c-0.6-1.5,0.2-2.5,0.4-4.9
				c1.7-2.1-0.6-2.2,0.8-3.8c0,0,0,0,0,0H23.7z"/>
			<path class="st4" d="M14.3-107.6c0,2.5-0.1,4.4,0,7.3c0,2.1,0,4.1,0,6.2c0,2.2,0,4.6-0.1,6.4c-0.2,2.3,0.1,3.8,0.1,5.6
				c0,0.6-0.1,1.2-0.1,1.8c-0.1,2.6-0.2,5.2,0.1,7.8c-0.2,1.9-0.2,3.6-0.3,8c0,1.9,0.2,3.5,0.1,5.3c-0.1,2,0,4.1,0,6.2
				c0,1.3-0.1,2.5-0.2,3.7c0.1,1.1,0.2,2.2,0.2,3.2c0,1.3-0.3,2.3-0.1,4.1c0.1,1-0.1,2.6-0.1,4c-0.1,9.8,0.2,19.8-0.2,29.6
				c0,17.2,0,34.5,0,51.7c0,0.7,0.1,1.5,0.2,2c-0.1,1-0.2,2.2-0.1,2.8c0.3,2,0.2,4.2,0.2,6.4c0,11.7,0,23.4,0,35.2
				c0,2.3-0.2,4.7,0.2,6.9c0.1,0.4,0,1.6,0,1.9c-0.3,1.1-0.2,2.5-0.2,3.8c0,3.3,0.1,6.6,0.2,9.9c0.2,6.3,0.2,12.8,0.3,19.2
				c0,0.7,0,1.4,0,2.1c0,0.4,0.1,0.7,0.2,1c-0.1,0.6-0.2,1.2-0.2,1.8c0,2.1,0,4.1,0,6.2c0,1.9,0,3.8,0,5.7c0,1.8-0.2,3.4,0,5.4
				c0.3,4.6-0.3,9.4,0,14.2c-0.1,0.3-0.1,0.7-0.2,0.9c0.1,1.9,0.2,3.6,0.2,5.4c0,2,0,4.1,0,6.1c0,0.1,0.1,0.2,0.1,0.4H17
				c0-3.3,0-6.5,0-9.6c-0.1-3.6,0.3-6.9,0.2-10.4c0-3,0.1-6-0.2-8.9c-0.1-1.4,0-3.4,0-5.1c0-1.4,0.1-3-0.2-4.4
				c-0.3-1.7,0.1-3,0.2-4.6c0-1.6-0.3-3-0.1-4.5c0.2-1.9-0.1-3.5-0.1-5.1c0-5.1-0.4-10-0.3-15.1c0-2,0.2-4.4-0.2-6.3
				c-0.1-0.3-0.1-1.6,0-1.9c0.3-1.3,0.1-2.9,0.2-4.3c0.1-2.7-0.2-5.2-0.2-7.9c0-6.7,0-13.4,0-20.2c0-6.8,0.2-13.6-0.2-20.5
				c0.1-0.4,0.1-1.1,0.2-1.7c-0.1-0.6-0.2-1-0.3-1.3c0.1-1.6,0.2-2.6,0.2-3.7c0-1.2,0.1-2.8,0-3.5c-0.3-1.7,0.2-2.8,0.1-4.4
				c-0.1-1.4,0-3.1,0-4.6c0-1.6-0.1-3.2-0.2-4.8c0-0.3,0-0.8,0.1-0.9c0.3-0.9,0.2-2.2,0.2-3.3c0-7.2,0-14.5,0-21.7
				c0-0.9,0-1.8,0-2.6c-0.3-6.7-0.3-8,0-14.7c0.1-1.4,0.1-3.4-0.1-4.4c-0.3-2,0.1-3.1,0.1-4.6c-0.4-2.1-0.2-4.2,0-6.2
				c-0.1-0.6-0.2-0.9-0.3-1.3c0.1-0.4,0.1-0.7,0.2-0.9c-0.1-0.9-0.2-1.7-0.2-2.4c0.1-4,0-7.9,0.2-12c0.2-4.5,0-9.3,0.2-14
				c0.1-2.9,0-5.9,0.2-8.9c0.1-1.7,0-3.8-0.2-5.8c-0.2-1.7,0.4-3.6,0.2-5.7c-0.1-1.1-0.3-2.5-0.2-3.1c0.3-2.3,0-4.3,0-6.4
				c0-2.8-0.2-5.2-0.5-7.4c-0.2-1.5,0.5-2.7,0.6-5.1c0.2-0.6,0.1-2.2,0.2-2.9c0-0.3,0-0.5,0-0.7H14.3z"/>
			<path class="st4" d="M73.8-107.6c0,2.5,0,4.8,0,7.3c0,2.1,0,4.1,0,6.2c0,2.2,0,4.6-0.1,6.4c-0.2,2.3,0.1,3.8,0.1,5.6
				c0,0.6-0.1,1.2-0.1,1.8c-0.1,2.6-0.2,5.2,0.1,7.8c-0.2,1.9-0.2,3.6-0.3,8c0,1.9,0.2,3.5,0.1,5.3c-0.1,2,0,4.1,0,6.2
				c0,1.3-0.1,2.5-0.2,3.7c0.1,1.1,0.2,2.2,0.2,3.2c0,1.3-0.3,2.3-0.1,4.1c0.1,1-0.1,2.6-0.1,4c-0.1,9.8,0.2,19.8-0.2,29.6
				c0,17.2,0,34.5,0,51.7c0,0.7,0.1,1.5,0.2,2c-0.1,1-0.2,2.2-0.1,2.8c0.3,2,0.2,4.2,0.2,6.4c0,11.7,0,23.4,0,35.2
				c0,2.3-0.2,4.7,0.2,6.9c0.1,0.4,0,1.6,0,1.9c-0.3,1.1-0.2,2.5-0.2,3.8c0,3.3,0.1,6.6,0.2,9.9c0.2,6.3,0.2,12.8,0.3,19.2
				c0,0.7,0,1.4,0,2.1c0,0.4,0.1,0.7,0.2,1c-0.1,0.6-0.2,1.2-0.2,1.8c0,2.1,0,4.1,0,6.2c0,1.9,0,3.8,0,5.7c0,1.8-0.2,3.4,0,5.4
				c0.3,4.6-0.3,9.4,0,14.2c-0.1,0.3-0.1,0.7-0.2,0.9c0.1,1.9,0.2,3.6,0.2,5.4c0,2,0,4.1,0,6.1c0,0.1,0,0.2,0.1,0.4h2.6
				c0-3.3,0-6.5,0-9.6c-0.1-3.6,0.3-6.9,0.2-10.4c0-3,0.1-6-0.2-8.9c-0.1-1.4,0-3.4,0-5.1c0-1.4,0.1-3-0.1-4.4
				c-0.3-1.7,0.1-3,0.2-4.6c0-1.6-0.3-3-0.1-4.5c0.2-1.9-0.1-3.5-0.1-5.1c0-5.1-0.4-10-0.3-15.1c0-2,0.2-4.4-0.2-6.3
				c-0.1-0.3-0.1-1.6,0-1.9c0.3-1.3,0.1-2.9,0.2-4.3c0.1-2.7-0.2-5.2-0.2-7.9c0-6.7,0-13.4,0-20.2c0-6.8,0.2-13.6-0.2-20.5
				c0.1-0.4,0.1-1.1,0.2-1.7c-0.1-0.6-0.2-1-0.3-1.3c0.1-1.6,0.2-2.6,0.2-3.7c0-1.2,0.1-2.8,0-3.5c-0.3-1.7,0.2-2.8,0.1-4.4
				c-0.1-1.4,0-3.1,0-4.6c0-1.6-0.1-3.2-0.2-4.8c0-0.3,0-0.8,0.1-0.9c0.3-0.9,0.2-2.2,0.2-3.3c0-7.2,0-14.5,0-21.7
				c0-0.9,0-1.8,0-2.6c-0.3-6.7-0.3-8,0-14.7c0.1-1.4,0.1-3.4-0.1-4.4c-0.3-2,0.1-3.1,0.1-4.6c-0.4-2.1-0.2-4.2,0-6.2
				c-0.1-0.6-0.2-0.9-0.3-1.3c0.1-0.4,0.1-0.7,0.2-0.9c-0.1-0.9-0.2-1.7-0.2-2.4c0.1-4,0-7.9,0.2-12c0.2-4.5,0-9.3,0.3-14
				c0.1-2.9,0-5.9,0.2-8.9c0.1-1.7,0-3.8-0.2-5.8c-0.2-1.7,0.4-3.6,0.2-5.7c-0.1-1.1-0.3-2.5-0.2-3.1c0.3-2.3,0-4.3,0-6.4
				c0-2.8,0.1-5.2-0.2-7.5c-0.2-1.5,0.3-2.5,0.4-4.9c0.2-0.6,0.1-2.9,0.3-3.6c0,0,0-0.1,0-0.1H73.8z"/>
			<path class="st4" d="M59.7-107.6c0.1,2.4-0.2,4.4-0.1,7.3c0.1,2.1,0.1,4.1,0,6.2c-0.1,2.2,0.1,4.6-0.4,6.4
				c-0.7,2.3,0.3,3.8,0.4,5.6c0,0.6-0.3,1.2-0.4,1.8c-0.3,2.6-0.8,5.2,0.4,7.8c-0.6,1.9-0.6,3.6-0.8,8c-0.1,1.9,0.5,3.5,0.3,5.3
				c-0.3,2,0,4.1-0.1,6.2c-0.1,1.3-0.4,2.5-0.6,3.7c0.2,1.1,0.6,2.2,0.5,3.2c-0.1,1.3-1,2.3-0.4,4.1c0.4,1-0.2,2.6-0.3,4
				c-0.4,9.8,0.7,19.8-0.7,29.6c0,17.2,0,34.5,0,51.7c0,0.7,0.3,1.5,0.5,2c-0.2,1-0.7,2.2-0.4,2.8c0.9,2,0.6,4.2,0.6,6.4
				c0,11.7,0,23.4,0,35.2c0,2.3-0.6,4.7,0.6,6.9c0.2,0.4,0.1,1.6-0.1,1.9c-0.9,1.1-0.5,2.5-0.5,3.8c0,3.3,0.2,6.6,0.6,9.9
				c0.6,6.3,0.6,12.8,0.8,19.2c0,0.7-0.1,1.4,0,2.1c0.1,0.4,0.4,0.7,0.6,1c-0.2,0.6-0.6,1.2-0.6,1.8c-0.1,2.1,0,4.1,0,6.2
				c0,1.9,0,3.8,0,5.7c0,1.8-0.5,3.4-0.1,5.4c0.9,4.6-1.1,9.4,0.1,14.2c-0.2,0.3-0.4,0.7-0.6,0.9c0.2,1.9,0.5,3.6,0.6,5.4
				c0.1,2,0,4.1,0,6.1c0.1,0.1,0.2,0.2,0.2,0.4h8.2c0-3.3,0.1-6.5-0.1-9.6c-0.2-3.6,0.9-6.9,0.7-10.4c-0.1-3,0.3-6-0.6-8.9
				c-0.5-1.4,0-3.4-0.1-5.1c-0.1-1.4,0.4-3-0.5-4.4c-1-1.7,0.5-3,0.6-4.6c0.1-1.6-0.8-3-0.3-4.5c0.6-1.9-0.3-3.5-0.3-5.1
				c0-5.1-1.2-10-0.9-15.1c0.1-2,0.6-4.4-0.6-6.3c-0.2-0.3-0.2-1.6,0.1-1.9c1-1.3,0.4-2.9,0.6-4.3c0.4-2.7-0.6-5.2-0.7-7.9
				c-0.1-6.7,0.1-13.4-0.1-20.2c-0.1-6.8,0.6-13.6-0.6-20.5c0.2-0.4,0.5-1.1,0.7-1.7c-0.4-0.6-0.6-1-0.8-1.3
				c0.3-1.6,0.6-2.6,0.7-3.7c0.1-1.2,0.3-2.8-0.1-3.5c-0.9-1.7,0.6-2.8,0.2-4.4c-0.3-1.4,0-3.1-0.1-4.6c-0.1-1.6-0.5-3.2-0.7-4.8
				c0-0.3,0-0.8,0.2-0.9c0.8-0.9,0.5-2.2,0.5-3.3c0-7.2,0-14.5,0-21.7c0-0.9,0.1-1.8,0-2.6c-0.9-6.7-0.9-8,0-14.7
				c0.2-1.4,0.2-3.4-0.3-4.4c-1-2,0.2-3.1,0.4-4.6c-1.3-2.1-0.7-4.2,0.1-6.2c-0.4-0.6-0.6-0.9-0.8-1.3c0.2-0.4,0.4-0.7,0.5-0.9
				c-0.2-0.9-0.6-1.7-0.5-2.4c0.2-4-0.1-7.9,0.5-12c0.7-4.5,0.1-9.3,0.8-14c0.4-2.9-0.1-5.9,0.7-8.9c0.4-1.7,0.1-3.8-0.5-5.8
				c-0.5-1.7,1.1-3.6,0.6-5.7c-0.2-1.1-0.9-2.5-0.6-3.1c1-2.3,0-4.3,0-6.4c0.1-2.8,1.1-5.2,0.2-7.4c-0.6-1.5,0.2-2.5,0.4-4.9
				c1.7-2.1-0.6-2.2,0.8-3.8c0,0,0,0,0,0H59.7z"/>
			<path class="st4" d="M50.4-107.6c0,2.5-0.1,4.4,0,7.3c0,2.1,0,4.1,0,6.2c0,2.2,0,4.6-0.1,6.4c-0.2,2.3,0.1,3.8,0.1,5.6
				c0,0.6-0.1,1.2-0.1,1.8c-0.1,2.6-0.2,5.2,0.1,7.8c-0.2,1.9-0.2,3.6-0.3,8c0,1.9,0.2,3.5,0.1,5.3c-0.1,2,0,4.1,0,6.2
				c0,1.3-0.1,2.5-0.2,3.7c0.1,1.1,0.2,2.2,0.2,3.2c0,1.3-0.3,2.3-0.1,4.1c0.1,1-0.1,2.6-0.1,4c-0.1,9.8,0.2,19.8-0.2,29.6
				c0,17.2,0,34.5,0,51.7c0,0.7,0.1,1.5,0.1,2c-0.1,1-0.2,2.2-0.1,2.8c0.3,2,0.2,4.2,0.2,6.4c0,11.7,0,23.4,0,35.2
				c0,2.3-0.2,4.7,0.2,6.9c0.1,0.4,0,1.6,0,1.9c-0.3,1.1-0.2,2.5-0.2,3.8c0,3.3,0.1,6.6,0.2,9.9c0.2,6.3,0.2,12.8,0.3,19.2
				c0,0.7,0,1.4,0,2.1c0,0.4,0.1,0.7,0.2,1c-0.1,0.6-0.2,1.2-0.2,1.8c0,2.1,0,4.1,0,6.2c0,1.9,0,3.8,0,5.7c0,1.8-0.2,3.4,0,5.4
				c0.3,4.6-0.3,9.4,0,14.2c-0.1,0.3-0.1,0.7-0.2,0.9c0.1,1.9,0.2,3.6,0.2,5.4c0,2,0,4.1,0,6.1c0,0.1,0,0.2,0.1,0.4H53
				c0-3.3,0-6.5,0-9.6c-0.1-3.6,0.3-6.9,0.2-10.4c0-3,0.1-6-0.2-8.9c-0.1-1.4,0-3.4,0-5.1c0-1.4,0.1-3-0.2-4.4
				c-0.3-1.7,0.1-3,0.2-4.6c0-1.6-0.3-3-0.1-4.5c0.2-1.9-0.1-3.5-0.1-5.1c0-5.1-0.4-10-0.3-15.1c0-2,0.2-4.4-0.2-6.3
				c-0.1-0.3-0.1-1.6,0-1.9c0.3-1.3,0.1-2.9,0.2-4.3c0.1-2.7-0.2-5.2-0.2-7.9c0-6.7,0-13.4,0-20.2c0-6.8,0.2-13.6-0.2-20.5
				c0.1-0.4,0.1-1.1,0.2-1.7c-0.1-0.6-0.2-1-0.3-1.3c0.1-1.6,0.2-2.6,0.2-3.7c0-1.2,0.1-2.8,0-3.5c-0.3-1.7,0.2-2.8,0.1-4.4
				c-0.1-1.4,0-3.1,0-4.6c0-1.6-0.1-3.2-0.2-4.8c0-0.3,0-0.8,0.1-0.9c0.3-0.9,0.2-2.2,0.2-3.3c0-7.2,0-14.5,0-21.7
				c0-0.9,0-1.8,0-2.6c-0.3-6.7-0.3-8,0-14.7c0.1-1.4,0.1-3.4-0.1-4.4c-0.3-2,0.1-3.1,0.1-4.6c-0.4-2.1-0.2-4.2,0-6.2
				c-0.1-0.6-0.2-0.9-0.3-1.3c0.1-0.4,0.1-0.7,0.2-0.9c-0.1-0.9-0.2-1.7-0.2-2.4c0.1-4,0-7.9,0.2-12c0.2-4.5,0-9.3,0.2-14
				c0.1-2.9,0-5.9,0.2-8.9c0.1-1.7,0-3.8-0.2-5.8c-0.2-1.7,0.4-3.6,0.2-5.7c-0.1-1.1-0.3-2.5-0.2-3.1c0.3-2.3,0-4.3,0-6.4
				c0-2.8-0.2-5.2-0.5-7.4c-0.2-1.5,0.6-2.7,0.6-5.1c0.2-0.6,0.1-2.2,0.2-2.9c0-0.3,0-0.5,0-0.7H50.4z"/>
			<path class="st4" d="M109.9-107.6c0,2.5,0,4.8,0,7.3c0,2.1,0,4.1,0,6.2c0,2.2,0,4.6-0.1,6.4c-0.2,2.3,0.1,3.8,0.1,5.6
				c0,0.6-0.1,1.2-0.1,1.8c-0.1,2.6-0.2,5.2,0.1,7.8c-0.2,1.9-0.2,3.6-0.3,8c0,1.9,0.2,3.5,0.1,5.3c-0.1,2,0,4.1,0,6.2
				c0,1.3-0.1,2.5-0.2,3.7c0.1,1.1,0.2,2.2,0.2,3.2c0,1.3-0.3,2.3-0.1,4.1c0.1,1-0.1,2.6-0.1,4c-0.1,9.8,0.2,19.8-0.2,29.6
				c0,17.2,0,34.5,0,51.7c0,0.7,0.1,1.5,0.2,2c-0.1,1-0.2,2.2-0.1,2.8c0.3,2,0.2,4.2,0.2,6.4c0,11.7,0,23.4,0,35.2
				c0,2.3-0.2,4.7,0.2,6.9c0.1,0.4,0,1.6,0,1.9c-0.3,1.1-0.2,2.5-0.2,3.8c0,3.3,0.1,6.6,0.2,9.9c0.2,6.3,0.2,12.8,0.3,19.2
				c0,0.7,0,1.4,0,2.1c0,0.4,0.1,0.7,0.2,1c-0.1,0.6-0.2,1.2-0.2,1.8c0,2.1,0,4.1,0,6.2c0,1.9,0,3.8,0,5.7c0,1.8-0.2,3.4,0,5.4
				c0.3,4.6-0.3,9.4,0,14.2c-0.1,0.3-0.1,0.7-0.2,0.9c0.1,1.9,0.2,3.6,0.2,5.4c0,2,0,4.1,0,6.1c0,0.1,0,0.2,0.1,0.4h2.6
				c0-3.3,0-6.5,0-9.6c-0.1-3.6,0.3-6.9,0.2-10.4c0-3,0.1-6-0.2-8.9c-0.1-1.4,0-3.4,0-5.1c0-1.4,0.1-3-0.2-4.4
				c-0.3-1.7,0.1-3,0.2-4.6c0-1.6-0.3-3-0.1-4.5c0.2-1.9-0.1-3.5-0.1-5.1c0-5.1-0.4-10-0.3-15.1c0-2,0.2-4.4-0.2-6.3
				c-0.1-0.3-0.1-1.6,0-1.9c0.3-1.3,0.1-2.9,0.2-4.3c0.1-2.7-0.2-5.2-0.2-7.9c0-6.7,0-13.4,0-20.2c0-6.8,0.2-13.6-0.2-20.5
				c0.1-0.4,0.1-1.1,0.2-1.7c-0.1-0.6-0.2-1-0.3-1.3c0.1-1.6,0.2-2.6,0.2-3.7c0-1.2,0.1-2.8,0-3.5c-0.3-1.7,0.2-2.8,0.1-4.4
				c-0.1-1.4,0-3.1,0-4.6c0-1.6-0.1-3.2-0.2-4.8c0-0.3,0-0.8,0.1-0.9c0.3-0.9,0.2-2.2,0.2-3.3c0-7.2,0-14.5,0-21.7
				c0-0.9,0-1.8,0-2.6c-0.3-6.7-0.3-8,0-14.7c0.1-1.4,0.1-3.4-0.1-4.4c-0.3-2,0.1-3.1,0.1-4.6c-0.4-2.1-0.2-4.2,0-6.2
				c-0.1-0.6-0.2-0.9-0.3-1.3c0.1-0.4,0.1-0.7,0.2-0.9c-0.1-0.9-0.2-1.7-0.2-2.4c0.1-4,0-7.9,0.2-12c0.2-4.5,0-9.3,0.3-14
				c0.1-2.9,0-5.9,0.2-8.9c0.1-1.7,0-3.8-0.2-5.8c-0.2-1.7,0.4-3.6,0.2-5.7c-0.1-1.1-0.3-2.5-0.2-3.1c0.3-2.3,0-4.3,0-6.4
				c0-2.8,0.1-5.2-0.2-7.5c-0.2-1.5,0.3-2.5,0.4-4.9c0.2-0.6,0.1-2.9,0.3-3.6c0,0,0-0.1,0-0.1H109.9z"/>
			<path class="st4" d="M95.8-107.6c0.1,2.4-0.1,4.4-0.1,7.3c0.1,2.1,0.1,4.1,0,6.2c-0.1,2.2,0.1,4.6-0.4,6.4
				c-0.7,2.3,0.3,3.8,0.4,5.6c0,0.6-0.3,1.2-0.4,1.8c-0.3,2.6-0.8,5.2,0.4,7.8c-0.6,1.9-0.6,3.6-0.8,8c-0.1,1.9,0.5,3.5,0.3,5.3
				c-0.3,2,0,4.1-0.1,6.2c-0.1,1.3-0.4,2.5-0.6,3.7c0.2,1.1,0.6,2.2,0.5,3.2c-0.1,1.3-1,2.3-0.4,4.1c0.4,1-0.2,2.6-0.3,4
				c-0.4,9.8,0.7,19.8-0.7,29.6c0,17.2,0,34.5,0,51.7c0,0.7,0.3,1.5,0.5,2c-0.2,1-0.7,2.2-0.4,2.8c0.9,2,0.6,4.2,0.6,6.4
				c0,11.7,0,23.4,0,35.2c0,2.3-0.6,4.7,0.6,6.9c0.2,0.4,0.1,1.6-0.1,1.9c-0.9,1.1-0.5,2.5-0.5,3.8c0,3.3,0.2,6.6,0.6,9.9
				c0.6,6.3,0.6,12.8,0.8,19.2c0,0.7-0.1,1.4,0,2.1c0.1,0.4,0.4,0.7,0.6,1c-0.2,0.6-0.6,1.2-0.6,1.8c-0.1,2.1,0,4.1,0,6.2
				c0,1.9,0,3.8,0,5.7c0,1.8-0.5,3.4-0.1,5.4c0.9,4.6-1.1,9.4,0.1,14.2c-0.2,0.3-0.4,0.7-0.6,0.9c0.2,1.9,0.5,3.6,0.6,5.4
				c0.1,2,0,4.1,0,6.1c0.1,0.1,0.2,0.2,0.2,0.4h8.2c0-3.3,0.1-6.5-0.1-9.6c-0.2-3.6,0.9-6.9,0.7-10.4c-0.1-3,0.3-6-0.6-8.9
				c-0.5-1.4,0-3.4-0.1-5.1c-0.1-1.4,0.4-3-0.5-4.4c-1-1.7,0.5-3,0.6-4.6c0.1-1.6-0.8-3-0.3-4.5c0.6-1.9-0.3-3.5-0.3-5.1
				c0-5.1-1.2-10-0.9-15.1c0.1-2,0.6-4.4-0.6-6.3c-0.2-0.3-0.2-1.6,0.1-1.9c1-1.3,0.4-2.9,0.6-4.3c0.4-2.7-0.6-5.2-0.7-7.9
				c-0.1-6.7,0.1-13.4-0.1-20.2c-0.1-6.8,0.6-13.6-0.6-20.5c0.2-0.4,0.5-1.1,0.7-1.7c-0.4-0.6-0.6-1-0.8-1.3
				c0.3-1.6,0.6-2.6,0.7-3.7c0.1-1.2,0.3-2.8-0.1-3.5c-0.9-1.7,0.6-2.8,0.2-4.4c-0.3-1.4,0-3.1-0.1-4.6c-0.1-1.6-0.5-3.2-0.7-4.8
				c0-0.3,0-0.8,0.2-0.9c0.8-0.9,0.5-2.2,0.5-3.3c0-7.2,0-14.5,0-21.7c0-0.9,0.1-1.8,0-2.6c-0.9-6.7-0.9-8,0-14.7
				c0.2-1.4,0.2-3.4-0.3-4.4c-1-2,0.2-3.1,0.4-4.6c-1.3-2.1-0.6-4.2,0.1-6.2c-0.4-0.6-0.6-0.9-0.8-1.3c0.2-0.4,0.4-0.7,0.5-0.9
				c-0.2-0.9-0.6-1.7-0.5-2.4c0.2-4-0.1-7.9,0.5-12c0.7-4.5,0.1-9.3,0.8-14c0.4-2.9-0.1-5.9,0.7-8.9c0.4-1.7,0.1-3.8-0.5-5.8
				c-0.5-1.7,1.1-3.6,0.6-5.7c-0.2-1.1-0.9-2.5-0.6-3.1c1-2.3,0-4.3,0-6.4c0.1-2.8,1.1-5.2,0.2-7.4c-0.6-1.5,0.2-2.5,0.4-4.9
				c1.7-2.1-0.6-2.2,0.8-3.8c0,0,0,0,0,0H95.8z"/>
			<path class="st4" d="M86.4-107.6c0,2.5-0.1,4.4,0,7.3c0,2.1,0,4.1,0,6.2c0,2.2,0,4.6-0.1,6.4c-0.2,2.3,0.1,3.8,0.1,5.6
				c0,0.6-0.1,1.2-0.1,1.8c-0.1,2.6-0.2,5.2,0.1,7.8c-0.2,1.9-0.2,3.6-0.3,8c0,1.9,0.2,3.5,0.1,5.3c-0.1,2,0,4.1,0,6.2
				c0,1.3-0.1,2.5-0.2,3.7c0.1,1.1,0.2,2.2,0.2,3.2c0,1.3-0.3,2.3-0.1,4.1c0.1,1-0.1,2.6-0.1,4c-0.1,9.8,0.2,19.8-0.2,29.6
				c0,17.2,0,34.5,0,51.7c0,0.7,0.1,1.5,0.2,2c-0.1,1-0.2,2.2-0.1,2.8c0.3,2,0.2,4.2,0.2,6.4c0,11.7,0,23.4,0,35.2
				c0,2.3-0.2,4.7,0.2,6.9c0.1,0.4,0,1.6,0,1.9c-0.3,1.1-0.2,2.5-0.2,3.8c0,3.3,0.1,6.6,0.2,9.9c0.2,6.3,0.2,12.8,0.3,19.2
				c0,0.7,0,1.4,0,2.1c0,0.4,0.1,0.7,0.2,1c-0.1,0.6-0.2,1.2-0.2,1.8c0,2.1,0,4.1,0,6.2c0,1.9,0,3.8,0,5.7c0,1.8-0.2,3.4,0,5.4
				c0.3,4.6-0.3,9.4,0,14.2c-0.1,0.3-0.1,0.7-0.2,0.9c0.1,1.9,0.2,3.6,0.2,5.4c0,2,0,4.1,0,6.1c0,0.1,0,0.2,0.1,0.4h2.6
				c0-3.3,0-6.5,0-9.6c-0.1-3.6,0.3-6.9,0.2-10.4c0-3,0.1-6-0.2-8.9c-0.1-1.4,0-3.4,0-5.1c0-1.4,0.1-3-0.2-4.4
				c-0.3-1.7,0.1-3,0.2-4.6c0-1.6-0.3-3-0.1-4.5c0.2-1.9-0.1-3.5-0.1-5.1c0-5.1-0.4-10-0.3-15.1c0-2,0.2-4.4-0.2-6.3
				c-0.1-0.3-0.1-1.6,0-1.9c0.3-1.3,0.1-2.9,0.2-4.3c0.1-2.7-0.2-5.2-0.2-7.9c0-6.7,0-13.4,0-20.2c0-6.8,0.2-13.6-0.2-20.5
				c0.1-0.4,0.1-1.1,0.2-1.7c-0.1-0.6-0.2-1-0.3-1.3c0.1-1.6,0.2-2.6,0.2-3.7c0-1.2,0.1-2.8,0-3.5c-0.3-1.7,0.2-2.8,0.1-4.4
				c-0.1-1.4,0-3.1,0-4.6c0-1.6-0.1-3.2-0.2-4.8c0-0.3,0-0.8,0.1-0.9c0.3-0.9,0.2-2.2,0.2-3.3c0-7.2,0-14.5,0-21.7
				c0-0.9,0-1.8,0-2.6c-0.3-6.7-0.3-8,0-14.7c0.1-1.4,0.1-3.4-0.1-4.4c-0.3-2,0.1-3.1,0.1-4.6c-0.4-2.1-0.2-4.2,0-6.2
				c-0.1-0.6-0.2-0.9-0.3-1.3c0.1-0.4,0.1-0.7,0.2-0.9c-0.1-0.9-0.2-1.7-0.2-2.4c0.1-4,0-7.9,0.2-12c0.2-4.5,0-9.3,0.2-14
				c0.1-2.9,0-5.9,0.2-8.9c0.1-1.7,0-3.8-0.2-5.8c-0.2-1.7,0.4-3.6,0.2-5.7c-0.1-1.1-0.3-2.5-0.2-3.1c0.3-2.3,0-4.3,0-6.4
				c0-2.8-0.2-5.2-0.5-7.4c-0.2-1.5,0.6-2.7,0.6-5.1c0.2-0.6,0.1-2.2,0.2-2.9c0-0.3,0-0.5,0-0.7H86.4z"/>
			<path class="st4" d="M145.9-107.6c0,2.5,0,4.8,0,7.3c0,2.1,0,4.1,0,6.2c0,2.2,0,4.6-0.1,6.4c-0.2,2.3,0.1,3.8,0.1,5.6
				c0,0.6-0.1,1.2-0.1,1.8c-0.1,2.6-0.2,5.2,0.1,7.8c-0.2,1.9-0.2,3.6-0.3,8c0,1.9,0.2,3.5,0.1,5.3c-0.1,2,0,4.1,0,6.2
				c0,1.3-0.1,2.5-0.2,3.7c0.1,1.1,0.2,2.2,0.2,3.2c0,1.3-0.3,2.3-0.1,4.1c0.1,1-0.1,2.6-0.1,4c-0.1,9.8,0.2,19.8-0.2,29.6
				c0,17.2,0,34.5,0,51.7c0,0.7,0.1,1.5,0.2,2c-0.1,1-0.2,2.2-0.1,2.8c0.3,2,0.2,4.2,0.2,6.4c0,11.7,0,23.4,0,35.2
				c0,2.3-0.2,4.7,0.2,6.9c0.1,0.4,0,1.6,0,1.9c-0.3,1.1-0.2,2.5-0.2,3.8c0,3.3,0.1,6.6,0.2,9.9c0.2,6.3,0.2,12.8,0.3,19.2
				c0,0.7,0,1.4,0,2.1c0,0.4,0.1,0.7,0.2,1c-0.1,0.6-0.2,1.2-0.2,1.8c0,2.1,0,4.1,0,6.2c0,1.9,0,3.8,0,5.7c0,1.8-0.2,3.4,0,5.4
				c0.3,4.6-0.3,9.4,0,14.2c-0.1,0.3-0.1,0.7-0.2,0.9c0.1,1.9,0.2,3.6,0.2,5.4c0,2,0,4.1,0,6.1c0,0.1,0,0.2,0.1,0.4h2.6
				c0-3.3,0-6.5,0-9.6c-0.1-3.6,0.3-6.9,0.2-10.4c0-3,0.1-6-0.2-8.9c-0.1-1.4,0-3.4,0-5.1c0-1.4,0.1-3-0.2-4.4
				c-0.3-1.7,0.1-3,0.2-4.6c0-1.6-0.3-3-0.1-4.5c0.2-1.9-0.1-3.5-0.1-5.1c0-5.1-0.4-10-0.3-15.1c0-2,0.2-4.4-0.2-6.3
				c-0.1-0.3-0.1-1.6,0-1.9c0.3-1.3,0.1-2.9,0.2-4.3c0.1-2.7-0.2-5.2-0.2-7.9c0-6.7,0-13.4,0-20.2c0-6.8,0.2-13.6-0.2-20.5
				c0.1-0.4,0.1-1.1,0.2-1.7c-0.1-0.6-0.2-1-0.3-1.3c0.1-1.6,0.2-2.6,0.2-3.7c0-1.2,0.1-2.8,0-3.5c-0.3-1.7,0.2-2.8,0.1-4.4
				c-0.1-1.4,0-3.1,0-4.6c0-1.6-0.1-3.2-0.2-4.8c0-0.3,0-0.8,0.1-0.9c0.3-0.9,0.2-2.2,0.2-3.3c0-7.2,0-14.5,0-21.7
				c0-0.9,0-1.8,0-2.6c-0.3-6.7-0.3-8,0-14.7c0.1-1.4,0.1-3.4-0.1-4.4c-0.3-2,0.1-3.1,0.1-4.6c-0.4-2.1-0.2-4.2,0-6.2
				c-0.1-0.6-0.2-0.9-0.3-1.3c0.1-0.4,0.1-0.7,0.2-0.9c-0.1-0.9-0.2-1.7-0.2-2.4c0.1-4,0-7.9,0.2-12c0.2-4.5,0-9.3,0.2-14
				c0.1-2.9,0-5.9,0.2-8.9c0.1-1.7,0-3.8-0.2-5.8c-0.2-1.7,0.4-3.6,0.2-5.7c-0.1-1.1-0.3-2.5-0.2-3.1c0.3-2.3,0-4.3,0-6.4
				c0-2.8,0.1-5.2-0.2-7.5c-0.2-1.5,0.3-2.5,0.4-4.9c0.2-0.6,0.1-2.9,0.3-3.6c0,0,0-0.1,0-0.1H145.9z"/>
			<path class="st4" d="M131.8-107.6c0.1,2.4-0.2,4.4-0.1,7.3c0.1,2.1,0.1,4.1,0,6.2c-0.1,2.2,0.1,4.6-0.4,6.4
				c-0.7,2.3,0.3,3.8,0.4,5.6c0,0.6-0.3,1.2-0.4,1.8c-0.3,2.6-0.8,5.2,0.4,7.8c-0.6,1.9-0.6,3.6-0.8,8c-0.1,1.9,0.5,3.5,0.3,5.3
				c-0.3,2,0,4.1-0.1,6.2c-0.1,1.3-0.4,2.5-0.6,3.7c0.2,1.1,0.6,2.2,0.5,3.2c-0.1,1.3-1,2.3-0.4,4.1c0.4,1-0.2,2.6-0.3,4
				c-0.4,9.8,0.7,19.8-0.7,29.6c0,17.2,0,34.5,0,51.7c0,0.7,0.3,1.5,0.5,2c-0.2,1-0.7,2.2-0.4,2.8c0.9,2,0.6,4.2,0.6,6.4
				c0,11.7,0,23.4,0,35.2c0,2.3-0.6,4.7,0.6,6.9c0.2,0.4,0.1,1.6-0.1,1.9c-0.9,1.1-0.5,2.5-0.5,3.8c0,3.3,0.2,6.6,0.6,9.9
				c0.6,6.3,0.6,12.8,0.8,19.2c0,0.7-0.1,1.4,0,2.1c0.1,0.4,0.4,0.7,0.6,1c-0.2,0.6-0.6,1.2-0.6,1.8c-0.1,2.1,0,4.1,0,6.2
				c0,1.9,0,3.8,0,5.7c0,1.8-0.5,3.4-0.1,5.4c0.9,4.6-1.1,9.4,0.1,14.2c-0.2,0.3-0.4,0.7-0.6,0.9c0.2,1.9,0.5,3.6,0.6,5.4
				c0.1,2,0,4.1,0,6.1c0.1,0.1,0.2,0.2,0.2,0.4h8.2c0-3.3,0.1-6.5-0.1-9.6c-0.2-3.6,0.9-6.9,0.7-10.4c-0.1-3,0.3-6-0.6-8.9
				c-0.5-1.4,0-3.4-0.1-5.1c-0.1-1.4,0.4-3-0.5-4.4c-1-1.7,0.5-3,0.6-4.6c0.1-1.6-0.8-3-0.3-4.5c0.6-1.9-0.3-3.5-0.3-5.1
				c0-5.1-1.2-10-0.9-15.1c0.1-2,0.6-4.4-0.6-6.3c-0.2-0.3-0.2-1.6,0.1-1.9c1-1.3,0.4-2.9,0.6-4.3c0.4-2.7-0.6-5.2-0.7-7.9
				c-0.1-6.7,0.1-13.4-0.1-20.2c-0.1-6.8,0.6-13.6-0.6-20.5c0.2-0.4,0.5-1.1,0.7-1.7c-0.4-0.6-0.6-1-0.8-1.3
				c0.3-1.6,0.6-2.6,0.7-3.7c0.1-1.2,0.3-2.8-0.1-3.5c-0.9-1.7,0.6-2.8,0.2-4.4c-0.3-1.4,0-3.1-0.1-4.6c-0.1-1.6-0.5-3.2-0.7-4.8
				c0-0.3,0-0.8,0.2-0.9c0.8-0.9,0.5-2.2,0.5-3.3c0-7.2,0-14.5,0-21.7c0-0.9,0.1-1.8,0-2.6c-0.9-6.7-0.9-8,0-14.7
				c0.2-1.4,0.2-3.4-0.3-4.4c-1-2,0.2-3.1,0.4-4.6c-1.3-2.1-0.7-4.2,0.1-6.2c-0.4-0.6-0.6-0.9-0.8-1.3c0.2-0.4,0.4-0.7,0.5-0.9
				c-0.2-0.9-0.6-1.7-0.5-2.4c0.2-4-0.1-7.9,0.5-12c0.7-4.5,0.1-9.3,0.8-14c0.4-2.9,0-5.9,0.7-8.9c0.4-1.7,0.1-3.8-0.5-5.8
				c-0.5-1.7,1.1-3.6,0.6-5.7c-0.2-1.1-0.9-2.5-0.6-3.1c1-2.3,0-4.3,0-6.4c0.1-2.8,1.1-5.2,0.2-7.4c-0.6-1.5,0.2-2.5,0.4-4.9
				c1.7-2.1-0.6-2.2,0.8-3.8c0,0,0,0,0,0H131.8z"/>
			<path class="st4" d="M122.5-107.6c0,2.5-0.1,4.4,0,7.3c0,2.1,0,4.1,0,6.2c0,2.2,0,4.6-0.1,6.4c-0.2,2.3,0.1,3.8,0.1,5.6
				c0,0.6-0.1,1.2-0.1,1.8c-0.1,2.6-0.2,5.2,0.1,7.8c-0.2,1.9-0.2,3.6-0.3,8c0,1.9,0.2,3.5,0.1,5.3c-0.1,2,0,4.1,0,6.2
				c0,1.3-0.1,2.5-0.2,3.7c0.1,1.1,0.2,2.2,0.2,3.2c0,1.3-0.3,2.3-0.1,4.1c0.1,1-0.1,2.6-0.1,4c-0.1,9.8,0.2,19.8-0.2,29.6
				c0,17.2,0,34.5,0,51.7c0,0.7,0.1,1.5,0.2,2c-0.1,1-0.2,2.2-0.1,2.8c0.3,2,0.2,4.2,0.2,6.4c0,11.7,0,23.4,0,35.2
				c0,2.3-0.2,4.7,0.2,6.9c0.1,0.4,0,1.6,0,1.9c-0.3,1.1-0.2,2.5-0.2,3.8c0,3.3,0.1,6.6,0.2,9.9c0.2,6.3,0.2,12.8,0.3,19.2
				c0,0.7,0,1.4,0,2.1c0,0.4,0.1,0.7,0.2,1c-0.1,0.6-0.2,1.2-0.2,1.8c0,2.1,0,4.1,0,6.2c0,1.9,0,3.8,0,5.7c0,1.8-0.2,3.4,0,5.4
				c0.3,4.6-0.3,9.4,0,14.2c-0.1,0.3-0.1,0.7-0.2,0.9c0.1,1.9,0.2,3.6,0.2,5.4c0,2,0,4.1,0,6.1c0,0.1,0,0.2,0.1,0.4h2.6
				c0-3.3,0-6.5,0-9.6c-0.1-3.6,0.3-6.9,0.2-10.4c0-3,0.1-6-0.2-8.9c-0.1-1.4,0-3.4,0-5.1c0-1.4,0.1-3-0.1-4.4
				c-0.3-1.7,0.1-3,0.2-4.6c0-1.6-0.3-3-0.1-4.5c0.2-1.9-0.1-3.5-0.1-5.1c0-5.1-0.4-10-0.3-15.1c0-2,0.2-4.4-0.2-6.3
				c-0.1-0.3-0.1-1.6,0-1.9c0.3-1.3,0.1-2.9,0.2-4.3c0.1-2.7-0.2-5.2-0.2-7.9c0-6.7,0-13.4,0-20.2c0-6.8,0.2-13.6-0.2-20.5
				c0.1-0.4,0.1-1.1,0.2-1.7c-0.1-0.6-0.2-1-0.3-1.3c0.1-1.6,0.2-2.6,0.2-3.7c0-1.2,0.1-2.8,0-3.5c-0.3-1.7,0.2-2.8,0.1-4.4
				c-0.1-1.4,0-3.1,0-4.6c0-1.6-0.1-3.2-0.2-4.8c0-0.3,0-0.8,0.1-0.9c0.3-0.9,0.2-2.2,0.2-3.3c0-7.2,0-14.5,0-21.7
				c0-0.9,0-1.8,0-2.6c-0.3-6.7-0.3-8,0-14.7c0.1-1.4,0.1-3.4-0.1-4.4c-0.3-2,0.1-3.1,0.1-4.6c-0.4-2.1-0.2-4.2,0-6.2
				c-0.1-0.6-0.2-0.9-0.3-1.3c0.1-0.4,0.1-0.7,0.2-0.9c-0.1-0.9-0.2-1.7-0.2-2.4c0.1-4,0-7.9,0.2-12c0.2-4.5,0-9.3,0.3-14
				c0.1-2.9,0-5.9,0.2-8.9c0.1-1.7,0-3.8-0.2-5.8c-0.2-1.7,0.4-3.6,0.2-5.7c-0.1-1.1-0.3-2.5-0.2-3.1c0.3-2.3,0-4.3,0-6.4
				c0-2.8-0.2-5.2-0.5-7.4c-0.2-1.5,0.5-2.7,0.6-5.1c0.2-0.6,0.1-2.2,0.2-2.9c0-0.3,0-0.5,0-0.7H122.5z"/>
			<path class="st4" d="M182-107.6c0,2.5,0,4.8,0,7.3c0,2.1,0,4.1,0,6.2c0,2.2,0,4.6-0.1,6.4c-0.2,2.3,0.1,3.8,0.1,5.6
				c0,0.6-0.1,1.2-0.1,1.8c-0.1,2.6-0.2,5.2,0.1,7.8c-0.2,1.9-0.2,3.6-0.3,8c0,1.9,0.2,3.5,0.1,5.3c-0.1,2,0,4.1,0,6.2
				c0,1.3-0.1,2.5-0.2,3.7c0.1,1.1,0.2,2.2,0.2,3.2c0,1.3-0.3,2.3-0.1,4.1c0.1,1-0.1,2.6-0.1,4c-0.1,9.8,0.2,19.8-0.2,29.6
				c0,17.2,0,34.5,0,51.7c0,0.7,0.1,1.5,0.2,2c-0.1,1-0.2,2.2-0.1,2.8c0.3,2,0.2,4.2,0.2,6.4c0,11.7,0,23.4,0,35.2
				c0,2.3-0.2,4.7,0.2,6.9c0.1,0.4,0,1.6,0,1.9c-0.3,1.1-0.2,2.5-0.2,3.8c0,3.3,0.1,6.6,0.2,9.9c0.2,6.3,0.2,12.8,0.3,19.2
				c0,0.7,0,1.4,0,2.1c0,0.4,0.1,0.7,0.2,1c-0.1,0.6-0.2,1.2-0.2,1.8c0,2.1,0,4.1,0,6.2c0,1.9,0,3.8,0,5.7c0,1.8-0.2,3.4,0,5.4
				c0.3,4.6-0.3,9.4,0,14.2c-0.1,0.3-0.1,0.7-0.2,0.9c0.1,1.9,0.2,3.6,0.2,5.4c0,2,0,4.1,0,6.1c0,0.1,0,0.2,0.1,0.4h2.6
				c0-3.3,0-6.5,0-9.6c-0.1-3.6,0.3-6.9,0.2-10.4c0-3,0.1-6-0.2-8.9c-0.1-1.4,0-3.4,0-5.1c0-1.4,0.1-3-0.2-4.4
				c-0.3-1.7,0.2-3,0.2-4.6c0-1.6-0.3-3-0.1-4.5c0.2-1.9-0.1-3.5-0.1-5.1c0-5.1-0.4-10-0.3-15.1c0-2,0.2-4.4-0.2-6.3
				c-0.1-0.3-0.1-1.6,0-1.9c0.3-1.3,0.1-2.9,0.2-4.3c0.1-2.7-0.2-5.2-0.2-7.9c0-6.7,0-13.4,0-20.2c0-6.8,0.2-13.6-0.2-20.5
				c0.1-0.4,0.1-1.1,0.2-1.7c-0.1-0.6-0.2-1-0.3-1.3c0.1-1.6,0.2-2.6,0.2-3.7c0-1.2,0.1-2.8,0-3.5c-0.3-1.7,0.2-2.8,0.1-4.4
				c-0.1-1.4,0-3.1,0-4.6c0-1.6-0.1-3.2-0.2-4.8c0-0.3,0-0.8,0.1-0.9c0.3-0.9,0.2-2.2,0.2-3.3c0-7.2,0-14.5,0-21.7
				c0-0.9,0-1.8,0-2.6c-0.3-6.7-0.3-8,0-14.7c0.1-1.4,0.1-3.4-0.1-4.4c-0.3-2,0.1-3.1,0.1-4.6c-0.4-2.1-0.2-4.2,0-6.2
				c-0.1-0.6-0.2-0.9-0.3-1.3c0.1-0.4,0.1-0.7,0.2-0.9c-0.1-0.9-0.2-1.7-0.2-2.4c0.1-4,0-7.9,0.2-12c0.2-4.5,0-9.3,0.2-14
				c0.1-2.9,0-5.9,0.2-8.9c0.1-1.7,0-3.8-0.2-5.8c-0.2-1.7,0.4-3.6,0.2-5.7c-0.1-1.1-0.3-2.5-0.2-3.1c0.3-2.3,0-4.3,0-6.4
				c0-2.8,0.1-5.2-0.2-7.5c-0.2-1.5,0.3-2.5,0.4-4.9c0.2-0.6,0.1-2.9,0.3-3.6c0,0,0-0.1,0-0.1H182z"/>
			<path class="st4" d="M167.9-107.6c0.1,2.4-0.2,4.4-0.1,7.3c0.1,2.1,0.1,4.1,0,6.2c-0.1,2.2,0.1,4.6-0.4,6.4
				c-0.7,2.3,0.3,3.8,0.4,5.6c0,0.6-0.3,1.2-0.4,1.8c-0.3,2.6-0.8,5.2,0.4,7.8c-0.6,1.9-0.6,3.6-0.8,8c-0.1,1.9,0.5,3.5,0.3,5.3
				c-0.3,2,0,4.1-0.1,6.2c-0.1,1.3-0.4,2.5-0.6,3.7c0.2,1.1,0.6,2.2,0.5,3.2c-0.1,1.3-1,2.3-0.4,4.1c0.4,1-0.2,2.6-0.3,4
				c-0.4,9.8,0.7,19.8-0.7,29.6c0,17.2,0,34.5,0,51.7c0,0.7,0.3,1.5,0.5,2c-0.2,1-0.7,2.2-0.4,2.8c0.9,2,0.6,4.2,0.6,6.4
				c0,11.7,0,23.4,0,35.2c0,2.3-0.6,4.7,0.6,6.9c0.2,0.4,0.1,1.6-0.1,1.9c-0.9,1.1-0.5,2.5-0.5,3.8c0,3.3,0.2,6.6,0.6,9.9
				c0.6,6.3,0.6,12.8,0.8,19.2c0,0.7-0.1,1.4,0,2.1c0.1,0.4,0.4,0.7,0.6,1c-0.2,0.6-0.6,1.2-0.6,1.8c-0.1,2.1,0,4.1,0,6.2
				c0,1.9,0,3.8,0,5.7c0,1.8-0.5,3.4-0.1,5.4c0.9,4.6-1.1,9.4,0.1,14.2c-0.2,0.3-0.4,0.7-0.6,0.9c0.2,1.9,0.5,3.6,0.6,5.4
				c0.1,2,0,4.1,0,6.1c0.1,0.1,0.2,0.2,0.2,0.4h8.2c0-3.3,0.1-6.5-0.1-9.6c-0.2-3.6,0.9-6.9,0.7-10.4c-0.1-3,0.3-6-0.6-8.9
				c-0.5-1.4,0-3.4-0.1-5.1c-0.1-1.4,0.4-3-0.5-4.4c-1-1.7,0.5-3,0.6-4.6c0.1-1.6-0.8-3-0.3-4.5c0.6-1.9-0.3-3.5-0.3-5.1
				c0-5.1-1.2-10-0.9-15.1c0.1-2,0.6-4.4-0.6-6.3c-0.2-0.3-0.2-1.6,0.1-1.9c1-1.3,0.4-2.9,0.6-4.3c0.4-2.7-0.6-5.2-0.7-7.9
				c-0.1-6.7,0.1-13.4-0.1-20.2c-0.1-6.8,0.6-13.6-0.6-20.5c0.2-0.4,0.5-1.1,0.7-1.7c-0.4-0.6-0.6-1-0.8-1.3
				c0.3-1.6,0.6-2.6,0.7-3.7c0.1-1.2,0.3-2.8-0.1-3.5c-0.9-1.7,0.6-2.8,0.2-4.4c-0.3-1.4,0-3.1-0.1-4.6c-0.1-1.6-0.5-3.2-0.7-4.8
				c0-0.3,0-0.8,0.2-0.9c0.8-0.9,0.5-2.2,0.5-3.3c0-7.2,0-14.5,0-21.7c0-0.9,0.1-1.8,0-2.6c-0.9-6.7-0.9-8,0-14.7
				c0.2-1.4,0.2-3.4-0.3-4.4c-1-2,0.2-3.1,0.4-4.6c-1.3-2.1-0.6-4.2,0.1-6.2c-0.4-0.6-0.6-0.9-0.8-1.3c0.2-0.4,0.4-0.7,0.5-0.9
				c-0.2-0.9-0.6-1.7-0.5-2.4c0.2-4-0.1-7.9,0.5-12c0.7-4.5,0.1-9.3,0.8-14c0.4-2.9,0-5.9,0.7-8.9c0.4-1.7,0.1-3.8-0.5-5.8
				c-0.5-1.7,1.1-3.6,0.6-5.7c-0.2-1.1-0.9-2.5-0.6-3.1c1-2.3,0-4.3,0-6.4c0.1-2.8,1.1-5.2,0.2-7.4c-0.6-1.5,0.2-2.5,0.4-4.9
				c1.7-2.1-0.6-2.2,0.8-3.8c0,0,0,0,0,0H167.9z"/>
			<path class="st4" d="M158.5-107.6c0,2.5-0.1,4.4-0.1,7.3c0,2.1,0,4.1,0,6.2c0,2.2,0,4.6-0.1,6.4c-0.2,2.3,0.1,3.8,0.1,5.6
				c0,0.6-0.1,1.2-0.1,1.8c-0.1,2.6-0.2,5.2,0.1,7.8c-0.2,1.9-0.2,3.6-0.3,8c0,1.9,0.2,3.5,0.1,5.3c-0.1,2,0,4.1,0,6.2
				c0,1.3-0.1,2.5-0.2,3.7c0.1,1.1,0.2,2.2,0.2,3.2c0,1.3-0.3,2.3-0.1,4.1c0.1,1-0.1,2.6-0.1,4c-0.1,9.8,0.2,19.8-0.2,29.6
				c0,17.2,0,34.5,0,51.7c0,0.7,0.1,1.5,0.2,2c-0.1,1-0.2,2.2-0.1,2.8c0.3,2,0.2,4.2,0.2,6.4c0,11.7,0,23.4,0,35.2
				c0,2.3-0.2,4.7,0.2,6.9c0.1,0.4,0,1.6,0,1.9c-0.3,1.1-0.2,2.5-0.2,3.8c0,3.3,0.1,6.6,0.2,9.9c0.2,6.3,0.2,12.8,0.3,19.2
				c0,0.7,0,1.4,0,2.1c0,0.4,0.1,0.7,0.2,1c-0.1,0.6-0.2,1.2-0.2,1.8c0,2.1,0,4.1,0,6.2c0,1.9,0,3.8,0,5.7c0,1.8-0.2,3.4,0,5.4
				c0.3,4.6-0.3,9.4,0,14.2c-0.1,0.3-0.1,0.7-0.2,0.9c0.1,1.9,0.2,3.6,0.2,5.4c0,2,0,4.1,0,6.1c0,0.1,0,0.2,0.1,0.4h2.6
				c0-3.3,0-6.5,0-9.6c-0.1-3.6,0.3-6.9,0.2-10.4c0-3,0.1-6-0.2-8.9c-0.1-1.4,0-3.4,0-5.1c0-1.4,0.1-3-0.1-4.4
				c-0.3-1.7,0.1-3,0.2-4.6c0-1.6-0.3-3-0.1-4.5c0.2-1.9-0.1-3.5-0.1-5.1c0-5.1-0.4-10-0.3-15.1c0-2,0.2-4.4-0.2-6.3
				c-0.1-0.3-0.1-1.6,0-1.9c0.3-1.3,0.1-2.9,0.2-4.3c0.1-2.7-0.2-5.2-0.2-7.9c0-6.7,0-13.4,0-20.2c0-6.8,0.2-13.6-0.2-20.5
				c0.1-0.4,0.1-1.1,0.2-1.7c-0.1-0.6-0.2-1-0.3-1.3c0.1-1.6,0.2-2.6,0.2-3.7c0-1.2,0.1-2.8,0-3.5c-0.3-1.7,0.2-2.8,0.1-4.4
				c-0.1-1.4,0-3.1,0-4.6c0-1.6-0.1-3.2-0.2-4.8c0-0.3,0-0.8,0.1-0.9c0.3-0.9,0.2-2.2,0.2-3.3c0-7.2,0-14.5,0-21.7
				c0-0.9,0-1.8,0-2.6c-0.3-6.7-0.3-8,0-14.7c0.1-1.4,0.1-3.4-0.1-4.4c-0.3-2,0.1-3.1,0.1-4.6c-0.4-2.1-0.2-4.2,0-6.2
				c-0.1-0.6-0.2-0.9-0.3-1.3c0.1-0.4,0.1-0.7,0.2-0.9c-0.1-0.9-0.2-1.7-0.2-2.4c0.1-4,0-7.9,0.2-12c0.2-4.5,0-9.3,0.2-14
				c0.1-2.9,0-5.9,0.2-8.9c0.1-1.7,0-3.8-0.2-5.8c-0.2-1.7,0.4-3.6,0.2-5.7c-0.1-1.1-0.3-2.5-0.2-3.1c0.3-2.3,0-4.3,0-6.4
				c0-2.8-0.2-5.2-0.5-7.4c-0.2-1.5,0.5-2.7,0.6-5.1c0.2-0.6,0.1-2.2,0.2-2.9c0-0.3,0-0.5,0-0.7H158.5z"/>
			<path class="st4" d="M218-107.6c0,2.5,0,4.8,0,7.3c0,2.1,0,4.1,0,6.2c0,2.2,0,4.6-0.1,6.4c-0.2,2.3,0.1,3.8,0.1,5.6
				c0,0.6-0.1,1.2-0.1,1.8c-0.1,2.6-0.2,5.2,0.1,7.8c-0.2,1.9-0.2,3.6-0.3,8c0,1.9,0.2,3.5,0.1,5.3c-0.1,2,0,4.1,0,6.2
				c0,1.3-0.1,2.5-0.2,3.7c0.1,1.1,0.2,2.2,0.2,3.2c0,1.3-0.3,2.3-0.1,4.1c0.1,1-0.1,2.6-0.1,4c-0.1,9.8,0.2,19.8-0.2,29.6
				c0,17.2,0,34.5,0,51.7c0,0.7,0.1,1.5,0.2,2c-0.1,1-0.2,2.2-0.1,2.8c0.3,2,0.2,4.2,0.2,6.4c0,11.7,0,23.4,0,35.2
				c0,2.3-0.2,4.7,0.2,6.9c0.1,0.4,0,1.6,0,1.9c-0.3,1.1-0.2,2.5-0.2,3.8c0,3.3,0.1,6.6,0.2,9.9c0.2,6.3,0.2,12.8,0.3,19.2
				c0,0.7,0,1.4,0,2.1c0,0.4,0.1,0.7,0.2,1c-0.1,0.6-0.2,1.2-0.2,1.8c0,2.1,0,4.1,0,6.2c0,1.9,0,3.8,0,5.7c0,1.8-0.1,3.4,0,5.4
				c0.3,4.6-0.3,9.4,0,14.2c-0.1,0.3-0.1,0.7-0.2,0.9c0.1,1.9,0.2,3.6,0.2,5.4c0,2,0,4.1,0,6.1c0,0.1,0,0.2,0.1,0.4h2.6
				c0-3.3,0-6.5,0-9.6c-0.1-3.6,0.3-6.9,0.2-10.4c0-3,0.1-6-0.2-8.9c-0.1-1.4,0-3.4,0-5.1c0-1.4,0.1-3-0.1-4.4
				c-0.3-1.7,0.1-3,0.2-4.6c0-1.6-0.3-3-0.1-4.5c0.2-1.9-0.1-3.5-0.1-5.1c0-5.1-0.4-10-0.3-15.1c0-2,0.2-4.4-0.2-6.3
				c-0.1-0.3-0.1-1.6,0-1.9c0.3-1.3,0.1-2.9,0.2-4.3c0.1-2.7-0.2-5.2-0.2-7.9c0-6.7,0-13.4,0-20.2c0-6.8,0.2-13.6-0.2-20.5
				c0.1-0.4,0.1-1.1,0.2-1.7c-0.1-0.6-0.2-1-0.3-1.3c0.1-1.6,0.2-2.6,0.2-3.7c0-1.2,0.1-2.8,0-3.5c-0.3-1.7,0.2-2.8,0.1-4.4
				c-0.1-1.4,0-3.1,0-4.6c0-1.6-0.1-3.2-0.2-4.8c0-0.3,0-0.8,0.1-0.9c0.3-0.9,0.2-2.2,0.2-3.3c0-7.2,0-14.5,0-21.7
				c0-0.9,0-1.8,0-2.6c-0.3-6.7-0.3-8,0-14.7c0.1-1.4,0.1-3.4-0.1-4.4c-0.3-2,0.1-3.1,0.1-4.6c-0.4-2.1-0.2-4.2,0-6.2
				c-0.1-0.6-0.2-0.9-0.3-1.3c0.1-0.4,0.1-0.7,0.2-0.9c-0.1-0.9-0.2-1.7-0.2-2.4c0.1-4,0-7.9,0.2-12c0.2-4.5,0-9.3,0.2-14
				c0.1-2.9,0-5.9,0.2-8.9c0.1-1.7,0-3.8-0.2-5.8c-0.2-1.7,0.4-3.6,0.2-5.7c-0.1-1.1-0.3-2.5-0.2-3.1c0.3-2.3,0-4.3,0-6.4
				c0-2.8,0.1-5.2-0.2-7.5c-0.2-1.5,0.3-2.5,0.4-4.9c0.2-0.6,0.1-2.9,0.3-3.6c0,0,0-0.1,0-0.1H218z"/>
			<path class="st4" d="M203.9-107.6c0.1,2.4-0.2,4.4-0.1,7.3c0.1,2.1,0.1,4.1,0,6.2c-0.1,2.2,0.1,4.6-0.4,6.4
				c-0.7,2.3,0.3,3.8,0.4,5.6c0,0.6-0.3,1.2-0.4,1.8c-0.3,2.6-0.8,5.2,0.4,7.8c-0.6,1.9-0.6,3.6-0.8,8c-0.1,1.9,0.5,3.5,0.3,5.3
				c-0.3,2,0,4.1-0.1,6.2c-0.1,1.3-0.4,2.5-0.6,3.7c0.2,1.1,0.6,2.2,0.5,3.2c-0.1,1.3-1,2.3-0.4,4.1c0.4,1-0.2,2.6-0.3,4
				c-0.4,9.8,0.7,19.8-0.7,29.6c0,17.2,0,34.5,0,51.7c0,0.7,0.3,1.5,0.5,2c-0.2,1-0.7,2.2-0.4,2.8c0.9,2,0.6,4.2,0.6,6.4
				c0,11.7,0,23.4,0,35.2c0,2.3-0.6,4.7,0.6,6.9c0.2,0.4,0.1,1.6-0.1,1.9c-0.9,1.1-0.5,2.5-0.5,3.8c0,3.3,0.2,6.6,0.6,9.9
				c0.6,6.3,0.6,12.8,0.8,19.2c0,0.7-0.1,1.4,0,2.1c0.1,0.4,0.4,0.7,0.6,1c-0.2,0.6-0.6,1.2-0.6,1.8c-0.1,2.1,0,4.1,0,6.2
				c0,1.9,0,3.8,0,5.7c0,1.8-0.5,3.4-0.1,5.4c0.9,4.6-1.1,9.4,0.1,14.2c-0.2,0.3-0.4,0.7-0.6,0.9c0.2,1.9,0.5,3.6,0.6,5.4
				c0.1,2,0,4.1,0,6.1c0.1,0.1,0.2,0.2,0.2,0.4h8.2c0-3.3,0.1-6.5-0.1-9.6c-0.2-3.6,0.9-6.9,0.7-10.4c-0.1-3,0.3-6-0.6-8.9
				c-0.5-1.4,0-3.4-0.1-5.1c-0.1-1.4,0.4-3-0.5-4.4c-1-1.7,0.5-3,0.6-4.6c0.1-1.6-0.8-3-0.3-4.5c0.6-1.9-0.3-3.5-0.3-5.1
				c0-5.1-1.2-10-0.9-15.1c0.1-2,0.6-4.4-0.6-6.3c-0.2-0.3-0.2-1.6,0.1-1.9c1-1.3,0.4-2.9,0.6-4.3c0.4-2.7-0.6-5.2-0.7-7.9
				c-0.1-6.7,0.1-13.4-0.1-20.2c-0.1-6.8,0.6-13.6-0.6-20.5c0.2-0.4,0.5-1.1,0.7-1.7c-0.4-0.6-0.6-1-0.8-1.3
				c0.3-1.6,0.6-2.6,0.7-3.7c0.1-1.2,0.3-2.8-0.1-3.5c-0.9-1.7,0.6-2.8,0.2-4.4c-0.3-1.4,0-3.1-0.1-4.6c-0.1-1.6-0.5-3.2-0.7-4.8
				c0-0.3,0-0.8,0.2-0.9c0.8-0.9,0.5-2.2,0.5-3.3c0-7.2,0-14.5,0-21.7c0-0.9,0.1-1.8,0-2.6c-0.9-6.7-0.9-8,0-14.7
				c0.2-1.4,0.2-3.4-0.3-4.4c-1-2,0.2-3.1,0.4-4.6c-1.3-2.1-0.6-4.2,0.1-6.2c-0.4-0.6-0.6-0.9-0.8-1.3c0.2-0.4,0.4-0.7,0.5-0.9
				c-0.2-0.9-0.6-1.7-0.5-2.4c0.2-4-0.1-7.9,0.5-12c0.7-4.5,0.1-9.3,0.8-14c0.4-2.9,0-5.9,0.7-8.9c0.4-1.7,0.1-3.8-0.5-5.8
				c-0.5-1.7,1.1-3.6,0.6-5.7c-0.2-1.1-0.9-2.5-0.6-3.1c1-2.3,0-4.3,0-6.4c0.1-2.8,1.1-5.2,0.2-7.4c-0.6-1.5,0.2-2.5,0.4-4.9
				c1.7-2.1-0.6-2.2,0.8-3.8c0,0,0,0,0,0H203.9z"/>
			<path class="st4" d="M194.6-107.6c0,2.5-0.1,4.4,0,7.3c0,2.1,0,4.1,0,6.2c0,2.2,0,4.6-0.1,6.4c-0.2,2.3,0.1,3.8,0.1,5.6
				c0,0.6-0.1,1.2-0.1,1.8c-0.1,2.6-0.2,5.2,0.1,7.8c-0.2,1.9-0.2,3.6-0.3,8c0,1.9,0.2,3.5,0.1,5.3c-0.1,2,0,4.1,0,6.2
				c0,1.3-0.1,2.5-0.2,3.7c0.1,1.1,0.2,2.2,0.2,3.2c0,1.3-0.3,2.3-0.1,4.1c0.1,1-0.1,2.6-0.1,4c-0.1,9.8,0.2,19.8-0.2,29.6
				c0,17.2,0,34.5,0,51.7c0,0.7,0.1,1.5,0.2,2c-0.1,1-0.2,2.2-0.1,2.8c0.3,2,0.2,4.2,0.2,6.4c0,11.7,0,23.4,0,35.2
				c0,2.3-0.2,4.7,0.2,6.9c0.1,0.4,0,1.6,0,1.9c-0.3,1.1-0.2,2.5-0.2,3.8c0,3.3,0.1,6.6,0.2,9.9c0.2,6.3,0.2,12.8,0.3,19.2
				c0,0.7,0,1.4,0,2.1c0,0.4,0.1,0.7,0.2,1c-0.1,0.6-0.2,1.2-0.2,1.8c0,2.1,0,4.1,0,6.2c0,1.9,0,3.8,0,5.7c0,1.8-0.2,3.4,0,5.4
				c0.3,4.6-0.3,9.4,0,14.2c-0.1,0.3-0.1,0.7-0.2,0.9c0.1,1.9,0.2,3.6,0.2,5.4c0,2,0,4.1,0,6.1c0,0.1,0,0.2,0.1,0.4h2.6
				c0-3.3,0-6.5,0-9.6c-0.1-3.6,0.3-6.9,0.2-10.4c0-3,0.1-6-0.2-8.9c-0.1-1.4,0-3.4,0-5.1c0-1.4,0.1-3-0.1-4.4
				c-0.3-1.7,0.1-3,0.2-4.6c0-1.6-0.3-3-0.1-4.5c0.2-1.9-0.1-3.5-0.1-5.1c0-5.1-0.4-10-0.3-15.1c0-2,0.2-4.4-0.2-6.3
				c-0.1-0.3-0.1-1.6,0-1.9c0.3-1.3,0.1-2.9,0.2-4.3c0.1-2.7-0.2-5.2-0.2-7.9c0-6.7,0-13.4,0-20.2c0-6.8,0.2-13.6-0.2-20.5
				c0.1-0.4,0.1-1.1,0.2-1.7c-0.1-0.6-0.2-1-0.3-1.3c0.1-1.6,0.2-2.6,0.2-3.7c0-1.2,0.1-2.8,0-3.5c-0.3-1.7,0.2-2.8,0.1-4.4
				c-0.1-1.4,0-3.1,0-4.6c0-1.6-0.1-3.2-0.2-4.8c0-0.3,0-0.8,0.1-0.9c0.3-0.9,0.2-2.2,0.2-3.3c0-7.2,0-14.5,0-21.7
				c0-0.9,0-1.8,0-2.6c-0.3-6.7-0.3-8,0-14.7c0.1-1.4,0.1-3.4-0.1-4.4c-0.3-2,0.1-3.1,0.1-4.6c-0.4-2.1-0.2-4.2,0-6.2
				c-0.1-0.6-0.2-0.9-0.3-1.3c0.1-0.4,0.1-0.7,0.2-0.9c-0.1-0.9-0.2-1.7-0.2-2.4c0.1-4,0-7.9,0.2-12c0.2-4.5,0-9.3,0.2-14
				c0.1-2.9,0-5.9,0.2-8.9c0.1-1.7,0-3.8-0.2-5.8c-0.2-1.7,0.4-3.6,0.2-5.7c-0.1-1.1-0.3-2.5-0.2-3.1c0.3-2.3,0-4.3,0-6.4
				c0-2.8-0.2-5.2-0.5-7.4c-0.2-1.5,0.5-2.7,0.6-5.1c0.2-0.6,0.1-2.2,0.2-2.9c0-0.3,0-0.5,0-0.7H194.6z"/>
		</g>
	</g>
</g>
</svg>
