<svg xmlns="http://www.w3.org/2000/svg" viewBox="0 0 56.08 47.99"><defs><style>.cls-1{fill:#3a2e25;}</style></defs><title>アセット 2</title><g id="レイヤー_2" data-name="レイヤー 2"><g id="レイヤー_1-2" data-name="レイヤー 1"><path class="cls-1" d="M53.05,31.44a.14.14,0,0,1-.13-.09,24.45,24.45,0,0,0-2.78-4.74.15.15,0,0,1,0-.13c.74-3.17,1.1-5.15,0-8.81a1.15,1.15,0,0,0-1.09-.8,1,1,0,0,0-.34.06,1.14,1.14,0,0,0-.75,1.42A10.64,10.64,0,0,1,48.3,24a.15.15,0,0,1-.1.12h-.05a.16.16,0,0,1-.11-.05,31.59,31.59,0,0,0-5-4.3.17.17,0,0,1-.06-.11.13.13,0,0,0,0-.06c-.06-.33-.39-2.11-.76-3.87a.15.15,0,0,1,.15-.18l.08,0a4.18,4.18,0,0,0,2.25.68A4.74,4.74,0,0,0,46.35,16a3.76,3.76,0,0,1,1.39-.26c.28,0,.56,0,.83,0a7.91,7.91,0,0,0,.86.06,3.1,3.1,0,0,0,2-.69,2.06,2.06,0,0,0,.3-.29.17.17,0,0,1,.12,0h0a.14.14,0,0,1,.11.06,18.46,18.46,0,0,1,4.09,11.39,17.35,17.35,0,0,1-.17,2.39.14.14,0,0,1-.15.13h0a.15.15,0,0,1-.14-.15,28.58,28.58,0,0,0-1-7,1.15,1.15,0,0,0-1.1-.85,1,1,0,0,0-.3,0,1.15,1.15,0,0,0-.81,1.4,24.21,24.21,0,0,1,.84,9.15.15.15,0,0,1-.12.13Z"/><path class="cls-1" d="M28.54,48a35.32,35.32,0,0,1-4.36-.27.16.16,0,0,1-.13-.13,2.16,2.16,0,0,0-.77-1.39,9.1,9.1,0,0,1-2.63-7.51,4.54,4.54,0,0,1,3.13-3.77c4.32-1.69,5.06-3.23,6-5.81a23.73,23.73,0,0,1,.89-2.21,6,6,0,0,0,.27-4.38,2.78,2.78,0,0,1,.21-2.45,6.31,6.31,0,0,0,.66-2.34.19.19,0,0,1,.07-.11l.08,0h0a10.33,10.33,0,0,0,2.65.41h.2a32.78,32.78,0,0,1,6.46,3.37.16.16,0,0,1,.06.18.15.15,0,0,1-.14.1h0c-3.6-.22-6.07-.31-6.1-.31h0a1.14,1.14,0,0,0,0,2.28c.45,0,4.47.17,9.76.55a.11.11,0,0,1,.09,0,24.8,24.8,0,0,1,5.74,7.66.17.17,0,0,1,0,.14.12.12,0,0,1-.11.07,56.61,56.61,0,0,1-7.11.41A30.66,30.66,0,0,1,35,31.69a1.22,1.22,0,0,0-.38-.07,1.17,1.17,0,0,0-1.08.76,1.15,1.15,0,0,0,.05.87,1.13,1.13,0,0,0,.64.59,31.19,31.19,0,0,0,9,1,58.46,58.46,0,0,0,8.12-.52h0a.16.16,0,0,1,.14.11,16.26,16.26,0,0,1,.61,2.93.17.17,0,0,1,0,.1,24.2,24.2,0,0,1-6.28,5.72l-.08,0h0a.91.91,0,0,0-.23,0C37,43.12,33,42,29.61,40.29a1.14,1.14,0,0,0-1.53.51,1.15,1.15,0,0,0,.51,1.53c2.62,1.31,5.95,2.58,12.52,3a.14.14,0,0,1,.14.12.14.14,0,0,1-.09.16A33.75,33.75,0,0,1,28.54,48Z"/><path class="cls-1" d="M40.15,18l-.07,0c-.81-.45-1.65-.88-2.48-1.26a.14.14,0,0,1-.08-.09.13.13,0,0,1,0-.12,8.84,8.84,0,0,1,1.77-2.28.16.16,0,0,1,.09,0h.05a.17.17,0,0,1,.1.1c.25,1,.55,2.49.75,3.51a.14.14,0,0,1-.06.15.16.16,0,0,1-.09,0Z"/><path class="cls-1" d="M34.65,15.73a9.72,9.72,0,0,1-2.89-.59.16.16,0,0,1-.1-.11,6.6,6.6,0,0,0-1.06-2.44c-.27-.38-.27-.43-.22-1.05a11.05,11.05,0,0,0-.53-4.6,5.74,5.74,0,0,0-.54-1.16A2.12,2.12,0,0,1,29,5a2.81,2.81,0,0,1,0-.3.17.17,0,0,1,.14-.15c.57,0,1.11-.07,1.68-.07l.85,0a.15.15,0,0,1,.15.13,29.51,29.51,0,0,1,0,6.12,1.13,1.13,0,0,0,1,1.24h.12a1.14,1.14,0,0,0,1.13-1,32,32,0,0,0,.07-6.08.18.18,0,0,1,0-.12.13.13,0,0,1,.1,0h0l.13,0h0A9.72,9.72,0,0,1,39,9.32,1.13,1.13,0,0,0,40,10a1.08,1.08,0,0,0,.5-.12,1.16,1.16,0,0,0,.58-.65,1.14,1.14,0,0,0-.05-.87,12.85,12.85,0,0,0-1.56-2.46.15.15,0,0,1,0-.17.15.15,0,0,1,.13-.07h0a15.85,15.85,0,0,1,6,2.93c1.35,1,2.51,1.79,4.06,1.79l.51,0h0a.12.12,0,0,1,.12.07.61.61,0,0,1,.11.22A3.28,3.28,0,0,1,50,13.36a.88.88,0,0,1-.61.19c-.18,0-.38,0-.62,0a8.35,8.35,0,0,0-1.07-.07,6,6,0,0,0-2.2.41,2.33,2.33,0,0,1-.85.17,3.33,3.33,0,0,1-1.94-1,5.81,5.81,0,0,0-2.07-1.21h-.15a2.94,2.94,0,0,0-.65-.07c-2,0-3.16,1.82-4.29,3.58l-.17.28a.13.13,0,0,1-.07.06,2.11,2.11,0,0,1-.7.09Z"/><path class="cls-1" d="M21.11,47.66a30.53,30.53,0,0,1-8.49-2,.15.15,0,0,1,0-.27,23.26,23.26,0,0,0,2-1.44,1.14,1.14,0,0,0,.17-1.61,1.17,1.17,0,0,0-.89-.42,1.14,1.14,0,0,0-.72.26A28.63,28.63,0,0,1,10,44.3l-.07,0-.07,0a20.18,20.18,0,0,1-7.14-6.24.12.12,0,0,1,0-.14.14.14,0,0,1,.12-.09,84.41,84.41,0,0,0,8.81-1,1.14,1.14,0,0,0-.24-2.26,1,1,0,0,0-.24,0c-1.81.39-6,.73-9.73,1h0a.14.14,0,0,1-.13-.08C1,35.12.83,34.66.66,34.2a.17.17,0,0,1,0-.07,1.1,1.1,0,0,0-.05-.51,12,12,0,0,1-.49-5.19.12.12,0,0,1,.07-.11l.12-.08c.94-.73,3.08-1.12,6.21-1.12a72.93,72.93,0,0,1,10.87,1h.18a1.12,1.12,0,0,0,1.12-1,1.13,1.13,0,0,0-.95-1.3,73.36,73.36,0,0,0-11.14-1,21.07,21.07,0,0,0-5.56.6H1a.15.15,0,0,1-.11,0,.15.15,0,0,1,0-.16,13.69,13.69,0,0,1,.73-1.66,12.56,12.56,0,0,1,4.84-5.06l.06,0h0c.62,0,1.23-.06,1.8-.06a22.61,22.61,0,0,1,7.31,1.24,15.4,15.4,0,0,0,4.72.92,10.45,10.45,0,0,0,1.91-.18,1.15,1.15,0,0,0,.73-.48,1.12,1.12,0,0,0,.19-.85,1.14,1.14,0,0,0-1.12-.93.75.75,0,0,0-.21,0,8.75,8.75,0,0,1-1.51.14,13.39,13.39,0,0,1-4-.82,32.27,32.27,0,0,0-3.5-.92.14.14,0,0,1-.12-.14.15.15,0,0,1,.11-.15c4.3-1.18,7.14-2,10.42-4.66a1.15,1.15,0,0,0,.41-.77,1.14,1.14,0,0,0-1.14-1.25,1.12,1.12,0,0,0-.72.26,19.19,19.19,0,0,1-7.56,3.66h0a.12.12,0,0,1-.12-.07.15.15,0,0,1,0-.18,28.87,28.87,0,0,1,5.87-5,1.14,1.14,0,0,0,.3-1.58,1.12,1.12,0,0,0-.94-.5,1.2,1.2,0,0,0-.64.19A28.13,28.13,0,0,0,10.2,14.6a.15.15,0,0,1-.09.06L9,15a16.92,16.92,0,0,0-3.11,1.23.08.08,0,0,1-.07,0,.16.16,0,0,1-.11,0,.15.15,0,0,1,0-.18c1.07-1.56,2.45-2.52,4.55-4A1.14,1.14,0,0,0,9.57,10a1.18,1.18,0,0,0-.65.2C5.42,12.59,3.49,13.92,1.79,19a1.27,1.27,0,0,0-.05.34.18.18,0,0,1,0,.1A14.18,14.18,0,0,0,.28,21.29a.15.15,0,0,1-.13.07H.09A.15.15,0,0,1,0,21.18C2.13,11.92,9.38,7.91,14.65,5.71,16.5,4.93,17.9,4.47,19,4.09c2.38-.79,3.58-1.18,5.28-3.23A2.16,2.16,0,0,1,25.91,0a1.24,1.24,0,0,1,1,.42,2.08,2.08,0,0,1,.4,1.63.08.08,0,0,0,0,0c-1,2.82-.43,3.92.06,4.8a4,4,0,0,1,.35.73,8.85,8.85,0,0,1,.44,3.74,3.15,3.15,0,0,0,.65,2.57A5.63,5.63,0,0,1,29.15,19a5,5,0,0,0-.43,4.07,3.86,3.86,0,0,1-.11,2.88,25.59,25.59,0,0,0-1,2.4c-.74,2.05-1.11,3.07-4.68,4.46a6.86,6.86,0,0,0-4.56,5.55,11.67,11.67,0,0,0,2.84,9.07.14.14,0,0,1,0,.17.14.14,0,0,1-.13.08Z"/></g></g></svg>