<svg xmlns="http://www.w3.org/2000/svg" viewBox="0 0 58.34 48.72"><defs><style>.cls-1{fill:#3a2e25;}</style></defs><title>アセット 5</title><g id="レイヤー_2" data-name="レイヤー 2"><g id="レイヤー_1-2" data-name="レイヤー 1"><path class="cls-1" d="M22.56,31.64c4.39,3.71,4.39-3.72,2-4.05A2.35,2.35,0,0,0,22.56,31.64Z"/><path class="cls-1" d="M25.5,13.8c-2.47-2-4.27.9-6.52,2.25s.94,6.65,2.25,8.33c1.57,2,4.05-.68,4.95-2.7S28,15.83,25.5,13.8Z"/><path class="cls-1" d="M30.9,26c2.93-.9,7.87-4.5,7.65-6.75s-4-2.92-5.4-2.92-4.81,4.77-5.4,7.42C27.3,25.73,28,26.85,30.9,26Z"/><path class="cls-1" d="M40.35,24.83c-1.8-1.35-6.8,2.25-9,3.82-1.57,1.13,1.58,3.6,3.6,4.5S39.67,34.73,41.7,32,42.15,26.18,40.35,24.83Z"/><path class="cls-1" d="M32.25,35c-1.8-1.35-4.05-1.12-4.05,1.35s1.13,5.4,2.7,5.4a4.35,4.35,0,0,0,3.6-1.8C35.49,38.66,34.05,36.3,32.25,35Z"/><path class="cls-1" d="M20.78,38.55c-.68,2.25-.67,3.16.9,4.05s2.47.68,4.05-.22-.23-4.28-1.13-6.3S21.45,36.3,20.78,38.55Z"/><path class="cls-1" d="M15.15,29.1c2.69-.25,4.28-1.8,2.25-3.82-1.35-2-4.5-5.85-6.07-5.18s-4,3.38-3.38,5.18S10.43,29.55,15.15,29.1Z"/><path class="cls-1" d="M15.6,31.58c-2.7,0-4.5.22-4.95,1.8s1.35,4,2.7,3.82,1.8-1.35,2.93-2.92S16.73,31.8,15.6,31.58Z"/><path class="cls-1" d="M17.85,35.4c-1.12.68-3.17,3.86-1.8,4.73,2.48,1.57,2.79-.26,3.15-1.35C20.1,36.08,19,34.73,17.85,35.4Z"/><path class="cls-1" d="M43.57,0C38.15,0,26.43,2.05,15.14,7.61a19.27,19.27,0,0,0-5,2.79C5,14.4-1.38,25.31.26,32.18a20,20,0,0,0,9,13,26.65,26.65,0,0,0,14.15,3.55A41.45,41.45,0,0,0,42.57,44,13.81,13.81,0,0,0,46,41.37v0c8.4-7.8,11.66-15.62,12.3-22.8C59.17,8.4,51.07,0,43.57,0Zm2.61,33.79A10.42,10.42,0,0,1,41,41.16a38.46,38.46,0,0,1-17.52,4.26c-7.58,0-17.2-2.43-20-14C2.2,26.11,7.92,16.33,12.18,13c3.86-3,8.65-3.64,12-3.64,7,0,14.55,2.86,17.48,6.65C44.79,20.06,47.44,27.66,46.18,33.79Z"/></g></g></svg>