<svg xmlns="http://www.w3.org/2000/svg" viewBox="0 0 50.77 51"><defs><style>.cls-1{fill:#3a2e25;}</style></defs><title>アセット 11</title><g id="レイヤー_2" data-name="レイヤー 2"><g id="レイヤー_1-2" data-name="レイヤー 1"><path class="cls-1" d="M28.42,51c1.8-2.89,3-7.31,3.47-12.48.58-6.62-.15-13.44-1.93-18.24a26.94,26.94,0,0,1-1.62-6.46,35.1,35.1,0,0,0,7.2,6.4c.67.49,1.31,1,1.86,1.39a14,14,0,0,1,5.51,13.57C42,41.61,37.22,47.6,30.5,50.78c-.68.09-1.37.15-2.08.2Z"/><path class="cls-1" d="M18.42,50.5C12.7,49.47,8,47.08,4.7,43.58A16.94,16.94,0,0,1,0,32c0-10,8.06-15.41,16.19-19.43C22,9.74,21.31,1.27,21.27,0h1.21c-.19,10.31-2.13,12.62-6.35,17.66l-1.67,2C9.85,25.32,8.13,32.16,9.73,38.45a20.88,20.88,0,0,0,8.69,12Z"/><path class="cls-1" d="M38.24,48.83a25.66,25.66,0,0,0,2.39-2.51,21.91,21.91,0,0,0,5-10.78,16.88,16.88,0,0,0-6.53-16.08c-.58-.46-1.23-.93-1.92-1.43h0c-4-2.89-8.89-6.49-8.89-11.84a2.32,2.32,0,0,0,0-.24l0-.7c.05-1.54.11-3.28.14-5.24H29.5c-.05,1.27-.69,9.74,5.07,12.59,8.13,4,16.2,9.46,16.2,19.43,0,7.29-4.78,13.66-12.53,16.81Z"/><path class="cls-1" d="M25,51c-6.71-2.74-11.21-7.44-12.68-13.22-1.38-5.44.15-11.42,4.22-16.4.57-.7,1.1-1.34,1.62-2l0,0c4.35-5.2,6.47-8.07,6.69-19.4H26c0,1.93-.08,3.64-.13,5.15-.21,6.31-.66,10.11,1.56,16,1.63,4.38,2.31,10.92,1.77,17.07C28.7,44.11,27.14,48.85,25,51Z"/></g></g></svg>