<svg xmlns="http://www.w3.org/2000/svg" viewBox="0 0 44.13 74.85"><defs><style>.cls-1{fill:#3a2e25;}</style></defs><title>アセット 8</title><g id="レイヤー_2" data-name="レイヤー 2"><g id="レイヤー_1-2" data-name="レイヤー 1"><path class="cls-1" d="M43.64,6.84a1.42,1.42,0,0,0-2,.15l-4.73,5.49,4-6.6A1.42,1.42,0,1,0,38.53,4.4l-4.26,7L37.74,4a1.42,1.42,0,1,0-2.56-1.21l-3.47,7.3,2.7-7.69A1.44,1.44,0,0,0,33.54.63a1.42,1.42,0,0,0-1.81.87L29.17,8.8l1.26-7.13a1.42,1.42,0,1,0-2.79-.5L25.53,13.11l-.84,0a9.57,9.57,0,0,0-6.39,2.45,20.75,20.75,0,0,0-4.88,7C10.05,29.58,4,43.27,1,55.25A35.45,35.45,0,0,0,.8,70.83c.07.41.14.76.17,1a3.34,3.34,0,0,0,1.68,2.8,2.46,2.46,0,0,0,1.06.23h0a4.19,4.19,0,0,0,2.17-.7l.88-.49a35.67,35.67,0,0,0,12-10c7.39-9.88,14.15-23.26,17.52-30.36,3.18-6.68,3.08-11.66-.39-15.3l7.93-9.19A1.41,1.41,0,0,0,43.64,6.84ZM20.45,56.23,18,55.07a1.05,1.05,0,0,0-.9,1.9l2.17,1c-.93,1.38-1.88,2.72-2.83,4A32.9,32.9,0,0,1,5.39,71.17l-1,.56a1.9,1.9,0,0,1-.49.24,1.83,1.83,0,0,1-.13-.53c0-.3-.11-.66-.19-1.12a33.49,33.49,0,0,1-.25-12.67l2.25,1.06a1,1,0,0,0,.44.1,1,1,0,0,0,1-.6,1.05,1.05,0,0,0-.49-1.4L3.81,55.54c2.27-8.9,6.36-18.93,9.42-25.83l1.75.83a1,1,0,0,0,.45.11,1.05,1.05,0,0,0,.45-2l-1.79-.86c.73-1.63,1.38-3,1.89-4.09,3.32-7,6.56-7.78,8.71-7.78a12.2,12.2,0,0,1,5.18,1.38c3.16,1.5,5,3.32,5.6,5.55s.07,5.37-1.78,9.26A224.08,224.08,0,0,1,20.45,56.23Z"/><path class="cls-1" d="M16,45.38l-4.05-1.93a1.06,1.06,0,0,0-1.4.5,1,1,0,0,0,.5,1.4l4.05,1.92a1,1,0,0,0,.45.11,1.05,1.05,0,0,0,.45-2Z"/><path class="cls-1" d="M25.45,38.92,22.6,37.57a1.05,1.05,0,0,0-.9,1.9l2.85,1.35a1,1,0,0,0,.45.1,1.05,1.05,0,0,0,.95-.6A1.06,1.06,0,0,0,25.45,38.92Z"/></g></g></svg>