<svg xmlns="http://www.w3.org/2000/svg" viewBox="0 0 49.79 48.84"><defs><style>.cls-1{fill:#3a2e25;}</style></defs><title>アセット 7</title><g id="レイヤー_2" data-name="レイヤー 2"><g id="レイヤー_1-2" data-name="レイヤー 1"><path class="cls-1" d="M49.79,17.75C49.79,8,42.06,0,24.89,0S0,8,0,17.75c0,7.49,8.65,10,17.33,10.8,0,3.38-.18,6.61-.72,8.23l-.21.61a16.15,16.15,0,0,0-1.18,5.39,5.67,5.67,0,0,0,3.3,5.09,8.24,8.24,0,0,0,3.94,1h0c4.1,0,9.17-2.92,10-11.14.16-1.63.31-3.14.47-4.6.17-1.68.33-3.22.46-4.64C41.72,27.6,49.79,25,49.79,17.75ZM35,26.5a1.05,1.05,0,0,1-1.4-.5l0-.05a41.9,41.9,0,0,0,.12-4.62l1.8,3.77A1.06,1.06,0,0,1,35,26.5Zm6.73-2a1,1,0,0,1-.28,0,1,1,0,0,1-1-.77c-.36-1.32-1.84-2.36-4.27-3.09l3.58,3.23a1,1,0,1,1-1.4,1.56l-4.65-4.19q0-.63-.09-1.2c-.94-.17-2-.3-3.08-.4.47,2.67,0,7.14-.61,13.15-.15,1.46-.31,3-.46,4.62-.61,6.21-4,8.43-7,8.43a5.3,5.3,0,0,1-2.52-.61c-2.33-1.25-2-3-.7-6.87l.21-.63c1.1-3.29,1-10.47.72-17.54,0-.22,0-.42,0-.62-1.07.08-2.07.19-3,.33v.39c0,1.41.11,3.2.14,5.09l-.26.63a1.05,1.05,0,0,1-1,.64,1,1,0,0,1-.41-.08,1.06,1.06,0,0,1-.56-1.38l1.73-4.09-5,4.76a1,1,0,0,1-.72.29,1.07,1.07,0,0,1-.76-.32,1.06,1.06,0,0,1,0-1.49l4.12-3.93c-2.92.74-4.68,1.86-5.08,3.32a1,1,0,0,1-2-.55c1.06-3.9,7-5.88,17.51-5.88s16.45,2,17.51,5.88A1,1,0,0,1,41.71,24.46Z"/></g></g></svg>