<svg xmlns="http://www.w3.org/2000/svg" viewBox="0 0 34.92 46.67"><defs><style>.cls-1{fill:#3a2e25;}</style></defs><title>アセット 12</title><g id="レイヤー_2" data-name="レイヤー 2"><g id="レイヤー_1-2" data-name="レイヤー 1"><path class="cls-1" d="M34.91,27.05A38.77,38.77,0,0,0,29.67,9.28,25.38,25.38,0,0,0,24.53,2.9,10.65,10.65,0,0,0,17.78,0h-.09A10.75,10.75,0,0,0,10.9,2.79,25.32,25.32,0,0,0,5.65,9.05,38.66,38.66,0,0,0,0,26.65,19.68,19.68,0,0,0,5.31,41.11a16.85,16.85,0,0,0,11.92,5.56h.17a17,17,0,0,0,12-5.37A19.73,19.73,0,0,0,34.91,27.05ZM17.4,43.83h-.14c-7.7-.09-14.9-7.85-14.4-17,.63-11.42,8.31-24,14.83-24h0c6.53.08,14,12.84,14.33,24.3C32.36,36.28,25.06,43.83,17.4,43.83Z"/><path class="cls-1" d="M15.93,7.33c-2.54.92-4.54,3.5-5.77,5.5A28.89,28.89,0,0,0,6.58,22a1.51,1.51,0,0,0,1.17,1.77,1.53,1.53,0,0,0,.3,0,1.5,1.5,0,0,0,1.47-1.2c1.2-5.8,4.54-11.38,7.43-12.43a1.51,1.51,0,0,0,.9-1.93A1.49,1.49,0,0,0,15.93,7.33Z"/></g></g></svg>