<svg xmlns="http://www.w3.org/2000/svg" viewBox="0 0 49.12 33.71"><defs><style>.cls-1{fill:#3a2e25;}</style></defs><title>アセット 18</title><g id="レイヤー_2" data-name="レイヤー 2"><g id="レイヤー_1-2" data-name="レイヤー 1"><path class="cls-1" d="M47.76,8.92a.36.36,0,0,1-.25.08c-2.65-.37-4.6-1.7-4.6-3.28a2.06,2.06,0,0,1,.32-1.09C40.19,2.71,35.45.85,28.09,0L19.51,4.09a1.93,1.93,0,0,1,.21.84,1.88,1.88,0,0,1-.41,1.18.66.66,0,0,1-.8.11A3.91,3.91,0,0,0,17,6c-1.53,0-2.91.7-2.77,1.54.07.43-.1.64-.27.64a10.22,10.22,0,0,1-2.34-.27l-6.35,3,43.5-.09A10.28,10.28,0,0,0,47.76,8.92ZM28.17,5.43c0,.11-.43.21-.57.17A2.74,2.74,0,0,0,27,5.54c-.87,0-1.57.39-1.57.87,0,.06-.15.17-.24.17-1.31-.1-2.31-.72-2.31-1.47s1.19-1.48,2.67-1.48,2.67.67,2.67,1.48A.87.87,0,0,1,28.17,5.43Zm11.31,2c-1.42,0-2.64.63-2.57,1.42.06.64-.21,1-.63,1-2.74,0-5-1.23-5-2.75s2.22-2.74,5-2.74,5,1.23,5,2.74C41.24,7.27,40.09,7.39,39.48,7.39Z"/><path class="cls-1" d="M49.09,22.25l0-8.45-27.68.06a2.73,2.73,0,0,1,0,.41,3.13,3.13,0,0,1-.16,1,.26.26,0,0,1-.33.08,1,1,0,0,0-1.65.81,1,1,0,0,0,.17.57.33.33,0,0,1-.13.39,2.95,2.95,0,0,1-3.78-2.82c0-.13,0-.27,0-.4l-6.68,0H.06v2.38a5.32,5.32,0,0,1,3.46,5,4.58,4.58,0,0,1,0,.53c0,.28-.51.47-.73.35a2.22,2.22,0,0,0-1.15-.31A2.3,2.3,0,0,0,0,22.45L0,33.62c0,.06,0,.09,0,.09l28.8-.06a4.84,4.84,0,0,1,9.36,0l10.83,0s0,0,0-.11v-2a4.94,4.94,0,0,1,0-9.29ZM10,27.51a1.54,1.54,0,0,0-1.14-.16,1.82,1.82,0,0,0-1.39,1.56A1.53,1.53,0,0,0,8,30.43c.1.07.12.27,0,.31A3.75,3.75,0,0,1,6.76,31a3.68,3.68,0,1,1,3.68-3.68A.3.3,0,0,1,10,27.51Zm5.73-8.77a1.33,1.33,0,0,0-.45-.08,1.39,1.39,0,0,0-1.39,1.39,1.45,1.45,0,0,0,.15.62.26.26,0,0,1-.18.3h-.18a2.26,2.26,0,1,1,2.26-2.4C15.94,18.62,15.8,18.76,15.73,18.74Zm13.39,8.34a1.93,1.93,0,0,0-.9-.22,2,2,0,0,0-.93,3.72.21.21,0,0,1,0,.31A4.66,4.66,0,1,1,29.38,27C29.38,27.09,29.21,27.13,29.12,27.08Zm17.57-6.75a1.19,1.19,0,0,0-1.2,1.19,1.14,1.14,0,0,0,.15.58c.06.12,0,.45-.07.51a2.68,2.68,0,0,1-1.13.26A2.59,2.59,0,1,1,47,20.06.51.51,0,0,1,46.69,20.33Z"/></g></g></svg>