<svg xmlns="http://www.w3.org/2000/svg" viewBox="0 0 36.82 63.56"><defs><style>.cls-1{fill:#3a2e25;}</style></defs><title>アセット 9</title><g id="レイヤー_2" data-name="レイヤー 2"><g id="レイヤー_1-2" data-name="レイヤー 1"><path class="cls-1" d="M30.16,18.5a23,23,0,0,1-2.95,3.2,2.43,2.43,0,0,1-1.65.62A2.57,2.57,0,0,1,23.1,20.7a17.31,17.31,0,0,1-.8-3.45,7.32,7.32,0,0,1-3.39.77l-.64,0C13.77,30.41,6.83,31.1,3.09,38.31c-4.2,8.1-3,17.4-2.7,21.3s5.35,4.76,10.75,3.26A27.13,27.13,0,0,0,29,45.41c3.37-9.58,3.46-17.37,3.8-24.14A9.27,9.27,0,0,1,30.16,18.5ZM10,38.34a12.06,12.06,0,0,0-2.22,3C6,44.7,5.26,48.89,5.49,54.14a1.2,1.2,0,0,1-1.15,1.25h0a1.2,1.2,0,0,1-1.2-1.15c-.24-5.68.59-10.27,2.54-14a14.25,14.25,0,0,1,2.64-3.56A1.2,1.2,0,0,1,10,38.34Z"/><path class="cls-1" d="M16.59,15.25c6.1-4.31,5-12.23,11.88-10.19A8.8,8.8,0,0,0,27.75.84c-.2-.44,0-.75.22-.78a9.18,9.18,0,0,1,1.79,0,.72.72,0,0,1,.62.47,10.42,10.42,0,0,1,.41,5,4.66,4.66,0,0,1,4.13,5c0,3.17-1.11,5.79,1.86,9.31.12.15-.05.46-.25.45-4-.16-5.41-4.45-6.26-6.16a17,17,0,0,1-4.48,6,.56.56,0,0,1-.71-.16,24.09,24.09,0,0,1-1-7.36c-2.5,3.89-5,3.41-7.51,3.07C16.41,15.68,16.4,15.38,16.59,15.25Z"/></g></g></svg>