<svg xmlns="http://www.w3.org/2000/svg" viewBox="0 0 40.9 54.27"><defs><style>.cls-1{fill:#3a2e25;}</style></defs><title>アセット 10</title><g id="レイヤー_2" data-name="レイヤー 2"><g id="レイヤー_1-2" data-name="レイヤー 1"><path class="cls-1" d="M11,32.31c-.19-1.14-.39-2.23-.58-3.29C9,20.63,7.9,14.72,10.71,9c-4.1-1-8.31,0-10,4.27-2,5.1.4,9,1.57,14.12S5.58,39,5.55,45.83c0,3.36,3,5,6.1,4.68,0-.5,0-1,.09-1.64A68.61,68.61,0,0,0,11,32.31Z"/><path class="cls-1" d="M40.14,13.29C38.49,9,34.28,8.05,30.19,9c2.81,5.7,1.76,11.61.26,20-.19,1.06-.38,2.15-.58,3.29a68,68,0,0,0-.71,16.56c0,.6.06,1.14.08,1.64,3.07.27,6.12-1.32,6.1-4.68,0-6.79,2.06-13.33,3.23-18.42S42.1,18.39,40.14,13.29Z"/><path class="cls-1" d="M26.76,49a70.41,70.41,0,0,1,.75-17.11c.19-1.15.39-2.24.58-3.3,1.59-9,2.58-14.51-.87-20C25.7,7.52,23.43,7,20.45,7s-5.25.5-6.77,1.61c-3.46,5.46-2.47,11-.87,20,.19,1.06.38,2.15.58,3.3A70.81,70.81,0,0,1,14.13,49c-.06,1.14-.13,2.39-.1,3.21a9.91,9.91,0,0,0,6.42,2.05,9.93,9.93,0,0,0,6.42-2.05C26.9,51.4,26.83,50.15,26.76,49Z"/><path class="cls-1" d="M22,5a34.85,34.85,0,0,0,.67-4A2.19,2.19,0,0,0,19.46.53a26.11,26.11,0,0,1-.41,4.4c.45,0,.91,0,1.4,0S21.53,4.91,22,5Z"/></g></g></svg>