<svg xmlns="http://www.w3.org/2000/svg" viewBox="0 0 46.69 53.78"><defs><style>.cls-1{fill:#3a2e25;}</style></defs><title>アセット 14</title><g id="レイヤー_2" data-name="レイヤー 2"><g id="レイヤー_1-2" data-name="レイヤー 1"><path class="cls-1" d="M41.9,8.47a21.21,21.21,0,0,1-.23-4.14l1.19,0,.61,0c.31,0,.46-.2.5-.52A8.42,8.42,0,0,0,43.85.86a.6.6,0,0,0-.54-.41C41.45.43,38.58.16,37.26,0l-.15,0a.71.71,0,0,0-.6.41c-.26.5-.66,1.27-.8,1.62a.84.84,0,0,0,.53,1.17A17.61,17.61,0,0,0,38.19,4a11.61,11.61,0,0,1-.27,4.73c-3.51,5.39-3.68,14.58-8.78,21.07-7.74,9.84-16.88,11.38-23.91,12-5.44.48-6,3.87-4.57,6.33,2.85,3.42,9.11,5.67,16.06,5.67,7.23,0,15.2-2.44,20.85-8.53C48.35,33.61,49.29,16.68,41.9,8.47ZM34,39.59c-5.29,5.46-12.77,8.23-22.25,8.23-.59,0-1.19,0-1.8,0a1.31,1.31,0,1,1,.1-2.61c9.56.34,17-2.15,22.07-7.4s7.69-13.38,7.09-22.25a1.31,1.31,0,0,1,2.62-.18C42.45,25,39.6,33.79,34,39.59Z"/></g></g></svg>