<svg xmlns="http://www.w3.org/2000/svg" viewBox="0 0 52.03 71.92"><defs><style>.cls-1{fill:#3a2e25;}</style></defs><title>アセット 3</title><g id="レイヤー_2" data-name="レイヤー 2"><g id="レイヤー_1-2" data-name="レイヤー 1"><path class="cls-1" d="M17.6,49.41A3.07,3.07,0,0,1,16.11,49a.56.56,0,0,1-.31-.36c-.1-.52.61-1.42,1.08-2a38.79,38.79,0,0,1,4-3.47l.37-.3c.37-.3.53-.32.57-.32s.12.13.06.79a10.18,10.18,0,0,1-1.31,3.61c-.89,1.69-1.85,2.51-2.93,2.51Z"/><path class="cls-1" d="M6.26,61.46a.82.82,0,0,1-.34-.09c-1.56-.78-2.21-1.25-1.15-4.19a9.5,9.5,0,0,1,2.38-3.83c.49-.41.67-.46.72-.46s.14.11.14,1a26.24,26.24,0,0,1-.59,5.66c-.3,1-.64,1.92-1.16,1.92Z"/><path class="cls-1" d="M20.86,34.22a.81.81,0,0,1-.34-.1c-1.56-.79-2.2-1.27-1.11-4.21a9.41,9.41,0,0,1,2.42-3.8c.41-.34.57-.38.63-.38s.17.07.18,1.13A31.58,31.58,0,0,1,22,32.31c-.31,1-.65,1.91-1.17,1.91Z"/><path class="cls-1" d="M38.2,5.28c.26-.8.5-1.58.67-2.25A2.52,2.52,0,0,0,38.55.75L38.4.58c.2-.11.42-.23.69-.36A1.77,1.77,0,0,1,39.9,0c.54,0,1,.4,1.12,1.11a6,6,0,0,1-.24,3.66A2,2,0,0,0,40,4.62a3.15,3.15,0,0,0-1.81.66Z"/><path class="cls-1" d="M33.5,7a1.08,1.08,0,0,0-.18-.24A1.9,1.9,0,0,0,32,6.08a6.61,6.61,0,0,1,1.79-2.43,10.65,10.65,0,0,1,2.57-1.81A1.53,1.53,0,0,1,37,1.66a.33.33,0,0,1,.27.1,1.14,1.14,0,0,1,0,.86c-.26,1-.67,2.3-1.09,3.47l-.41,0a3.14,3.14,0,0,0-1.65.51L33.5,7Z"/><path class="cls-1" d="M28.89,17.86c-2.08-1.15-2.19-3-.44-6.84a8.83,8.83,0,0,1,2.67-3,1.33,1.33,0,0,1,.74-.34.28.28,0,0,1,.23.1,1,1,0,0,1,.13.73c0,.18,0,.52-.07.94a30.34,30.34,0,0,1-.59,4.8l-.08.2A6.69,6.69,0,0,0,29.82,16a7,7,0,0,0-.93,1.85Z"/><path class="cls-1" d="M6.32,71.42a.47.47,0,0,1-.17,0l-6-3.17A.34.34,0,0,1,0,68a.36.36,0,0,1,0-.27l3.38-6.08a5.64,5.64,0,0,0,1.76,1.19,2.33,2.33,0,0,0,1.07.27C8.05,63.11,8.64,61.18,9,60a26.64,26.64,0,0,0,.67-6.14,4.28,4.28,0,0,0-.19-1.44A1.79,1.79,0,0,0,9,51.68l9.43-16.93a7.37,7.37,0,0,0,1.36.84,2.42,2.42,0,0,0,1.09.28c1.77,0,2.38-1.92,2.74-3.06a32.39,32.39,0,0,0,.69-6,4.91,4.91,0,0,0-.19-1.51,1.55,1.55,0,0,0-.21-.45l3.41-6.12a5.79,5.79,0,0,0,.9.58,1.82,1.82,0,0,0,.58.2l0,.05a2.55,2.55,0,0,0,1.33,1.66,7.49,7.49,0,0,0,1.43.59L22,40.86h-.19a2.56,2.56,0,0,0-1.61.69l-.36.29a34.6,34.6,0,0,0-4.22,3.74c-.74.93-1.66,2.09-1.41,3.36a2.15,2.15,0,0,0,1.13,1.48,5.21,5.21,0,0,0,1.54.58L6.63,71.22a.35.35,0,0,1-.31.2Z"/><path class="cls-1" d="M33.45,13.24c.15-1.08.25-2.43.34-3.63,0-.38.05-.72.07-.87A12.68,12.68,0,0,1,35,8a1.63,1.63,0,0,1,.79-.26c.54,0,.78.5.88.93a5.66,5.66,0,0,1,0,3,3.59,3.59,0,0,0-1.64.7l-.81.49c-.27.16-.5.29-.7.42Z"/><path class="cls-1" d="M32.84,20.39a4.1,4.1,0,0,1-1.93-.58.88.88,0,0,1-.51-.6,3.23,3.23,0,0,1,.79-2.27c.5-.75,2.56-2,3.79-2.69.42-.25.75-.45.92-.57a2,2,0,0,1,.92-.41,7.75,7.75,0,0,0-.4,2.9,4.77,4.77,0,0,0,.17.93A6,6,0,0,1,36,18.21c-1,1.47-2,2.18-3.13,2.18Z"/><path class="cls-1" d="M38.47,9.67a9.2,9.2,0,0,0-.21-1.42A4,4,0,0,0,38,7.54c.34-.29.7-.58,1.1-.88a1.63,1.63,0,0,1,.9-.39c.31,0,.48.26.51.76v.12c0,.12,0,.26,0,.42a11.5,11.5,0,0,0-2.08,2.1Z"/><path class="cls-1" d="M28.43,49.91a3.13,3.13,0,0,1-1.5-.44.54.54,0,0,1-.3-.36c-.11-.53.61-1.42,1.08-2a38.79,38.79,0,0,1,4-3.47l.37-.3c.37-.3.53-.32.57-.32s.12.13.06.79a10.38,10.38,0,0,1-1.31,3.61c-.89,1.69-1.85,2.51-2.93,2.51Z"/><path class="cls-1" d="M17.08,62a.78.78,0,0,1-.33-.09c-1.56-.78-2.21-1.25-1.15-4.19A9.5,9.5,0,0,1,18,53.85c.49-.41.66-.46.72-.46s.14.11.14,1a25.58,25.58,0,0,1-.6,5.66C18,61,17.61,62,17.08,62Z"/><path class="cls-1" d="M31.69,34.72a.81.81,0,0,1-.34-.1c-1.56-.8-2.2-1.27-1.11-4.21a9.31,9.31,0,0,1,2.42-3.8c.41-.34.57-.38.62-.38s.18.07.18,1.13a31.48,31.48,0,0,1-.6,5.45c-.31,1-.65,1.91-1.17,1.91Z"/><path class="cls-1" d="M49,5.78c.26-.8.49-1.58.67-2.25a2.52,2.52,0,0,0-.32-2.28l-.15-.17c.2-.11.42-.23.69-.36a1.76,1.76,0,0,1,.8-.22c.55,0,1,.4,1.13,1.11a5.93,5.93,0,0,1-.24,3.65,2.28,2.28,0,0,0-.77-.14A3.15,3.15,0,0,0,49,5.78Z"/><path class="cls-1" d="M44.33,7.46a1.5,1.5,0,0,0-.18-.24,1.92,1.92,0,0,0-1.33-.64,6.61,6.61,0,0,1,1.79-2.43,10.36,10.36,0,0,1,2.57-1.81,1.53,1.53,0,0,1,.62-.18.31.31,0,0,1,.27.1,1.08,1.08,0,0,1,0,.86c-.26,1-.67,2.3-1.1,3.47a2.71,2.71,0,0,0-.4,0A3.24,3.24,0,0,0,45,7.06c-.17.11-.39.24-.62.4Z"/><path class="cls-1" d="M49.72,14.22a2.52,2.52,0,0,0-.6-1.48L49,12.62a7.39,7.39,0,0,0,.09-3.87A3.34,3.34,0,0,0,48.83,8c.34-.29.7-.58,1.1-.88a1.69,1.69,0,0,1,.91-.39c.31,0,.48.26.51.76v.12a12.07,12.07,0,0,1-.2,3.5,7.45,7.45,0,0,1-1.44,3.07Z"/><path class="cls-1" d="M39.72,18.36c-2.08-1.15-2.19-3-.44-6.84a8.83,8.83,0,0,1,2.67-3,1.33,1.33,0,0,1,.74-.34.29.29,0,0,1,.23.1,1,1,0,0,1,.13.73c0,.18,0,.52-.08.94a29.31,29.31,0,0,1-.58,4.8c0,.06,0,.13-.08.2a6.69,6.69,0,0,0-1.66,1.52,7,7,0,0,0-.93,1.85Z"/><path class="cls-1" d="M17.14,71.92a.47.47,0,0,1-.16,0l-6-3.17a.34.34,0,0,1-.18-.21.42.42,0,0,1,0-.27l3.38-6.08A5.89,5.89,0,0,0,16,63.34a2.39,2.39,0,0,0,1.07.27c1.79,0,2.39-1.93,2.74-3.09a26.64,26.64,0,0,0,.67-6.14,4.28,4.28,0,0,0-.19-1.44,2,2,0,0,0-.49-.76l9.42-16.93a7.43,7.43,0,0,0,1.37.84,2.42,2.42,0,0,0,1.09.28c1.77,0,2.38-1.92,2.74-3.07a32.07,32.07,0,0,0,.68-5.94,4.62,4.62,0,0,0-.18-1.51,2.78,2.78,0,0,0-.21-.46l3.4-6.11a6.41,6.41,0,0,0,.91.58,1.74,1.74,0,0,0,.58.2v.05A2.6,2.6,0,0,0,41,21.77a7.49,7.49,0,0,0,1.43.59l-9.59,19h-.19A2.56,2.56,0,0,0,31,42l-.36.29a34,34,0,0,0-4.23,3.74c-.74.93-1.65,2.09-1.4,3.36a2.14,2.14,0,0,0,1.13,1.48,5.11,5.11,0,0,0,1.54.58L17.46,71.72a.36.36,0,0,1-.32.2Z"/><path class="cls-1" d="M43.67,20.89a4.07,4.07,0,0,1-1.93-.58.92.92,0,0,1-.52-.6,3.27,3.27,0,0,1,.8-2.28c.5-.74,2.56-2,3.78-2.68.43-.25.76-.45.93-.57a1.85,1.85,0,0,1,.94-.41.32.32,0,0,1,.24.09,1.33,1.33,0,0,1,.16.94,7.69,7.69,0,0,1-1.27,3.91c-1,1.47-2,2.18-3.13,2.18Z"/><path class="cls-1" d="M44.28,13.74c.15-1.08.25-2.43.34-3.63,0-.38.05-.72.07-.87a11.36,11.36,0,0,1,1.12-.77,1.52,1.52,0,0,1,.79-.27c.54,0,.78.51.88.94a5.55,5.55,0,0,1-.06,3,3.68,3.68,0,0,0-1.64.7c-.11.08-.46.29-.81.49l-.69.42Z"/></g></g></svg>