<svg xmlns="http://www.w3.org/2000/svg" viewBox="0 0 42.44 58.77"><defs><style>.cls-1{fill:#3a2e25;}</style></defs><title>アセット 16</title><g id="レイヤー_2" data-name="レイヤー 2"><g id="レイヤー_1-2" data-name="レイヤー 1"><path class="cls-1" d="M37.54,16.92a16.82,16.82,0,0,0-1.62-1.45,8.57,8.57,0,0,1-3.48.72c-.33,0-.66,0-1-.05a24.56,24.56,0,0,1-.4,5.1,2.6,2.6,0,0,1-2.57,2.34A2.76,2.76,0,0,1,26.81,23h0l-.27-.21A45.16,45.16,0,0,1,20.89,18a45.16,45.16,0,0,1-5.64,4.77L15,23h0a2.75,2.75,0,0,1-1.67.58,2.59,2.59,0,0,1-2.57-2.34,23.89,23.89,0,0,1-.4-5.1c-.32,0-.65.05-1,.05a8.69,8.69,0,0,1-3-.54A16.44,16.44,0,0,0,4.9,16.92,17.15,17.15,0,0,0,1.71,36.43c7,14.82,13.53,22.34,19.51,22.34s12.54-7.52,19.5-22.34A17.15,17.15,0,0,0,37.54,16.92Zm-30,12.92a1.57,1.57,0,0,1-1.46.92,1.59,1.59,0,0,1-1.46-.92c-.52-1.09-.11-2.87,1-4.23a.59.59,0,0,1,.48-.23.62.62,0,0,1,.49.23C7.65,27,8.06,28.75,7.53,29.84ZM12.14,38a1.61,1.61,0,0,1-2.92,0c-.52-1.09-.11-2.86,1-4.22a.62.62,0,0,1,1,0C12.26,35.13,12.66,36.9,12.14,38Zm5.09,8.39a1.62,1.62,0,0,1-2.92,0c-.52-1.09-.11-2.87,1-4.22a.62.62,0,0,1,1,0C17.35,43.51,17.75,45.29,17.23,46.38Zm.4-16.54a1.62,1.62,0,0,1-2.92,0c-.52-1.09-.12-2.87,1-4.23a.64.64,0,0,1,1,0C17.74,27,18.15,28.75,17.63,29.84ZM22.68,54a1.61,1.61,0,0,1-2.92,0c-.53-1.09-.12-2.86,1-4.22a.62.62,0,0,1,1,0C22.79,51.15,23.2,52.92,22.68,54Zm0-16a1.61,1.61,0,0,1-2.92,0c-.53-1.09-.12-2.86,1-4.22a.62.62,0,0,1,1,0C22.79,35.13,23.2,36.9,22.68,38Zm3.1-12.38a.62.62,0,0,1,.49-.23.59.59,0,0,1,.48.23c1.09,1.36,1.5,3.14,1,4.23a1.59,1.59,0,0,1-1.46.92,1.57,1.57,0,0,1-1.46-.92C24.28,28.75,24.69,27,25.78,25.61Zm2.34,20.77a1.61,1.61,0,0,1-2.91,0c-.53-1.09-.12-2.87,1-4.22a.63.63,0,0,1,.49-.24.6.6,0,0,1,.48.24C28.24,43.51,28.65,45.29,28.12,46.38ZM33.21,38a1.6,1.6,0,0,1-2.91,0c-.53-1.09-.12-2.86,1-4.22a.63.63,0,0,1,.49-.24.61.61,0,0,1,.48.24C33.33,35.13,33.74,36.9,33.21,38Zm4.61-8.15a1.62,1.62,0,0,1-2.92,0c-.52-1.09-.11-2.87,1-4.23a.64.64,0,0,1,1,0C37.94,27,38.35,28.75,37.82,29.84Z"/><path class="cls-1" d="M9.33,13.69A8.38,8.38,0,0,0,13,12.77l.64-.32-.23.67c-.84,2.52-.72,4.68-.22,7.76v0c0,.06,0,.18.09.18a.35.35,0,0,0,.16-.07l.28-.21c3.79-2.92,6.07-4.68,6.88-6.94l.28-.78.27.78c.81,2.26,3.1,4,6.89,6.94l.28.21a.28.28,0,0,0,.16.07c.06,0,.08-.12.09-.18v0c.51-3.08.62-5.24-.22-7.76l-.22-.67.63.32a8.45,8.45,0,0,0,3.67.92h0a6.46,6.46,0,0,0,4.72-2.07.69.69,0,0,0,.14-.25,25.74,25.74,0,0,1-2.51-1.06,22.18,22.18,0,0,0-9.54-2.59A16.31,16.31,0,0,0,22.08,8a11.91,11.91,0,0,1,2.79-5.63,1.42,1.42,0,0,0-2-2A14.64,14.64,0,0,0,19.22,8a16.4,16.4,0,0,0-2.7-.23A22.09,22.09,0,0,0,7,10.31c-1,.43-1.76.81-2.51,1.06a.57.57,0,0,0,.14.25A6.44,6.44,0,0,0,9.33,13.69Z"/></g></g></svg>