<svg xmlns="http://www.w3.org/2000/svg" viewBox="0 0 41.12 66.36"><defs><style>.cls-1{fill:#3a2e25;}</style></defs><title>アセット 22</title><g id="レイヤー_2" data-name="レイヤー 2"><g id="レイヤー_1-2" data-name="レイヤー 1"><path class="cls-1" d="M41.1,10.86a1.17,1.17,0,0,0-1.35-.92l-.16,0c-3.27.62-6.06,1.14-9,3a41.51,41.51,0,0,1,6.81-6.27A1.16,1.16,0,0,0,36.14,4.8,38.7,38.7,0,0,0,30.2,10l3.5-7.21a1.16,1.16,0,0,0-2.08-1L27.86,9.56A40.27,40.27,0,0,0,28.39,1a1.15,1.15,0,0,0-2.29.23,42.13,42.13,0,0,1-.72,9.23c-.33-3.51-1.64-6-3.18-9l-.08-.15a1.16,1.16,0,0,0-2.05,1.07l.08.15c1.72,3.28,3,5.82,3,9.88a16.2,16.2,0,0,1,2.38.92l1.5.73a14.29,14.29,0,0,1,3.14,2c3.26-2.7,6.12-3.24,9.84-3.94l.16,0A1.17,1.17,0,0,0,41.1,10.86Z"/><path class="cls-1" d="M17.17,33.4l8.42,4.09,4.13-5.23c4.49-5.69,2.84-12.93-3.68-16.09l-1.5-.73a11.65,11.65,0,0,0-5.09-1.22,9.82,9.82,0,0,0-9.16,6.26l9,4.37a1.57,1.57,0,0,1-.69,3,1.51,1.51,0,0,1-.68-.16L9.37,23.53,5.9,38l6.2,3a1.57,1.57,0,0,1,.73,2.1,1.56,1.56,0,0,1-1.42.89,1.51,1.51,0,0,1-.68-.16l-5.58-2.7L.56,60.26c-1,4-.64,6.1.66,6.1,1,0,2.5-1.19,4.43-3.63l5.25-6.65L5.25,53.34a1.57,1.57,0,1,1,1.38-2.83l6.27,3L23.59,40l-7.8-3.78a1.58,1.58,0,1,1,1.38-2.84Z"/></g></g></svg>