<svg xmlns="http://www.w3.org/2000/svg" viewBox="0 0 55.31 42.07"><defs><style>.cls-1{fill:#3a2e25;}</style></defs><title>アセット 21</title><g id="レイヤー_2" data-name="レイヤー 2"><g id="レイヤー_1-2" data-name="レイヤー 1"><path class="cls-1" d="M42.5,41a.15.15,0,0,1-.13-.07.15.15,0,0,1,0-.18c.32-.32.63-.66.92-1,2.06-2.45,4.63-7,5.22-14.51.48-6.15-.21-10.63-2.1-13.7a10.94,10.94,0,0,0-6.67-4.73,12.67,12.67,0,0,0-2.24-.43.14.14,0,0,1-.14-.13,2.57,2.57,0,0,0-.07-.4l0-.1v0a.13.13,0,0,1,0-.13.16.16,0,0,1,.12-.06h0c6.7.39,11.36,2,14.23,4.94,2.56,2.63,3.76,6.4,3.64,11.54-.1,4.66-1,8.35-2.71,11.3-2.08,3.57-5.37,6.08-10,7.67Z"/><path class="cls-1" d="M35.15,41.82h-.93a.17.17,0,0,1-.14-.09.16.16,0,0,1,0-.16,15.1,15.1,0,0,0,2.66-5.36c1.53-5.14,1.72-12.3,1.72-18,0-4.06-.61-7.06-1.86-9.17a.15.15,0,0,1,.13-.22h0a10,10,0,0,1,2.31.37c4.17,1.21,7.91,4,7,15.84C45.51,32,43.23,36,41.4,38.16c-2.26,2.7-4.71,3.66-6.25,3.66Z"/><path class="cls-1" d="M12.81,41h-.05c-4.67-1.59-8-4.1-10-7.67C1,30.39.11,26.7,0,22-.11,16.9,1.09,13.13,3.65,10.5,6.52,7.57,11.18,6,17.88,5.56h0a.16.16,0,0,1,.12.06.13.13,0,0,1,0,.13v0s0,.06,0,.09a2.57,2.57,0,0,0-.07.4.14.14,0,0,1-.13.13,12.79,12.79,0,0,0-2.25.43,11,11,0,0,0-6.67,4.73C7,14.63,6.3,19.11,6.78,25.26,7.37,32.82,9.94,37.32,12,39.77c.29.34.6.68.92,1a.15.15,0,0,1,0,.18.15.15,0,0,1-.13.07Z"/><path class="cls-1" d="M20.16,41.82c-1.53,0-4-1-6.25-3.66C12.09,36,9.8,32,9.26,25.06c-.93-11.88,2.81-14.63,7-15.84a10,10,0,0,1,2.31-.37h0a.13.13,0,0,1,.13.07.14.14,0,0,1,0,.15c-1.25,2.11-1.86,5.11-1.86,9.17,0,5.66.19,12.82,1.72,18a14.94,14.94,0,0,0,2.67,5.36.18.18,0,0,1,0,.16.2.2,0,0,1-.13.09Z"/><path class="cls-1" d="M27.66,42.07c-5.93,0-8.35-6.91-8.35-23.83,0-4,.59-6.69,1.8-8.33a.13.13,0,0,1,.12-.06h0a21.18,21.18,0,0,0,6.39.75A21.08,21.08,0,0,0,34,9.85h.05a.16.16,0,0,1,.12.06c1.2,1.64,1.79,4.37,1.79,8.33,0,16.92-2.42,23.83-8.34,23.83Z"/><path class="cls-1" d="M27.66,8.11c-2.39,0-5.74-.15-7.2-1.48a.17.17,0,0,1-.05-.15.17.17,0,0,1,.11-.11c2.41-.6,4-1.87,4-2.68V.15A.15.15,0,0,1,24.69,0h5.93a.15.15,0,0,1,.15.15V3.69c0,.81,1.61,2.08,4,2.68a.17.17,0,0,1,.11.11.17.17,0,0,1,0,.15C33.39,8,30,8.11,27.66,8.11Z"/></g></g></svg>