<svg xmlns="http://www.w3.org/2000/svg" viewBox="0 0 71.6 45.25"><defs><style>.cls-1{fill:#3a2e25;}</style></defs><title>アセット 15</title><g id="レイヤー_2" data-name="レイヤー 2"><g id="レイヤー_1-2" data-name="レイヤー 1"><path class="cls-1" d="M41.65,37.7q-1.57.61-3.18,1.11c1.3.61,5,2.29,5.33,2.37a4.77,4.77,0,0,0,2.71-1.12l-4.64-2.22A1.18,1.18,0,0,1,41.65,37.7Z"/><path class="cls-1" d="M51.52,34.71a13,13,0,0,0,1-2.74c-1,.5-2.1,1.13-3.35,1.85Z"/><path class="cls-1" d="M44.5,36.44l4.13,2a14.22,14.22,0,0,0,1.6-1.63l-3.69-1.43Q45.54,35.93,44.5,36.44Z"/><path class="cls-1" d="M32.18,42c.52-.82.9-1.5,1.14-1.93-1.21.2-2.45.35-3.7.46Z"/><path class="cls-1" d="M20.86,40.38c1.88,1.35,5.58,3.85,8.46,4.8.57.17.65,0,1-.45l.56-.77-5.79-3.34C23.68,40.6,22.28,40.52,20.86,40.38Z"/><path class="cls-1" d="M51.59,15.52a13.32,13.32,0,0,0-1.11-2.74,8.13,8.13,0,0,0-1.74-2L47.6,13.07C49,13.87,50.34,14.69,51.59,15.52Z"/><path class="cls-1" d="M26.25,5.52,30.87.9C29.82.55,28.79.24,27.8,0a3.12,3.12,0,0,0-1.4.35,66.46,66.46,0,0,0-5.75,5.09c.77-.07,1.56-.11,2.38-.11A29,29,0,0,1,26.25,5.52Z"/><path class="cls-1" d="M33.13,6.9l3.49-3.66c-1.08-.51-2.18-1-3.27-1.43L29.2,6C30.54,6.22,31.86,6.54,33.13,6.9Z"/><path class="cls-1" d="M39.35,9.05l2.42-3.11c-.93-.54-1.9-1.07-2.9-1.59L35.69,7.69C37,8.13,38.22,8.59,39.35,9.05Z"/><path class="cls-1" d="M45.5,11.92l1.34-2.68c-.89-.66-1.9-1.35-3-2L41.63,10C42.93,10.62,44.23,11.25,45.5,11.92Z"/><path class="cls-1" d="M23.67,26.6c0,.13-.07.27-.1.4a16.82,16.82,0,0,0,4,1.47A2.12,2.12,0,0,0,29.31,28a3.22,3.22,0,0,0,.48-.43Z"/><path class="cls-1" d="M24,24.46c0,.07,0,.14,0,.21l7,1.12a13.45,13.45,0,0,0,.59-1.51L24,24.4Z"/><path class="cls-1" d="M70.21,33.16l-7.26-3a1.2,1.2,0,0,1,.9-2.22l4.65,1.9c-.73-1.36-1.38-2.57-1.83-3.39H63.45a1.2,1.2,0,0,1,0-2.4h3.2c.49-1,1.1-2.15,1.72-3.31l-4.22,1.72a1,1,0,0,1-.45.09,1.2,1.2,0,0,1-.45-2.31l7-2.85c.49-.86.92-1.6,1.23-2.11s0-1-.4-1a.78.78,0,0,0-.26,0c-3.41,1.32-6.74,3.66-10,6-1.32.93-2.24,1.52-3.27,1.52s-2.18-.59-3.94-2C47.27,14.84,33.82,7.74,23,7.74A17.73,17.73,0,0,0,15.84,9.1C5.63,13.62.17,22.13,0,25.94s8.45,9.81,16.12,11.32a50.86,50.86,0,0,0,9.71,1A39.13,39.13,0,0,0,45.64,33.1c5.08-2.93,8.07-4.74,10.37-4.74A3.87,3.87,0,0,1,58.2,29c3,2,8,5.29,12.3,7a.34.34,0,0,0,.16,0,.69.69,0,0,0,.52-.92C70.87,34.48,70.55,33.82,70.21,33.16ZM10.72,25.75h-.11a2.27,2.27,0,0,1,.1-4.54h.11a2.27,2.27,0,0,1-.1,4.54Zm23.2-3.24c-.22,1.7-1.21,5.38-3.43,7.06a4.18,4.18,0,0,1-2.53.88,5.14,5.14,0,0,1-.66-.05A18.39,18.39,0,0,1,23,28.9a16.06,16.06,0,0,1-2.44,4.83,1.2,1.2,0,0,1-1.78-1.61,18.31,18.31,0,0,0,2.81-7.8c.16-2.68-1.39-5.29-4.75-8a1.2,1.2,0,1,1,1.51-1.87,15.82,15.82,0,0,1,5,6.11,18.73,18.73,0,0,1,8.72-1.35C33.41,19.46,34.14,20.75,33.92,22.51Z"/><path class="cls-1" d="M32,22.32v-.06c0-.27.07-1.06-.25-1.12a17.09,17.09,0,0,0-7.81,1.31Z"/></g></g></svg>