<svg xmlns="http://www.w3.org/2000/svg" viewBox="0 0 18 18"><defs><style>.cls-1{fill:#3a2e25;}</style></defs><title>アセット 14</title><g id="レイヤー_2" data-name="レイヤー 2"><g id="レイヤー_1-2" data-name="レイヤー 1"><path class="cls-1" d="M9,1.62c2.4,0,2.69,0,3.64,0A5.12,5.12,0,0,1,14.31,2a2.77,2.77,0,0,1,1,.68,2.77,2.77,0,0,1,.68,1,5.12,5.12,0,0,1,.31,1.67c0,.95.05,1.24.05,3.64s0,2.69-.05,3.64A5.12,5.12,0,0,1,16,14.31,3.08,3.08,0,0,1,14.31,16a5.12,5.12,0,0,1-1.67.31c-1,0-1.24.05-3.64.05s-2.69,0-3.64-.05A5.12,5.12,0,0,1,3.69,16a2.77,2.77,0,0,1-1-.68,2.77,2.77,0,0,1-.68-1,5.12,5.12,0,0,1-.31-1.67c0-1,0-1.24,0-3.64s0-2.69,0-3.64A5.12,5.12,0,0,1,2,3.69a2.77,2.77,0,0,1,.68-1,2.77,2.77,0,0,1,1-.68,5.12,5.12,0,0,1,1.67-.31c.95,0,1.24,0,3.64,0M9,0C6.56,0,6.25,0,5.29.05A6.9,6.9,0,0,0,3.1.47a4.42,4.42,0,0,0-1.59,1,4.42,4.42,0,0,0-1,1.59A6.9,6.9,0,0,0,.05,5.29C0,6.25,0,6.56,0,9s0,2.75.05,3.71A6.9,6.9,0,0,0,.47,14.9a4.42,4.42,0,0,0,1,1.59,4.42,4.42,0,0,0,1.59,1A6.9,6.9,0,0,0,5.29,18c1,0,1.27.05,3.71.05s2.75,0,3.71-.05a6.9,6.9,0,0,0,2.19-.42,4.64,4.64,0,0,0,2.63-2.63A6.9,6.9,0,0,0,18,12.71c0-1,.05-1.27.05-3.71S18,6.25,18,5.29a6.9,6.9,0,0,0-.42-2.19,4.42,4.42,0,0,0-1-1.59,4.42,4.42,0,0,0-1.59-1A6.9,6.9,0,0,0,12.71.05c-1,0-1.27,0-3.71,0Z"/><path class="cls-1" d="M9,4.38A4.62,4.62,0,1,0,13.62,9,4.62,4.62,0,0,0,9,4.38ZM9,12a3,3,0,1,1,3-3A3,3,0,0,1,9,12Z"/><circle class="cls-1" cx="13.8" cy="4.2" r="1.08"/></g></g></svg>