<?xml version="1.0" encoding="utf-8"?>
<!-- Generator: Adobe Illustrator 23.0.4, SVG Export Plug-In . SVG Version: 6.00 Build 0)  -->
<svg version="1.1" id="レイヤー_1" xmlns="http://www.w3.org/2000/svg" xmlns:xlink="http://www.w3.org/1999/xlink" x="0px"
	 y="0px" viewBox="0 0 18 18" style="enable-background:new 0 0 18 18;" xml:space="preserve">
<style type="text/css">
	.st0{fill:#FFFAF3;}
</style>
<title>アセット 14</title>
<g>
	<g id="レイヤー_1-2">
		<path class="st0" d="M9,1.6c2.4,0,2.7,0,3.6,0c0.6,0,1.1,0.2,1.7,0.4c0.4,0.2,0.7,0.4,1,0.7c0.3,0.3,0.5,0.6,0.7,1
			c0.2,0.5,0.3,1.1,0.3,1.7c0,0.9,0,1.2,0,3.6s0,2.7,0,3.6c0,0.6-0.1,1.1-0.3,1.7c-0.3,0.8-0.9,1.4-1.7,1.7
			c-0.5,0.2-1.1,0.3-1.7,0.3c-1,0-1.2,0-3.6,0s-2.7,0-3.6,0c-0.6,0-1.1-0.1-1.7-0.3c-0.4-0.2-0.7-0.4-1-0.7c-0.3-0.3-0.5-0.6-0.7-1
			c-0.2-0.5-0.3-1.1-0.3-1.7c0-1,0-1.2,0-3.6s0-2.7,0-3.6c0-0.6,0.1-1.1,0.3-1.7c0.2-0.4,0.4-0.7,0.7-1C3,2.4,3.3,2.2,3.7,2
			c0.5-0.2,1.1-0.3,1.7-0.3C6.3,1.7,6.6,1.7,9,1.6 M9,0C6.6,0,6.2,0,5.3,0.1c-0.7,0-1.5,0.2-2.2,0.4C2.5,0.7,2,1,1.5,1.5
			c-0.4,0.5-0.8,1-1,1.6C0.2,3.8,0.1,4.5,0.1,5.3C0,6.2,0,6.6,0,9s0,2.8,0.1,3.7c0,0.7,0.2,1.5,0.4,2.2c0.2,0.6,0.6,1.1,1,1.6
			c0.5,0.4,1,0.8,1.6,1C3.8,17.8,4.5,18,5.3,18c1,0,1.3,0,3.7,0s2.8,0,3.7,0c0.7,0,1.5-0.2,2.2-0.4c1.2-0.5,2.2-1.4,2.6-2.6
			c0.3-0.7,0.4-1.5,0.5-2.2c0-1,0-1.3,0-3.7s0-2.8,0-3.7c0-0.7-0.2-1.5-0.4-2.2c-0.2-0.6-0.6-1.1-1-1.6c-0.5-0.4-1-0.8-1.6-1
			c-0.7-0.3-1.5-0.4-2.3-0.5C11.7,0.1,11.4,0.1,9,0L9,0z"/>
		<path class="st0" d="M9,4.4C6.4,4.4,4.4,6.4,4.4,9s2.1,4.6,4.6,4.6s4.6-2.1,4.6-4.6S11.6,4.4,9,4.4L9,4.4z M9,12c-1.7,0-3-1.3-3-3
			s1.3-3,3-3s3,1.3,3,3S10.7,12,9,12z"/>
		<circle class="st0" cx="13.8" cy="4.2" r="1.1"/>
	</g>
</g>
</svg>
