<svg xmlns="http://www.w3.org/2000/svg" viewBox="0 0 19 15.44"><defs><style>.cls-1{fill:#3a2e25;}</style></defs><title>アセット 13</title><g id="レイヤー_2" data-name="レイヤー 2"><g id="レイヤー_1-2" data-name="レイヤー 1"><path class="cls-1" d="M6,15.44A11,11,0,0,0,17.07,4.35c0-.17,0-.34,0-.51a7.89,7.89,0,0,0,1.94-2,7.92,7.92,0,0,1-2.24.61A3.91,3.91,0,0,0,18.47.28a7.58,7.58,0,0,1-2.47,1A3.9,3.9,0,0,0,9.36,4.78a11,11,0,0,1-8-4.07,3.9,3.9,0,0,0,1.21,5.2A3.78,3.78,0,0,1,.76,5.43v.05A3.91,3.91,0,0,0,3.89,9.3a3.88,3.88,0,0,1-1.76.06,3.9,3.9,0,0,0,3.64,2.71A7.75,7.75,0,0,1,.93,13.74c-.31,0-.62,0-.93-.05a11.1,11.1,0,0,0,6,1.75"/></g></g></svg>