<svg xmlns="http://www.w3.org/2000/svg" viewBox="0 0 27.89 26.84"><defs><style>.cls-1{fill:#3a2e25;}</style></defs><title>アセット 15</title><g id="レイヤー_2" data-name="レイヤー 2"><g id="レイヤー_1-2" data-name="レイヤー 1"><path class="cls-1" d="M5.58,15.52c.16-2.34-2.78-1.8-3.29.08s1.37,5.48,3.28,3.07l-.73-.3c-.45,8.19,14,9,17,2.49h-.8c1,2.17,4.69,1.42,5.38-.67.89-2.72-2.41-2.49-3.88-1.74-.44.21-.13,1,.33.79,1-.42,1-.77,1.44.6.63.84.49,1.25-.43,1.22a1.47,1.47,0,0,1-2-.66.46.46,0,0,0-.8,0c-1.47,3.2-4.78,4.15-8.08,3.79s-7.48-1.82-7.28-5.82a.42.42,0,0,0-.72-.3q-3.87-1.38-.08-2.55a.35.35,0,0,0,.69,0Z" transform="translate(0 -0.19)"/><path class="cls-1" d="M10.05,16.72a2.55,2.55,0,0,1,.43-2.57l-.63-.09a2.23,2.23,0,0,1,.2,2s-.23.58,0,.38a2.85,2.85,0,0,0-.1-.51c-.06-.45-.05-.91.4-1.13s.07-1-.43-.74a1.69,1.69,0,0,0-.85,1.7c0,.54.14,1.49.87,1.47s.94-.92,1-1.45a3,3,0,0,0-.45-2.11.4.4,0,0,0-.63-.08,3.25,3.25,0,0,0-.49,3.32c.16.38.78.23.63-.18Z" transform="translate(0 -0.19)"/><path class="cls-1" d="M9.73,15.65h0a.31.31,0,0,0-.3.23.37.37,0,0,0,.11.4.3.3,0,0,0,.38,0c.41-.2.46-.94.59-1.34l-.72-.1a3.13,3.13,0,0,1-.23,1.17c-.2.46.59.69.77.21a3,3,0,0,0,.19-1.38c0-.37-.62-.53-.71-.09,0,.2-.09.39-.13.59a3,3,0,0,0-.08.4l.38.05,0,0,.08.31V16l-.3.23h0c.4,0,.4-.64,0-.62Z" transform="translate(0 -0.19)"/><path class="cls-1" d="M17.86,17.25a2.43,2.43,0,0,1,0-1c.05-.23.25-.83.52-.89l-.32,0c.21.12.16.74.12.94a1.64,1.64,0,0,1-.49.89l.66.09a1.35,1.35,0,0,1,.12-1.6l-.68-.08a1,1,0,0,1-.24,1.26c-.43.33,0,1.07.43.73a1.87,1.87,0,0,0,.55-2.42.43.43,0,0,0-.67-.09,2.22,2.22,0,0,0-.24,2.63.43.43,0,0,0,.67.08A2.47,2.47,0,0,0,19,16.05c0-.48-.08-1.39-.66-1.53s-1,.69-1.17,1.13a2.34,2.34,0,0,0,.09,1.85c.17.34.66.09.58-.25Z" transform="translate(0 -0.19)"/><path class="cls-1" d="M13.84,17.35l-.13.25c-.23.42.44.8.64.37l.12-.25c.19-.42-.4-.78-.63-.37Z" transform="translate(0 -0.19)"/><path class="cls-1" d="M11.45,19.88a24.9,24.9,0,0,0,3.84.58c.5,0,.5-.75,0-.78-1.23-.08-2.45-.23-3.67-.42-.4-.06-.58.52-.17.62Z" transform="translate(0 -0.19)"/><path class="cls-1" d="M11.55,20.08a3.22,3.22,0,0,0,.16,2.14c.25.56.78,1.33,1.47,1.32s1.28-.74,1.63-1.25A3.51,3.51,0,0,0,15.5,20c0-.38-.64-.55-.74-.1a4,4,0,0,1-1.14,2.54c-.35.31-.59.3-.92-.07a2.06,2.06,0,0,1-.36-.56,2.67,2.67,0,0,1-.17-1.6.32.32,0,0,0-.62-.17Z" transform="translate(0 -0.19)"/><path class="cls-1" d="M14.38,7c-1.07,2.28-3.36,4.89-6,4.6-.45,0-.55-.33-1.07,0-.29.17-.4.64-.58.93a9,9,0,0,1-.82,1.13c-.41.81-.8.62-1.18-.55a.48.48,0,0,0-1,0c0,.93.21,2.4,1.49,2.25.59-.07,1.06-.7,1.41-1.11A9.73,9.73,0,0,1,7.52,13c.61-.52.28-.21,1-.16C11.1,13,14.81,9.79,15,7.18A.35.35,0,0,0,14.38,7Z" transform="translate(0 -0.19)"/><path class="cls-1" d="M14.64,7.19A21.16,21.16,0,0,1,12.07,13a.37.37,0,0,0,.13.52c3.77,1.63,5.55-3.74,6.37-6.42l-.8-.1a12.66,12.66,0,0,0,1.54,6.54,28.7,28.7,0,0,0,2.06,2.7,3.58,3.58,0,0,1,.7,1.6c.12.51.92.3.8-.22l-.41-1.78a.41.41,0,0,0-.39-.3c-1.2,0-2.5-3.2-2.83-4.12A12.07,12.07,0,0,1,18.59,7a.41.41,0,0,0-.81-.11,21.77,21.77,0,0,1-1.16,3.26,9.29,9.29,0,0,1-.7,1.23c-.4.58-2.92,2.7-2.61,1.1a15.84,15.84,0,0,1,1.14-2.3,16.91,16.91,0,0,0,.84-2.79.34.34,0,0,0-.65-.18Z" transform="translate(0 -0.19)"/><path class="cls-1" d="M2,13C2.4,9.54,3.46,5.32,6.54,3.24a17.11,17.11,0,0,1,4.17-1.85c2.5-.82,4.31-.28,6.56.87.5.26.94-.48.44-.76C13.77-.66,9.83,0,6.1,2.49,2.81,4.69,1.45,9.25,1.26,13c0,.45.63.43.69,0Z" transform="translate(0 -0.19)"/><path class="cls-1" d="M18.26,2.21c7.34,0,8.86,9.52,8.16,15.16-.08.59.85.58.92,0C28,11.85,26.16.45,18.26,1.5c-.44.06-.47.71,0,.71Z" transform="translate(0 -0.19)"/><path class="cls-1" d="M1.37,13.93c-.19,2.5,0,5.26-.66,7.68C.42,22.66-.44,23.91.28,25,1.83,27.33,6,24.6,7.21,23.22c.38-.43-.25-1.07-.64-.63-.9,1-2.46,2.31-3.92,2.19-.68.3-1,0-1.07-.86a1,1,0,0,1-.27-1.32c.05-.6.41-1.3.5-1.92a56.39,56.39,0,0,0,.32-6.75.38.38,0,0,0-.76,0Z" transform="translate(0 -0.19)"/><path class="cls-1" d="M18.9,23.3c-.31,3,3.43,4.17,5.79,3.59a.43.43,0,0,0,.3-.53l-.21-.64-.63.49c4.91,2.84,3.73-6,3.3-8.38-.1-.52-.87-.3-.79.21A25.57,25.57,0,0,1,27,22.4c0,1.28,0,4.57-2.44,3.07A.43.43,0,0,0,24,26l.2.64.31-.53c-2,.48-4.76-.31-4.9-2.76a.33.33,0,0,0-.66,0Z" transform="translate(0 -0.19)"/></g></g></svg>