<svg xmlns="http://www.w3.org/2000/svg" viewBox="0 0 41.47 36.47"><defs><style>.cls-1{fill:#352722;}</style></defs><title>アセット 25</title><g id="レイヤー_2" data-name="レイヤー 2"><g id="レイヤー_1-2" data-name="レイヤー 1"><path class="cls-1" d="M.21,6.46C0,16.2-.09,26.1.21,35.84a.8.8,0,0,0,1.6,0A250.45,250.45,0,0,0,1.44,6.46a.62.62,0,0,0-1.23,0Z" transform="translate(-0.02 -0.15)"/><path class="cls-1" d="M.93,5.94c4.14.49,8.4.37,12.57.48s8.37.25,12.56.31a.87.87,0,0,0,0-1.73c-4.19-.14-8.38-.21-12.56-.3S5.08,4.29.93,4.58a.68.68,0,0,0,0,1.36Z" transform="translate(-0.02 -0.15)"/><path class="cls-1" d="M30.53,15.89c-1.27,5.8-1.54,12-2.12,17.93-.11,1.12,1.6,1.09,1.73,0,.68-5.82,1.74-11.89,1.73-17.75a.69.69,0,0,0-1.34-.18Z" transform="translate(-0.02 -0.15)"/><path class="cls-1" d="M1.65,35.94c4.72.12,9.46-.15,14.17-.29s9.32,0,13.86-.53c1.09-.14,1.14-1.86,0-1.75-9.3.88-18.72.31-28,1.14a.72.72,0,0,0,0,1.43Z" transform="translate(-0.02 -0.15)"/><path class="cls-1" d="M4.4,24.34a54,54,0,0,1,4.08-5.56c.63-.72-.41-1.78-1.06-1.06a25.54,25.54,0,0,0-4.11,6,.63.63,0,0,0,1.09.64Z" transform="translate(-0.02 -0.15)"/><path class="cls-1" d="M7.42,18.56c1.7,2.71,3.5,5.32,5.1,8.09.5.87,1.77.11,1.33-.78a34.48,34.48,0,0,0-5.43-8.08.64.64,0,0,0-1,.77Z" transform="translate(-0.02 -0.15)"/><path class="cls-1" d="M13.5,27.11C20.87,18.1,27.78,8.8,37,1.49,37.77.84,36.62-.3,35.81.34c-9.12,7.28-16.55,16.55-23.29,26-.41.58.53,1.31,1,.76Z" transform="translate(-0.02 -0.15)"/><path class="cls-1" d="M36.13,1.29A15.1,15.1,0,0,1,37.62,4c.15.24,1.8,2.28,1.82,2.22-.31.85,1.1,1.46,1.48.62.59-1.3-1-2.23-1.66-3.19S38.12.92,36.93.25a.66.66,0,0,0-.8,1Z" transform="translate(-0.02 -0.15)"/><path class="cls-1" d="M13.94,32c8.43-9.2,16.91-17.83,27.18-25,.85-.59,0-2-.81-1.4-10.08,7.2-20,15.65-27.38,25.63-.44.59.52,1.31,1,.78Z" transform="translate(-0.02 -0.15)"/><path class="cls-1" d="M3.39,24.44a47.23,47.23,0,0,0,4.36,3.32c1.59,1.2,3.13,2.46,4.74,3.63.73.53,1.65-.66,1-1.26-1.38-1.19-2.88-2.29-4.36-3.37a31.41,31.41,0,0,0-4.95-3.31c-.61-.3-1.31.47-.76,1Z" transform="translate(-0.02 -0.15)"/></g></g></svg>