<?xml version="1.0" encoding="utf-8"?>
<!-- Generator: Adobe Illustrator 23.0.4, SVG Export Plug-In . SVG Version: 6.00 Build 0)  -->
<svg version="1.1" id="レイヤー_1" xmlns="http://www.w3.org/2000/svg" xmlns:xlink="http://www.w3.org/1999/xlink" x="0px"
	 y="0px" viewBox="0 0 19 15.4" style="enable-background:new 0 0 19 15.4;" xml:space="preserve">
<style type="text/css">
	.st0{fill:#FFFAF3;}
</style>
<title>アセット 13</title>
<g>
	<g id="レイヤー_1-2">
		<path class="st0" d="M6,15.4c6.1,0,11-4.9,11.1-10.9c0-0.1,0-0.1,0-0.2c0-0.2,0-0.3,0-0.5c0.8-0.5,1.4-1.2,1.9-2
			c-0.7,0.3-1.5,0.5-2.2,0.6c0.8-0.5,1.4-1.3,1.7-2.2c-0.8,0.5-1.6,0.8-2.5,1c-1.5-1.6-4-1.6-5.5-0.1c-1,0.9-1.4,2.3-1.1,3.6
			c-3.1-0.2-6-1.6-8-4.1c-1,1.8-0.5,4.1,1.2,5.2c-0.6,0-1.3-0.2-1.8-0.5v0.1c0,1.9,1.3,3.5,3.1,3.8C3.3,9.5,2.7,9.5,2.1,9.4
			c0.5,1.6,2,2.7,3.6,2.7c-1.4,1.1-3.1,1.7-4.8,1.7c-0.3,0-0.6,0-0.9-0.1C1.8,14.8,3.9,15.4,6,15.4"/>
	</g>
</g>
</svg>
