<?xml version="1.0" encoding="utf-8"?>
<!-- Generator: Adobe Illustrator 23.0.4, SVG Export Plug-In . SVG Version: 6.00 Build 0)  -->
<svg version="1.1" id="レイヤー_1" xmlns="http://www.w3.org/2000/svg" xmlns:xlink="http://www.w3.org/1999/xlink" x="0px"
	 y="0px" viewBox="0 0 27.9 26.8" style="enable-background:new 0 0 27.9 26.8;" xml:space="preserve">
<style type="text/css">
	.st0{fill:#FFFAF3;}
</style>
<title>アセット 15</title>
<g>
	<g id="レイヤー_1-2">
		<path class="st0" d="M5.6,15.3c0.2-2.3-2.8-1.8-3.3,0.1c-0.5,1.9,1.4,5.5,3.3,3.1l-0.7-0.3c-0.4,8.2,14,9,17,2.5H21
			c1,2.2,4.7,1.4,5.4-0.7c0.9-2.7-2.4-2.5-3.9-1.7c-0.4,0.2-0.1,1,0.3,0.8c1-0.4,1-0.8,1.4,0.6c0.6,0.8,0.5,1.2-0.4,1.2
			c-0.7,0.4-1.6,0.1-2-0.6c0,0,0,0,0,0c-0.1-0.2-0.4-0.3-0.6-0.2c-0.1,0-0.1,0.1-0.2,0.2c-1.5,3.2-4.8,4.1-8.1,3.8s-7.5-1.8-7.3-5.8
			c0-0.2-0.2-0.4-0.4-0.4c-0.1,0-0.2,0-0.3,0.1c-2.6-0.9-2.6-1.8-0.1-2.5c0,0.2,0.2,0.3,0.4,0.3C5.5,15.6,5.6,15.5,5.6,15.3
			L5.6,15.3z"/>
		<path class="st0" d="M10.1,16.5c-0.3-0.9-0.2-1.9,0.4-2.6l-0.6-0.1c0.4,0.6,0.5,1.3,0.2,2c0,0-0.2,0.6,0,0.4
			c0-0.2-0.1-0.3-0.1-0.5c-0.1-0.4-0.1-0.9,0.4-1.1s0.1-1-0.4-0.7c-0.6,0.3-0.9,1-0.9,1.7c0,0.5,0.1,1.5,0.9,1.5s0.9-0.9,1-1.4
			c0.1-0.7,0-1.5-0.4-2.1c-0.1-0.2-0.4-0.3-0.5-0.1c0,0-0.1,0-0.1,0.1c-0.8,0.9-1,2.2-0.5,3.3C9.5,17.1,10.1,16.9,10.1,16.5
			L10.1,16.5z"/>
		<path class="st0" d="M9.7,15.5L9.7,15.5c-0.1,0-0.3,0.1-0.3,0.2c0,0.1,0,0.3,0.1,0.4c0.1,0.1,0.3,0.1,0.4,0
			c0.4-0.2,0.5-0.9,0.6-1.3l-0.7-0.1c0,0.4-0.1,0.8-0.2,1.2c-0.2,0.5,0.6,0.7,0.8,0.2c0.2-0.4,0.2-0.9,0.2-1.4
			c0-0.4-0.6-0.5-0.7-0.1c0,0.2-0.1,0.4-0.1,0.6c0,0.1-0.1,0.3-0.1,0.4l0.4,0.1l0,0l0.1,0.3v-0.1L9.8,16l0,0
			C10.2,16,10.2,15.4,9.7,15.5L9.7,15.5z"/>
		<path class="st0" d="M17.9,17.1c-0.1-0.3-0.1-0.7,0-1c0-0.2,0.2-0.8,0.5-0.9h-0.3c0.2,0.1,0.2,0.7,0.1,0.9
			c-0.1,0.3-0.2,0.7-0.5,0.9l0.7,0.1c-0.3-0.5-0.3-1.2,0.1-1.6l-0.7-0.1c0.2,0.4,0.1,1-0.2,1.3c-0.4,0.3,0,1.1,0.4,0.7
			c0.8-0.6,1-1.6,0.5-2.4c-0.1-0.2-0.4-0.3-0.6-0.2c0,0-0.1,0-0.1,0.1c-0.6,0.7-0.7,1.8-0.2,2.6c0.1,0.2,0.4,0.3,0.6,0.1
			c0,0,0.1,0,0.1-0.1c0.5-0.5,0.7-1.1,0.7-1.7c0-0.5-0.1-1.4-0.7-1.5s-1,0.7-1.2,1.1c-0.2,0.6-0.2,1.3,0.1,1.8
			C17.4,17.6,17.9,17.4,17.9,17.1L17.9,17.1z"/>
		<path class="st0" d="M13.8,17.2l-0.1,0.2c-0.2,0.4,0.4,0.8,0.6,0.4l0.1-0.2C14.7,17.1,14.1,16.8,13.8,17.2z"/>
		<path class="st0" d="M11.4,19.7c1.3,0.3,2.5,0.5,3.8,0.6c0.5,0,0.5-0.8,0-0.8c-1.2-0.1-2.4-0.2-3.7-0.4C11.2,19,11,19.6,11.4,19.7
			z"/>
		<path class="st0" d="M11.6,19.9c-0.2,0.7-0.1,1.5,0.2,2.1c0.2,0.6,0.8,1.3,1.5,1.3s1.3-0.7,1.6-1.2c0.5-0.7,0.7-1.5,0.7-2.3
			c0-0.4-0.6-0.5-0.7-0.1c-0.1,1-0.5,1.9-1.1,2.5c-0.4,0.3-0.6,0.3-0.9-0.1c-0.1-0.2-0.3-0.4-0.4-0.6c-0.2-0.5-0.3-1.1-0.2-1.6
			c0-0.2-0.1-0.3-0.2-0.4C11.8,19.6,11.6,19.7,11.6,19.9L11.6,19.9L11.6,19.9z"/>
		<path class="st0" d="M14.4,6.8c-1.1,2.3-3.4,4.9-6,4.6c-0.4,0-0.6-0.3-1.1,0c-0.3,0.2-0.4,0.6-0.6,0.9c-0.2,0.4-0.5,0.8-0.8,1.1
			c-0.4,0.8-0.8,0.6-1.2-0.6c0-0.3-0.2-0.5-0.5-0.5s-0.5,0.2-0.5,0.5c0,0.9,0.2,2.4,1.5,2.2c0.6-0.1,1.1-0.7,1.4-1.1
			c0.3-0.4,0.6-0.9,0.9-1.3c0.6-0.5,0.3-0.2,1-0.2c2.6,0.2,6.3-3.1,6.5-5.7c0-0.2-0.2-0.3-0.4-0.3C14.5,6.7,14.4,6.7,14.4,6.8z"/>
		<path class="st0" d="M14.6,7c-0.6,2.1-1.4,4-2.6,5.8C12,13,12,13.2,12.2,13.3c0,0,0,0,0,0c3.8,1.6,5.6-3.7,6.4-6.4l-0.8-0.1
			c-0.1,2.3,0.4,4.5,1.5,6.5c0.6,0.9,1.3,1.8,2.1,2.7c0.4,0.5,0.6,1,0.7,1.6c0.1,0.5,0.9,0.3,0.8-0.2l-0.4-1.8
			c0-0.2-0.2-0.3-0.4-0.3c-1.2,0-2.5-3.2-2.8-4.1c-0.5-1.4-0.7-2.9-0.7-4.4c0-0.2-0.2-0.4-0.4-0.4c-0.2,0-0.4,0.1-0.4,0.3
			c-0.3,1.1-0.7,2.2-1.2,3.3c-0.2,0.4-0.4,0.8-0.7,1.2c-0.4,0.6-2.9,2.7-2.6,1.1c0.3-0.8,0.7-1.6,1.1-2.3c0.4-0.9,0.6-1.8,0.8-2.8
			c0-0.2-0.1-0.4-0.3-0.4C14.8,6.8,14.7,6.9,14.6,7L14.6,7z"/>
		<path class="st0" d="M2,12.8C2.4,9.4,3.5,5.1,6.5,3c1.3-0.8,2.7-1.4,4.2-1.8c2.5-0.8,4.3-0.3,6.6,0.9c0.5,0.3,0.9-0.5,0.4-0.8
			c-3.9-2.2-7.9-1.5-11.6,1C2.8,4.5,1.5,9.1,1.3,12.8C1.3,13.3,1.9,13.2,2,12.8L2,12.8z"/>
		<path class="st0" d="M18.3,2c7.3,0,8.9,9.5,8.2,15.2c-0.1,0.6,0.9,0.6,0.9,0c0.7-5.5-1.2-16.9-9.1-15.9C17.8,1.4,17.8,2,18.3,2z"
			/>
		<path class="st0" d="M1.4,13.7c-0.2,2.5,0,5.3-0.7,7.7c-0.3,1-1.1,2.3-0.4,3.4C1.8,27.1,6,24.4,7.2,23C7.6,22.6,7,22,6.6,22.4
			c-0.9,1-2.5,2.3-3.9,2.2c-0.7,0.3-1,0-1.1-0.9c-0.4-0.3-0.5-0.9-0.3-1.3c0-0.6,0.4-1.3,0.5-1.9c0.2-2.2,0.3-4.5,0.3-6.7
			c0-0.2-0.2-0.4-0.4-0.4C1.5,13.4,1.4,13.5,1.4,13.7z"/>
		<path class="st0" d="M18.9,23.1c-0.3,3,3.4,4.2,5.8,3.6c0.2-0.1,0.4-0.3,0.3-0.5c0,0,0,0,0,0l-0.2-0.6L24.1,26
			c4.9,2.8,3.7-6,3.3-8.4c-0.1-0.5-0.9-0.3-0.8,0.2c0.2,1.4,0.4,2.9,0.3,4.4c0,1.3,0,4.6-2.4,3.1c-0.2-0.1-0.5,0-0.6,0.3
			c0,0.1,0,0.2,0,0.3l0.2,0.6l0.3-0.5c-2,0.5-4.8-0.3-4.9-2.8c0-0.2-0.1-0.3-0.3-0.3C19.1,22.8,19,23,18.9,23.1L18.9,23.1z"/>
	</g>
</g>
</svg>
