<svg xmlns="http://www.w3.org/2000/svg" viewBox="0 0 42.84 47.1"><defs><style>.cls-1{fill:#352722}</style></defs><g id="レイヤー_2" data-name="レイヤー 2"><g id="レイヤー_1-2" data-name="レイヤー 1"><path class="cls-1" d="M.88 35.87a151.94 151.94 0 0 0 16.22 10.3.9.9 0 0 0 .9-1.55A153.63 153.63 0 0 0 1.69 34.49a.8.8 0 0 0-.81 1.38z" transform="translate(-.21 -.02)"/><path class="cls-1" d="M1.66 35.55c1.64-2.94 3.11-6 4.63-9l-1.48.19C10.13 31.59 15.4 36.62 21 41.12c.94.75 2.26-.47 1.35-1.35-5.14-5-10.77-9.64-16.2-14.35a1 1 0 0 0-1.49.2c-1.48 3-3 6-4.37 9.12-.4.92.86 1.72 1.37.81z" transform="translate(-.21 -.02)"/><path class="cls-1" d="M18.76 46.73c1.21-2 2.86-4.11 3.66-6.34a.87.87 0 0 0-1.42-.84c-1.51 1.83-2.45 4.3-3.58 6.38a.79.79 0 0 0 1.37.8zM5 9c6.68 9.31 13.19 18.75 19.76 28.14.71 1 2.4 0 1.68-1-6.58-9.36-13.36-18.61-20.12-27.88C5.74 7.46 4.4 8.23 5 9z" transform="translate(-.21 -.02)"/><path class="cls-1" d="M5.94 9.39c3.44-2.44 6.78-5 10.15-7.57l-1.43-.59A284.86 284.86 0 0 0 28.35 32c.6 1.12 2.21.14 1.68-1C25.33 21 20.6 11 16.54.71a1 1 0 0 0-1.63-.43c-3.34 2.59-6.71 5.13-10 7.81-.72.59.23 1.84 1 1.3z" transform="translate(-.21 -.02)"/><path class="cls-1" d="M26.56 37.21a11.29 11.29 0 0 1 4-3.83.92.92 0 0 0-.93-1.59 12.33 12.33 0 0 0-4.43 4.61.8.8 0 0 0 1.39.81zM31.8 11.87c.49 4.07 1.05 8.14 1.61 12.21.28 2.08.56 4.15.85 6.23.18 1.35 0 3.26 1.2 4.17a.89.89 0 0 0 1.26-1.27c-.88-1.13-.69-3.9-.9-5.32-.25-1.75-.51-3.51-.76-5.26-.53-3.66-1.07-7.33-1.65-11-.15-.91-1.73-.7-1.61.22z" transform="translate(-.21 -.02)"/><path class="cls-1" d="M33 12.2a62.58 62.58 0 0 1 7.21-.91l-1-.95c.29 4.43.67 8.86 1 13.3.16 2.12.23 4.29.5 6.4a4.32 4.32 0 0 0 .32 1.78l-.86.13c-.85.44-2.46.36-3.42.55s-.83 2 .25 1.88c1.37-.15 4.3 0 5.34-1 1.2-1.13.26-4.41.15-5.78-.45-5.75-.87-11.5-1.4-17.24 0-.46-.4-1-1-.95a67.69 67.69 0 0 0-7.61 1.34c-1 .23-.55 1.65.4 1.47z" transform="translate(-.21 -.02)"/></g></g></svg>