<svg version="1.1" id="レイヤー_1" xmlns="http://www.w3.org/2000/svg" xmlns:xlink="http://www.w3.org/1999/xlink" x="0" y="0" viewBox="0 0 210 35" xml:space="preserve"><style>.st0{opacity:.8}.st5{opacity:.4;clip-path:url(#SVGID_8_);fill-rule:evenodd;clip-rule:evenodd;fill:#e6ae2f}</style><g class="st0"><defs><path id="SVGID_1_" class="st0" d="M209.2 34.3c-.3.8-.4-.1-1.1-.1s-.7.8-1.5.8c-.7 0-.7-.4-1.4-.4s-.7.3-1.4.3-.7-.6-1.4-.6-.7-.2-1.4-.2-.7.4-1.4.4-.7-.3-1.4-.3-.7.2-1.4.2-.7-.3-1.4-.3h-2.8c-.7 0-.7.3-1.4.3s-.7.4-1.4.4-.7-.8-1.4-.8-.7.3-1.5.3c-.7 0-.7.3-1.5.3s-.7.1-1.4.1-.7.2-1.5.2-.7-.3-1.5-.3h-1.5c-.7 0-.7-.3-1.5-.3-.7 0-.7.1-1.5.1-.7 0-.7.2-1.5.2-.7 0-.7.1-1.5.1-.7 0-.7-.2-1.5-.2-.7 0-.7.2-1.5.2-.7 0-.7-.2-1.5-.2-.7 0-.7-.4-1.5-.4-.7 0-.7.3-1.5.3-.7 0-.7.2-1.5.2-.7 0-.7-.7-1.5-.7-.7 0-.7.7-1.5.7-.7 0-.7.3-1.5.3-.7 0-.7-.6-1.5-.6-.7 0-.7-.3-1.5-.3-.7 0-.7.8-1.5.8-.7 0-.7-.1-1.5-.1s-.7-.6-1.5-.6c-.7 0-.7.6-1.5.6-.7 0-.7-.6-1.5-.6-.7 0-.7.9-1.5.9-.7 0-.7-.9-1.5-.9-.7 0-.7.1-1.5.1-.7 0-.7-.1-1.5-.1-.7 0-.7.8-1.5.8-.7 0-.7-.6-1.5-.6-.7 0-.7-.1-1.5-.1-.7 0-.7.3-1.5.3-.7 0-.7.5-1.5.5h-1.5c-.7 0-.7-1-1.5-1-.7 0-.7.9-1.5.9-.7 0-.7-.4-1.5-.4-.7 0-.7.4-1.5.4-.7 0-.7-.6-1.5-.6-.7 0-.7.1-1.5.1-.7 0-.7.6-1.5.6h-1.5c-.7 0-.7-.4-1.5-.4-.7 0-.7.1-1.5.1-.7 0-.7-.2-1.5-.2s-.7.4-1.5.4c-.7 0-.7-.5-1.5-.5-.7 0-.7.2-1.5.2-.7 0-.7.2-1.5.2-.7 0-.7-.1-1.5-.1H109c-.7 0-.7.2-1.5.2-.7 0-.7-.3-1.5-.3-.7 0-.7.4-1.5.4-.7 0-.7-.3-1.5-.3-.7 0-.7-.2-1.5-.2-.7 0-.7-.1-1.5-.1h-1.5c-.7 0-.7-.1-1.5-.1-.7 0-.7-.2-1.5-.2h-3c-.7 0-.7.9-1.5.9-.7 0-.7-.6-1.5-.6-.7 0-.7.2-1.5.2-.7 0-.7.4-1.5.4-.7 0-.7-.4-1.5-.4-.7 0-.7-.2-1.5-.2H82c-.7 0-.7.1-1.5.1-.7 0-.7.1-1.5.1-.7 0-.7.3-1.5.3-.7 0-.7-.6-1.5-.6 2 0 2 .7 1.3.7s-.7-.3-1.5-.3c-.7 0-.7-.4-1.5-.4h-1.5c-.7 0-.7.5-1.5.5s-.6.2-1.3.2c-.7 0-.7-.8-1.4-.8s-.7.6-1.5.6c-.7 0-.7-.1-1.5-.1-.7 0-.7-.2-1.5-.2-.7 0-.7-.4-1.5-.4s-.7.7-1.5.7h-1.5c-.7 0-.7-.1-1.5-.1-.7 0-.7-.1-1.5-.1-.7 0-.7.3-1.5.3-.7 0-.7.1-1.5.1-.7 0-.7-.6-1.5-.6-.7 0-.7.5-1.5.5-.7 0-.7-.5-1.5-.5-.7 0-.7-.2-1.5-.2-.7 0-.7.8-1.5.8-.7 0-.7-.1-1.5-.1-.7 0-.7-.4-1.5-.4-.7 0-.7.5-1.5.5-.7 0-.7-.2-1.5-.2-.7 0-.7-.4-1.5-.4-.7 0-.7.7-1.5.7-.7 0-.7-.7-1.5-.7-.7 0-.7-.1-1.5-.1h-1.5c-.7 0-.7.1-1.5.1-.7 0-.7-.1-1.5-.1-.7 0-.7.7-1.5.7-.7 0-.7-.5-1.5-.5.4-.3.4.5-.3.5s-.7-.1-1.5-.1c-.7 0-.7-.2-1.5-.2-.7 0-.7-.2-1.5-.2-.7 0-.7-.2-1.5-.2h-3c-.7 0-.7-.2-1.5-.2-.7 0-.7.6-1.5.6-.7 0-.7-.2-1.5-.2-.7 0-.7-.5-1.5-.5-.7 0-.7.7-1.5.7H8.3c-.7 0-.7-.5-1.5-.5-.7 0-.7-.1-1.5-.1-.7 0-.7.1-1.5.1-.7 0-.7.3-1.5.3-.7 0-.7-.4-1.5-.4-.7 0-.9.9-1.3.1.2-.6 1.1-.2 1.5-.9.4-.7.3-.8.7-1.5.4-.8.3-.9.7-1.6.4-.7.2-.9.6-1.6.4-.7.3-.8.7-1.5.4-.7.7-.5 1.1-1.2.4-.7.4-.8.8-1.5.4-.8.6-.7 1-1.4s.2-.9.6-1.6c.4-.7-.1-1.2.3-1.9s.7-.5 1.1-1.2c.4-.7 1.1-.6 1.1-1.5s-.4-1-.9-1.7c-.4-.7-.5-.6-1-1.4-.4-.7-.3-.8-.7-1.6-.4-.7-.5-.6-1-1.4-.4-.7-.6-.6-1-1.3-.5-.7-.2-.9-.7-1.6-.4-.8-.7-.5-1.2-1.2-.4-.7-.6-.6-1-1.4-.4-.7 0-1.1-.5-1.8C1.3 2.7.9 3 .5 2.2 0 1.5-.2 1.5.2.7c.3-.8.5 0 1.2 0S2.1.4 2.8.4s.7.6 1.4.6C5 .9 5 .3 5.7.3S6.4.1 7.1.1s.7.1 1.4.1.7.5 1.4.5.7-.1 1.4-.1.7.1 1.4.1.7-.2 1.4-.2.7.2 1.4.2.7-.3 1.4-.3h1.4c.7 0 .7.1 1.4.1h1.4c.7 0 .7-.2 1.5-.2s.7-.1 1.5-.1h1.4c.7 0 .7.1 1.5.1.7 0 .7-.2 1.5-.2H30c.7 0 .7 1 1.5 1 .7 0 .7-.6 1.5-.6.7 0 .7-.2 1.5-.2s.7.4 1.5.4c.7 0 .7-.4 1.5-.4.7 0 .7.8 1.5.8.7 0 .7-.8 1.5-.8H42c.7 0 .7-.2 1.5-.2.7 0 .7.8 1.5.8.7 0 .7-.5 1.5-.5.7 0 .7-.1 1.5-.1.7 0 .7.3 1.5.3.7 0 .7-.4 1.5-.4.7 0 .7-.2 1.5-.2.7 0 .7.7 1.5.7.7 0 .7.1 1.5.1H57c.7 0 .7-.7 1.5-.7.7 0 .7.6 1.5.6h1.5c.7 0 .7.1 1.5.1.7 0 .7-.7 1.5-.7.7 0 .7.4 1.5.4.7 0 .7-.5 1.5-.5.7 0 .7.2 1.5.2.7 0 .7.7 1.5.7.7 0 .7-.6 1.5-.6.7 0 .7-.2 1.5-.2.7 0 .7.4 1.5.4.7 0 .7-.3 1.5-.3.7 0 .7.5 1.5.5.7 0 .7.1 1.5.1-.5.1-.5-.8.3-.8.7 0 .7 1 1.4 1 .8 0 .8-.6 1.5-.6s.7-.1 1.5-.1h1.5c.8 0 .7.1 1.5.1.7 0 .7.5 1.5.5.7 0 .7-.5 1.5-.5.7 0 .7.5 1.5.5.7 0 .7-.8 1.5-.8s.7.5 1.5.5c.7 0 .7-.6 1.5-.6.7 0 .7.2 1.5.2.3.1.3-.2 1-.2s.7.3 1.5.3h1.5c.7 0 .7.3 1.5.3.7 0 .7.3 1.5.3.7 0 .7.1 1.5.1.7 0 .7-1 1.5-1 .7 0 .7.9 1.5.9.7 0 .7-.9 1.5-.9.7 0 .7.2 1.5.2.7 0 .7-.3 1.5-.3.7 0 .7.9 1.5.9.7 0 .7-.2 1.5-.2.7 0 .7-.4 1.5-.4.7 0 .7.5 1.5.5h1.5c.7 0 .7-.1 1.5-.1.7 0 .7-.3 1.5-.3.7 0 .7-.2 1.5-.2.7 0 .7.7 1.5.7.7 0 .7-.2 1.5-.2h6c.7 0 .7-.3 1.5-.3.7 0 .7.4 1.5.4.7 0 .7-.6 1.5-.6.7 0 .7-.1 1.4-.1s.7.8 1.5.8c.7 0 .7-.8 1.4-.8s.7.7 1.5.7.7-.6 1.5-.6.7.7 1.5.7h3c.7 0 .7-.6 1.5-.6.7 0 .7.2 1.5.2.7 0 .7.3 1.5.3.7 0 .7-.6 1.5-.6.7 0 .7.6 1.5.6.7 0 .7-.7 1.5-.7.7 0 .7.5 1.5.5.7 0 .7-.3 1.5-.3.7 0 .7-.2 1.5-.2.7 0 .7.1 1.5.1.7 0 .7.4 1.5.4.7 0 .7.2 1.5.2.7 0 .7.2 1.5.2h1.5c.7 0 .7-.8 1.5-.8.7 0 .7.6 1.5.6.7 0 .7-.3 1.5-.3.7 0 .7-.4 1.5-.4.7 0 .7.3 1.5.3.7 0 .7-.3 1.5-.3h1.5c.7 0 .7.7 1.5.7.7 0 .7.3 1.5.3.7 0 .7-.4 1.5-.4.7 0 .7-.4 1.5-.4.7 0 .7.5 1.5.5.7 0 .7-.7 1.5-.7.7 0 .7.3 1.5.3.7 0 .7.2 1.5.2.7 0 .7-.4 1.5-.4.7 0 .7.5 1.5.5.7 0 .7-.7 1.5-.7.7 0 .7.7 1.5.7.7 0 .7-.3 1.5-.3.7 0 .7.1 1.5.1.7 0 .7.4 1.5.4.7 0 .7-.6 1.5-.6h1.5c.7 0 .7-.3 1.5-.3.7 0 .7.6 1.5.6.7 0 1.5-1.2 1.9-.4.3.8-1.1.7-1.5 1.5-.4.7-.5.7-.9 1.4s-.4.8-.8 1.5 0 1.1-.4 1.9c-.4.7-.8.4-1.2 1.2-.4.7-.3.8-.7 1.6-.4.7-.3.8-.8 1.6-.4.7-.5.7-1 1.4-.4.7-.2 1-.6 1.7-.4.7-.6.6-1 1.4-.4.7-1.1.5-1.2 1.4 0 .9.9.5 1.3 1.2s.1.9.5 1.7c.4.7.4.7.8 1.5.4.7.2.9.6 1.6.4.7.6.5 1 1.3.4.7.4.8.8 1.5s.3.8.6 1.6c.4.7.5.6.9 1.3.4.7.7.5 1.1 1.3.4.7-.1 1.1.3 1.9.4.7.4.8.9 1.4-2.4.6-2 .5-2.4 1.3z"/></defs><clipPath id="SVGID_2_"><use xlink:href="#SVGID_1_" overflow="visible"/></clipPath><g opacity=".6" clip-path="url(#SVGID_2_)"><defs><path id="SVGID_3_" d="M262.9 105.3H-2.5c-6.3 0-11.3-5.1-11.3-11.3V-45.4c0-6.3 5.1-11.3 11.3-11.3h265.3c6.3 0 11.3 5.1 11.3 11.3V93.9c.1 6.3-5 11.4-11.2 11.4z" opacity=".6"/></defs><clipPath id="SVGID_4_"><use xlink:href="#SVGID_3_" overflow="visible"/></clipPath><g clip-path="url(#SVGID_4_)"><defs><path id="SVGID_5_" d="M-13.8-56.7h288v162h-288z"/></defs><clipPath id="SVGID_6_"><use xlink:href="#SVGID_5_" overflow="visible"/></clipPath><g clip-path="url(#SVGID_6_)"><defs><path id="SVGID_7_" d="M-14.1-101.2h288v288h-288z"/></defs><use xlink:href="#SVGID_7_" overflow="visible" opacity=".4" fill="#feecd2"/><clipPath id="SVGID_8_"><use xlink:href="#SVGID_7_" overflow="visible" opacity=".4"/></clipPath><path class="st5" d="M273.9-72.7h-13.5c-2.2 0-4.6 0-6.4-.1-2.3-.2-3.8.1-5.6.1-.6 0-1.2-.1-1.8-.1-2.6-.1-5.2-.2-7.8.1-1.9-.2-3.6-.2-8-.3-1.9 0-3.5.2-5.3.1-2-.1-4.1 0-6.2 0-1.3 0-2.5-.1-3.7-.2-1.1.1-2.2.2-3.2.2-1.4 0-2.3-.3-4.1-.1-1 .1-2.6-.1-3.9-.1-9.9-.1-19.8.2-29.6-.2h-51.7c-.8 0-1.5.1-2 .2-1-.1-2.2-.2-2.8-.1-2 .3-4.2.2-6.4.2H76.7c-2.3 0-4.7-.2-6.8.2-.4.1-1.6 0-1.9 0-1.1-.3-2.5-.2-3.8-.2-3.3 0-6.6.1-9.9.2-6.3.2-12.8.2-19.2.3H33c-.4 0-.8.1-1 .2-.6-.1-1.2-.2-1.8-.2H18.3c-1.8 0-3.4-.2-5.4 0-4.6.3-9.4-.3-14.2 0-.3-.1-.7-.1-.9-.2-1.9.1-3.6.2-5.4.2h-6.1c-.1 0-.2 0-.4.1v2.6h9.6c3.6-.1 6.9.3 10.4.2 3 0 6 .1 8.9-.2 1.4-.1 3.4 0 5.1 0 1.4 0 3 .1 4.4-.1 1.7-.3 3 .1 4.6.2 1.6 0 3-.3 4.5-.1 1.9.2 3.5-.1 5.1-.1 5.1 0 10-.4 15.1-.3 2 0 4.4.2 6.3-.2.3-.1 1.6-.1 1.9 0 1.3.3 2.9.1 4.3.2 2.7.1 5.2-.2 7.9-.2h20.2c6.8 0 13.6.2 20.5-.2.4.1 1.1.1 1.7.2.6-.1 1-.2 1.3-.3 1.6.1 2.6.2 3.7.2 1.2 0 2.8.1 3.5 0 1.7-.3 2.8.2 4.5.1 1.4-.1 3.1 0 4.6 0 1.6 0 3.2-.1 4.8-.2.3 0 .8 0 .9.1.9.3 2.2.2 3.3.2h24.3c6.7-.3 8-.3 14.7 0 1.4.1 3.4.1 4.4-.1 2-.3 3.1.1 4.6.1 2.1-.4 4.2-.2 6.2 0 .6-.1.9-.2 1.3-.3.4.1.7.1.9.2.9-.1 1.7-.2 2.4-.2 4 .1 7.9 0 12 .2 4.5.2 9.3 0 14 .3 2.9.1 5.9 0 8.9.2 1.7.1 3.8 0 5.8-.2 1.7-.2 3.6.4 5.7.2 1.1-.1 2.5-.3 3.1-.2 2.3.3 4.3 0 6.4 0 2.8 0 5.2.1 7.5-.2 1.5-.2 2.5.3 4.9.4.6.2 2.9.1 3.6.3h.1v-3.1zM273.9-86.8c-2.4.1-4.4-.2-7.3-.1-2.1.1-4.1.1-6.2 0-2.2-.1-4.6.1-6.4-.4-2.3-.7-3.8.3-5.6.4-.6 0-1.2-.3-1.8-.4-2.6-.3-5.2-.8-7.8.4-1.9-.6-3.6-.6-8-.8-1.9-.1-3.5.5-5.3.3-2-.3-4.1 0-6.2-.1-1.3-.1-2.5-.4-3.7-.6-1.1.2-2.2.6-3.2.5-1.4-.1-2.3-1-4.1-.4-1 .4-2.6-.2-3.9-.3-9.9-.4-19.8.7-29.6-.7h-51.7c-.8 0-1.5.3-2 .5-1-.2-2.2-.7-2.8-.4-2 .9-4.2.6-6.4.6H76.7c-2.3 0-4.7-.6-6.8.6-.4.2-1.6.1-1.9-.1-1.1-.9-2.5-.5-3.8-.5-3.3 0-6.6.2-9.9.6-6.3.6-12.8.6-19.2.8-.7 0-1.4-.1-2.1 0-.4.1-.8.4-1 .6-.6-.2-1.2-.6-1.8-.6-2.1-.1-4.1 0-6.2 0h-5.7c-1.8 0-3.4-.5-5.4-.1-4.7 1-9.5-1-14.3.1-.3-.2-.7-.4-.9-.6-1.9.2-3.6.5-5.4.6-2 .1-4.1 0-6.1 0-.1.1-.2.2-.4.2v8.2c3.3 0 6.5.1 9.6-.1 3.6-.2 6.9.9 10.4.7 3-.1 6 .3 8.9-.6 1.4-.5 3.4 0 5.1-.1 1.4-.1 3 .4 4.4-.5 1.7-1 3 .5 4.6.6 1.6.1 3-.8 4.5-.3 1.9.6 3.5-.3 5.1-.3 5.1 0 10-1.2 15.1-.9 2 .1 4.4.6 6.3-.6.3-.2 1.6-.2 1.9.1 1.3 1 2.9.4 4.3.6 2.7.4 5.2-.6 7.9-.7 6.7-.1 13.4.1 20.2-.1 6.8-.1 13.6.6 20.5-.6.4.2 1.1.5 1.7.7.6-.4 1-.6 1.3-.8 1.6.3 2.6.6 3.7.7 1.2.1 2.8.3 3.5-.1 1.7-.9 2.8.6 4.5.2 1.4-.3 3.1 0 4.6-.1 1.6-.1 3.2-.5 4.8-.7.3 0 .8 0 .9.2.9.8 2.2.5 3.3.5h21.7c.9 0 1.8.1 2.6 0 6.7-.9 8-.9 14.7 0 1.4.2 3.4.2 4.4-.3 2-1 3.1.2 4.6.4 2.1-1.3 4.2-.7 6.2.1.6-.4.9-.6 1.3-.8.4.2.7.4.9.5.9-.2 1.7-.6 2.4-.5 4 .2 7.9-.1 12 .5 4.5.7 9.3.1 14 .8 2.9.4 5.9-.1 8.9.7 1.7.4 3.8.1 5.8-.5 1.7-.5 3.6 1.1 5.7.6 1.1-.2 2.5-.9 3.1-.6 2.3 1 4.3 0 6.4 0 2.8.1 5.2 1.1 7.4.2 1.5-.6 2.5.2 4.9.4 2.1 1.7 2.2-.6 3.8.8v-8.4zM273.9-96.1c-2.5 0-4.4-.1-7.3 0h-6.2c-2.2 0-4.6 0-6.4-.1-2.3-.2-3.8.1-5.6.1-.6 0-1.2-.1-1.8-.1-2.6-.1-5.2-.2-7.8.1-1.9-.2-3.6-.2-8-.3-1.9 0-3.5.2-5.3.1-2-.1-4.1 0-6.2 0-1.3 0-2.5-.1-3.7-.2-1.1.1-2.2.2-3.2.2-1.4 0-2.3-.3-4.1-.1-1 .1-2.6-.1-3.9-.1-9.9-.1-19.8.2-29.6-.2h-51.7c-.8 0-1.5.1-2 .1-1-.1-2.2-.2-2.8-.1-2 .3-4.2.2-6.4.2H76.7c-2.3 0-4.7-.2-6.8.2-.4.1-1.6 0-1.9 0-1.1-.3-2.5-.2-3.8-.2-3.3 0-6.6.1-9.9.2-6.3.2-12.8.2-19.2.3H33c-.4 0-.8.1-1 .2-.6-.1-1.2-.2-1.8-.2H18.3c-1.8 0-3.4-.2-5.4 0-4.6.3-9.4-.3-14.2 0-.3-.1-.7-.1-.9-.2-1.9.1-3.6.2-5.4.2h-6.1c-.1 0-.2 0-.4.1v2.6h9.6c3.6-.1 6.9.3 10.4.2 3 0 6 .1 8.9-.2 1.4-.1 3.4 0 5.1 0 1.4 0 3 .1 4.4-.2 1.7-.3 3 .1 4.6.2 1.6 0 3-.3 4.5-.1 1.9.2 3.5-.1 5.1-.1 5.1 0 10-.4 15.1-.3 2 0 4.4.2 6.3-.2.3-.1 1.6-.1 1.9 0 1.3.3 2.9.1 4.3.2 2.7.1 5.2-.2 7.9-.2h20.2c6.8 0 13.6.2 20.5-.2.4.1 1.1.1 1.7.2.6-.1 1-.2 1.3-.3 1.6.1 2.6.2 3.7.2 1.2 0 2.8.1 3.5 0 1.7-.3 2.8.2 4.5.1 1.4-.1 3.1 0 4.6 0 1.6 0 3.2-.1 4.8-.2.3 0 .8 0 .9.1.9.3 2.2.2 3.3.2h24.3c6.7-.3 8-.3 14.7 0 1.4.1 3.4.1 4.4-.1 2-.3 3.1.1 4.6.1 2.1-.4 4.2-.2 6.2 0 .6-.1.9-.2 1.3-.3.4.1.7.1.9.2.9-.1 1.7-.2 2.4-.2 4 .1 7.9 0 12 .2 4.5.2 9.3 0 14 .2 2.9.1 5.9 0 8.9.2 1.7.1 3.8 0 5.8-.2 1.7-.2 3.6.4 5.7.2 1.1-.1 2.5-.3 3.1-.2 2.3.3 4.3 0 6.4 0 2.8 0 5.2-.2 7.4-.5 1.5-.2 2.7.6 5.1.6.6.2 2.2.1 2.9.2h.7v-2.6zM273.9-36.6h-13.5c-2.2 0-4.6 0-6.4-.1-2.3-.2-3.8.1-5.6.1-.6 0-1.2-.1-1.8-.1-2.6-.1-5.2-.2-7.8.1-1.9-.2-3.6-.2-8-.3-1.9 0-3.5.2-5.3.1-2-.1-4.1 0-6.2 0-1.3 0-2.5-.1-3.7-.2-1.1.1-2.2.2-3.2.2-1.4 0-2.3-.3-4.1-.1-1 .1-2.6-.1-3.9-.1-9.9-.1-19.8.2-29.6-.2h-51.7c-.8 0-1.5.1-2 .2-1-.1-2.2-.2-2.8-.1-2 .3-4.2.2-6.4.2H76.7c-2.3 0-4.7-.2-6.8.2-.4.1-1.6 0-1.9 0-1.1-.3-2.5-.2-3.8-.2-3.3 0-6.6.1-9.9.2-6.3.2-12.8.2-19.2.3H33c-.4 0-.8.1-1 .2-.6-.1-1.2-.2-1.8-.2H18.3c-1.8 0-3.4-.2-5.4 0-4.6.3-9.4-.3-14.2 0-.3-.1-.7-.1-.9-.2-1.9.1-3.6.2-5.4.2h-6.1c-.1 0-.2 0-.4.1v2.6h9.6c3.6-.1 6.9.3 10.4.2 3 0 6 .1 8.9-.2 1.4-.1 3.4 0 5.1 0 1.4 0 3 .1 4.4-.1 1.7-.3 3 .1 4.6.2 1.6 0 3-.3 4.5-.1 1.9.2 3.5-.1 5.1-.1 5.1 0 10-.4 15.1-.3 2 0 4.4.2 6.3-.2.3-.1 1.6-.1 1.9 0 1.3.3 2.9.1 4.3.2 2.7.1 5.2-.2 7.9-.2h20.2c6.8 0 13.6.2 20.5-.2.4.1 1.1.1 1.7.2.6-.1 1-.2 1.3-.3 1.6.1 2.6.2 3.7.2 1.2 0 2.8.1 3.5 0 1.7-.3 2.8.2 4.5.1 1.4-.1 3.1 0 4.6 0 1.6 0 3.2-.1 4.8-.2.3 0 .8 0 .9.1.9.3 2.2.2 3.3.2h24.3c6.7-.3 8-.3 14.7 0 1.4.1 3.4.1 4.4-.1 2-.3 3.1.1 4.6.1 2.1-.4 4.2-.2 6.2 0 .6-.1.9-.2 1.3-.3.4.1.7.1.9.2.9-.1 1.7-.2 2.4-.2 4 .1 7.9 0 12 .2 4.5.2 9.3 0 14 .3 2.9.1 5.9 0 8.9.2 1.7.1 3.8 0 5.8-.2 1.7-.2 3.6.4 5.7.2 1.1-.1 2.5-.3 3.1-.2 2.3.3 4.3 0 6.4 0 2.8 0 5.2.1 7.5-.2 1.5-.2 2.5.3 4.9.4.6.2 2.9.1 3.6.3h.1v-3.1zM273.9-50.8c-2.4.1-4.4-.1-7.3-.1-2.1.1-4.1.1-6.2 0-2.2-.1-4.6.1-6.4-.4-2.3-.7-3.8.3-5.6.4-.6 0-1.2-.3-1.8-.4-2.6-.3-5.2-.8-7.8.4-1.9-.6-3.6-.6-8-.8-1.9-.1-3.5.5-5.3.3-2-.3-4.1 0-6.2-.1-1.3-.1-2.5-.4-3.7-.6-1.1.2-2.2.6-3.2.5-1.4-.1-2.3-1-4.1-.4-1 .4-2.6-.2-3.9-.3-9.9-.4-19.8.7-29.6-.7h-51.7c-.8 0-1.5.3-2 .5-1-.2-2.2-.7-2.8-.4-2 .9-4.2.6-6.4.6H76.7c-2.3 0-4.7-.6-6.8.6-.4.2-1.6.1-1.9-.1-1.1-.9-2.5-.5-3.8-.5-3.3 0-6.6.2-9.9.6-6.5.7-13 .7-19.4.9-.7 0-1.4-.1-2.1 0-.4.1-.8.4-1 .6-.6-.2-1.2-.6-1.8-.6-2.1-.1-4.1 0-6.2 0h-5.7c-1.8 0-3.4-.5-5.4-.1-4.5.9-9.3-1-14.1.1-.3-.2-.6-.5-.9-.6-1.9.2-3.6.5-5.4.6-2 .1-4.1 0-6.1 0-.1.1-.2.2-.4.2v8.2c3.3 0 6.5.1 9.6-.1 3.6-.2 6.9.9 10.4.7 3-.1 6 .3 8.9-.6 1.4-.5 3.4 0 5.1-.1 1.4-.1 3 .4 4.4-.5 1.7-1 3 .5 4.6.6 1.6.1 3-.8 4.5-.3 1.9.6 3.5-.3 5.1-.3 5.1 0 10-1.2 15.1-.9 2 .1 4.4.6 6.3-.6.3-.2 1.6-.2 1.9.1 1.3 1 2.9.4 4.3.6 2.7.4 5.2-.6 7.9-.7 6.7-.1 13.4.1 20.2-.1 6.8-.1 13.6.6 20.5-.6.4.2 1.1.5 1.7.7.6-.4 1-.6 1.3-.8 1.6.3 2.6.6 3.7.7 1.2.1 2.8.3 3.5-.1 1.7-.9 2.8.6 4.5.2 1.4-.3 3.1 0 4.6-.1 1.6-.1 3.2-.5 4.8-.7.3 0 .8 0 .9.2.9.8 2.2.5 3.3.5h21.7c.9 0 1.8.1 2.6 0 6.7-.9 8-.9 14.7 0 1.4.2 3.4.2 4.4-.3 2-1 3.1.2 4.6.4 2.1-1.3 4.2-.6 6.2.1.6-.4.9-.6 1.3-.8.4.2.7.4.9.5.9-.2 1.7-.6 2.4-.5 4 .2 7.9-.1 12 .5 4.5.7 9.3.1 14 .8 2.9.4 5.9-.1 8.9.7 1.7.4 3.8.1 5.8-.5 1.7-.5 3.6 1.1 5.7.6 1.1-.2 2.5-.9 3.1-.6 2.3 1 4.3 0 6.4 0 2.8.1 5.2 1.1 7.4.2 1.5-.6 2.5.2 4.9.4 2.1 1.7 2.2-.6 3.8.8v-8.5zM273.9-60.1c-2.5 0-4.4-.1-7.3 0h-6.2c-2.2 0-4.6 0-6.4-.1-2.3-.2-3.8.1-5.6.1-.6 0-1.2-.1-1.8-.1-2.6-.1-5.2-.2-7.8.1-1.9-.2-3.6-.2-8-.3-1.9 0-3.5.2-5.3.1-2-.1-4.1 0-6.2 0-1.3 0-2.5-.1-3.7-.2-1.1.1-2.2.2-3.2.2-1.4 0-2.3-.3-4.1-.1-1 .1-2.6-.1-3.9-.1-9.9-.1-19.8.2-29.6-.2h-51.7c-.8 0-1.5.1-2 .2-1-.1-2.2-.2-2.8-.1-2 .3-4.2.2-6.4.2H76.7c-2.3 0-4.7-.2-6.8.2-.4.1-1.6 0-1.9 0-1.1-.3-2.5-.2-3.8-.2-3.3 0-6.6.1-9.9.2-6.3.2-12.8.2-19.2.3H33c-.4 0-.8.1-1 .2-.6-.1-1.2-.2-1.8-.2H18.3c-1.8 0-3.4-.2-5.4 0-4.6.3-9.4-.3-14.2 0-.3-.1-.7-.1-.9-.2-1.9.1-3.6.2-5.4.2h-6.1c-.1 0-.2 0-.4.1v2.6h9.6c3.6-.1 6.9.3 10.4.2 3 0 6 .1 8.9-.2 1.4-.1 3.4 0 5.1 0 1.4 0 3 .1 4.4-.2 1.7-.3 3 .1 4.6.2 1.6 0 3-.3 4.5-.1 1.9.2 3.5-.1 5.1-.1 5.1 0 10-.4 15.1-.3 2 0 4.4.2 6.3-.2.3-.1 1.6-.1 1.9 0 1.3.3 2.9.1 4.3.2 2.7.1 5.2-.2 7.9-.2h20.2c6.8 0 13.6.2 20.5-.2.4.1 1.1.1 1.7.2.6-.1 1-.2 1.3-.3 1.6.1 2.6.2 3.7.2 1.2 0 2.8.1 3.5 0 1.7-.3 2.8.2 4.5.1 1.4-.1 3.1 0 4.6 0 1.6 0 3.2-.1 4.8-.2.3 0 .8 0 .9.1.9.3 2.2.2 3.3.2h24.3c6.7-.3 8-.3 14.7 0 1.4.1 3.4.1 4.4-.1 2-.3 3.1.1 4.6.1 2.1-.4 4.2-.2 6.2 0 .6-.1.9-.2 1.3-.3.4.1.7.1.9.2.9-.1 1.7-.2 2.4-.2 4 .1 7.9 0 12 .2 4.5.2 9.3 0 14 .2 2.9.1 5.9 0 8.9.2 1.7.1 3.8 0 5.8-.2 1.7-.2 3.6.4 5.7.2 1.1-.1 2.5-.3 3.1-.2 2.3.3 4.3 0 6.4 0 2.8 0 5.2-.2 7.4-.5 1.5-.2 2.7.6 5.1.6.6.2 2.2.1 2.9.2h.7v-2.7zM273.9-.6h-13.5c-2.2 0-4.6 0-6.4-.1-2.3-.2-3.8.1-5.6.1-.6 0-1.2-.1-1.8-.1-2.6-.1-5.2-.2-7.8.1-1.9-.2-3.6-.2-8-.3-1.9 0-3.5.2-5.3.1-2-.1-4.1 0-6.2 0-1.3 0-2.5-.1-3.7-.2-1.1.1-2.2.2-3.2.2-1.4 0-2.3-.3-4.1-.1-1 .1-2.6-.1-3.9-.1-9.9-.1-19.8.2-29.6-.2h-51.7c-.8 0-1.5.1-2 .2-1-.1-2.2-.2-2.8-.1-2 .3-4.2.2-6.4.2H76.7c-2.3 0-4.7-.2-6.8.2-.4.1-1.6 0-1.9 0-1.1-.3-2.5-.2-3.8-.2-3.3 0-6.6.1-9.9.2-6.3.2-12.8.2-19.2.3H33c-.4 0-.8.1-1 .2-.6-.1-1.2-.2-1.8-.2H18.3c-1.8 0-3.4-.2-5.4 0C8.2-.3 3.4-1-1.4-.6c-.3-.1-.6-.2-.9-.2-1.9.1-3.6.2-5.4.2h-6.1c-.1 0-.2 0-.4.1v2.6h9.6c3.7-.1 7 .2 10.5.2 3 0 6 .1 8.9-.2 1.4-.1 3.4 0 5.1 0 1.4 0 3 .1 4.4-.2 1.7-.3 3 .1 4.6.2 1.6 0 3-.3 4.5-.1 1.9.2 3.5-.1 5.1-.1 5.1 0 10-.4 15.1-.3 2 0 4.4.2 6.3-.2.3-.1 1.6-.1 1.9 0 1.3.3 2.9.1 4.3.2 2.7.1 5.2-.2 7.9-.2h20.2c6.8 0 13.6.2 20.5-.2.4.1 1.1.1 1.7.2.6-.1 1-.2 1.3-.3 1.6.1 2.6.2 3.7.2 1.2 0 2.8.1 3.5 0 1.7-.3 2.8.2 4.5.1 1.4-.1 3.1 0 4.6 0 1.6 0 3.2-.1 4.8-.2.3 0 .8 0 .9.1.9.3 2.2.2 3.3.2h24.3c6.7-.3 8-.3 14.7 0 1.4.1 3.4.1 4.4-.1 2-.3 3.1.1 4.6.1 2.1-.4 4.2-.2 6.2 0 .6-.1.9-.2 1.3-.3.4.1.7.1.9.2.9-.1 1.7-.2 2.4-.2 4 .1 7.9 0 12 .2 4.5.2 9.3 0 14 .3 2.9.1 5.9 0 8.9.2 1.7.1 3.8 0 5.8-.2 1.7-.2 3.6.4 5.7.2 1.1-.1 2.5-.3 3.1-.2 2.3.3 4.3 0 6.4 0 2.8 0 5.2.1 7.5-.2 1.5-.2 2.5.3 4.9.4.6.2 2.9.1 3.6.3h.1V-.6zM273.9-14.7c-2.4.1-4.4-.1-7.3-.1-2.1.1-4.1.1-6.2 0-2.2-.1-4.6.1-6.4-.4-2.3-.7-3.8.3-5.6.4-.6 0-1.2-.3-1.8-.4-2.6-.3-5.2-.8-7.8.4-1.9-.6-3.6-.6-8-.8-1.9-.1-3.5.5-5.3.3-2-.3-4.1 0-6.2-.1-1.3-.1-2.5-.4-3.7-.6-1.1.2-2.2.6-3.2.5-1.4-.1-2.3-1-4.1-.4-1 .4-2.6-.2-3.9-.3-9.9-.4-19.8.7-29.6-.7h-51.7c-.8 0-1.5.3-2 .5-1-.2-2.2-.7-2.8-.4-2 .9-4.2.6-6.4.6H76.7c-2.3 0-4.7-.6-6.8.6-.4.2-1.6.1-1.9-.1-1.1-.9-2.5-.5-3.8-.5-3.3 0-6.6.2-9.9.6-6.3.6-12.8.6-19.2.8-.7 0-1.4-.1-2.1 0-.4.1-.8.4-1 .6-.6-.2-1.2-.6-1.8-.6-2.1-.1-4.1 0-6.2 0h-5.7c-1.8 0-3.4-.5-5.4-.1-4.6.9-9.4-1.1-14.2.1-.4-.2-.7-.4-1-.6-1.9.2-3.6.5-5.4.6-2 .1-4.1 0-6.1 0-.1.1-.2.2-.4.2v8.2c3.3 0 6.5.1 9.6-.1 3.6-.2 6.9.9 10.4.7 3-.1 6 .3 8.9-.6 1.4-.5 3.4 0 5.1-.1 1.4-.1 3 .4 4.4-.5 1.7-1 3 .5 4.6.6 1.6.1 3-.8 4.5-.3 1.9.6 3.5-.3 5.1-.3 5.1 0 10-1.2 15.1-.9 2 .1 4.4.6 6.3-.6.3-.2 1.6-.2 1.9.1 1.3 1 2.9.4 4.3.6 2.7.4 5.2-.6 7.9-.7 6.7-.1 13.4.1 20.2-.1 6.8-.1 13.6.6 20.5-.6.4.2 1.1.5 1.7.7.6-.4 1-.6 1.3-.8 1.6.3 2.6.6 3.7.7 1.2.1 2.8.3 3.5-.1 1.7-.9 2.8.6 4.5.2 1.4-.3 3.1 0 4.6-.1 1.6-.1 3.2-.5 4.8-.7.3 0 .8 0 .9.2.9.8 2.2.5 3.3.5h21.7c.9 0 1.8.1 2.6 0 6.7-.9 8-.9 14.7 0 1.4.2 3.4.2 4.4-.3 2-1 3.1.2 4.6.4 2.1-1.3 4.2-.6 6.2.1.6-.4.9-.6 1.3-.8.4.2.7.4.9.5.9-.2 1.7-.6 2.4-.5 4 .2 7.9-.1 12 .5 4.5.7 9.3.1 14 .8 2.9.4 5.9-.1 8.9.7 1.7.4 3.8.1 5.8-.5 1.7-.5 3.6 1.1 5.7.6 1.1-.2 2.5-.9 3.1-.6 2.3 1 4.3 0 6.4 0 2.8.1 5.2 1.1 7.4.2 1.5-.6 2.5.2 4.9.4 2.1 1.7 2.2-.6 3.8.8v-8.4zM273.9-24c-2.5 0-4.4-.1-7.3 0h-6.2c-2.2 0-4.6 0-6.4-.1-2.3-.2-3.8.1-5.6.1-.6 0-1.2-.1-1.8-.1-2.6-.1-5.2-.2-7.8.1-1.9-.2-3.6-.2-8-.3-1.9 0-3.5.2-5.3.1-2-.1-4.1 0-6.2 0-1.3 0-2.5-.1-3.7-.2-1.1.1-2.2.2-3.2.2-1.4 0-2.3-.3-4.1-.1-1 .1-2.6-.1-3.9-.1-9.9-.1-19.8.2-29.6-.2h-51.7c-.8 0-1.5.1-2 .2-1-.1-2.2-.2-2.8-.1-2 .3-4.2.2-6.4.2H76.7c-2.3 0-4.7-.2-6.8.2-.4.1-1.6 0-1.9 0-1.1-.3-2.5-.2-3.8-.2-3.3 0-6.6.1-9.9.2-6.3.2-12.8.2-19.2.3H33c-.4 0-.8.1-1 .2-.6-.1-1.2-.2-1.8-.2H18.3c-1.8 0-3.4-.2-5.4 0-4.6.3-9.4-.3-14.2 0-.3-.1-.7-.1-.9-.2-1.9.1-3.6.2-5.4.2h-6.1c-.1 0-.2 0-.4.1v2.6h9.6c3.6-.1 6.9.3 10.4.2 3 0 6 .1 8.9-.2 1.4-.1 3.4 0 5.1 0 1.4 0 3 .1 4.4-.2 1.7-.3 3 .1 4.6.2 1.6 0 3-.3 4.5-.1 1.9.2 3.5-.1 5.1-.1 5.1 0 10-.4 15.1-.3 2 0 4.4.2 6.3-.2.3-.1 1.6-.1 1.9 0 1.3.3 2.9.1 4.3.2 2.7.1 5.2-.2 7.9-.2h20.2c6.8 0 13.6.2 20.5-.2.4.1 1.1.1 1.7.2.6-.1 1-.2 1.3-.3 1.6.1 2.6.2 3.7.2 1.2 0 2.8.1 3.5 0 1.7-.3 2.8.2 4.5.1 1.4-.1 3.1 0 4.6 0 1.6 0 3.2-.1 4.8-.2.3 0 .8 0 .9.1.9.3 2.2.2 3.3.2h24.3c6.7-.3 8-.3 14.7 0 1.4.1 3.4.1 4.4-.1 2-.3 3.1.1 4.6.1 2.1-.4 4.2-.2 6.2 0 .6-.1.9-.2 1.3-.3.4.1.7.1.9.2.9-.1 1.7-.2 2.4-.2 4 .1 7.9 0 12 .2 4.5.2 9.3 0 14 .2 2.9.1 5.9 0 8.9.2 1.7.1 3.8 0 5.8-.2 1.7-.2 3.6.4 5.7.2 1.1-.1 2.5-.3 3.1-.2 2.3.3 4.3 0 6.4 0 2.8 0 5.2-.2 7.4-.5 1.5-.2 2.7.6 5.1.6.6.2 2.2.1 2.9.2h.7V-24zM273.9 35.5h-13.5c-2.2 0-4.6 0-6.4-.1-2.3-.2-3.8.1-5.6.1-.6 0-1.2-.1-1.8-.1-2.6-.1-5.2-.2-7.8.1-1.9-.2-3.6-.2-8-.3-1.9 0-3.5.2-5.3.1-2-.1-4.1 0-6.2 0-1.3 0-2.5-.1-3.7-.2-1.1.1-2.2.2-3.2.2-1.4 0-2.3-.3-4.1-.1-1 .1-2.6-.1-3.9-.1-9.9-.1-19.8.2-29.6-.2h-51.7c-.8 0-1.5.1-2 .2-1-.1-2.2-.2-2.8-.1-2 .3-4.2.2-6.4.2H76.7c-2.3 0-4.7-.2-6.8.2-.4.1-1.6 0-1.9 0-1.1-.3-2.5-.2-3.8-.2-3.3 0-6.6.1-9.9.2-6.3.2-12.8.2-19.2.3H33c-.4 0-.8.1-1 .2-.6-.1-1.2-.2-1.8-.2H18.3c-1.8 0-3.4-.2-5.4 0-4.6.3-9.4-.3-14.2 0-.3-.1-.7-.1-.9-.2-1.9.1-3.6.2-5.4.2h-6.1c-.1 0-.2.1-.4.1v2.6h9.6c3.6-.1 6.9.3 10.4.2 3 0 6 .1 8.9-.2 1.4-.1 3.4 0 5.1 0 1.4 0 3 .1 4.4-.2 1.7-.3 3 .1 4.6.2 1.6 0 3-.3 4.5-.1 1.9.2 3.5-.1 5.1-.1 5.1 0 10-.4 15.1-.3 2 0 4.4.2 6.3-.2.3-.1 1.6-.1 1.9 0 1.3.3 2.9.1 4.3.2 2.7.1 5.2-.2 7.9-.2h20.2c6.8 0 13.6.2 20.5-.2.4.1 1.1.1 1.7.2.6-.1 1-.2 1.3-.3 1.6.1 2.6.2 3.7.2 1.2 0 2.8.1 3.5 0 1.7-.3 2.8.2 4.5.1 1.4-.1 3.1 0 4.6 0 1.6 0 3.2-.1 4.8-.2.3 0 .8 0 .9.1.9.3 2.2.2 3.3.2h24.3c6.7-.3 8-.3 14.7 0 1.4.1 3.4.1 4.4-.1 2-.3 3.1.1 4.6.1 2.1-.4 4.2-.2 6.2 0 .6-.1.9-.2 1.3-.3.4.1.7.1.9.2.9-.1 1.7-.2 2.4-.2 4 .1 7.9 0 12 .2 4.5.2 9.3 0 14 .3 2.9.1 5.9 0 8.9.2 1.7.1 3.8 0 5.8-.2 1.7-.2 3.6.4 5.7.2 1.1-.1 2.5-.3 3.1-.2 2.3.3 4.3 0 6.4 0 2.8 0 5.2.1 7.5-.2 1.5-.2 2.5.3 4.9.4.6.2 2.9.1 3.6.3h.1v-3zM273.9 21.3c-2.4.1-4.4-.1-7.3-.1-2.1.1-4.1.1-6.2 0-2.2-.1-4.6.1-6.4-.4-2.3-.7-3.8.3-5.6.4-.6 0-1.2-.3-1.8-.4-2.6-.3-5.2-.8-7.8.4-1.9-.6-3.6-.6-8-.8-1.9-.1-3.5.5-5.3.3-2-.3-4.1 0-6.2-.1-1.3-.1-2.5-.4-3.7-.6-1.1.2-2.2.6-3.2.5-1.4-.1-2.3-1-4.1-.4-1 .4-2.6-.2-3.9-.3-9.9-.4-19.8.7-29.6-.7h-51.7c-.8 0-1.5.3-2 .5-1-.2-2.2-.7-2.8-.4-2 .9-4.2.6-6.4.6H76.7c-2.3 0-4.7-.6-6.8.6-.4.2-1.6.1-1.9-.1-1.1-.9-2.5-.5-3.8-.5-3.3 0-6.6.2-9.9.6-6.3.6-12.8.6-19.2.8-.7 0-1.4-.1-2.1 0-.4.1-.8.4-1 .6-.6-.2-1.2-.6-1.8-.6-2.1-.1-4.1 0-6.2 0h-5.7c-1.8 0-3.4-.5-5.4-.1-4.6.9-9.4-1.1-14.2.1-.3-.2-.7-.4-.9-.6-1.9.2-3.6.5-5.4.6-2 .1-4.1 0-6.1 0-.1.1-.2.2-.4.2v8.2c3.3 0 6.5.1 9.6-.1 3.6-.2 6.9.9 10.4.7 3-.1 6 .3 8.9-.6 1.4-.5 3.4 0 5.1-.1 1.4-.1 3 .4 4.4-.5 1.7-1 3 .5 4.6.6 1.6.1 3-.8 4.5-.3 1.9.6 3.5-.3 5.1-.3 5.1 0 10-1.2 15.1-.9 2 .1 4.4.6 6.3-.6.3-.2 1.6-.2 1.9.1 1.3 1 2.9.4 4.3.6 2.7.4 5.2-.6 7.9-.7 6.7-.1 13.4.1 20.2-.1 6.8-.1 13.6.6 20.5-.6.4.2 1.1.5 1.7.7.6-.4 1-.6 1.3-.8 1.6.3 2.6.6 3.7.7 1.2.1 2.8.3 3.5-.1 1.7-.9 2.8.6 4.5.2 1.4-.3 3.1 0 4.6-.1 1.6-.1 3.2-.5 4.8-.7.3 0 .8 0 .9.2.9.8 2.2.5 3.3.5h21.7c.9 0 1.8.1 2.6 0 6.7-.9 8-.9 14.7 0 1.4.2 3.4.2 4.4-.3 2-1 3.1.2 4.6.4 2.1-1.3 4.2-.6 6.2.1.6-.4.9-.6 1.3-.8.4.2.7.4.9.5.9-.2 1.7-.6 2.4-.5 4 .2 7.9-.1 12 .5 4.5.7 9.3.1 14 .8 2.9.4 5.9-.1 8.9.7 1.7.4 3.8.1 5.8-.5 1.7-.5 3.6 1.1 5.7.6 1.1-.2 2.5-.9 3.1-.6 2.3 1 4.3 0 6.4 0 2.8.1 5.2 1.1 7.4.2 1.5-.6 2.5.2 4.9.4 2.1 1.7 2.2-.6 3.8.8v-8.4zM273.9 12c-2.5 0-4.4-.1-7.3 0h-6.2c-2.2 0-4.6 0-6.4-.1-2.3-.2-3.8.1-5.6.1-.6 0-1.2-.1-1.8-.1-2.6-.1-5.2-.2-7.8.1-1.9-.2-3.6-.2-8-.3-1.9 0-3.5.2-5.3.1-2-.1-4.1 0-6.2 0-1.3 0-2.5-.1-3.7-.2-1.1.1-2.2.2-3.2.2-1.4 0-2.3-.3-4.1-.1-1 .1-2.6-.1-3.9-.1-9.9-.1-19.8.2-29.6-.2h-51.7c-.8 0-1.5.1-2 .2-1-.1-2.2-.2-2.8-.1-2 .3-4.2.2-6.4.2H76.7c-2.3 0-4.7-.2-6.8.2-.4.1-1.6 0-1.9 0-1.1-.3-2.5-.2-3.8-.2-3.3 0-6.6.1-9.9.2-6.3.2-12.8.2-19.2.3H33c-.4 0-.8.1-1 .2-.6-.1-1.2-.2-1.8-.2H18.3c-1.8 0-3.4-.2-5.4 0-4.6.3-9.4-.3-14.2 0-.3-.1-.7-.1-.9-.2-1.9.1-3.6.2-5.4.2h-6.1c-.1 0-.2.1-.4.1v2.6h9.6c3.6-.1 6.9.3 10.4.2 3 0 6 .1 8.9-.2 1.4-.1 3.4 0 5.1 0 1.4 0 3 .1 4.4-.2 1.7-.3 3 .1 4.6.2 1.6 0 3-.3 4.5-.1 1.9.2 3.5-.1 5.1-.1 5.1 0 10-.4 15.1-.3 2 0 4.4.2 6.3-.2.3-.1 1.6-.1 1.9 0 1.3.3 2.9.1 4.3.2 2.7.1 5.2-.2 7.9-.2h20.2c6.8 0 13.6.2 20.5-.2.4.1 1.1.1 1.7.2.6-.1 1-.2 1.3-.3 1.6.1 2.6.2 3.7.2 1.2 0 2.8.1 3.5 0 1.7-.3 2.8.2 4.5.1 1.4-.1 3.1 0 4.6 0 1.6 0 3.2-.1 4.8-.2.3 0 .8 0 .9.1.9.3 2.2.2 3.3.2h24.3c6.7-.3 8-.3 14.7 0 1.4.1 3.4.1 4.4-.1 2-.3 3.1.1 4.6.1 2.1-.4 4.2-.2 6.2 0 .6-.1.9-.2 1.3-.3.4.1.7.1.9.2.9-.1 1.7-.2 2.4-.2 4 .1 7.9 0 12 .2 4.5.2 9.3 0 14 .2 2.9.1 5.9 0 8.9.2 1.7.1 3.8 0 5.8-.2 1.7-.2 3.6.4 5.7.2 1.1-.1 2.5-.3 3.1-.2 2.3.3 4.3 0 6.4 0 2.8 0 5.2-.2 7.4-.5 1.5-.2 2.7.6 5.1.6.6.2 2.2.1 2.9.2h.7V12zM273.9 71.5h-13.5c-2.2 0-4.6 0-6.4-.1-2.3-.2-3.8.1-5.6.1-.6 0-1.2-.1-1.8-.1-2.6-.1-5.2-.2-7.8.1-1.9-.2-3.6-.2-8-.3-1.9 0-3.5.2-5.3.1-2-.1-4.1 0-6.2 0-1.3 0-2.5-.1-3.7-.2-1.1.1-2.2.2-3.2.2-1.4 0-2.3-.3-4.1-.1-1 .1-2.6-.1-3.9-.1-9.9-.1-19.8.2-29.6-.2h-51.7c-.8 0-1.5.1-2 .1-1-.1-2.2-.2-2.8-.1-2 .3-4.2.2-6.4.2H76.7c-2.3 0-4.7-.2-6.8.2-.4.1-1.6 0-1.9 0-1.1-.3-2.5-.2-3.8-.2-3.3 0-6.6.1-9.9.2-6.3.2-12.8.2-19.2.3H33c-.4 0-.8.1-1 .2-.6-.1-1.2-.2-1.8-.2H18.3c-1.8 0-3.4-.2-5.4 0-4.6.3-9.4-.3-14.2 0-.3-.1-.7-.1-.9-.2-1.9.1-3.6.2-5.4.2h-6.1c-.1 0-.2.1-.4.1v2.6h9.6c3.6-.1 6.9.3 10.4.2 3 0 6 .1 8.9-.2 1.4-.1 3.4 0 5.1 0 1.4 0 3 .1 4.4-.2 1.7-.3 3 .1 4.6.2 1.6 0 3-.3 4.5-.1 1.9.2 3.5-.1 5.1-.1 5.1 0 10-.4 15.1-.3 2 0 4.4.2 6.3-.2.3-.1 1.6-.1 1.9 0 1.3.3 2.9.1 4.3.2 2.7.1 5.2-.2 7.9-.2h20.2c6.8 0 13.6.2 20.5-.2.4.1 1.1.1 1.7.2.6-.1 1-.2 1.3-.3 1.6.1 2.6.2 3.7.2 1.2 0 2.8.1 3.5 0 1.7-.3 2.8.2 4.5.1 1.4-.1 3.1 0 4.6 0 1.6 0 3.2-.1 4.8-.2.3 0 .8 0 .9.1.9.3 2.2.2 3.3.2h24.3c6.7-.3 8-.3 14.7 0 1.4.1 3.4.1 4.4-.1 2-.3 3.1.1 4.6.1 2.1-.4 4.2-.2 6.2 0 .6-.1.9-.2 1.3-.3.4.1.7.1.9.2.9-.1 1.7-.2 2.4-.2 4 .1 7.9 0 12 .2 4.5.2 9.3 0 14 .2 2.9.1 5.9 0 8.9.2 1.7.1 3.8 0 5.8-.2 1.7-.2 3.6.4 5.7.2 1.1-.1 2.5-.3 3.1-.2 2.3.3 4.3 0 6.4 0 2.8 0 5.2.1 7.5-.2 1.5-.2 2.5.3 4.9.4.6.2 2.9.1 3.6.3h.1v-2.8zM273.9 57.4c-2.4.1-4.4-.1-7.3-.1-2.1.1-4.1.1-6.2 0-2.2-.1-4.6.1-6.4-.4-2.3-.7-3.8.3-5.6.4-.6 0-1.2-.3-1.8-.4-2.6-.3-5.2-.8-7.8.4-1.9-.6-3.6-.6-8-.8-1.9-.1-3.5.5-5.3.3-2-.3-4.1 0-6.2-.1-1.3-.1-2.5-.4-3.7-.6-1.1.2-2.2.6-3.2.5-1.4-.1-2.3-1-4.1-.4-1 .4-2.6-.2-3.9-.3-9.9-.4-19.8.7-29.6-.7h-51.7c-.8 0-1.5.3-2 .5-1-.2-2.2-.7-2.8-.4-2 .9-4.2.6-6.4.6H76.7c-2.3 0-4.7-.6-6.8.6-.4.2-1.6.1-1.9-.1-1.1-.9-2.5-.5-3.8-.5-3.3 0-6.6.2-9.9.6-6.3.6-12.8.6-19.2.8-.7 0-1.4-.1-2.1 0-.4.1-.8.4-1 .6-.6-.2-1.2-.6-1.8-.6-2.1-.1-4.1 0-6.2 0h-5.7c-1.8 0-3.4-.5-5.4-.1-4.6.9-9.4-1.1-14.2.1-.3-.2-.7-.4-.9-.6-1.9.2-3.6.5-5.4.6-2 .1-4.1 0-6.1 0-.1.1-.2.2-.4.2v8.2c3.3 0 6.5.1 9.6-.1 3.6-.2 6.9.9 10.4.7 3-.1 6 .3 8.9-.6 1.4-.5 3.4 0 5.1-.1 1.4-.1 3 .4 4.4-.5 1.7-1 3 .5 4.6.6 1.6.1 3-.8 4.5-.3 1.9.6 3.5-.3 5.1-.3 5.1 0 10-1.2 15.1-.9 2 .1 4.4.6 6.3-.6.3-.2 1.6-.2 1.9.1 1.3 1 2.9.4 4.3.6 2.7.4 5.2-.6 7.9-.7 6.7-.1 13.4.1 20.2-.1 6.8-.1 13.6.6 20.5-.6.4.2 1.1.5 1.7.7.6-.4 1-.6 1.3-.8 1.6.3 2.6.6 3.7.7 1.2.1 2.8.3 3.5-.1 1.7-.9 2.8.6 4.5.2 1.4-.3 3.1 0 4.6-.1 1.6-.1 3.2-.5 4.8-.7.3 0 .8 0 .9.2.9.8 2.2.5 3.3.5h21.7c.9 0 1.8.1 2.6 0 6.7-.9 8-.9 14.7 0 1.4.2 3.4.2 4.4-.3 2-1 3.1.2 4.6.4 2.1-1.3 4.2-.6 6.2.1.6-.4.9-.6 1.3-.8.4.2.7.4.9.5.9-.2 1.7-.6 2.4-.5 4 .2 7.9-.1 12 .5 4.5.7 9.3.1 14 .8 2.9.4 5.9-.1 8.9.7 1.7.4 3.8.1 5.8-.5 1.7-.5 3.6 1.1 5.7.6 1.1-.2 2.5-.9 3.1-.6 2.3 1 4.3 0 6.4 0 2.8.1 5.2 1.1 7.4.2 1.5-.6 2.5.2 4.9.4 2.1 1.7 2.2-.6 3.8.8v-8.4zM273.9 48.1c-2.5 0-4.4-.1-7.3 0h-6.2c-2.2 0-4.6 0-6.4-.1-2.3-.2-3.8.1-5.6.1-.6 0-1.2-.1-1.8-.1-2.6-.1-5.2-.2-7.8.1-1.9-.2-3.6-.2-8-.3-1.9 0-3.5.2-5.3.1-2-.1-4.1 0-6.2 0-1.3 0-2.5-.1-3.7-.2-1.1.1-2.2.2-3.2.2-1.4 0-2.3-.3-4.1-.1-1 .1-2.6-.1-3.9-.1-9.9-.1-19.8.2-29.6-.2h-51.7c-.8 0-1.5.1-2 .2-1-.1-2.2-.2-2.8-.1-2 .3-4.2.2-6.4.2H76.7c-2.3 0-4.7-.2-6.8.2-.4.1-1.6 0-1.9 0-1.1-.3-2.5-.2-3.8-.2-3.3 0-6.6.1-9.9.2-6.5 0-13-.1-19.4 0h-2.1c-.4 0-.8.1-1 .2-.6-.1-1.2-.2-1.8-.2H18.1c-1.8 0-3.4-.2-5.4 0-4.6.3-9.4-.3-14.2 0-.3-.1-.7-.1-.9-.2-1.8.1-3.5.2-5.3.2h-6.1c-.1 0-.2 0-.4.1v2.6h9.6c3.6-.1 6.9.3 10.4.2 3 0 6 .1 8.9-.2 1.4-.1 3.4 0 5.1 0 1.4 0 3 .1 4.4-.2 1.7-.3 3 .1 4.6.2 1.6 0 3-.3 4.5-.1 1.9.2 3.5-.1 5.1-.1 5.1 0 10-.4 15.1-.3 2 0 4.4.2 6.3-.2.3-.1 1.6-.1 1.9 0 1.3.3 2.9.1 4.3.2 2.7.1 5.2-.2 7.9-.2h20.2c6.8 0 13.6.2 20.5-.2.4.1 1.1.1 1.7.2.6-.1 1-.2 1.3-.3 1.6.1 2.6.2 3.7.2 1.2 0 2.8.1 3.5 0 1.7-.3 2.8.2 4.5.1 1.4-.1 3.1 0 4.6 0 1.6 0 3.2-.1 4.8-.2.3 0 .8 0 .9.1.9.3 2.2.2 3.3.2h24.3c6.7-.3 8-.3 14.7 0 1.4.1 3.4.1 4.4-.1 2-.3 3.1.1 4.6.1 2.1-.4 4.2-.2 6.2 0 .6-.1.9-.2 1.3-.3.4.1.7.1.9.2.9-.1 1.7-.2 2.4-.2 4 .1 7.9 0 12 .2 4.5.2 9.3 0 14 .3 2.9.1 5.9 0 8.9.2 1.7.1 3.8 0 5.8-.2 1.7-.2 3.6.4 5.7.2 1.1-.1 2.5-.3 3.1-.2 2.3.3 4.3 0 6.4 0 2.8 0 5.2-.2 7.4-.5 1.5-.2 2.7.6 5.1.6.6.2 2.2.1 2.9.2h.7v-2.5zM273.9 107.5h-13.5c-2.2 0-4.6 0-6.4-.1-2.3-.2-3.8.1-5.6.1-.6 0-1.2-.1-1.8-.1-2.6-.1-5.2-.2-7.8.1-1.9-.2-3.6-.2-8-.3-1.9 0-3.5.2-5.3.1-2-.1-4.1 0-6.2 0-1.3 0-2.5-.1-3.7-.2-1.1.1-2.2.2-3.2.2-1.4 0-2.3-.3-4.1-.1-1 .1-2.6-.1-3.9-.1-9.9-.1-19.8.2-29.6-.2h-51.7c-.8 0-1.5.1-2 .1-1-.1-2.2-.2-2.8-.1-2 .3-4.2.2-6.4.2H76.7c-2.3 0-4.7-.2-6.8.2-.4.1-1.6 0-1.9 0-1.1-.3-2.5-.2-3.8-.2-3.3 0-6.6.1-9.9.2-6.3.2-12.8.2-19.2.3H33c-.4 0-.8.1-1 .2-.6-.1-1.2-.2-1.8-.2H18.3c-1.8 0-3.4-.2-5.4 0-4.6.3-9.4-.3-14.2 0-.3-.1-.7-.1-.9-.2-1.9.1-3.6.2-5.4.2h-6.1c-.1 0-.2 0-.4.1v2.6h9.6c3.6-.1 6.9.3 10.4.2 3 0 6 .1 8.9-.2 1.4-.1 3.4 0 5.1 0 1.4 0 3 .1 4.4-.2 1.7-.3 3 .1 4.6.2 1.6 0 3-.3 4.5-.1 1.9.2 3.5-.1 5.1-.1 5.1 0 10-.4 15.1-.3 2 0 4.4.2 6.3-.2.3-.1 1.6-.1 1.9 0 1.3.3 2.9.1 4.3.2 2.7.1 5.2-.2 7.9-.2h20.2c6.8 0 13.6.2 20.5-.2.4.1 1.1.1 1.7.2.6-.1 1-.2 1.3-.3 1.6.1 2.6.2 3.7.2 1.2 0 2.8.1 3.5 0 1.7-.3 2.8.2 4.5.1 1.4-.1 3.1 0 4.6 0 1.6 0 3.2-.1 4.8-.2.3 0 .8 0 .9.1.9.3 2.2.2 3.3.2h24.3c6.7-.3 8-.3 14.7 0 1.4.1 3.4.1 4.4-.1 2-.3 3.1.1 4.6.1 2.1-.4 4.2-.2 6.2 0 .6-.1.9-.2 1.3-.3.4.1.7.1.9.2.9-.1 1.7-.2 2.4-.2 4 .1 7.9 0 12 .2 4.5.2 9.3 0 14 .2 2.9.1 5.9 0 8.9.2 1.7.1 3.8 0 5.8-.2 1.7-.2 3.6.4 5.7.2 1.1-.1 2.5-.3 3.1-.2 2.3.3 4.3 0 6.4 0 2.8 0 5.2.1 7.5-.2 1.5-.2 2.5.3 4.9.4.6.2 2.9.1 3.6.3h.1v-2.8zM273.9 93.4c-2.4.1-4.4-.1-7.3-.1-2.1.1-4.1.1-6.2 0-2.2-.1-4.6.1-6.4-.4-2.3-.7-3.8.3-5.6.4-.6 0-1.2-.3-1.8-.4-2.6-.3-5.2-.8-7.8.4-1.9-.6-3.6-.6-8-.8-1.9-.1-3.5.5-5.3.3-2-.3-4.1 0-6.2-.1-1.3-.1-2.5-.4-3.7-.6-1.1.2-2.2.6-3.2.5-1.4-.1-2.3-1-4.1-.4-1 .4-2.6-.2-3.9-.3-9.9-.4-19.8.7-29.6-.7h-51.7c-.8 0-1.5.3-2 .5-1-.2-2.2-.7-2.8-.4-2 .9-4.2.6-6.4.6H76.7c-2.3 0-4.7-.6-6.8.6-.4.2-1.6.1-1.9-.1-1.1-.9-2.5-.5-3.8-.5-3.3 0-6.6.2-9.9.6-6.3.6-12.8.6-19.2.8-.7 0-1.4-.1-2.1 0-.4.1-.8.4-1 .6-.6-.2-1.2-.6-1.8-.6-2.1-.1-4.1 0-6.2 0h-5.7c-1.8 0-3.4-.5-5.4-.1-4.6.9-9.4-1.1-14.2.1-.3-.2-.7-.4-.9-.6-1.9.2-3.6.5-5.4.6-2 .1-4.1 0-6.1 0-.1.1-.2.2-.4.2v8.2c3.3 0 6.5.1 9.6-.1 3.6-.2 6.9.9 10.4.7 3-.1 6 .3 8.9-.6 1.4-.5 3.4 0 5.1-.1 1.4-.1 3 .4 4.4-.5 1.7-1 3 .5 4.6.6 1.6.1 3-.8 4.5-.3 1.9.6 3.5-.3 5.1-.3 5.1 0 10-1.2 15.1-.9 2 .1 4.4.6 6.3-.6.3-.2 1.6-.2 1.9.1 1.3 1 2.9.4 4.3.6 2.7.4 5.2-.6 7.9-.7 6.7-.1 13.4.1 20.2-.1 6.8-.1 13.6.6 20.5-.6.4.2 1.1.5 1.7.7.6-.4 1-.6 1.3-.8 1.6.3 2.6.6 3.7.7 1.2.1 2.8.3 3.5-.1 1.7-.9 2.8.6 4.5.2 1.4-.3 3.1 0 4.6-.1 1.6-.1 3.2-.5 4.8-.7.3 0 .8 0 .9.2.9.8 2.2.5 3.3.5h21.7c.9 0 1.8.1 2.6 0 6.7-.9 8-.9 14.7 0 1.4.2 3.4.2 4.4-.3 2-1 3.1.2 4.6.4 2.1-1.3 4.2-.6 6.2.1.6-.4.9-.6 1.3-.8.4.2.7.4.9.5.9-.2 1.7-.6 2.4-.5 4 .2 7.9-.1 12 .5 4.5.7 9.3.1 14 .8 2.9.4 5.9-.1 8.9.7 1.7.4 3.8.1 5.8-.5 1.7-.5 3.6 1.1 5.7.6 1.1-.2 2.5-.9 3.1-.6 2.3 1 4.3 0 6.4 0 2.8.1 5.2 1.1 7.4.2 1.5-.6 2.5.2 4.9.4 2.1 1.7 2.2-.6 3.8.8v-8.4zM273.9 84.1c-2.5 0-4.4-.1-7.3 0h-6.2c-2.2 0-4.6 0-6.4-.1-2.3-.2-3.8.1-5.6.1-.6 0-1.2-.1-1.8-.1-2.6-.1-5.2-.2-7.8.1-1.9-.2-3.6-.2-8-.3-1.9 0-3.5.2-5.3.1-2-.1-4.1 0-6.2 0-1.3 0-2.5-.1-3.7-.2-1.1.1-2.2.2-3.2.2-1.4 0-2.3-.3-4.1-.1-1 .1-2.6-.1-3.9-.1-9.9-.1-19.8.2-29.6-.2h-51.7c-.8 0-1.5.1-2 .2-1-.1-2.2-.2-2.8-.1-2 .3-4.2.2-6.4.2H76.7c-2.3 0-4.7-.2-6.8.2-.4.1-1.6 0-1.9 0-1.1-.3-2.5-.2-3.8-.2-3.3 0-6.6.1-9.9.2-6.5 0-13 0-19.4.1h-2.1c-.4 0-.8.1-1 .2-.6-.1-1.2-.2-1.8-.2H18.1c-1.8 0-3.4-.2-5.4 0-4.6.3-9.4-.3-14.2 0-.2-.1-.5-.2-.8-.2-1.9.1-3.6.2-5.4.2h-6.1c-.1 0-.2 0-.4.1v2.6h9.6c3.7-.1 7 .2 10.5.2 3 0 6 .1 8.9-.2 1.4-.1 3.4 0 5.1 0 1.4 0 3 .1 4.4-.1 1.7-.3 3 .1 4.6.2 1.6 0 3-.3 4.5-.1 1.9.2 3.5-.1 5.1-.1 5.1 0 10-.4 15.1-.3 2 0 4.4.2 6.3-.2.3-.1 1.6-.1 1.9 0 1.3.3 2.9.1 4.3.2 2.7.1 5.2-.2 7.9-.2h20.2c6.8 0 13.6.2 20.5-.2.4.1 1.1.1 1.7.2.6-.1 1-.2 1.3-.3 1.6.1 2.6.2 3.7.2 1.2 0 2.8.1 3.5 0 1.7-.3 2.8.2 4.5.1 1.4-.1 3.1 0 4.6 0 1.6 0 3.2-.1 4.8-.2.3 0 .8 0 .9.1.9.3 2.2.2 3.3.2h24.3c6.7-.3 8-.3 14.7 0 1.4.1 3.4.1 4.4-.1 2-.3 3.1.1 4.6.1 2.1-.4 4.2-.2 6.2 0 .6-.1.9-.2 1.3-.3.4.1.7.1.9.2.9-.1 1.7-.2 2.4-.2 4 .1 7.9 0 12 .2 4.5.2 9.3 0 14 .3 2.9.1 5.9 0 8.9.2 1.7.1 3.8 0 5.8-.2 1.7-.2 3.6.4 5.7.2 1.1-.1 2.5-.3 3.1-.2 2.3.3 4.3 0 6.4 0 2.8 0 5.2-.2 7.4-.5 1.5-.2 2.7.6 5.1.6.6.2 2.2.1 2.9.2h.7v-2.7zM273.9 143.6h-13.5c-2.2 0-4.6 0-6.4-.1-2.3-.2-3.8.1-5.6.1-.6 0-1.2-.1-1.8-.1-2.6-.1-5.2-.2-7.8.1-1.9-.2-3.6-.2-8-.3-1.9 0-3.5.2-5.3.1-2-.1-4.1 0-6.2 0-1.3 0-2.5-.1-3.7-.2-1.1.1-2.2.2-3.2.2-1.4 0-2.3-.3-4.1-.1-1 .1-2.6-.1-3.9-.1-9.9-.1-19.8.2-29.6-.2h-51.7c-.8 0-1.5.1-2 .1-1-.1-2.2-.2-2.8-.1-2 .3-4.2.2-6.4.2H76.7c-2.3 0-4.7-.2-6.8.2-.4.1-1.6 0-1.9 0-1.1-.3-2.5-.2-3.8-.2-3.3 0-6.6.1-9.9.2-6.3.2-12.8.2-19.2.3H33c-.4 0-.8.1-1 .2-.6-.1-1.2-.2-1.8-.2H18.3c-1.8 0-3.4-.2-5.4 0-4.6.3-9.4-.3-14.2 0-.3-.1-.7-.1-.9-.2-1.9.1-3.6.2-5.4.2h-6.1c-.1 0-.2 0-.4.1v2.6h9.6c3.6-.1 6.9.3 10.4.2 3 0 6 .1 8.9-.2 1.4-.1 3.4 0 5.1 0 1.4 0 3 .1 4.4-.2 1.7-.3 3 .1 4.6.2 1.6 0 3-.3 4.5-.1 1.9.2 3.5-.1 5.1-.1 5.1 0 10-.4 15.1-.3 2 0 4.4.2 6.3-.2.3-.1 1.6-.1 1.9 0 1.3.3 2.9.1 4.3.2 2.7.1 5.2-.2 7.9-.2h20.2c6.8 0 13.6.2 20.5-.2.4.1 1.1.1 1.7.2.6-.1 1-.2 1.3-.3 1.6.1 2.6.2 3.7.2 1.2 0 2.8.1 3.5 0 1.7-.3 2.8.2 4.5.1 1.4-.1 3.1 0 4.6 0 1.6 0 3.2-.1 4.8-.2.3 0 .8 0 .9.1.9.3 2.2.2 3.3.2h24.3c6.7-.3 8-.3 14.7 0 1.4.1 3.4.1 4.4-.1 2-.3 3.1.1 4.6.1 2.1-.4 4.2-.2 6.2 0 .6-.1.9-.2 1.3-.3.4.1.7.1.9.2.9-.1 1.7-.2 2.4-.2 4 .1 7.9 0 12 .2 4.5.2 9.3 0 14 .2 2.9.1 5.9 0 8.9.2 1.7.1 3.8 0 5.8-.2 1.7-.2 3.6.4 5.7.2 1.1-.1 2.5-.3 3.1-.2 2.3.3 4.3 0 6.4 0 2.8 0 5.2.1 7.5-.2 1.5-.2 2.5.3 4.9.4.6.2 2.9.1 3.6.3h.1v-2.8zM273.9 129.5c-2.4.1-4.4-.1-7.3-.1-2.1.1-4.1.1-6.2 0-2.2-.1-4.6.1-6.4-.4-2.3-.7-3.8.3-5.6.4-.6 0-1.2-.3-1.8-.4-2.6-.3-5.2-.8-7.8.4-1.9-.6-3.6-.6-8-.8-1.9-.1-3.5.5-5.3.3-2-.3-4.1 0-6.2-.1-1.3-.1-2.5-.4-3.7-.6-1.1.2-2.2.6-3.2.5-1.4-.1-2.3-1-4.1-.4-1 .4-2.6-.2-3.9-.3-9.9-.4-19.8.7-29.6-.7h-51.7c-.8 0-1.5.3-2 .5-1-.2-2.2-.7-2.8-.4-2 .9-4.2.6-6.4.6H76.7c-2.3 0-4.7-.6-6.8.6-.4.2-1.6.1-1.9-.1-1.1-.9-2.5-.5-3.8-.5-3.3 0-6.6.2-9.9.6-6.3.6-12.8.6-19.2.8-.7 0-1.4-.1-2.1 0-.4.1-.8.4-1 .6-.6-.2-1.2-.6-1.8-.6-2.1-.1-4.1 0-6.2 0h-5.7c-1.8 0-3.4-.5-5.4-.1-4.6.9-9.4-1.1-14.2.1-.3-.2-.7-.4-.9-.6-1.9.2-3.6.5-5.4.6-2 .1-4.1 0-6.1 0-.1.1-.2.2-.4.2v8.2c3.3 0 6.5.1 9.6-.1 3.6-.2 6.9.9 10.4.7 3-.1 6 .3 8.9-.6 1.4-.5 3.4 0 5.1-.1 1.4-.1 3 .4 4.4-.5 1.7-1 3 .5 4.6.6 1.6.1 3-.8 4.5-.3 1.9.6 3.5-.3 5.1-.3 5.1 0 10-1.2 15.1-.9 2 .1 4.4.6 6.3-.6.3-.2 1.6-.2 1.9.1 1.3 1 2.9.4 4.3.6 2.7.4 5.2-.6 7.9-.7 6.7-.1 13.4.1 20.2-.1 6.8-.1 13.6.6 20.5-.6.4.2 1.1.5 1.7.7.6-.4 1-.6 1.3-.8 1.6.3 2.6.6 3.7.7 1.2.1 2.8.3 3.5-.1 1.7-.9 2.8.6 4.5.2 1.4-.3 3.1 0 4.6-.1 1.6-.1 3.2-.5 4.8-.7.3 0 .8 0 .9.2.9.8 2.2.5 3.3.5h21.7c.9 0 1.8.1 2.6 0 6.7-.9 8-.9 14.7 0 1.4.2 3.4.2 4.4-.3 2-1 3.1.2 4.6.4 2.1-1.3 4.2-.6 6.2.1.6-.4.9-.6 1.3-.8.4.2.7.4.9.5.9-.2 1.7-.6 2.4-.5 4 .2 7.9-.1 12 .5 4.5.7 9.3.1 14 .8 2.9.4 5.9-.1 8.9.7 1.7.4 3.8.1 5.8-.5 1.7-.5 3.6 1.1 5.7.6 1.1-.2 2.5-.9 3.1-.6 2.3 1 4.3 0 6.4 0 2.8.1 5.2 1.1 7.4.2 1.5-.6 2.5.2 4.9.4 2.1 1.7 2.2-.6 3.8.8v-8.4zM273.9 120.2c-2.5 0-4.4-.1-7.3 0h-6.2c-2.2 0-4.6 0-6.4-.1-2.3-.2-3.8.1-5.6.1-.6 0-1.2-.1-1.8-.1-2.6-.1-5.2-.2-7.8.1-1.9-.2-3.6-.2-8-.3-1.9 0-3.5.2-5.3.1-2-.1-4.1 0-6.2 0-1.3 0-2.5-.1-3.7-.2-1.1.1-2.2.2-3.2.2-1.4 0-2.3-.3-4.1-.1-1 .1-2.6-.1-3.9-.1-9.9-.1-19.8.2-29.6-.2h-51.7c-.8 0-1.5.1-2 .2-1-.1-2.2-.2-2.8-.1-2 .3-4.2.2-6.4.2H76.7c-2.3 0-4.7-.2-6.8.2-.4.1-1.6 0-1.9 0-1.1-.3-2.5-.2-3.8-.2-3.3 0-6.6.1-9.9.2-6.3.2-12.8.2-19.2.3H33c-.4 0-.8.1-1 .2-.6-.1-1.2-.2-1.8-.2H18.3c-1.8 0-3.4-.2-5.4 0-4.6.3-9.4-.3-14.2 0-.3-.1-.7-.1-.9-.2-1.9.1-3.6.2-5.4.2h-6.1c-.1 0-.2 0-.4.1v2.6h9.6c3.6-.1 6.9.3 10.4.2 3 0 6 .1 8.9-.2 1.4-.1 3.4 0 5.1 0 1.4 0 3 .1 4.4-.1 1.7-.3 3 .1 4.6.2 1.6 0 3-.3 4.5-.1 1.9.2 3.5-.1 5.1-.1 5.1 0 10-.4 15.1-.3 2 0 4.4.2 6.3-.2.3-.1 1.6-.1 1.9 0 1.3.3 2.9.1 4.3.2 2.7.1 5.2-.2 7.9-.2h20.2c6.8 0 13.6.2 20.5-.2.4.1 1.1.1 1.7.2.6-.1 1-.2 1.3-.3 1.6.1 2.6.2 3.7.2 1.2 0 2.8.1 3.5 0 1.7-.3 2.8.2 4.5.1 1.4-.1 3.1 0 4.6 0 1.6 0 3.2-.1 4.8-.2.3 0 .8 0 .9.1.9.3 2.2.2 3.3.2h24.3c6.7-.3 8-.3 14.7 0 1.4.1 3.4.1 4.4-.1 2-.3 3.1.1 4.6.1 2.1-.4 4.2-.2 6.2 0 .6-.1.9-.2 1.3-.3.4.1.7.1.9.2.9-.1 1.7-.2 2.4-.2 4 .1 7.9 0 12 .2 4.5.2 9.3 0 14 .3 2.9.1 5.9 0 8.9.2 1.7.1 3.8 0 5.8-.2 1.7-.2 3.6.4 5.7.2 1.1-.1 2.5-.3 3.1-.2 2.3.3 4.3 0 6.4 0 2.8 0 5.2-.2 7.4-.5 1.5-.2 2.7.6 5.1.6.6.2 2.2.1 2.9.2h.7v-2.9zM273.9 179.6h-13.5c-2.2 0-4.6 0-6.4-.1-2.3-.2-3.8.1-5.6.1-.6 0-1.2-.1-1.8-.1-2.6-.1-5.2-.2-7.8.1-1.9-.2-3.6-.2-8-.3-1.9 0-3.5.2-5.3.1-2-.1-4.1 0-6.2 0-1.3 0-2.5-.1-3.7-.2-1.1.1-2.2.2-3.2.2-1.4 0-2.3-.3-4.1-.1-1 .1-2.6-.1-3.9-.1-9.9-.1-19.8.2-29.6-.2h-51.7c-.8 0-1.5.1-2 .1-1-.1-2.2-.2-2.8-.1-2 .3-4.2.2-6.4.2H76.7c-2.3 0-4.7-.2-6.8.2-.4.1-1.6 0-1.9 0-1.1-.3-2.5-.2-3.8-.2-3.3 0-6.6.1-9.9.2-6.3.2-12.8.2-19.2.3H33c-.4 0-.8.1-1 .2-.6-.1-1.2-.2-1.8-.2H18.3c-1.8 0-3.4-.2-5.4 0-4.6.3-9.4-.3-14.2 0-.3-.1-.7-.1-.9-.2-1.9.1-3.6.2-5.4.2h-6.1c-.1 0-.2 0-.4.1v2.6h9.6c3.6-.1 6.9.3 10.4.2 3 0 6 .1 8.9-.2 1.4-.1 3.4 0 5.1 0 1.4 0 3 .1 4.4-.2 1.7-.3 3 .1 4.6.2 1.6 0 3-.3 4.5-.1 1.9.2 3.5-.1 5.1-.1 5.1 0 10-.4 15.1-.3 2 0 4.4.2 6.3-.2.3-.1 1.6-.1 1.9 0 1.3.3 2.9.1 4.3.2 2.7.1 5.2-.2 7.9-.2h20.2c6.8 0 13.6.2 20.5-.2.4.1 1.1.1 1.7.2.6-.1 1-.2 1.3-.3 1.6.1 2.6.2 3.7.2 1.2 0 2.8.1 3.5 0 1.7-.3 2.8.2 4.5.1 1.4-.1 3.1 0 4.6 0 1.6 0 3.2-.1 4.8-.2.3 0 .8 0 .9.1.9.3 2.2.2 3.3.2h24.3c6.7-.3 8-.3 14.7 0 1.4.1 3.4.1 4.4-.1 2-.3 3.1.1 4.6.1 2.1-.4 4.2-.2 6.2 0 .6-.1.9-.2 1.3-.3.4.1.7.1.9.2.9-.1 1.7-.2 2.4-.2 4 .1 7.9 0 12 .2 4.5.2 9.3 0 14 .2 2.9.1 5.9 0 8.9.2 1.7.1 3.8 0 5.8-.2 1.7-.2 3.6.4 5.7.2 1.1-.1 2.5-.3 3.1-.2 2.3.3 4.3 0 6.4 0 2.8 0 5.2.1 7.5-.2 1.5-.2 2.5.3 4.9.4.6.2 2.9.1 3.6.3h.1v-2.8zM273.9 165.5c-2.4.1-4.4-.2-7.3-.1-2.1.1-4.1.1-6.2 0-2.2-.1-4.6.1-6.4-.4-2.3-.7-3.8.3-5.6.4-.6 0-1.2-.3-1.8-.4-2.6-.3-5.2-.8-7.8.4-1.9-.6-3.6-.6-8-.8-1.9-.1-3.5.5-5.3.3-2-.3-4.1 0-6.2-.1-1.3-.1-2.5-.4-3.7-.6-1.1.2-2.2.6-3.2.5-1.4-.1-2.3-1-4.1-.4-1 .4-2.6-.2-3.9-.3-9.9-.4-19.8.7-29.6-.7h-51.7c-.8 0-1.5.3-2 .5-1-.2-2.2-.7-2.8-.4-2 .9-4.2.6-6.4.6H76.7c-2.3 0-4.7-.6-6.8.6-.4.2-1.6.1-1.9-.1-1.1-.9-2.5-.5-3.8-.5-3.3 0-6.6.2-9.9.6-6.3.6-12.8.6-19.2.8-.7 0-1.4-.1-2.1 0-.4.1-.8.4-1 .6-.6-.2-1.2-.6-1.8-.6-2.1-.1-4.1 0-6.2 0h-5.7c-1.8 0-3.4-.5-5.4-.1-4.6.9-9.4-1.1-14.2.1-.3-.2-.7-.4-.9-.6-1.9.2-3.6.5-5.4.6-2 .1-4.1 0-6.1 0-.1.1-.2.2-.4.2v8.2c3.3 0 6.5.1 9.6-.1 3.6-.2 6.9.9 10.4.7 3-.1 6 .3 8.9-.6 1.4-.5 3.4 0 5.1-.1 1.4-.1 3 .4 4.4-.5 1.7-1 3 .5 4.6.6 1.6.1 3-.8 4.5-.3 1.9.6 3.5-.3 5.1-.3 5.1 0 10-1.2 15.1-.9 2 .1 4.4.6 6.3-.6.3-.2 1.6-.2 1.9.1 1.3 1 2.9.4 4.3.6 2.7.4 5.2-.6 7.9-.7 6.7-.1 13.4.1 20.2-.1 6.8-.1 13.6.7 20.5-.6.4.2 1.1.5 1.7.7.6-.4 1-.6 1.3-.8 1.6.3 2.6.6 3.7.7 1.2.1 2.8.3 3.5-.1 1.7-.9 2.8.6 4.5.2 1.4-.3 3.1 0 4.6-.1 1.6-.1 3.2-.5 4.8-.7.3 0 .8 0 .9.2.9.8 2.2.5 3.3.5h21.7c.9 0 1.8.1 2.6 0 6.7-.9 8-.9 14.7 0 1.4.2 3.4.2 4.4-.3 2-1 3.1.2 4.6.4 2.1-1.3 4.2-.6 6.2.1.6-.4.9-.6 1.3-.8.4.2.7.4.9.5.9-.2 1.7-.6 2.4-.5 4 .2 7.9-.1 12 .5 4.5.7 9.3.1 14 .8 2.9.4 5.9 0 8.9.7 1.7.4 3.8.1 5.8-.5 1.7-.5 3.6 1.1 5.7.6 1.1-.2 2.5-.9 3.1-.6 2.3 1 4.3 0 6.4 0 2.8.1 5.2 1.1 7.4.2 1.5-.6 2.5.2 4.9.4 2.1 1.7 2.2-.6 3.8.8v-8.4zM273.9 156.2c-2.5 0-4.4-.1-7.3-.1h-6.2c-2.2 0-4.6 0-6.4-.1-2.3-.2-3.8.1-5.6.1-.6 0-1.2-.1-1.8-.1-2.6-.1-5.2-.2-7.8.1-1.9-.2-3.6-.2-8-.3-1.9 0-3.5.2-5.3.1-2-.1-4.1 0-6.2 0-1.3 0-2.5-.1-3.7-.2-1.1.1-2.2.2-3.2.2-1.4 0-2.3-.3-4.1-.1-1 .1-2.6-.1-3.9-.1-9.9-.1-19.8.2-29.6-.2h-51.7c-.8 0-1.5.1-2 .2-1-.1-2.2-.2-2.8-.1-2 .3-4.2.2-6.4.2H76.7c-2.3 0-4.7-.2-6.8.2-.4.1-1.6 0-1.9 0-1.1-.3-2.5-.2-3.8-.2-3.3 0-6.6.1-9.9.2-6.3.2-12.8.2-19.2.3H33c-.4 0-.8.1-1 .2-.6-.1-1.2-.2-1.8-.2H18.3c-1.8 0-3.4-.2-5.4 0-4.6.3-9.4-.3-14.2 0-.3-.1-.7-.1-.9-.2-1.9.1-3.6.2-5.4.2h-6.1c-.1 0-.2 0-.4.1v2.6h9.6c3.6-.1 6.9.3 10.4.2 3 0 6 .1 8.9-.2 1.4-.1 3.4 0 5.1 0 1.4 0 3 .1 4.4-.1 1.7-.3 3 .1 4.6.2 1.6 0 3-.3 4.5-.1 1.9.2 3.5-.1 5.1-.1 5.1 0 10-.4 15.1-.3 2 0 4.4.2 6.3-.2.3-.1 1.6-.1 1.9 0 1.3.3 2.9.1 4.3.2 2.7.1 5.2-.2 7.9-.2h20.2c6.8 0 13.6.2 20.5-.2.4.1 1.1.1 1.7.2.6-.1 1-.2 1.3-.3 1.6.1 2.6.2 3.7.2 1.2 0 2.8.1 3.5 0 1.7-.3 2.8.2 4.5.1 1.4-.1 3.1 0 4.6 0 1.6 0 3.2-.1 4.8-.2.3 0 .8 0 .9.1.9.3 2.2.2 3.3.2h24.3c6.7-.3 8-.3 14.7 0 1.4.1 3.4.1 4.4-.1 2-.3 3.1.1 4.6.1 2.1-.4 4.2-.2 6.2 0 .6-.1.9-.2 1.3-.3.4.1.7.1.9.2.9-.1 1.7-.2 2.4-.2 4 .1 7.9 0 12 .2 4.5.2 9.3 0 14 .3 2.9.1 5.9 0 8.9.2 1.7.1 3.8 0 5.8-.2 1.7-.2 3.6.4 5.7.2 1.1-.1 2.5-.3 3.1-.2 2.3.3 4.3 0 6.4 0 2.8 0 5.2-.2 7.4-.5 1.5-.2 2.7.6 5.1.6.6.2 2.2.1 2.9.2h.7v-2.8z"/><path class="st5" d="M14.3-101.2v13.5c0 2.2 0 4.6-.1 6.4-.2 2.3.1 3.8.1 5.6 0 .6-.1 1.2-.1 1.8-.1 2.6-.2 5.2.1 7.8-.2 1.9-.2 3.6-.3 8 0 1.9.2 3.5.1 5.3-.1 2 0 4.1 0 6.2 0 1.3-.1 2.5-.2 3.7.1 1.1.2 2.2.2 3.2 0 1.3-.3 2.3-.1 4.1.1 1-.1 2.6-.1 4-.1 9.8.2 19.8-.2 29.6v51.7c0 .7.1 1.5.2 2-.1 1-.2 2.2-.1 2.8.3 2 .2 4.2.2 6.4v35.2c0 2.3-.2 4.7.2 6.8.1.4 0 1.6 0 1.9-.3 1.1-.2 2.5-.2 3.8 0 3.3.1 6.6.2 9.9.2 6.3.2 12.8.3 19.2v2.1c0 .4.1.7.2 1-.1.6-.2 1.2-.2 1.8v11.9c0 1.8-.2 3.4 0 5.4.3 4.6-.3 9.4 0 14.2-.1.3-.1.7-.2.9.1 1.9.2 3.6.2 5.4v6.1c0 .1.1.2.1.4H17v-9.6c-.1-3.6.3-6.9.2-10.4 0-3 .1-6-.2-8.9-.1-1.4 0-3.4 0-5.1 0-1.4.1-3-.2-4.4-.3-1.7.1-3 .2-4.6 0-1.6-.3-3-.1-4.5.2-1.9-.1-3.5-.1-5.1 0-5.1-.4-10-.3-15.1 0-2 .2-4.4-.2-6.3-.1-.3-.1-1.6 0-1.9.3-1.3.1-2.9.2-4.3.1-2.7-.2-5.2-.2-7.9V78.6c0-6.8.2-13.6-.2-20.5.1-.4.1-1.1.2-1.7-.1-.6-.2-1-.3-1.3.1-1.6.2-2.6.2-3.7 0-1.2.1-2.8 0-3.5-.3-1.7.2-2.8.1-4.4-.1-1.4 0-3.1 0-4.6 0-1.6-.1-3.2-.2-4.8 0-.3 0-.8.1-.9.3-.9.2-2.2.2-3.3V8.2 5.6c-.3-6.7-.3-8 0-14.7.1-1.4.1-3.4-.1-4.4-.3-2 .1-3.1.1-4.6-.4-2.1-.2-4.2 0-6.2-.1-.6-.2-.9-.3-1.3.1-.4.1-.7.2-.9-.1-.9-.2-1.7-.2-2.4.1-4 0-7.9.2-12 .2-4.5 0-9.3.2-14 .1-2.9 0-5.9.2-8.9.1-1.7 0-3.8-.2-5.8-.2-1.7.4-3.6.2-5.7-.1-1.1-.3-2.5-.2-3.1.3-2.3 0-4.3 0-6.4 0-2.8.1-5.2-.2-7.5-.2-1.5.3-2.5.4-4.9.2-.6.1-2.9.3-3.6v-.1h-2.7zM.2-101.2c.1 2.4-.2 4.4-.1 7.3.1 2.1.1 4.1 0 6.2-.1 2.2.1 4.6-.4 6.4-.7 2.4.3 3.9.5 5.7 0 .6-.3 1.2-.4 1.8-.4 2.6-.8 5.3.3 7.8-.6 1.9-.6 3.6-.8 8-.1 1.9.5 3.5.3 5.3-.3 2 0 4.1-.1 6.2-.1 1.3-.4 2.5-.6 3.7.2 1.1.6 2.2.5 3.2-.1 1.3-1 2.3-.4 4.1.4 1-.2 2.6-.3 4-.3 9.8.8 19.7-.6 29.5v51.7c0 .7.3 1.5.5 2-.2 1-.7 2.2-.4 2.8.9 2 .6 4.2.6 6.4v35.2c0 2.3-.6 4.7.6 6.8.2.4.1 1.6-.1 1.9-.9 1.1-.5 2.5-.5 3.8 0 3.3.2 6.6.6 9.9.6 6.3.6 12.8.8 19.2 0 .7-.1 1.4 0 2.1.1.4.4.7.6 1-.2.6-.6 1.2-.6 1.8-.1 2.1 0 4.1 0 6.2v5.7c0 1.8-.5 3.4-.1 5.4.9 4.6-1.1 9.4.1 14.2-.2.3-.4.7-.6.9.2 1.9.5 3.6.6 5.4.1 2 0 4.1 0 6.1.1.1.2.2.2.4h8.2c0-3.3.1-6.5-.1-9.6-.2-3.6.9-6.9.7-10.4-.1-3 .3-6-.6-8.9-.4-1.4 0-3.4-.1-5.1-.1-1.4.4-3-.5-4.4-1-1.7.5-3 .6-4.6.1-1.6-.8-3-.3-4.5.6-1.9-.3-3.5-.3-5.1 0-5.1-1.2-10-.9-15.1.1-2 .6-4.4-.6-6.3-.2-.3-.2-1.6.1-1.9 1-1.3.4-2.9.6-4.3.4-2.7-.6-5.2-.7-7.9-.1-6.8.1-13.6 0-20.3-.2-6.7.6-13.6-.6-20.5.2-.4.5-1.1.7-1.7-.4-.6-.6-1-.8-1.3.3-1.6.6-2.6.7-3.7.1-1.2.3-2.8-.1-3.5-.9-1.8.6-2.9.2-4.5-.3-1.4 0-3.1-.1-4.6-.1-1.6-.5-3.2-.7-4.8 0-.3 0-.8.2-.9.8-.9.5-2.2.5-3.3V8c0-.9.1-1.8 0-2.6-.9-6.7-.9-8 0-14.7.2-1.4.2-3.4-.3-4.4-1-2 .2-3.1.4-4.6-1.3-2.1-.7-4.2.1-6.2-.4-.6-.6-.9-.8-1.3.2-.4.4-.7.5-.9-.2-.9-.6-1.7-.5-2.4.2-4-.1-7.9.5-12 .7-4.5.1-9.3.8-14 .4-2.8-.1-5.9.6-8.9.4-1.7.1-3.8-.5-5.8-.5-1.7 1.1-3.6.6-5.7-.2-1.1-.9-2.5-.6-3.1 1-2.3 0-4.3 0-6.4.1-2.8 1.1-5.2.2-7.4-.7-1.6.2-2.6.4-4.9 1.7-2.1-.6-2.2.8-3.8H.2zM-9.1-101.2c0 2.5-.1 4.4 0 7.3v6.2c0 2.2 0 4.6-.1 6.4-.2 2.3.1 3.8.1 5.6 0 .6-.1 1.2-.1 1.8-.1 2.6-.2 5.2.1 7.8-.2 1.9-.2 3.6-.3 8 0 1.9.2 3.5.1 5.3-.1 2 0 4.1 0 6.2 0 1.3-.1 2.5-.2 3.7.1 1.1.2 2.2.2 3.2 0 1.3-.3 2.3-.1 4.1.1 1-.1 2.6-.1 4-.2 9.9.1 19.8-.3 29.6v51.7c0 .7.1 1.5.2 2-.1 1-.2 2.2-.1 2.8.3 2 .2 4.2.2 6.4v35.2c0 2.3-.2 4.7.2 6.8.1.4 0 1.6 0 1.9-.3 1.1-.2 2.5-.2 3.8 0 3.3.1 6.6.2 9.9.2 6.3.2 12.8.3 19.2v2.1c0 .4.1.7.2 1-.1.6-.2 1.2-.2 1.8v11.9c0 1.8-.2 3.4 0 5.4.3 4.6-.3 9.4 0 14.2-.1.3-.1.7-.2.9.1 1.9.2 3.6.2 5.4v6.1c0 .1 0 .2.1.4h2.6v-9.6c-.1-3.6.3-6.9.2-10.4 0-3 .1-6-.2-8.9-.1-1.4 0-3.4 0-5.1 0-1.4.1-3-.2-4.4-.3-1.7.1-3 .2-4.6 0-1.6-.3-3-.1-4.5.2-1.9-.1-3.5-.1-5.1 0-5.1-.4-10-.3-15.1 0-2 .2-4.4-.2-6.3-.1-.3-.1-1.6 0-1.9.3-1.3.1-2.9.2-4.3.1-2.7-.2-5.2-.2-7.9V78.6c0-6.8.2-13.6-.2-20.5.1-.4.1-1.1.2-1.7-.1-.6-.2-1-.3-1.3.1-1.6.2-2.6.2-3.7 0-1.2.1-2.8 0-3.5-.4-1.9.1-3 0-4.6-.1-1.4 0-3.1 0-4.6 0-1.6-.1-3.2-.2-4.8 0-.3 0-.8.1-.9.3-.9.2-2.2.2-3.3V8 5.4c-.3-6.7-.3-8 0-14.7.1-1.4.1-3.4-.1-4.4-.3-2 .1-3.1.1-4.6-.4-2.1-.2-4.2 0-6.2-.1-.6-.2-.9-.3-1.3.1-.4.1-.7.2-.9-.1-.9-.2-1.7-.2-2.4.1-4 0-7.9.2-12 .2-4.5 0-9.3.2-14 .1-2.9 0-5.9.2-8.9.1-1.7 0-3.8-.2-5.8-.2-1.7.4-3.6.2-5.7-.1-1.1-.3-2.5-.2-3.1.3-2.3 0-4.3 0-6.4 0-2.8-.2-5.2-.5-7.4-.2-1.5.6-2.7.6-5.1.2-.6.1-2.2.2-2.9v-.7h-2.5zM50.4-101.2v13.5c0 2.2 0 4.6-.1 6.4-.2 2.3.1 3.8.1 5.6 0 .6-.1 1.2-.1 1.8-.1 2.6-.2 5.2.1 7.8-.2 1.9-.2 3.6-.3 8 0 1.9.2 3.5.1 5.3-.1 2 0 4.1 0 6.2 0 1.3-.1 2.5-.2 3.7.1 1.1.2 2.2.2 3.2 0 1.3-.3 2.3-.1 4.1.1 1-.1 2.6-.1 4-.1 9.8.2 19.8-.2 29.6v51.7c0 .7.1 1.5.2 2-.1 1-.2 2.2-.1 2.8.3 2 .2 4.2.2 6.4v35.2c0 2.3-.2 4.7.2 6.8.1.4 0 1.6 0 1.9-.3 1.1-.2 2.5-.2 3.8 0 3.3.1 6.6.2 9.9.2 6.3.2 12.8.3 19.2v2.1c0 .4.1.7.2 1-.1.6-.2 1.2-.2 1.8v11.9c0 1.8-.2 3.4 0 5.4.3 4.6-.3 9.4 0 14.2-.1.3-.1.7-.2.9.1 1.9.2 3.6.2 5.4v6.1c0 .1.1.2.1.4H53v-9.6c-.1-3.6.3-6.9.2-10.4 0-3 .1-6-.2-8.9-.1-1.4 0-3.4 0-5.1 0-1.4.1-3-.1-4.4-.3-1.7.1-3 .2-4.6 0-1.6-.3-3-.1-4.5.2-1.9-.1-3.5-.1-5.1 0-5.1-.4-10-.3-15.1 0-2 .2-4.4-.2-6.3-.1-.3-.1-1.6 0-1.9.3-1.3.1-2.9.2-4.3.1-2.7-.2-5.2-.2-7.9V78.6c0-6.8.2-13.6-.2-20.5.1-.4.1-1.1.2-1.7-.1-.6-.2-1-.3-1.3.1-1.6.2-2.6.2-3.7 0-1.2.1-2.8 0-3.5-.3-1.7.2-2.8.1-4.4-.1-1.4 0-3.1 0-4.6 0-1.6-.1-3.2-.2-4.8 0-.3 0-.8.1-.9.3-.9.2-2.2.2-3.3V8.2 5.6c-.3-6.7-.3-8 0-14.7.1-1.4.1-3.4-.1-4.4-.3-2 .1-3.1.1-4.6-.4-2.1-.2-4.2 0-6.2-.1-.6-.2-.9-.3-1.3.1-.4.1-.7.2-.9-.1-.9-.2-1.7-.2-2.4.1-4 0-7.9.2-12 .2-4.5 0-9.3.3-14 .1-2.9 0-5.9.2-8.9.1-1.7 0-3.8-.2-5.8-.2-1.7.4-3.6.2-5.7-.1-1.1-.3-2.5-.2-3.1.3-2.3 0-4.3 0-6.4 0-2.8.1-5.2-.2-7.5-.2-1.5.3-2.5.4-4.9.2-.6.1-2.9.3-3.6v-.1h-2.8zM36.3-101.2c.1 2.4-.2 4.4-.1 7.3.1 2.1.1 4.1 0 6.2-.1 2.2.1 4.6-.4 6.4-.7 2.3.3 3.8.4 5.6 0 .6-.3 1.2-.4 1.8-.3 2.6-.8 5.2.4 7.8-.6 1.9-.6 3.6-.8 8-.1 1.9.5 3.5.3 5.3-.3 2 0 4.1-.1 6.2-.1 1.3-.4 2.5-.6 3.7.2 1.1.6 2.2.5 3.2-.1 1.3-1 2.3-.4 4.1.4 1-.2 2.6-.3 4-.4 9.8.7 19.8-.7 29.6v51.7c0 .7.3 1.5.5 2-.2 1-.7 2.2-.4 2.8.9 2 .6 4.2.6 6.4v35.2c0 2.3-.6 4.7.6 6.8.2.4.1 1.6-.1 1.9-.9 1.1-.5 2.5-.5 3.8 0 3.3.2 6.6.6 9.9.6 6.3.6 12.8.8 19.2 0 .7-.1 1.4 0 2.1.1.4.4.7.6 1-.2.6-.6 1.2-.6 1.8-.1 2.1 0 4.1 0 6.2v5.7c0 1.8-.5 3.4-.1 5.4.9 4.6-1.1 9.4.1 14.2-.2.3-.4.7-.6.9.2 1.9.5 3.6.6 5.4.1 2 0 4.1 0 6.1.1.1.2.2.2.4h8.2c0-3.3.1-6.5-.1-9.6-.2-3.6.9-6.9.7-10.4-.1-3 .3-6-.6-8.9-.4-1.4 0-3.4-.1-5.1-.1-1.4.4-3-.5-4.4-1-1.7.5-3 .6-4.6.1-1.6-.8-3-.3-4.5.6-1.9-.3-3.5-.3-5.1 0-5.1-1.2-10-.9-15.1.1-2 .6-4.4-.6-6.3-.2-.3-.2-1.6.1-1.9 1-1.3.4-2.9.6-4.3.4-2.7-.6-5.2-.7-7.9-.1-6.7.1-13.4-.1-20.2 0-6.8.8-13.7-.4-20.6.2-.4.5-1.1.7-1.7-.4-.6-.6-1-.8-1.3.3-1.6.6-2.6.7-3.7.1-1.2.3-2.8-.1-3.5-.9-1.7.6-2.8.2-4.4-.3-1.4 0-3.1-.1-4.6-.1-1.6-.5-3.2-.7-4.8 0-.3 0-.8.2-.9.8-.9.5-2.2.5-3.3V8.1c0-.9.1-1.8 0-2.6-.9-6.7-.9-8 0-14.7.2-1.4.2-3.4-.3-4.4-1-2 .2-3.1.4-4.6-1.3-2.1-.6-4.2.1-6.2-.4-.6-.6-.9-.8-1.3.2-.4.4-.7.5-.9-.2-.9-.6-1.7-.5-2.4.2-4-.1-7.9.5-12 .7-4.5.1-9.3.8-14 .4-2.9-.1-5.9.7-8.9.4-1.7.1-3.8-.5-5.8-.5-1.7 1.1-3.6.6-5.7-.2-1.1-.9-2.5-.6-3.1 1-2.3 0-4.3 0-6.4.1-2.8 1.1-5.2.2-7.4-.6-1.5.2-2.5.4-4.9 1.7-2.1-.6-2.2.8-3.8h-8.6zM26.9-101.2c0 2.5-.1 4.4 0 7.3v6.2c0 2.2 0 4.6-.1 6.4-.2 2.3.1 3.8.1 5.6 0 .6-.1 1.2-.1 1.8-.1 2.6-.2 5.2.1 7.8-.2 1.9-.2 3.6-.3 8 0 1.9.2 3.5.1 5.3-.1 2 0 4.1 0 6.2 0 1.3-.1 2.5-.2 3.7.1 1.1.2 2.2.2 3.2 0 1.3-.3 2.3-.1 4.1.1 1-.1 2.6-.1 4-.1 9.8.2 19.8-.2 29.6v51.7c0 .7.1 1.5.2 2-.1 1-.2 2.2-.1 2.8.3 2 .2 4.2.2 6.4v35.2c0 2.3-.2 4.7.2 6.8.1.4 0 1.6 0 1.9-.3 1.1-.2 2.5-.2 3.8 0 3.3.1 6.6.2 9.9.2 6.3.2 12.8.3 19.2v2.1c0 .4.1.7.2 1-.1.6-.2 1.2-.2 1.8v11.9c0 1.8-.2 3.4 0 5.4.3 4.6-.3 9.4 0 14.2-.1.3-.1.7-.2.9.1 1.9.2 3.6.2 5.4v6.1c0 .1.1.2.1.4h2.6v-9.6c-.1-3.6.3-6.9.2-10.4 0-3 .1-6-.2-8.9-.1-1.4 0-3.4 0-5.1 0-1.4.1-3-.2-4.4-.3-1.7.1-3 .2-4.6 0-1.6-.3-3-.1-4.5.2-1.9-.1-3.5-.1-5.1 0-5.1-.4-10-.3-15.1 0-2 .2-4.4-.2-6.3-.1-.3-.1-1.6 0-1.9.3-1.3.1-2.9.2-4.3.1-2.7-.2-5.2-.2-7.9V78.6c0-6.8.2-13.6-.2-20.5.1-.4.1-1.1.2-1.7-.1-.6-.2-1-.3-1.3.1-1.6.2-2.6.2-3.7 0-1.2.1-2.8 0-3.5-.3-1.7.2-2.8.1-4.4-.1-1.4 0-3.1 0-4.6 0-1.6-.1-3.2-.2-4.8 0-.3 0-.8.1-.9.3-.9.2-2.2.2-3.3V8.2 5.6c-.3-6.7-.3-8 0-14.7.1-1.4.1-3.4-.1-4.4-.3-2 .1-3.1.1-4.6-.4-2.1-.2-4.2 0-6.2-.1-.6-.2-.9-.3-1.3.1-.4.1-.7.2-.9-.1-.9-.2-1.7-.2-2.4.1-4 0-7.9.2-12 .2-4.5 0-9.3.3-14 .1-2.9 0-5.9.2-8.9.1-1.7 0-3.8-.2-5.8-.2-1.7.4-3.6.2-5.7-.1-1.1-.3-2.5-.2-3.1.3-2.3 0-4.3 0-6.4 0-2.8-.2-5.2-.5-7.4-.2-1.5.5-2.7.6-5.1.2-.6.1-2.2.2-2.9v-.7h-2.8zM86.4-101.2v13.5c0 2.2 0 4.6-.1 6.4-.2 2.3.1 3.8.1 5.6 0 .6-.1 1.2-.1 1.8-.1 2.6-.2 5.2.1 7.8-.2 1.9-.2 3.6-.3 8 0 1.9.2 3.5.1 5.3-.1 2 0 4.1 0 6.2 0 1.3-.1 2.5-.2 3.7.1 1.1.2 2.2.2 3.2 0 1.3-.3 2.3-.1 4.1.1 1-.1 2.6-.1 4-.1 9.8.2 19.8-.2 29.6v51.7c0 .7.1 1.5.2 2-.1 1-.2 2.2-.1 2.8.3 2 .2 4.2.2 6.4v35.2c0 2.3-.2 4.7.2 6.8.1.4 0 1.6 0 1.9-.3 1.1-.2 2.5-.2 3.8 0 3.3.1 6.6.2 9.9.2 6.3.2 12.8.3 19.2v2.1c0 .4.1.7.2 1-.1.6-.2 1.2-.2 1.8v11.9c0 1.8-.2 3.4 0 5.4.3 4.6-.3 9.4 0 14.2-.1.3-.1.7-.2.9.1 1.9.2 3.6.2 5.4v6.1c0 .1 0 .2.1.4h2.6v-9.6c-.1-3.6.3-6.9.2-10.4 0-3 .1-6-.2-8.9-.1-1.4 0-3.4 0-5.1 0-1.4.1-3-.1-4.4-.3-1.7.1-3 .2-4.6 0-1.6-.3-3-.1-4.5.2-1.9-.1-3.5-.1-5.1 0-5.1-.4-10-.3-15.1 0-2 .2-4.4-.2-6.3-.1-.3-.1-1.6 0-1.9.3-1.3.1-2.9.2-4.3.1-2.7-.2-5.2-.2-7.9V78.6c0-6.8.2-13.6-.2-20.5.1-.4.1-1.1.2-1.7-.1-.6-.2-1-.3-1.3.1-1.6.2-2.6.2-3.7 0-1.2.1-2.8 0-3.5-.3-1.7.2-2.8.1-4.4-.1-1.4 0-3.1 0-4.6 0-1.6-.1-3.2-.2-4.8 0-.3 0-.8.1-.9.3-.9.2-2.2.2-3.3V8.2 5.6c-.3-6.7-.3-8 0-14.7.1-1.4.1-3.4-.1-4.4-.3-2 .1-3.1.1-4.6-.4-2.1-.2-4.2 0-6.2-.1-.6-.2-.9-.3-1.3.1-.4.1-.7.2-.9-.1-.9-.2-1.7-.2-2.4.1-4 0-7.9.2-12 .2-4.5 0-9.3.3-14 .1-2.9 0-5.9.2-8.9.1-1.7 0-3.8-.2-5.8-.2-1.7.4-3.6.2-5.7-.1-1.1-.3-2.5-.2-3.1.3-2.3 0-4.3 0-6.4 0-2.8.1-5.2-.2-7.5-.2-1.5.3-2.5.4-4.9.2-.6.1-2.9.3-3.6v-.1h-3.1zM72.3-101.2c.1 2.4-.1 4.4-.1 7.3.1 2.1.1 4.1 0 6.2-.1 2.2.1 4.6-.4 6.4-.7 2.3.3 3.8.4 5.6 0 .6-.3 1.2-.4 1.8-.3 2.6-.8 5.2.4 7.8-.6 1.9-.6 3.6-.8 8-.1 1.9.5 3.5.3 5.3-.3 2 0 4.1-.1 6.2-.1 1.3-.4 2.5-.6 3.7.2 1.1.6 2.2.5 3.2-.1 1.3-1 2.3-.4 4.1.4 1-.2 2.6-.3 4-.4 9.8.7 19.8-.7 29.6v51.7c0 .7.3 1.5.5 2-.2 1-.7 2.2-.4 2.8.9 2 .6 4.2.6 6.4v35.2c0 2.3-.6 4.7.6 6.8.2.4.1 1.6-.1 1.9-.9 1.1-.5 2.5-.6 3.8 0 3.3.2 6.6.6 9.9.6 6.3.6 12.8.8 19.2 0 .7-.1 1.4 0 2.1.1.4.4.7.6 1-.2.6-.6 1.2-.6 1.8-.1 2.1 0 4.1 0 6.2v5.7c0 1.8-.5 3.4-.1 5.4.9 4.6-1.1 9.4.1 14.2-.2.3-.4.7-.6.9.2 1.9.5 3.6.6 5.4.1 2 0 4.1 0 6.1.1.1.2.2.2.4h8.2c0-3.3.1-6.5-.1-9.6-.2-3.6.9-6.9.7-10.4-.1-3 .3-6-.6-8.9-.5-1.4 0-3.4-.1-5.1-.1-1.4.4-3-.5-4.4-1-1.7.5-3 .6-4.6.1-1.6-.8-3-.3-4.5.6-1.9-.3-3.5-.3-5.1 0-5.1-1.2-10-.9-15.1.1-2 .6-4.4-.6-6.3-.2-.3-.2-1.6.1-1.9 1-1.3.4-2.9.6-4.3.4-2.7-.6-5.2-.7-7.9-.1-6.7.1-13.4-.1-20.2.1-6.8.9-13.7-.3-20.6.2-.4.5-1.1.7-1.7-.4-.6-.6-1-.8-1.3.3-1.6.6-2.6.7-3.7.1-1.2.3-2.8-.1-3.5-.9-1.7.6-2.8.2-4.4-.3-1.4 0-3.1-.1-4.6-.1-1.6-.5-3.2-.7-4.8 0-.3 0-.8.2-.9.8-.9.5-2.2.5-3.3V8.1c0-.9.1-1.8 0-2.6-.9-6.7-.9-8 0-14.7.2-1.4.2-3.4-.3-4.4-1-2 .2-3.1.4-4.6-1.3-2.1-.7-4.2.1-6.2-.4-.6-.6-.9-.8-1.3.2-.4.4-.7.5-.9-.2-.9-.6-1.7-.5-2.4.2-4-.1-7.9.5-12 .7-4.5.1-9.3.8-14 .4-2.9-.1-5.9.7-8.9.4-1.7.1-3.8-.5-5.8-.5-1.7 1.1-3.6.6-5.7-.2-1.1-.9-2.5-.6-3.1 1-2.3 0-4.3 0-6.4.1-2.8 1.1-5.2.2-7.4-.8-1.7.1-2.7.3-5 1.7-2.1-.6-2.2.8-3.8h-8.5zM63-101.2c0 2.5-.1 4.4 0 7.3v6.2c0 2.2 0 4.6-.1 6.4-.2 2.3.1 3.8.1 5.6 0 .6-.1 1.2-.1 1.8-.1 2.6-.2 5.2.1 7.8-.2 1.9-.2 3.6-.3 8 0 1.9.2 3.5.1 5.3-.1 2 0 4.1 0 6.2 0 1.3-.1 2.5-.2 3.7.1 1.1.2 2.2.2 3.2 0 1.3-.3 2.3-.1 4.1.1 1-.1 2.6-.1 4-.1 9.8.2 19.8-.2 29.6v51.7c0 .7.1 1.5.2 2-.1 1-.2 2.2-.1 2.8.3 2 .2 4.2.2 6.4v35.2c0 2.3-.2 4.7.2 6.8.1.4 0 1.6 0 1.9-.3 1.1-.2 2.5-.2 3.8 0 3.3.1 6.6.2 9.9.2 6.3.2 12.8.3 19.2v2.1c0 .4.1.7.2 1-.1.6-.2 1.2-.2 1.8v11.9c0 1.8-.2 3.4 0 5.4.3 4.6-.3 9.4 0 14.2-.1.3-.1.7-.2.9.1 1.9.2 3.6.2 5.4v6.1c0 .1.1.2.1.4h2.6v-9.6c-.1-3.6.3-6.9.2-10.4 0-3 .1-6-.2-8.9-.1-1.4 0-3.4 0-5.1 0-1.4.1-3-.2-4.4-.3-1.7.1-3 .2-4.6 0-1.6-.3-3-.1-4.5.2-1.9-.1-3.5-.1-5.1 0-5.1-.4-10-.3-15.1 0-2 .2-4.4-.2-6.3-.1-.3-.1-1.6 0-1.9.3-1.3.1-2.9.2-4.3.1-2.7-.2-5.2-.2-7.9V78.6c0-6.8.2-13.6-.2-20.5.1-.4.1-1.1.2-1.7-.1-.6-.2-1-.3-1.3.1-1.6.2-2.6.2-3.7 0-1.2.1-2.8 0-3.5-.3-1.7.2-2.8.1-4.4-.1-1.4 0-3.1 0-4.6 0-1.6-.1-3.2-.2-4.8 0-.3 0-.8.1-.9.3-.9.2-2.2.2-3.3V8.2 5.6c-.3-6.7-.3-8 0-14.7.1-1.4.1-3.4-.1-4.4-.3-2 .1-3.1.1-4.6-.4-2.1-.2-4.2 0-6.2-.1-.6-.2-.9-.3-1.3.1-.4.1-.7.2-.9-.1-.9-.2-1.7-.2-2.4.1-4 0-7.9.2-12 .2-4.5 0-9.3.2-14 .1-2.9 0-5.9.2-8.9.1-1.7 0-3.8-.2-5.8-.2-1.7.4-3.6.2-5.7-.1-1.1-.3-2.5-.2-3.1.3-2.3 0-4.3 0-6.4 0-2.8-.2-5.2-.5-7.4-.2-1.5.6-2.7.6-5.1.2-.6.1-2.2.2-2.9v-.7H63zM122.5-101.2v13.5c0 2.2 0 4.6-.1 6.4-.2 2.3.1 3.8.1 5.6 0 .6-.1 1.2-.1 1.8-.1 2.6-.2 5.2.1 7.8-.2 1.9-.2 3.6-.3 8 0 1.9.2 3.5.1 5.3-.1 2 0 4.1 0 6.2 0 1.3-.1 2.5-.2 3.7.1 1.1.2 2.2.2 3.2 0 1.3-.3 2.3-.1 4.1.1 1-.1 2.6-.1 4-.1 9.8.2 19.8-.2 29.6v51.7c0 .7.1 1.5.2 2-.1 1-.2 2.2-.1 2.8.3 2 .2 4.2.2 6.4v35.2c0 2.3-.2 4.7.2 6.8.1.4 0 1.6 0 1.9-.3 1.1-.2 2.5-.2 3.8 0 3.3.1 6.6.2 9.9.2 6.3.2 12.8.3 19.2v2.1c0 .4.1.7.2 1-.1.6-.2 1.2-.2 1.8v11.9c0 1.8-.2 3.4 0 5.4.3 4.6-.3 9.4 0 14.2-.1.3-.1.7-.2.9.1 1.9.2 3.6.2 5.4v6.1c0 .1 0 .2.1.4h2.6v-9.6c-.1-3.6.3-6.9.2-10.4 0-3 .1-6-.2-8.9-.1-1.4 0-3.4 0-5.1 0-1.4.1-3-.1-4.4-.3-1.7.1-3 .2-4.6 0-1.6-.3-3-.1-4.5.2-1.9-.1-3.5-.1-5.1 0-5.1-.4-10-.3-15.1 0-2 .2-4.4-.2-6.3-.1-.3-.1-1.6 0-1.9.3-1.3.1-2.9.2-4.3.1-2.7-.2-5.2-.2-7.9V78.6c0-6.8.2-13.6-.2-20.5.1-.4.1-1.1.2-1.7-.1-.6-.2-1-.3-1.3.1-1.6.2-2.6.2-3.7 0-1.2.1-2.8 0-3.5-.3-1.7.2-2.8.1-4.4-.1-1.4 0-3.1 0-4.6 0-1.6-.1-3.2-.2-4.8 0-.3 0-.8.1-.9.3-.9.2-2.2.2-3.3V8.2 5.6c-.3-6.7-.3-8 0-14.7.1-1.4.1-3.4-.1-4.4-.3-2 .1-3.1.1-4.6-.4-2.1-.2-4.2 0-6.2-.1-.6-.2-.9-.3-1.3.1-.4.1-.7.2-.9-.1-.9-.2-1.7-.2-2.4.1-4 0-7.9.2-12 .2-4.5 0-9.3.3-14 .1-2.9 0-5.9.2-8.9.1-1.7 0-3.8-.2-5.8-.2-1.7.4-3.6.2-5.7-.1-1.1-.3-2.5-.2-3.1.3-2.3 0-4.3 0-6.4 0-2.8.1-5.2-.2-7.5-.2-1.5.3-2.5.4-4.9.2-.6.1-2.9.3-3.6v-.1h-3.1zM108.4-101.2c.1 2.4-.1 4.4-.1 7.3.1 2.1.1 4.1 0 6.2-.1 2.2.1 4.6-.4 6.4-.7 2.3.3 3.8.4 5.6 0 .6-.3 1.2-.4 1.8-.3 2.6-.8 5.2.4 7.8-.6 1.9-.6 3.6-.8 8-.1 1.9.5 3.5.3 5.3-.3 2 0 4.1-.1 6.2-.1 1.3-.4 2.5-.6 3.7.2 1.1.6 2.2.5 3.2-.1 1.3-1 2.3-.4 4.1.4 1-.2 2.6-.3 4-.4 9.8.7 19.8-.7 29.6v51.7c0 .7.3 1.5.5 2-.2 1-.7 2.2-.4 2.8.9 2 .6 4.2.6 6.4v35.2c0 2.3-.6 4.7.6 6.8.2.4.1 1.6-.1 1.9-.9 1.1-.5 2.5-.6 3.8 0 3.3.2 6.6.6 9.9.6 6.3.6 12.8.8 19.2 0 .7-.1 1.4 0 2.1.1.4.4.7.6 1-.2.6-.6 1.2-.6 1.8-.1 2.1 0 4.1 0 6.2v5.7c0 1.8-.5 3.4-.1 5.4.9 4.6-1.1 9.4.1 14.2-.2.3-.4.7-.6.9.2 1.9.5 3.6.6 5.4.1 2 0 4.1 0 6.1.1.1.2.2.2.4h8.2c0-3.3.1-6.5-.1-9.6-.2-3.6.9-6.9.7-10.4-.1-3 .3-6-.6-8.9-.5-1.4 0-3.4-.1-5.1-.1-1.4.4-3-.5-4.4-1-1.7.5-3 .6-4.6.1-1.6-.8-3-.3-4.5.6-1.9-.3-3.5-.3-5.1 0-5.1-1.2-10-.9-15.1.1-2 .6-4.4-.6-6.3-.2-.3-.2-1.6.1-1.9 1-1.3.4-2.9.6-4.3.4-2.7-.6-5.2-.7-7.9-.1-6.7.1-13.4-.1-20.2-.1-6.8.6-13.6-.6-20.5.2-.4.5-1.1.7-1.7-.4-.6-.6-1-.8-1.3.3-1.6.6-2.6.7-3.7.1-1.2.3-2.8-.1-3.5-.9-1.7.6-2.8.2-4.4-.3-1.4 0-3.1-.1-4.6-.1-1.6-.5-3.2-.7-4.8 0-.3 0-.8.2-.9.8-.9.5-2.2.5-3.3V8.2c0-.9.1-1.8 0-2.6-.9-6.7-.9-8 0-14.7.2-1.4.2-3.4-.3-4.4-1-2 .2-3.1.4-4.6-1.3-2.1-.6-4.2.1-6.2-.4-.6-.6-.9-.8-1.3.2-.4.4-.7.5-.9-.2-.9-.6-1.7-.5-2.4.2-4-.1-7.9.5-12 .7-4.5.1-9.3.8-14 .4-2.9-.1-5.9.7-8.9.4-1.7.1-3.8-.5-5.8-.5-1.7 1.1-3.6.6-5.7-.2-1.1-.9-2.5-.6-3.1 1-2.3 0-4.3 0-6.4.1-2.8 1.1-5.2.2-7.4-.6-1.5.2-2.5.4-4.9 1.7-2.1-.6-2.2.8-3.8h-8.3zM99-101.2c0 2.5-.1 4.4 0 7.3v6.2c0 2.2 0 4.6-.1 6.4-.2 2.3.1 3.8.1 5.6 0 .6-.1 1.2-.1 1.8-.1 2.6-.2 5.2.1 7.8-.2 1.9-.2 3.6-.3 8 0 1.9.2 3.5.1 5.3-.1 2 0 4.1 0 6.2 0 1.3-.1 2.5-.2 3.7.1 1.1.2 2.2.2 3.2 0 1.3-.3 2.3-.1 4.1.1 1-.1 2.6-.1 4-.1 9.8.2 19.8-.2 29.6v51.7c0 .7.1 1.5.2 2-.1 1-.2 2.2-.1 2.8.3 2 .2 4.2.2 6.4v35.2c0 2.3-.2 4.7.2 6.8.1.4 0 1.6 0 1.9-.3 1.1-.2 2.5-.2 3.8 0 3.3.1 6.6.2 9.9.2 6.3.2 12.8.3 19.2v2.1c0 .4.1.7.2 1-.1.6-.2 1.2-.2 1.8v11.9c0 1.8-.2 3.4 0 5.4.3 4.6-.3 9.4 0 14.2-.1.3-.1.7-.2.9.1 1.9.2 3.6.2 5.4v6.1c0 .1.1.2.1.4h2.6v-9.6c-.1-3.6.3-6.9.2-10.4 0-3 .1-6-.2-8.9-.1-1.4 0-3.4 0-5.1 0-1.4.1-3-.2-4.4-.3-1.7.1-3 .2-4.6 0-1.6-.3-3-.1-4.5.2-1.9-.1-3.5-.1-5.1 0-5.1-.4-10-.3-15.1 0-2 .2-4.4-.2-6.3-.1-.3-.1-1.6 0-1.9.3-1.3.1-2.9.2-4.3.1-2.7-.2-5.2-.2-7.9V78.6c0-6.8.2-13.6-.2-20.5.1-.4.1-1.1.2-1.7-.1-.6-.2-1-.3-1.3.1-1.6.2-2.6.2-3.7 0-1.2.1-2.8 0-3.5-.3-1.7.2-2.8.1-4.4-.1-1.4 0-3.1 0-4.6 0-1.6-.1-3.2-.2-4.8 0-.3 0-.8.1-.9.3-.9.2-2.2.2-3.3V8.2 5.6c-.3-6.7-.3-8 0-14.7.1-1.4.1-3.4-.1-4.4-.3-2 .1-3.1.1-4.6-.4-2.1-.2-4.2 0-6.2-.1-.6-.2-.9-.3-1.3.1-.4.1-.7.2-.9-.1-.9-.2-1.7-.2-2.4.1-4 0-7.9.2-12 .2-4.5 0-9.3.2-14 .1-2.9 0-5.9.2-8.9.1-1.7 0-3.8-.2-5.8-.2-1.7.4-3.6.2-5.7-.1-1.1-.3-2.5-.2-3.1.3-2.3 0-4.3 0-6.4 0-2.8-.2-5.2-.5-7.4-.2-1.5.6-2.7.6-5.1.2-.6.1-2.2.2-2.9v-.7H99zM158.5-101.2v13.5c0 2.2 0 4.6-.1 6.4-.2 2.3.1 3.8.1 5.6 0 .6-.1 1.2-.1 1.8-.1 2.6-.2 5.2.1 7.8-.2 1.9-.2 3.6-.3 8 0 1.9.2 3.5.1 5.3-.1 2 0 4.1 0 6.2 0 1.3-.1 2.5-.2 3.7.1 1.1.2 2.2.2 3.2 0 1.3-.3 2.3-.1 4.1.1 1-.1 2.6-.1 4-.1 9.8.2 19.8-.2 29.6v51.7c0 .7.1 1.5.1 2-.1 1-.2 2.2-.1 2.8.3 2 .2 4.2.2 6.4v35.2c0 2.3-.2 4.7.2 6.8.1.4 0 1.6 0 1.9-.3 1.1-.2 2.5-.2 3.8 0 3.3.1 6.6.2 9.9.2 6.3.2 12.8.3 19.2v2.1c0 .4.1.7.2 1-.1.6-.2 1.2-.2 1.8v11.9c0 1.8-.2 3.4 0 5.4.3 4.6-.3 9.4 0 14.2-.1.3-.1.7-.2.9.1 1.9.2 3.6.2 5.4v6.1c0 .1 0 .2.1.4h2.6v-9.6c-.1-3.6.3-6.9.2-10.4 0-3 .1-6-.2-8.9-.1-1.4 0-3.4 0-5.1 0-1.4.1-3-.2-4.4-.3-1.7.1-3 .2-4.6 0-1.6-.3-3-.1-4.5.2-1.9-.1-3.5-.1-5.1 0-5.1-.4-10-.3-15.1 0-2 .2-4.4-.2-6.3-.1-.3-.1-1.6 0-1.9.3-1.3.1-2.9.2-4.3.1-2.7-.2-5.2-.2-7.9V78.6c0-6.8.2-13.6-.2-20.5.1-.4.1-1.1.2-1.7-.1-.6-.2-1-.3-1.3.1-1.6.2-2.6.2-3.7 0-1.2.1-2.8 0-3.5-.3-1.7.2-2.8.1-4.4-.1-1.4 0-3.1 0-4.6 0-1.6-.1-3.2-.2-4.8 0-.3 0-.8.1-.9.3-.9.2-2.2.2-3.3V8.2 5.6c-.3-6.7-.3-8 0-14.7.1-1.4.1-3.4-.1-4.4-.3-2 .1-3.1.1-4.6-.4-2.1-.2-4.2 0-6.2-.1-.6-.2-.9-.3-1.3.1-.4.1-.7.2-.9-.1-.9-.2-1.7-.2-2.4.1-4 0-7.9.2-12 .2-4.5 0-9.3.3-14 .1-2.9 0-5.9.2-8.9.1-1.7 0-3.8-.2-5.8-.2-1.7.4-3.6.2-5.7-.1-1.1-.3-2.5-.2-3.1.3-2.3 0-4.3 0-6.4 0-2.8.1-5.2-.2-7.5-.2-1.5.3-2.5.4-4.9.2-.6.1-2.9.3-3.6v-.1h-2.9zM144.4-101.2c.1 2.4-.1 4.4-.1 7.3.1 2.1.1 4.1 0 6.2-.1 2.2.1 4.6-.4 6.4-.7 2.3.3 3.8.4 5.6 0 .6-.3 1.2-.4 1.8-.3 2.6-.8 5.2.4 7.8-.6 1.9-.6 3.6-.8 8-.1 1.9.5 3.5.3 5.3-.3 2 0 4.1-.1 6.2-.1 1.3-.4 2.5-.6 3.7.2 1.1.6 2.2.5 3.2-.1 1.3-1 2.3-.4 4.1.4 1-.2 2.6-.3 4-.4 9.8.7 19.8-.7 29.6v51.7c0 .7.3 1.5.5 2-.2 1-.7 2.2-.4 2.8.9 2 .6 4.2.6 6.4v35.2c0 2.3-.6 4.7.6 6.8.2.4.1 1.6-.1 1.9-.9 1.1-.5 2.5-.5 3.8 0 3.3.2 6.6.6 9.9.6 6.3.6 12.8.8 19.2 0 .7-.1 1.4 0 2.1.1.4.4.7.6 1-.2.6-.6 1.2-.6 1.8-.1 2.1 0 4.1 0 6.2v5.7c0 1.8-.5 3.4-.1 5.4.9 4.6-1.1 9.4.1 14.2-.2.3-.4.7-.6.9.2 1.9.5 3.6.6 5.4.1 2 0 4.1 0 6.1.1.1.2.2.2.4h8.2c0-3.3.1-6.5-.1-9.6-.2-3.6.9-6.9.7-10.4-.1-3 .3-6-.6-8.9-.5-1.4 0-3.4-.1-5.1-.1-1.4.4-3-.5-4.4-1-1.7.5-3 .6-4.6.1-1.6-.8-3-.3-4.5.6-1.9-.3-3.5-.3-5.1 0-5.1-1.2-10-.9-15.1.1-2 .6-4.4-.6-6.3-.2-.3-.2-1.6.1-1.9 1-1.3.4-2.9.6-4.3.4-2.7-.6-5.2-.7-7.9-.1-6.7.1-13.4-.1-20.2-.1-6.8.7-13.6-.6-20.5.2-.4.5-1.1.7-1.7-.4-.6-.6-1-.8-1.3.3-1.6.6-2.6.7-3.7.1-1.2.3-2.8-.1-3.5-.9-1.7.6-2.8.2-4.4-.3-1.4 0-3.1-.1-4.6-.1-1.6-.5-3.2-.7-4.8 0-.3 0-.8.2-.9.8-.9.5-2.2.5-3.3V8.2c0-.9.1-1.8 0-2.6-.9-6.7-.9-8 0-14.7.2-1.4.2-3.4-.3-4.4-1-2 .2-3.1.4-4.6-1.3-2.1-.6-4.2.1-6.2-.4-.6-.6-.9-.8-1.3.2-.4.4-.7.5-.9-.2-.9-.6-1.7-.5-2.4.2-4-.1-7.9.5-12 .7-4.5.1-9.3.8-14 .4-2.9-.1-5.9.7-8.9.4-1.7.1-3.8-.5-5.8-.5-1.7 1.1-3.6.6-5.7-.2-1.1-.9-2.5-.6-3.1 1-2.3 0-4.3 0-6.4.1-2.8 1.1-5.2.2-7.4-.6-1.5.2-2.5.4-4.9 1.7-2.1-.6-2.2.8-3.8h-8.4zM135.1-101.2c0 2.5-.1 4.4 0 7.3v6.2c0 2.2 0 4.6-.1 6.4-.2 2.3.1 3.8.1 5.6 0 .6-.1 1.2-.1 1.8-.1 2.6-.2 5.2.1 7.8-.2 1.9-.2 3.6-.3 8 0 1.9.2 3.5.1 5.3-.1 2 0 4.1 0 6.2 0 1.3-.1 2.5-.2 3.7.1 1.1.2 2.2.2 3.2 0 1.3-.3 2.3-.1 4.1.1 1-.1 2.6-.1 4-.1 9.8.2 19.8-.2 29.6v51.7c0 .7.1 1.5.2 2-.1 1-.2 2.2-.1 2.8.3 2 .2 4.2.2 6.4v35.2c0 2.3-.2 4.7.2 6.8.1.4 0 1.6 0 1.9-.3 1.1-.2 2.5-.2 3.8 0 3.3.1 6.6.2 9.9.2 6.3.2 12.8.3 19.2v2.1c0 .4.1.7.2 1-.1.6-.2 1.2-.2 1.8v11.9c0 1.8-.2 3.4 0 5.4.3 4.6-.3 9.4 0 14.2-.1.3-.1.7-.2.9.1 1.9.2 3.6.2 5.4v6.1c0 .1 0 .2.1.4h2.6v-9.6c-.1-3.6.3-6.9.2-10.4 0-3 .1-6-.2-8.9-.1-1.4 0-3.4 0-5.1 0-1.4.1-3-.2-4.4-.3-1.7.1-3 .2-4.6 0-1.6-.3-3-.1-4.5.2-1.9-.1-3.5-.1-5.1 0-5.1-.4-10-.3-15.1 0-2 .2-4.4-.2-6.3-.1-.3-.1-1.6 0-1.9.3-1.3.1-2.9.2-4.3.1-2.7-.2-5.2-.2-7.9V78.6c0-6.8.2-13.6-.2-20.5.1-.4.1-1.1.2-1.7-.1-.6-.2-1-.3-1.3.1-1.6.2-2.6.2-3.7 0-1.2.1-2.8 0-3.5-.3-1.7.2-2.8.1-4.4-.1-1.4 0-3.1 0-4.6 0-1.6-.1-3.2-.2-4.8 0-.3 0-.8.1-.9.3-.9.2-2.2.2-3.3V8.2 5.6c-.3-6.7-.3-8 0-14.7.1-1.4.1-3.4-.1-4.4-.3-2 .1-3.1.1-4.6-.4-2.1-.2-4.2 0-6.2-.1-.6-.2-.9-.3-1.3.1-.4.1-.7.2-.9-.1-.9-.2-1.7-.2-2.4.1-4 0-7.9.2-12 .2-4.5 0-9.3.2-14 .1-2.9 0-5.9.2-8.9.1-1.7 0-3.8-.2-5.8-.2-1.7.4-3.6.2-5.7-.1-1.1-.3-2.5-.2-3.1.3-2.3 0-4.3 0-6.4 0-2.8-.2-5.2-.5-7.4-.2-1.5.6-2.7.6-5.1.2-.6.1-2.2.2-2.9v-.7h-2.7zM194.6-101.2v13.5c0 2.2 0 4.6-.1 6.4-.2 2.3.1 3.8.1 5.6 0 .6-.1 1.2-.1 1.8-.1 2.6-.2 5.2.1 7.8-.2 1.9-.2 3.6-.3 8 0 1.9.2 3.5.1 5.3-.1 2 0 4.1 0 6.2 0 1.3-.1 2.5-.2 3.7.1 1.1.2 2.2.2 3.2 0 1.3-.3 2.3-.1 4.1.1 1-.1 2.6-.1 4-.1 9.8.2 19.8-.2 29.6v51.7c0 .7.1 1.5.1 2-.1 1-.2 2.2-.1 2.8.3 2 .2 4.2.2 6.4v35.2c0 2.3-.2 4.7.2 6.8.1.4 0 1.6 0 1.9-.3 1.1-.2 2.5-.2 3.8 0 3.3.1 6.6.2 9.9.2 6.3.2 12.8.3 19.2v2.1c0 .4.1.7.2 1-.1.6-.2 1.2-.2 1.8v11.9c0 1.8-.2 3.4 0 5.4.3 4.6-.3 9.4 0 14.2-.1.3-.1.7-.2.9.1 1.9.2 3.6.2 5.4v6.1c0 .1.1.2.1.4h2.6v-9.6c-.1-3.6.3-6.9.2-10.4 0-3 .1-6-.2-8.9-.1-1.4 0-3.4 0-5.1 0-1.4.1-3-.2-4.4-.3-1.7.1-3 .2-4.6 0-1.6-.3-3-.1-4.5.2-1.9-.1-3.5-.1-5.1 0-5.1-.4-10-.3-15.1 0-2 .2-4.4-.2-6.3-.1-.3-.1-1.6 0-1.9.3-1.3.1-2.9.2-4.3.1-2.7-.2-5.2-.2-7.9V78.6c0-6.8.2-13.6-.2-20.5.1-.4.1-1.1.2-1.7-.1-.6-.2-1-.3-1.3.1-1.6.2-2.6.2-3.7 0-1.2.1-2.8 0-3.5-.3-1.7.2-2.8.1-4.4-.1-1.4 0-3.1 0-4.6 0-1.6-.1-3.2-.2-4.8 0-.3 0-.8.1-.9.3-.9.2-2.2.2-3.3V8.2 5.6c-.3-6.7-.3-8 0-14.7.1-1.4.1-3.4-.1-4.4-.3-2 .1-3.1.1-4.6-.4-2.1-.2-4.2 0-6.2-.1-.6-.2-.9-.3-1.3.1-.4.1-.7.2-.9-.1-.9-.2-1.7-.2-2.4.1-4 0-7.9.2-12 .2-4.5 0-9.3.2-14 .1-2.9 0-5.9.2-8.9.1-1.7 0-3.8-.2-5.8-.2-1.7.4-3.6.2-5.7-.1-1.1-.3-2.5-.2-3.1.3-2.3 0-4.3 0-6.4 0-2.8.1-5.2-.2-7.5-.2-1.5.3-2.5.4-4.9.2-.6.1-2.9.3-3.6v-.1h-2.8zM180.5-101.2c.1 2.4-.1 4.4-.1 7.3.1 2.1.1 4.1 0 6.2-.1 2.2.1 4.6-.4 6.4-.7 2.3.3 3.8.4 5.6 0 .6-.3 1.2-.4 1.8-.3 2.6-.8 5.2.4 7.8-.6 1.9-.6 3.6-.8 8-.1 1.9.5 3.5.3 5.3-.3 2 0 4.1-.1 6.2-.1 1.3-.4 2.5-.6 3.7.2 1.1.6 2.2.5 3.2-.1 1.3-1 2.3-.4 4.1.4 1-.2 2.6-.3 4-.4 9.8.7 19.8-.7 29.6v51.7c0 .7.3 1.5.5 2-.2 1-.7 2.2-.4 2.8.9 2 .6 4.2.6 6.4v35.2c0 2.3-.6 4.7.6 6.8.2.4.1 1.6-.1 1.9-.9 1.1-.5 2.5-.5 3.8 0 3.3.2 6.6.6 9.9.6 6.3.6 12.8.8 19.2 0 .7-.1 1.4 0 2.1.1.4.4.7.6 1-.2.6-.6 1.2-.6 1.8-.1 2.1 0 4.1 0 6.2v5.7c0 1.8-.5 3.4-.1 5.4.9 4.6-1.1 9.4.1 14.2-.2.3-.4.7-.6.9.2 1.9.5 3.6.6 5.4.1 2 0 4.1 0 6.1.1.1.2.2.2.4h8.2c0-3.3.1-6.5-.1-9.6-.2-3.6.9-6.9.7-10.4-.1-3 .3-6-.6-8.9-.5-1.4 0-3.4-.1-5.1-.1-1.4.4-3-.5-4.4-1-1.7.5-3 .6-4.6.1-1.6-.8-3-.3-4.5.6-1.9-.3-3.5-.3-5.1 0-5.1-1.2-10-.9-15.1.1-2 .6-4.4-.6-6.3-.2-.3-.2-1.6.1-1.9 1-1.3.4-2.9.6-4.3.4-2.7-.6-5.2-.7-7.9-.1-6.7.1-13.4-.1-20.2-.1-6.8.7-13.6-.6-20.5.2-.4.5-1.1.7-1.7-.4-.6-.6-1-.8-1.3.3-1.6.6-2.6.7-3.7.1-1.2.3-2.8-.1-3.5-.9-1.7.6-2.8.2-4.4-.3-1.4 0-3.1-.1-4.6-.1-1.6-.5-3.2-.7-4.8 0-.3 0-.8.2-.9.8-.9.5-2.2.5-3.3V8.2c0-.9.1-1.8 0-2.6-.9-6.7-.9-8 0-14.7.2-1.4.2-3.4-.3-4.4-1-2 .2-3.1.4-4.6-1.3-2.1-.7-4.2.1-6.2-.4-.6-.6-.9-.8-1.3.2-.4.4-.7.5-.9-.2-.9-.6-1.7-.5-2.4.2-4-.1-7.9.5-12 .7-4.5.1-9.3.8-14 .4-2.9-.1-5.9.7-8.9.4-1.7.1-3.8-.5-5.8-.5-1.7 1.1-3.6.6-5.7-.2-1.1-.9-2.5-.6-3.1 1-2.3 0-4.3 0-6.4.1-2.8 1.1-5.2.2-7.4-.6-1.5.2-2.5.4-4.9 1.7-2.1-.6-2.2.8-3.8h-8.4zM171.1-101.2c0 2.5-.1 4.4 0 7.3v6.2c0 2.2 0 4.6-.1 6.4-.2 2.3.1 3.8.1 5.6 0 .6-.1 1.2-.1 1.8-.1 2.6-.2 5.2.1 7.8-.2 1.9-.2 3.6-.3 8 0 1.9.2 3.5.1 5.3-.1 2 0 4.1 0 6.2 0 1.3-.1 2.5-.2 3.7.1 1.1.2 2.2.2 3.2 0 1.3-.3 2.3-.1 4.1.1 1-.1 2.6-.1 4-.1 9.8.2 19.8-.2 29.6v51.7c0 .7.1 1.5.2 2-.1 1-.2 2.2-.1 2.8.3 2 .2 4.2.2 6.4v35.2c0 2.3-.2 4.7.2 6.8.1.4 0 1.6 0 1.9-.3 1.1-.2 2.5-.2 3.8 0 3.3.1 6.6.2 9.9.2 6.3.2 12.8.3 19.2v2.1c0 .4.1.7.2 1-.1.6-.2 1.2-.2 1.8v11.9c0 1.8-.2 3.4 0 5.4.3 4.6-.3 9.4 0 14.2-.1.3-.1.7-.2.9.1 1.9.2 3.6.2 5.4v6.1c0 .1 0 .2.1.4h2.6v-9.6c-.1-3.6.3-6.9.2-10.4 0-3 .1-6-.2-8.9-.1-1.4 0-3.4 0-5.1 0-1.4.1-3-.1-4.4-.3-1.7.1-3 .2-4.6 0-1.6-.3-3-.1-4.5.2-1.9-.1-3.5-.1-5.1 0-5.1-.4-10-.3-15.1 0-2 .2-4.4-.2-6.3-.1-.3-.1-1.6 0-1.9.3-1.3.1-2.9.2-4.3.1-2.7-.2-5.2-.2-7.9V78.6c0-6.8.2-13.6-.2-20.5.1-.4.1-1.1.2-1.7-.1-.6-.2-1-.3-1.3.1-1.6.2-2.6.2-3.7 0-1.2.1-2.8 0-3.5-.3-1.7.2-2.8.1-4.4-.1-1.4 0-3.1 0-4.6 0-1.6-.1-3.2-.2-4.8 0-.3 0-.8.1-.9.3-.9.2-2.2.2-3.3V8.2 5.6c-.3-6.7-.3-8 0-14.7.1-1.4.1-3.4-.1-4.4-.3-2 .1-3.1.1-4.6-.4-2.1-.2-4.2 0-6.2-.1-.6-.2-.9-.3-1.3.1-.4.1-.7.2-.9-.1-.9-.2-1.7-.2-2.4.1-4 0-7.9.2-12 .2-4.5 0-9.3.2-14 .1-2.9 0-5.9.2-8.9.1-1.7 0-3.8-.2-5.8-.2-1.7.4-3.6.2-5.7-.1-1.1-.3-2.5-.2-3.1.3-2.3 0-4.3 0-6.4 0-2.8-.2-5.2-.5-7.4-.2-1.5.6-2.7.6-5.1.2-.6.1-2.2.2-2.9v-.7h-2.8zM230.6-101.2v13.5c0 2.2 0 4.6-.1 6.4-.2 2.3.1 3.8.1 5.6 0 .6-.1 1.2-.1 1.8-.1 2.6-.2 5.2.1 7.8-.2 1.9-.2 3.6-.3 8 0 1.9.2 3.5.1 5.3-.1 2 0 4.1 0 6.2 0 1.3-.1 2.5-.2 3.7.1 1.1.2 2.2.2 3.2 0 1.3-.3 2.3-.1 4.1.1 1-.1 2.6-.1 4-.1 9.8.2 19.8-.2 29.6v51.7c0 .7.1 1.5.1 2-.1 1-.2 2.2-.1 2.8.3 2 .2 4.2.2 6.4v35.2c0 2.3-.2 4.7.2 6.8.1.4 0 1.6 0 1.9-.3 1.1-.2 2.5-.2 3.8 0 3.3.1 6.6.2 9.9.2 6.3.2 12.8.3 19.2v2.1c0 .4.1.7.2 1-.1.6-.2 1.2-.2 1.8v11.9c0 1.8-.2 3.4 0 5.4.3 4.6-.3 9.4 0 14.2-.1.3-.1.7-.2.9.1 1.9.2 3.6.2 5.4v6.1c0 .1.1.2.1.4h2.6v-9.6c-.1-3.6.3-6.9.2-10.4 0-3 .1-6-.2-8.9-.1-1.4 0-3.4 0-5.1 0-1.4.1-3-.2-4.4-.3-1.7.1-3 .2-4.6 0-1.6-.3-3-.1-4.5.2-1.9-.1-3.5-.1-5.1 0-5.1-.4-10-.3-15.1 0-2 .2-4.4-.2-6.3-.1-.3-.1-1.6 0-1.9.3-1.3.1-2.9.2-4.3.1-2.7-.2-5.2-.2-7.9V78.6c0-6.8.2-13.6-.2-20.5.1-.4.1-1.1.2-1.7-.1-.6-.2-1-.3-1.3.1-1.6.2-2.6.2-3.7 0-1.2.1-2.8 0-3.5-.3-1.7.2-2.8.1-4.4-.1-1.4 0-3.1 0-4.6 0-1.6-.1-3.2-.2-4.8 0-.3 0-.8.1-.9.3-.9.2-2.2.2-3.3V8.2 5.6c-.3-6.7-.3-8 0-14.7.1-1.4.1-3.4-.1-4.4-.3-2 .1-3.1.1-4.6-.4-2.1-.2-4.2 0-6.2-.1-.6-.2-.9-.3-1.3.1-.4.1-.7.2-.9-.1-.9-.2-1.7-.2-2.4.1-4 0-7.9.2-12 .2-4.5 0-9.3.2-14 .1-2.9 0-5.9.2-8.9.1-1.7 0-3.8-.2-5.8-.2-1.7.4-3.6.2-5.7-.1-1.1-.3-2.5-.2-3.1.3-2.3 0-4.3 0-6.4 0-2.8.1-5.2-.2-7.5-.2-1.5.3-2.5.4-4.9.2-.6.1-2.9.3-3.6v-.1h-2.8zM216.5-101.2c.1 2.4-.1 4.4-.1 7.3.1 2.1.1 4.1 0 6.2-.1 2.2.1 4.6-.4 6.4-.7 2.3.3 3.8.4 5.6 0 .6-.3 1.2-.4 1.8-.3 2.6-.8 5.2.4 7.8-.6 1.9-.6 3.6-.8 8-.1 1.9.5 3.5.3 5.3-.3 2 0 4.1-.1 6.2-.1 1.3-.4 2.5-.6 3.7.2 1.1.6 2.2.5 3.2-.1 1.3-1 2.3-.4 4.1.4 1-.2 2.6-.3 4-.4 9.8.7 19.8-.7 29.6v51.7c0 .7.3 1.5.5 2-.2 1-.7 2.2-.4 2.8.9 2 .6 4.2.6 6.4v35.2c0 2.3-.6 4.7.6 6.8.2.4.1 1.6-.1 1.9-.9 1.1-.5 2.5-.5 3.8 0 3.3.2 6.6.6 9.9.6 6.3.6 12.8.8 19.2 0 .7-.1 1.4 0 2.1.1.4.4.7.6 1-.2.6-.6 1.2-.6 1.8-.1 2.1 0 4.1 0 6.2v5.7c0 1.8-.5 3.4-.1 5.4.9 4.6-1.1 9.4.1 14.2-.2.3-.4.7-.6.9.2 1.9.5 3.6.6 5.4.1 2 0 4.1 0 6.1.1.1.2.2.2.4h8.2c0-3.3.1-6.5-.1-9.6-.2-3.6.9-6.9.7-10.4-.1-3 .3-6-.6-8.9-.4-1.4 0-3.4-.1-5.1-.1-1.4.4-3-.5-4.4-1-1.7.5-3 .6-4.6.1-1.6-.8-3-.3-4.5.6-1.9-.3-3.5-.3-5.1 0-5.1-1.2-10-.9-15.1.1-2 .6-4.4-.6-6.3-.2-.3-.2-1.6.1-1.9 1-1.3.4-2.9.6-4.3.4-2.7-.6-5.2-.7-7.9-.1-6.7.1-13.4-.1-20.2-.1-6.8.6-13.6-.6-20.5.2-.4.5-1.1.7-1.7-.4-.6-.6-1-.8-1.3.3-1.6.6-2.6.7-3.7.1-1.2.3-2.8-.1-3.5-.9-1.7.6-2.8.2-4.4-.3-1.4 0-3.1-.1-4.6-.1-1.6-.5-3.2-.7-4.8 0-.3 0-.8.2-.9.8-.9.5-2.2.5-3.3V8.2c0-.9.1-1.8 0-2.6-.9-6.7-.9-8 0-14.7.2-1.4.2-3.4-.3-4.4-1-2 .2-3.1.4-4.6-1.3-2.1-.6-4.2.1-6.2-.4-.6-.6-.9-.8-1.3.2-.4.4-.7.5-.9-.2-.9-.6-1.7-.5-2.4.2-4-.1-7.9.5-12 .7-4.5.1-9.3.8-14 .4-2.9-.1-5.9.7-8.9.4-1.7.1-3.8-.5-5.8-.5-1.7 1.1-3.6.6-5.7-.2-1.1-.9-2.5-.6-3.1 1-2.3 0-4.3 0-6.4.1-2.8 1.1-5.2.2-7.4-.6-1.5.2-2.5.4-4.9 1.7-2.1-.6-2.2.8-3.8h-8.4zM207.2-101.2c0 2.5-.1 4.4 0 7.3v6.2c0 2.2 0 4.6-.1 6.4-.2 2.3.1 3.8.1 5.6 0 .6-.1 1.2-.1 1.8-.1 2.6-.2 5.2.1 7.8-.2 1.9-.2 3.6-.3 8 0 1.9.2 3.5.1 5.3-.1 2 0 4.1 0 6.2 0 1.3-.1 2.5-.2 3.7.1 1.1.2 2.2.2 3.2 0 1.3-.3 2.3-.1 4.1.1 1-.1 2.6-.1 4-.1 9.8.2 19.8-.2 29.6v51.7c0 .7.1 1.5.2 2-.1 1-.2 2.2-.1 2.8.3 2 .2 4.2.2 6.4v35.2c0 2.3-.2 4.7.2 6.8.1.4 0 1.6 0 1.9-.3 1.1-.2 2.5-.2 3.8 0 3.3.1 6.6.2 9.9.2 6.3.2 12.8.3 19.2v2.1c0 .4.1.7.2 1-.1.6-.2 1.2-.2 1.8v11.9c0 1.8-.2 3.4 0 5.4.3 4.6-.3 9.4 0 14.2-.1.3-.1.7-.2.9.1 1.9.2 3.6.2 5.4v6.1c0 .1 0 .2.1.4h2.6v-9.6c-.1-3.6.3-6.9.2-10.4 0-3 .1-6-.2-8.9-.1-1.4 0-3.4 0-5.1 0-1.4.1-3-.1-4.4-.3-1.7.1-3 .2-4.6 0-1.6-.3-3-.1-4.5.2-1.9-.1-3.5-.1-5.1 0-5.1-.4-10-.3-15.1 0-2 .2-4.4-.2-6.3-.1-.3-.1-1.6 0-1.9.3-1.3.1-2.9.2-4.3.1-2.7-.2-5.2-.2-7.9V78.6c0-6.8.2-13.6-.2-20.5.1-.4.1-1.1.2-1.7-.1-.6-.2-1-.3-1.3.1-1.6.2-2.6.2-3.7 0-1.2.1-2.8 0-3.5-.3-1.7.2-2.8.1-4.4-.1-1.4 0-3.1 0-4.6 0-1.6-.1-3.2-.2-4.8 0-.3 0-.8.1-.9.3-.9.2-2.2.2-3.3V8.2 5.6c-.3-6.7-.3-8 0-14.7.1-1.4.1-3.4-.1-4.4-.3-2 .1-3.1.1-4.6-.4-2.1-.2-4.2 0-6.2-.1-.6-.2-.9-.3-1.3.1-.4.1-.7.2-.9-.1-.9-.2-1.7-.2-2.4.1-4 0-7.9.2-12 .2-4.5 0-9.3.2-14 .1-2.9 0-5.9.2-8.9.1-1.7 0-3.8-.2-5.8-.2-1.7.4-3.6.2-5.7-.1-1.1-.3-2.5-.2-3.1.3-2.3 0-4.3 0-6.4 0-2.8-.2-5.2-.5-7.4-.2-1.5.6-2.7.6-5.1.2-.6.1-2.2.2-2.9v-.7h-2.8zM266.7-101.2v13.5c0 2.2 0 4.6-.1 6.4-.2 2.3.1 3.8.1 5.6 0 .6-.1 1.2-.1 1.8-.1 2.6-.2 5.2.1 7.8-.2 1.9-.2 3.6-.3 8 0 1.9.2 3.5.1 5.3-.1 2 0 4.1 0 6.2 0 1.3-.1 2.5-.2 3.7.1 1.1.2 2.2.2 3.2 0 1.3-.3 2.3-.1 4.1.1 1-.1 2.6-.1 4-.1 9.8.2 19.8-.2 29.6v51.7c0 .7.1 1.5.2 2-.1 1-.2 2.2-.1 2.8.3 2 .2 4.2.2 6.4v35.2c0 2.3-.2 4.7.2 6.8.1.4 0 1.6 0 1.9-.3 1.1-.2 2.5-.2 3.8 0 3.3.1 6.6.2 9.9.2 6.3.2 12.8.3 19.2v2.1c0 .4.1.7.2 1-.1.6-.2 1.2-.2 1.8v11.9c0 1.8-.2 3.4 0 5.4.3 4.6-.3 9.4 0 14.2-.1.3-.1.7-.2.9.1 1.9.2 3.6.2 5.4v6.1c0 .1.1.2.1.4h2.6v-9.6c-.1-3.6.3-6.9.2-10.4 0-3 .1-6-.2-8.9-.1-1.4 0-3.4 0-5.1 0-1.4.1-3-.2-4.4-.3-1.7.1-3 .2-4.6 0-1.6-.3-3-.1-4.5.2-1.9-.1-3.5-.1-5.1 0-5.1-.4-10-.3-15.1 0-2 .2-4.4-.2-6.3-.1-.3-.1-1.6 0-1.9.3-1.3.1-2.9.2-4.3.1-2.7-.2-5.2-.2-7.9V78.6c0-6.8.2-13.6-.2-20.5.1-.4.1-1.1.2-1.7-.1-.6-.2-1-.3-1.3.1-1.6.2-2.6.2-3.7 0-1.2.1-2.8 0-3.5-.3-1.7.2-2.8.1-4.4-.1-1.4 0-3.1 0-4.6 0-1.6-.1-3.2-.2-4.8 0-.3 0-.8.1-.9.3-.9.2-2.2.2-3.3V8.2 5.6c-.3-6.7-.3-8 0-14.7.1-1.4.1-3.4-.1-4.4-.3-2 .1-3.1.1-4.6-.4-2.1-.2-4.2 0-6.2-.1-.6-.2-.9-.3-1.3.1-.4.1-.7.2-.9-.1-.9-.2-1.7-.2-2.4.1-4 0-7.9.2-12 .2-4.5 0-9.3.2-14 .1-2.9 0-5.9.2-8.9.1-1.7 0-3.8-.2-5.8-.2-1.7.4-3.6.2-5.7-.1-1.1-.3-2.5-.2-3.1.3-2.3 0-4.3 0-6.4 0-2.8.1-5.2-.2-7.5-.2-1.5.3-2.5.4-4.9.2-.6.1-2.9.3-3.6v-.1h-2.9zM252.6-101.2c.1 2.4-.2 4.4-.1 7.3.1 2.1.1 4.1 0 6.2-.1 2.2.1 4.6-.4 6.4-.7 2.3.3 3.8.4 5.6 0 .6-.3 1.2-.4 1.8-.3 2.6-.8 5.2.4 7.8-.6 1.9-.6 3.6-.8 8-.1 1.9.5 3.5.3 5.3-.3 2 0 4.1-.1 6.2-.1 1.3-.4 2.5-.6 3.7.2 1.1.6 2.2.5 3.2-.1 1.3-1 2.3-.4 4.1.4 1-.2 2.6-.3 4-.4 9.8.7 19.8-.7 29.6v51.7c0 .7.3 1.5.5 2-.2 1-.7 2.2-.4 2.8.9 2 .6 4.2.6 6.4v35.2c0 2.3-.6 4.7.6 6.8.2.4.1 1.6-.1 1.9-.9 1.1-.5 2.5-.5 3.8 0 3.3.2 6.6.6 9.9.6 6.3.6 12.8.8 19.2 0 .7-.1 1.4 0 2.1.1.4.4.7.6 1-.2.6-.6 1.2-.6 1.8-.1 2.1 0 4.1 0 6.2v5.7c0 1.8-.5 3.4-.1 5.4.9 4.6-1.1 9.4.1 14.2-.2.3-.4.7-.6.9.2 1.9.5 3.6.6 5.4.1 2 0 4.1 0 6.1.1.1.2.2.2.4h8.2c0-3.3.1-6.5-.1-9.6-.2-3.6.9-6.9.7-10.4-.1-3 .3-6-.6-8.9-.4-1.4 0-3.4-.1-5.1-.1-1.4.4-3-.5-4.4-1-1.7.5-3 .6-4.6.1-1.6-.8-3-.3-4.5.6-1.9-.3-3.5-.3-5.1 0-5.1-1.2-10-.9-15.1.1-2 .6-4.4-.6-6.3-.2-.3-.2-1.6.1-1.9 1-1.3.4-2.9.6-4.3.4-2.7-.6-5.2-.7-7.9-.1-6.7.1-13.4-.1-20.2-.1-6.8.6-13.6-.6-20.5.2-.4.5-1.1.7-1.7-.4-.6-.6-1-.8-1.3.3-1.6.6-2.6.7-3.7.1-1.2.3-2.8-.1-3.5-.9-1.7.6-2.8.2-4.4-.3-1.4 0-3.1-.1-4.6-.1-1.6-.5-3.2-.7-4.8 0-.3 0-.8.2-.9.8-.9.5-2.2.5-3.3V8.2c0-.9.1-1.8 0-2.6-.9-6.7-.9-8 0-14.7.2-1.4.2-3.4-.3-4.4-1-2 .2-3.1.4-4.6-1.3-2.1-.6-4.2.1-6.2-.4-.6-.6-.9-.8-1.3.2-.4.4-.7.5-.9-.2-.9-.6-1.7-.5-2.4.2-4-.1-7.9.5-12 .7-4.5.1-9.3.8-14 .4-2.9 0-5.9.7-8.9.4-1.7.1-3.8-.5-5.8-.5-1.7 1.1-3.6.6-5.7-.2-1.1-.9-2.5-.6-3.1 1-2.3 0-4.3 0-6.4.1-2.8 1.1-5.2.2-7.4-.6-1.5.2-2.5.4-4.9 1.7-2.1-.6-2.2.8-3.8h-8.4zM243.2-101.2c0 2.5-.1 4.4 0 7.3v6.2c0 2.2 0 4.6-.1 6.4-.2 2.3.1 3.8.1 5.6 0 .6-.1 1.2-.1 1.8-.1 2.6-.2 5.2.1 7.8-.2 1.9-.2 3.6-.3 8 0 1.9.2 3.5.1 5.3-.1 2 0 4.1 0 6.2 0 1.3-.1 2.5-.2 3.7.1 1.1.2 2.2.2 3.2 0 1.3-.3 2.3-.1 4.1.1 1-.1 2.6-.1 4-.1 9.8.2 19.8-.2 29.6v51.7c0 .7.1 1.5.2 2-.1 1-.2 2.2-.1 2.8.3 2 .2 4.2.2 6.4v35.2c0 2.3-.2 4.7.2 6.8.1.4 0 1.6 0 1.9-.3 1.1-.2 2.5-.2 3.8 0 3.3.1 6.6.2 9.9.2 6.3.2 12.8.3 19.2v2.1c0 .4.1.7.2 1-.1.6-.2 1.2-.2 1.8v11.9c0 1.8-.2 3.4 0 5.4.3 4.6-.3 9.4 0 14.2-.1.3-.1.7-.2.9.1 1.9.2 3.6.2 5.4v6.1c0 .1 0 .2.1.4h2.6v-9.6c-.1-3.6.3-6.9.2-10.4 0-3 .1-6-.2-8.9-.1-1.4 0-3.4 0-5.1 0-1.4.1-3-.1-4.4-.3-1.7.1-3 .2-4.6 0-1.6-.3-3-.1-4.5.2-1.9-.1-3.5-.1-5.1 0-5.1-.4-10-.3-15.1 0-2 .2-4.4-.2-6.3-.1-.3-.1-1.6 0-1.9.3-1.3.1-2.9.2-4.3.1-2.7-.2-5.2-.2-7.9V78.6c0-6.8.2-13.6-.2-20.5.1-.4.1-1.1.2-1.7-.1-.6-.2-1-.3-1.3.1-1.6.2-2.6.2-3.7 0-1.2.1-2.8 0-3.5-.3-1.7.2-2.8.1-4.4-.1-1.4 0-3.1 0-4.6 0-1.6-.1-3.2-.2-4.8 0-.3 0-.8.1-.9.3-.9.2-2.2.2-3.3V8.2 5.6c-.3-6.7-.3-8 0-14.7.1-1.4.1-3.4-.1-4.4-.3-2 .1-3.1.1-4.6-.4-2.1-.2-4.2 0-6.2-.1-.6-.2-.9-.3-1.3.1-.4.1-.7.2-.9-.1-.9-.2-1.7-.2-2.4.1-4 0-7.9.2-12 .2-4.5 0-9.3.3-14 .1-2.9 0-5.9.2-8.9.1-1.7 0-3.8-.2-5.8-.2-1.7.4-3.6.2-5.7-.1-1.1-.3-2.5-.2-3.1.3-2.3 0-4.3 0-6.4 0-2.8-.2-5.2-.5-7.4-.2-1.5.5-2.7.6-5.1.2-.6.1-2.2.2-2.9v-.7h-2.9z"/></g></g></g></g></svg>