<svg xmlns="http://www.w3.org/2000/svg" viewBox="0 0 53.71 44.1"><defs><style>.cls-1{fill:#352722}</style></defs><g id="レイヤー_2" data-name="レイヤー 2"><g id="レイヤー_1-2" data-name="レイヤー 1"><path class="cls-1" d="M9.17 2C6.36 7.57 3.6 13 .25 18.31c-.56.89.85 1.71 1.42.83a88.74 88.74 0 0 0 8.74-16.62c.27-.71-.9-1.2-1.24-.52z" transform="translate(-.12 -.14)"/><path class="cls-1" d="M.37 19.71a77.52 77.52 0 0 0 23.69 23.36.85.85 0 0 0 .86-1.47C15.45 35.89 8.06 27.86 1.58 19c-.52-.72-1.71-.06-1.21.7zM10 2.69a242.47 242.47 0 0 0 30.73-.77c1.08-.08 1.09-1.78 0-1.7C30.45 1 20.23 1.1 10 1.36a.67.67 0 0 0 0 1.33z" transform="translate(-.12 -.14)"/><path class="cls-1" d="M39.64 1.16c2.29 3.29 4.67 6.52 7 9.76 1.84 2.53 3.83 4.76 5.79 7.16.68.83 1.84-.36 1.18-1.18-.81-1-1.78-1.82-2.62-2.79-1.37-1.61-2.56-3.44-3.83-5.11C45 6.09 42.89 3.19 40.69.35c-.46-.6-1.49.19-1 .81z" transform="translate(-.12 -.14)"/><path class="cls-1" d="M52 17c-8.51 9.25-16.57 18.3-27.13 25.31-.85.57-.07 1.94.81 1.38C36.24 37 45.42 27.75 53 17.8c.44-.58-.52-1.32-1-.78z" transform="translate(-.12 -.14)"/><path class="cls-1" d="M.83 19c16.57.51 33.26.33 49.84.14a.82.82 0 0 0 0-1.63c-16.58-.19-33.27-.38-49.84.14a.68.68 0 0 0 0 1.35z" transform="translate(-.12 -.14)"/><path class="cls-1" d="M9.73 2.66a75.19 75.19 0 0 0 8 15.55.77.77 0 0 0 1.38-.21 75.85 75.85 0 0 1 7.94-15.24h-1.34c1.52 2.29 2.38 5.07 3.42 7.61l3.05 7.44a.79.79 0 0 0 1.51 0 113.42 113.42 0 0 1 8-15.87.75.75 0 0 0-1.3-.76 125 125 0 0 0-8.14 16l1.43.18q-1.68-4.12-3.4-8.28A40.69 40.69 0 0 0 27.05 2a.79.79 0 0 0-1.34 0 75.78 75.78 0 0 0-8.07 15.65l1.36-.21a81.53 81.53 0 0 1-8-15.13c-.31-.75-1.55-.45-1.26.35z" transform="translate(-.12 -.14)"/><path class="cls-1" d="M16.84 17.84c2.55 8.67 5.34 17.27 8.09 25.88a.73.73 0 0 0 1.43-.19c.07-4.31 1.85-8.24 3.39-12.19 1.64-4.16 3.31-8.31 4.9-12.48.33-.87-1-1.22-1.38-.38-1.8 4.45-3.52 8.93-5.27 13.4-1.5 3.79-3 7.52-3.1 11.65l1.44-.2c-2.73-8.62-5.42-17.26-8.34-25.82-.25-.73-1.39-.43-1.16.33z" transform="translate(-.12 -.14)"/><path class="cls-1" d="M9.55 18.84a108.35 108.35 0 0 0 14.59 23 .73.73 0 0 0 1 0A175.91 175.91 0 0 0 43.46 19c.52-.79-.75-1.52-1.27-.74a171.41 171.41 0 0 1-18 22.59h1a121.76 121.76 0 0 1-14.61-22.6c-.34-.69-1.34-.09-1 .6zM9.45 3.53c-.28 4.51-.57 9-.84 13.54 0 .91 1.37.91 1.42 0q.35-6.76.68-13.54c0-.81-1.21-.8-1.26 0z" transform="translate(-.12 -.14)"/><path class="cls-1" d="M39.47 2.92c.7 2.56.64 5.2 1 7.82a34 34 0 0 0 1.66 7c.31.89 1.72.52 1.42-.39a39.34 39.34 0 0 1-1.85-8.38 29.61 29.61 0 0 0-1-6.35.62.62 0 0 0-1.19.33z" transform="translate(-.12 -.14)"/></g></g></svg>