<svg xmlns="http://www.w3.org/2000/svg" viewBox="0 0 32.54 40.17"><defs><style>.cls-1{fill:#352722}</style></defs><g id="レイヤー_2" data-name="レイヤー 2"><g id="レイヤー_1-2" data-name="レイヤー 1"><path class="cls-1" d="M5.29 14C2 12.89 1.76 7.91 1.77 5a5.11 5.11 0 0 1 .12-1.79c.65-1.44 2.17-.37 2.7.7A24.8 24.8 0 0 1 5.76 8a.79.79 0 0 0 1.55-.21A10.65 10.65 0 0 1 7.75 5c.36-1.16.36-1.87 1.66-1.82s1.09.77 1.06 1.9a9.25 9.25 0 0 1-.33 2.16 9.61 9.61 0 0 1-4.9 6c-.91.47-.11 1.85.8 1.37 4.15-2.17 7.13-7.37 5.73-12.1C11.33 1 10.13 0 8.59.77 6.33 1.88 5.85 5.66 5.73 7.83l1.55-.21c-.61-2.2-.85-6.13-3.19-7.29C2.35-.53.91.61.39 2.29c-.8 2.55-.24 6 .45 8.46C1.46 13 2.61 15 5.12 15.27c.76.08.83-1.06.17-1.28zM16 39.09a13.38 13.38 0 0 1-3.83-7.29 6.84 6.84 0 0 1-.31-1.94c-.24-.74.08-1.16 1-1.27.73-.85 1.16-.82 1.28.09.88.95 1.12 3.75 1.33 5a.75.75 0 0 0 1.44 0A10.7 10.7 0 0 1 18 30.23c.3-.51 1.45-1.95 2.24-1.07.35.4 0 2-.08 2.49a10.77 10.77 0 0 1-4.61 7.11c-.76.54-.06 1.79.74 1.27a11.91 11.91 0 0 0 4.51-5.22c.8-1.8 1.62-4.74.68-6.64a1.91 1.91 0 0 0-3-.73c-1.92 1.15-2.66 3.78-3.09 5.8l1.47.2c-.26-2.13-.6-5.64-2.4-7.1a2.58 2.58 0 0 0-4 1.15c-.89 2 0 5 .65 6.9a11.25 11.25 0 0 0 4 5.71c.59.43 1.31-.52.78-1zM27.26 16.72c-2.09-1-2.5-3.86-2.78-5.9a5.25 5.25 0 0 1-.17-1.67c.41-1.14.87-.28 1.14.5a23.38 23.38 0 0 1 .77 3.35c.18 1 1.5.62 1.59-.21.14-1.33.63-3.28 1.73-4.19.28-.23.94-.85 1.34-.31.19.25-.21 1.54-.28 1.82-.25 1.17-2 7.06-4.21 5.58-.79-.53-1.15-2.44-1.35-3.31-.17-.72-.21-1.44-.31-2.18-.07-.5-.28-.85-.13-.24a45.49 45.49 0 0 0 1.25 5.67.81.81 0 0 0 1.46.19l4.34-7.33-1.1.29c.44.32-1.08 2.95-1.32 3.36a5.91 5.91 0 0 1-2.61 2.53l1.2.93a12.19 12.19 0 0 1 2.61-5.64c.69-.83-.5-2-1.19-1.19a13.88 13.88 0 0 0-3 6.39.83.83 0 0 0 1.2.92 8.75 8.75 0 0 0 4-4.66c.6-1.37 1.42-3 0-4a.82.82 0 0 0-1.1.29L25.93 15l1.46.19c-.61-1.57-.52-8.2-3.58-7.4a.79.79 0 0 0-.56.56c-.66 2.44.38 7.25 2.4 8.9 2.5 2.06 5.12-2.51 5.84-4.35.59-1.52 2.36-6.61-.67-6.84s-4.41 4.56-4.63 6.71l1.59-.22c-.33-1.77-.63-4.74-2.29-5.88a1.72 1.72 0 0 0-2.72 1.17c-.48 1.92.27 4.79.89 6.6a5 5 0 0 0 3.1 3.47c.68.22 1.17-.86.5-1.17z" transform="translate(0 -.04)"/></g></g></svg>