<svg version="1.1" id="レイヤー_1" xmlns="http://www.w3.org/2000/svg" xmlns:xlink="http://www.w3.org/1999/xlink" x="0" y="0" viewBox="0 0 82.5 180" xml:space="preserve"><style>.st1{fill:#82746e}</style><defs><path id="SVGID_1_" d="M0 0h82.5v180H0z"/></defs><clipPath id="SVGID_2_"><use xlink:href="#SVGID_1_" overflow="visible"/></clipPath><g clip-path="url(#SVGID_2_)"><circle class="st1" cx="-1203.8" cy="130" r="50"/><circle class="st1" cx="-1120.8" cy="130" r="50"/><circle class="st1" cx="-1037.8" cy="130" r="50"/><circle class="st1" cx="-954.8" cy="130" r="50"/><circle class="st1" cx="-871.8" cy="130" r="50"/><circle class="st1" cx="-788.8" cy="130" r="50"/><circle class="st1" cx="-705.8" cy="130" r="50"/><circle class="st1" cx="-622.8" cy="130" r="50"/><circle class="st1" cx="-539.8" cy="130" r="50"/><circle class="st1" cx="-456.8" cy="130" r="50"/><circle class="st1" cx="-373.8" cy="130" r="50"/><circle class="st1" cx="-290.8" cy="130" r="50"/><circle class="st1" cx="-207.8" cy="130" r="50"/><circle class="st1" cx="-124.8" cy="130" r="50"/><circle class="st1" cx="-41.8" cy="130" r="50"/><circle class="st1" cx="41.2" cy="130" r="50"/><circle class="st1" cx="124.2" cy="130" r="50"/><path class="st1" d="M-1225.8-16.2h1368V136h-1368z"/></g></svg>