<svg xmlns="http://www.w3.org/2000/svg" viewBox="0 0 36.34 50.35"><defs><style>.cls-1{fill:#352722}</style></defs><g id="レイヤー_2" data-name="レイヤー 2"><g id="レイヤー_1-2" data-name="レイヤー 1"><path class="cls-1" d="M.83 17.65c7.27.36 14.64.3 21.93.2a.84.84 0 0 0 0-1.68c-7.29-.09-14.66-.16-21.93.2a.64.64 0 0 0 0 1.28z" transform="translate(-.21 -.19)"/><path class="cls-1" d="M11.65.82c-.45 12.69-.2 25.43-.21 38.12a.88.88 0 0 0 1.75 0c0-12.69.24-25.43-.21-38.12a.67.67 0 0 0-1.33 0z" transform="translate(-.21 -.19)"/><path class="cls-1" d="M3.89 29.8C8.4 23.48 13 17.18 17.3 10.72c.5-.74-.68-1.4-1.19-.69-4.56 6.28-8.87 12.76-13.23 19.18-.43.63.58 1.2 1 .59z" transform="translate(-.21 -.19)"/><path class="cls-1" d="M4.67 9.36a103.84 103.84 0 0 0 14 19.06c.7.73 1.67-.33 1.08-1.09C15 21.18 10.17 15.18 5.83 8.69c-.48-.71-1.6-.08-1.16.67zM23.28 38.55c4 .22 8 .31 12 .13a.79.79 0 0 0 0-1.57c-4-.17-8-.08-12 .13a.66.66 0 0 0 0 1.31z" transform="translate(-.21 -.19)"/><path class="cls-1" d="M28.37 25.37c0 7.28-.55 14.66-.11 21.93a.76.76 0 0 0 1.52 0c.44-7.27-.08-14.65-.11-21.93a.65.65 0 0 0-1.3 0z" transform="translate(-.21 -.19)"/><path class="cls-1" d="M24.09 45.53c3.32-3.89 6.91-7.66 9.91-11.8.5-.69-.6-1.52-1.18-.91-3.47 3.68-6.46 7.89-9.63 11.84-.49.6.35 1.48.87.87z" transform="translate(-.21 -.19)"/><path class="cls-1" d="M23.16 33.83c3.88 4.26 7.9 8.51 12.09 12.46a.77.77 0 0 0 1.09-1.09c-3.86-4.27-8-8.37-12.21-12.34a.69.69 0 0 0-1 1zM30.76 12.21c-1.86-.5-3.32-1.59-3.47-3.65a3.15 3.15 0 0 1 3.06-3.38A3.05 3.05 0 0 1 33.79 8a3.7 3.7 0 0 1-2.44 3.53c-.76.37-.18 1.37.53 1.26 2.33-.35 3.62-3.17 3.35-5.3a4.55 4.55 0 0 0-5-3.78 4.61 4.61 0 0 0-4.38 4.52 5.08 5.08 0 0 0 4.62 5.17c.76.11 1.11-1 .33-1.19zM4.59 49.21c-2.87-.8-3.14-5.3.27-5.36s3.3 4.34.45 5.24a.74.74 0 0 0 .39 1.43c2.12-.29 3.49-2.66 3.33-4.66a4 4 0 0 0-4.31-3.54A4 4 0 0 0 .77 46.1a4.25 4.25 0 0 0 3.65 4.37c.73.08.84-1.07.17-1.26z" transform="translate(-.21 -.19)"/></g></g></svg>