<svg xmlns="http://www.w3.org/2000/svg" viewBox="0 0 90 29.73"><defs><style>.cls-1{fill:#49403a}</style></defs><g id="レイヤー_2" data-name="レイヤー 2"><g id="レイヤー_1-2" data-name="レイヤー 1"><path class="cls-1" d="M89.17 22.53c-.16-.32-.1-.36-.26-.68s-.24-.26-.4-.58-.1-.36-.26-.67-.19-.31-.35-.63-.23-.27-.39-.59-.21-.29-.38-.61-.07-.37-.23-.69-.17-.31-.34-.62 0-.39-.21-.71-.22-.28-.38-.6-.19-.29-.35-.61-.25-.26-.41-.58-.26-.26-.42-.57.09-.48-.07-.8-.31-.22-.47-.54-.25-.26-.41-.58-.36-.36-.35-.72.2-.41.37-.73.27-.25.45-.57.11-.36.28-.68.29-.25.46-.57 0-.4.22-.71.25-.28.42-.6.35-.19.53-.51 0-.4.22-.72.3-.24.47-.56-.09-.49.08-.81.1-.36.27-.68.3-.24.47-.55.34-.21.51-.53.07-.38.24-.7.28-.25.45-.57.16-.33.33-.64 0-.41.21-.73.64-.38.47-.7-.45-.14-.79-.14-.34.1-.67.1-.34.06-.67.06-.34.11-.68.11-.33.09-.66.09-.34-.15-.67-.15-.33-.17-.67-.17-.34.13-.67.13-.33-.07-.67-.07-.33.23-.66.23-.34-.24-.68-.24-.33.33-.66.33-.34-.28-.67-.28h-.66c-.33 0-.34.05-.67.05h-.67c-.33 0-.33-.06-.67-.06s-.33.17-.66.17-.34-.2-.67-.2-.34.11-.67.11h-.66c-.33 0-.34-.19-.67-.19h-1.34c-.33 0-.33.19-.67.19s-.33-.17-.66-.17-.33-.08-.67-.08-.33.33-.67.33-.33-.14-.66-.14-.33.15-.67.15-.33-.29-.67-.29h-1.33c-.33 0-.33.27-.66.27h-.67c-.34 0-.33-.32-.66-.32s-.33.1-.66.1-.33.18-.67.18h-.67c-.33 0-.33-.17-.66-.17s-.33-.06-.66-.06-.34.29-.67.29h-1.33c-.33 0-.33-.19-.66-.19h-.67c-.33 0-.34.39-.67.39s-.33-.4-.66-.4-.34.35-.67.35-.33-.18-.67-.18h-.66c-.34 0-.34-.13-.67-.13s-.33.21-.66.21-.34-.2-.67-.2-.33.13-.66.13h-.67c-.33 0-.33-.1-.67-.1h-.67c-.33 0-.33.16-.66.16s-.33.06-.67.06-.33-.05-.66-.05-.34.07-.67.07h-.66c-.33 0-.33-.28-.67-.28s-.33.37-.66.37h-.67c-.33 0-.33-.28-.66-.28s-.34.13-.67.13h-.67c-.34 0-.33-.12-.66-.12s-.33.37-.67.37h-.66c-.34 0-.34-.09-.67-.09h-.66c-.34 0-.34-.26-.67-.26s-.34.29-.66.29h-1.33c-.33 0-.34-.42-.67-.42s-.33.16-.66.16-.33-.28-.67-.28-.33.2-.66.2-.33-.09-.67-.09-.33-.11-.66-.11-.33.16-.67.16-.33-.11-.66-.11-.33.32-.67.32-.33-.26-.66-.26-.34.19-.67.19-.33-.1-.66-.1-.34.18-.67.18-.33-.36-.66-.36-.34.2-.67.2-.33.17-.66.17-.34-.07-.67-.07-.33-.3-.66-.3-.34.3-.67.3h-.66c-.33 0-.33-.21-.66-.21s-.34.08-.67.08-.33-.07-.66-.07-.33-.08-.66-.08-.33.24-.67.24-.33-.11-.66-.11-.33-.13-.67-.13-.33.17-.66.17-.33.22-.66.22-.33-.08-.67-.08h-.66c-.33 0-.33-.23-.66-.23h-.67c-.33 0-.33-.11-.66-.11s-.34.32-.67.32-.33-.19-.66-.19-.33-.14-.67-.14-.33.23-.67.23-.33.1-.66.1H9.93C9.6.39 9.6.3 9.26.3S8.93.05 8.6.05s-.33.43-.67.43S7.6.06 7.27.06s-.33.18-.66.18-.33.1-.66.1-.33-.18-.67-.18h-.66c-.33 0-.33.26-.62.26h-.66c-.33 0-.34-.05-.7-.05S2.3.46 2 .46s-.34-.2-.67-.2S1 .33.65.33.31.07 0 .07V24h.08c.34 0 .34-.08.67-.08h1.34c.33 0 .33-.22.66-.22h.67c.33 0 .34.23.67.23s.33.08.67.08.33-.06.66-.06.34.06.67.06.34-.29.67-.29.33.18.67.18.33-.16.66-.16.34.14.67.14h.66c.34 0 .34.17.67.17s.33-.17.67-.17.33-.09.66-.09.34.3.67.3.33-.24.66-.24h1.33c.33 0 .34-.07.67-.07s.33.21.66.21.34-.24.67-.24.33.17.67.17h.66c.33 0 .33-.13.67-.13s.33-.09.66-.09.34-.06.67-.06.33.25.66.25.34-.15.67-.15.33.26.66.26.34-.33.67-.33.33.38.67.38.33-.19.66-.19.34.1.67.1.33-.33.66-.33.34.38.67.38.33-.36.67-.36.33.24.66.24h1.33c.33 0 .33.05.67.05s.34-.07.67-.07.33-.29.66-.29h.67c.33 0 .33.35.67.35h.66c.33 0 .33-.3.66-.3h.67c.33 0 .33.28.67.28s.33-.17.66-.17.33-.08.66-.08h.67c.33 0 .33.17.67.17s.33-.14.66-.14.34.05.67.05.33.29.67.29.33-.15.66-.15.33.09.67.09.33-.11.66-.11.33-.06.67-.06.33.07.66.07.33.19.66.19.34-.12.67-.12.33-.18.66-.18.34.12.67.12h.66c.33 0 .33-.23.67-.23s.33.18.66.18.33.21.67.21h2c.33 0 .33-.28.66-.28s.33.18.67.18.33-.26.66-.26h1.33c.33 0 .34.06.67.06s.33.16.66.16.33-.15.66-.15.34-.05.67-.05h1.33c.34 0 .33.3.66.3s.33-.19.66-.19.33.07.66.07h.67c.33 0 .33.12.66.12h.66c.33 0 .34-.18.67-.18s.33.13.66.13.34.18.66.18.34-.39.67-.39.33.1.66.1.34-.11.67-.11h.66c.33 0 .34.09.67.09s.33.25.66.25.34-.25.67-.25.33.14.67.14.33-.08.66-.08.33.08.66.08.34-.17.67-.17.33.17.67.17h1.32c.33 0 .33-.11.67-.11s.33-.17.66-.17h.66c.33 0 .33.14.66.14s.34.23.67.23.33-.38.66-.38.33.36.66.36.33-.15.66-.15.34.07.66.07.34-.15.67-.15.33.11.66.11.33-.2.66-.2.33.23.66.23.33-.27.66-.27h.67c.33 0 .33.2.66.2s.33-.1.66-.1.33.17.66.17H86.51c.33 0 .33-.16.66-.16s.34.17.67.17.33-.05.66-.05 1.31.37 1.48.05-.64-1.1-.81-1.42zM84.78 2.71h.93a.34.34 0 0 1 0 .68h-.93a.34.34 0 0 1 0-.68zM4 21.52H2.08a.34.34 0 0 1 0-.68H4a.34.34 0 0 1 0 .68zM4 3.39H2.08a.34.34 0 0 1 0-.68H4a.34.34 0 0 1 0 .68zm4.3 18.13H6.44a.34.34 0 0 1 0-.68H8.3a.34.34 0 0 1 0 .68zm0-18.13H6.44a.34.34 0 0 1 0-.68H8.3a.34.34 0 0 1 0 .68zm4.35 18.13h-1.86a.34.34 0 0 1 0-.68h1.86a.34.34 0 0 1 0 .68zm0-18.13h-1.86a.34.34 0 0 1 0-.68h1.86a.34.34 0 0 1 0 .68zM17 21.52h-1.86a.34.34 0 0 1 0-.68H17a.34.34 0 0 1 0 .68zm0-18.13h-1.86a.34.34 0 0 1 0-.68H17a.32.32 0 0 1 .3.34.32.32 0 0 1-.3.34zm4.35 18.13H19.5a.34.34 0 0 1 0-.68h1.86a.34.34 0 0 1 0 .68zm0-18.13H19.5a.32.32 0 0 1-.31-.34.32.32 0 0 1 .31-.34h1.86a.34.34 0 0 1 0 .68zm4.35 18.13h-1.85a.34.34 0 0 1 0-.68h1.86a.34.34 0 0 1 0 .68zm0-18.13h-1.85a.34.34 0 0 1 0-.68h1.86a.34.34 0 0 1 0 .68zm4.35 18.13H28.2a.34.34 0 0 1 0-.68h1.86a.34.34 0 0 1 0 .68zm0-18.13H28.2a.34.34 0 0 1 0-.68h1.86a.34.34 0 0 1 0 .68zm4.36 18.13h-1.86a.34.34 0 0 1 0-.68h1.87a.34.34 0 0 1 0 .68zm0-18.13h-1.86a.34.34 0 0 1 0-.68h1.87a.32.32 0 0 1 .3.34.32.32 0 0 1-.3.34zm4.35 18.13H36.9a.34.34 0 0 1 0-.68h1.87a.34.34 0 0 1 0 .68zm0-18.13H36.9a.32.32 0 0 1-.3-.34.32.32 0 0 1 .3-.34h1.87a.34.34 0 0 1 0 .68zm4.35 18.13h-1.85a.34.34 0 0 1 0-.68h1.86a.34.34 0 0 1 0 .68zm0-18.13h-1.85a.32.32 0 0 1-.26-.34.32.32 0 0 1 .31-.34h1.86a.34.34 0 0 1 0 .68zm4.35 18.13h-1.85a.34.34 0 0 1 0-.68h1.86a.34.34 0 0 1 0 .68zm0-18.13h-1.85a.34.34 0 0 1 0-.68h1.86a.32.32 0 0 1 .31.34.32.32 0 0 1-.31.34zm4.36 18.13H50a.34.34 0 0 1 0-.68h1.87a.34.34 0 0 1 0 .68zm0-18.13H50a.34.34 0 0 1 0-.68h1.87a.34.34 0 0 1 0 .68zm4.35 18.13h-1.86a.34.34 0 0 1 0-.68h1.87a.34.34 0 0 1 0 .68zm0-18.13h-1.86a.34.34 0 0 1 0-.68h1.87a.34.34 0 0 1 0 .68zm4.35 18.13h-1.86a.34.34 0 0 1 0-.68h1.87a.34.34 0 0 1 0 .68zm0-18.13h-1.86a.32.32 0 0 1-.3-.34.32.32 0 0 1 .3-.34h1.87a.34.34 0 0 1 0 .68zm4.36 18.13H63a.34.34 0 0 1 0-.68h1.87a.34.34 0 0 1 0 .68zm0-18.13H63a.34.34 0 0 1 0-.68h1.87a.32.32 0 0 1 .3.34.32.32 0 0 1-.28.34zm4.34 18.13h-1.85a.34.34 0 0 1 0-.68h1.86a.34.34 0 0 1 0 .68zm0-18.13h-1.85a.34.34 0 0 1 0-.68h1.86a.34.34 0 0 1 0 .68zm4.36 18.13h-1.86a.34.34 0 0 1 0-.68h1.87a.34.34 0 0 1 0 .68zm0-18.13h-1.86a.32.32 0 0 1-.3-.34.32.32 0 0 1 .3-.34h1.87a.34.34 0 0 1 0 .68zm4.35 18.13h-1.85a.34.34 0 0 1 0-.68h1.86a.34.34 0 0 1 0 .68zm0-18.13h-1.85a.34.34 0 0 1 0-.68h1.86a.34.34 0 0 1 0 .68zm4.35 18.13h-1.85a.34.34 0 0 1 0-.68h1.86a.34.34 0 0 1 0 .68zm0-18.13h-1.85a.34.34 0 0 1 0-.68h1.86a.32.32 0 0 1 .31.34.32.32 0 0 1-.31.34zm3.42 18.13h-.93a.34.34 0 0 1 0-.68h.93a.34.34 0 0 1 0 .68zM6.82 29.73l-1.27-.94-1.27-.94L3 26.91l-1.28-.94-1.28-.95h6.38v4.71z"/></g></g></svg>