<svg xmlns="http://www.w3.org/2000/svg" viewBox="0 0 50.07 53.93"><defs><style>.cls-1{fill:#352722}</style></defs><g id="レイヤー_2" data-name="レイヤー 2"><g id="レイヤー_1-2" data-name="レイヤー 1"><path class="cls-1" d="M20.33 23.53c-6.45.1-13.63 2.15-17.47 7.69-3.62 5.21-2.32 11.71 2 16.05 5 5 12.69 6.14 19.41 6.5 6.2.34 15.27.63 19.54-4.84 4.66-6 1.72-14.23-3.16-19-.8-.78-1.92.38-1.22 1.21 2.56 3 4.84 6.32 4.91 10.43a9.21 9.21 0 0 1-5.8 9C35 52 30.91 52.09 27.13 52.08a51 51 0 0 1-11.36-1.2C9 49.29.64 44 2.58 35.76s10.94-9.82 17.91-11c.72-.12.54-1.26-.16-1.25z"/><path class="cls-1" d="M17.52 24a10.54 10.54 0 0 1-1.66-5.39.82.82 0 0 0-1.63 0 9.37 9.37 0 0 0 2.19 6.24c.53.6 1.49-.18 1.1-.85z"/><path class="cls-1" d="M15.25 17.56c-3 1.06-14.79 7.52-13.41-.47A14.8 14.8 0 0 1 9.63 7c4-2 11.46-3.14 14 1.59 2.41 4.5 2.67 10 1.54 14.91a.84.84 0 0 0 .8 1.06 11.76 11.76 0 0 1 4.72.48c1 .32 1.45-1.27.44-1.6a12.53 12.53 0 0 0-5.13-.53l.76 1.09a25 25 0 0 0 .32-10c-.47-2.66-1.34-6-3.32-8-4.13-4.19-12.43-2.3-16.66.62C3.46 9.12-1.52 15.4.44 20.18c2.48 6 11.87.26 15.31-1.44a.65.65 0 0 0-.5-1.18z"/><path class="cls-1" d="M32 24a28.93 28.93 0 0 1 1.55-14.36c1.73-4.31 7.39-11.72 12.13-6.07 3.17 3.78 3.22 10.1 1.72 14.56a17.44 17.44 0 0 1-3.56 6.08c-1.24 1.37-3.7 4-5.7 4-1.09 0-1.06 1.58 0 1.67 2.26.2 5-2.42 6.42-3.92a19.61 19.61 0 0 0 4.21-6.56c2-5.29 2-13.21-2.29-17.5S36.56 1.09 34 5.21a25.36 25.36 0 0 0-3.22 18.92c.16.71 1.39.58 1.3-.18z"/><path class="cls-1" d="M40.65 8.12a10.1 10.1 0 0 1-2.43 13.74c-.68.55.22 1.73 1 1.22a11 11 0 0 0 2.54-15.61c-.49-.64-1.55-.08-1.11.65zM18.8 33.51a2.57 2.57 0 0 1-.07-1.1c0-.09.2-.4.24-.36s-.07.17-.09.21c-.17.22-.57.2-.81.19l.77.59a1.84 1.84 0 0 1 .16-1.38l-.7.41s-.18-.1-.12-.11-.09.15 0 .09a5 5 0 0 1-.57.46.8.8 0 0 0 .81 1.38 2.6 2.6 0 0 0 1.36-1.46 1.64 1.64 0 0 0-.63-1.78 1.33 1.33 0 0 0-.82-.21c-.55 0-.75.43-.93.88a3.44 3.44 0 0 0-.07 2.15.82.82 0 0 0 .77.59 2.37 2.37 0 0 0 2.25-1.12 1.74 1.74 0 0 0-.51-2.21 1.68 1.68 0 0 0-2.19.51c-.68.89-.33 1.83.09 2.73.29.62 1.25.17 1.09-.46zM32.8 34.14c-.42-.46-.13-1.55.54-1.61l-.72-.53c.15.4.43.94.23 1.36s-.39.38-.64.18h.06l-.09-.07c-.18 0 0-.07 0 0s0 .24-.07.34a.49.49 0 0 1-.31.24.8.8 0 0 0 .43 1.53 2.09 2.09 0 0 0 1.38-2.89 1.6 1.6 0 0 0-2.91.37 1.83 1.83 0 0 0 2.44 2.08 2.18 2.18 0 0 0 1.29-1.48 3.39 3.39 0 0 0-.43-2.25.72.72 0 0 0-.65-.38 2.38 2.38 0 0 0-1.43 4 .63.63 0 0 0 .89-.88zM24.68 33.55a1.59 1.59 0 0 1 .88.2l-.25-.94a.13.13 0 0 1-.21 0l-.27 1a.77.77 0 0 1 1 0 .79.79 0 0 0 1.08 0 .78.78 0 0 0 0-1.08 2.29 2.29 0 0 0-2.79-.21.76.76 0 0 0-.27 1 1.56 1.56 0 0 0 2.69-.06.7.7 0 0 0-.24-.94 2 2 0 0 0-1.88-.12.6.6 0 0 0 .3 1.11zM18.5 45.86A61.77 61.77 0 0 0 28.1 42a.74.74 0 0 0-.57-1.35 62.44 62.44 0 0 0-9.55 4 .67.67 0 0 0 .52 1.22z"/><path class="cls-1" d="M21.17 39.71a13.42 13.42 0 0 0 5.3 6.43.78.78 0 0 0 .94-1.21c-.89-.88-1.9-1.6-2.74-2.54s-1.54-2.11-2.33-3.17c-.39-.54-1.43-.25-1.17.49z"/></g></g></svg>