<svg version="1.1" id="レイヤー_1" xmlns="http://www.w3.org/2000/svg" xmlns:xlink="http://www.w3.org/1999/xlink" x="0" y="0" viewBox="0 0 210 35" xml:space="preserve"><style>.st0{opacity:.8}.st4{opacity:.4;clip-path:url(#SVGID_6_);fill-rule:evenodd;clip-rule:evenodd;fill:#609dd5}</style><g class="st0"><defs><path id="SVGID_1_" class="st0" d="M209.2 34.3c-.3.8-.4-.1-1.1-.1s-.7.8-1.5.8c-.7 0-.7-.4-1.4-.4s-.7.3-1.4.3-.7-.6-1.4-.6-.7-.2-1.4-.2-.7.4-1.4.4-.7-.3-1.4-.3-.7.2-1.4.2-.7-.3-1.4-.3h-2.8c-.7 0-.7.3-1.4.3s-.7.4-1.4.4-.7-.8-1.4-.8-.7.3-1.5.3c-.7 0-.7.3-1.5.3s-.7.1-1.4.1-.7.2-1.5.2-.7-.3-1.5-.3h-1.5c-.7 0-.7-.3-1.5-.3-.7 0-.7.1-1.5.1-.7 0-.7.2-1.5.2-.7 0-.7.1-1.5.1-.7 0-.7-.2-1.5-.2-.7 0-.7.2-1.5.2-.7 0-.7-.2-1.5-.2-.7 0-.7-.4-1.5-.4-.7 0-.7.3-1.5.3-.7 0-.7.2-1.5.2-.7 0-.7-.7-1.5-.7-.7 0-.7.7-1.5.7-.7 0-.7.3-1.5.3-.7 0-.7-.6-1.5-.6-.7 0-.7-.3-1.5-.3-.7 0-.7.8-1.5.8-.7 0-.7-.1-1.5-.1s-.7-.6-1.5-.6c-.7 0-.7.6-1.5.6-.7 0-.7-.6-1.5-.6-.7 0-.7.9-1.5.9-.7 0-.7-.9-1.5-.9-.7 0-.7.1-1.5.1-.7 0-.7-.1-1.5-.1-.7 0-.7.8-1.5.8-.7 0-.7-.6-1.5-.6-.7 0-.7-.1-1.5-.1-.7 0-.7.3-1.5.3-.7 0-.7.5-1.5.5h-1.5c-.7 0-.7-1-1.5-1-.7 0-.7.9-1.5.9-.7 0-.7-.4-1.5-.4-.7 0-.7.4-1.5.4-.7 0-.7-.6-1.5-.6-.7 0-.7.1-1.5.1-.7 0-.7.6-1.5.6h-1.5c-.7 0-.7-.4-1.5-.4-.7 0-.7.1-1.5.1-.7 0-.7-.2-1.5-.2s-.7.4-1.5.4c-.7 0-.7-.5-1.5-.5-.7 0-.7.2-1.5.2-.7 0-.7.2-1.5.2-.7 0-.7-.1-1.5-.1H109c-.7 0-.7.2-1.5.2-.7 0-.7-.3-1.5-.3-.7 0-.7.4-1.5.4-.7 0-.7-.3-1.5-.3-.7 0-.7-.2-1.5-.2-.7 0-.7-.1-1.5-.1h-1.5c-.7 0-.7-.1-1.5-.1-.7 0-.7-.2-1.5-.2h-3c-.7 0-.7.9-1.5.9-.7 0-.7-.6-1.5-.6-.7 0-.7.2-1.5.2-.7 0-.7.4-1.5.4-.7 0-.7-.4-1.5-.4-.7 0-.7-.2-1.5-.2H82c-.7 0-.7.1-1.5.1-.7 0-.7.1-1.5.1-.7 0-.7.3-1.5.3-.7 0-.7-.6-1.5-.6 2 0 2 .7 1.3.7s-.7-.3-1.5-.3c-.7 0-.7-.4-1.5-.4h-1.5c-.7 0-.7.5-1.5.5s-.6.2-1.3.2c-.7 0-.7-.8-1.4-.8s-.7.6-1.5.6c-.7 0-.7-.1-1.5-.1-.7 0-.7-.2-1.5-.2-.7 0-.7-.4-1.5-.4s-.7.7-1.5.7h-1.5c-.7 0-.7-.1-1.5-.1-.7 0-.7-.1-1.5-.1-.7 0-.7.3-1.5.3-.7 0-.7.1-1.5.1-.7 0-.7-.6-1.5-.6-.7 0-.7.5-1.5.5-.7 0-.7-.5-1.5-.5-.7 0-.7-.2-1.5-.2-.7 0-.7.8-1.5.8-.7 0-.7-.1-1.5-.1-.7 0-.7-.4-1.5-.4-.7 0-.7.5-1.5.5-.7 0-.7-.2-1.5-.2-.7 0-.7-.4-1.5-.4-.7 0-.7.7-1.5.7-.7 0-.7-.7-1.5-.7-.7 0-.7-.1-1.5-.1h-1.5c-.7 0-.7.1-1.5.1-.7 0-.7-.1-1.5-.1-.7 0-.7.7-1.5.7-.7 0-.7-.5-1.5-.5.4-.3.4.5-.3.5s-.7-.1-1.5-.1c-.7 0-.7-.2-1.5-.2-.7 0-.7-.2-1.5-.2-.7 0-.7-.2-1.5-.2h-3c-.7 0-.7-.2-1.5-.2-.7 0-.7.6-1.5.6-.7 0-.7-.2-1.5-.2-.7 0-.7-.5-1.5-.5-.7 0-.7.7-1.5.7H8.3c-.7 0-.7-.5-1.5-.5-.7 0-.7-.1-1.5-.1-.7 0-.7.1-1.5.1-.7 0-.7.3-1.5.3-.7 0-.7-.4-1.5-.4-.7 0-.9.9-1.3.1.2-.6 1.1-.2 1.5-.9.4-.7.3-.8.7-1.5.4-.8.3-.9.7-1.6.4-.7.2-.9.6-1.6.4-.7.3-.8.7-1.5.4-.7.7-.5 1.1-1.2.4-.7.4-.8.8-1.5.4-.8.6-.7 1-1.4s.2-.9.6-1.6c.4-.7-.1-1.2.3-1.9s.7-.5 1.1-1.2c.4-.7 1.1-.6 1.1-1.5s-.4-1-.9-1.7c-.4-.7-.5-.6-1-1.4-.4-.7-.3-.8-.7-1.6-.4-.7-.5-.6-1-1.4-.4-.7-.6-.6-1-1.3-.5-.7-.2-.9-.7-1.6-.4-.8-.7-.5-1.2-1.2-.4-.7-.6-.6-1-1.4-.4-.7 0-1.1-.5-1.8C1.3 2.7.9 3 .5 2.2 0 1.5-.2 1.5.2.7c.3-.8.5 0 1.2 0S2.1.4 2.8.4s.7.6 1.4.6C5 .9 5 .3 5.7.3S6.4.1 7.1.1s.7.1 1.4.1.7.5 1.4.5.7-.1 1.4-.1.7.1 1.4.1.7-.2 1.4-.2.7.2 1.4.2.7-.3 1.4-.3h1.4c.7 0 .7.1 1.4.1h1.4c.7 0 .7-.2 1.5-.2s.7-.1 1.5-.1h1.4c.7 0 .7.1 1.5.1.7 0 .7-.2 1.5-.2H30c.7 0 .7 1 1.5 1 .7 0 .7-.6 1.5-.6.7 0 .7-.2 1.5-.2s.7.4 1.5.4c.7 0 .7-.4 1.5-.4.7 0 .7.8 1.5.8.7 0 .7-.8 1.5-.8H42c.7 0 .7-.2 1.5-.2.7 0 .7.8 1.5.8.7 0 .7-.5 1.5-.5.7 0 .7-.1 1.5-.1.7 0 .7.3 1.5.3.7 0 .7-.4 1.5-.4.7 0 .7-.2 1.5-.2.7 0 .7.7 1.5.7.7 0 .7.1 1.5.1H57c.7 0 .7-.7 1.5-.7.7 0 .7.6 1.5.6h1.5c.7 0 .7.1 1.5.1.7 0 .7-.7 1.5-.7.7 0 .7.4 1.5.4.7 0 .7-.5 1.5-.5.7 0 .7.2 1.5.2.7 0 .7.7 1.5.7.7 0 .7-.6 1.5-.6.7 0 .7-.2 1.5-.2.7 0 .7.4 1.5.4.7 0 .7-.3 1.5-.3.7 0 .7.5 1.5.5.7 0 .7.1 1.5.1-.5.1-.5-.8.3-.8.7 0 .7 1 1.4 1 .8 0 .8-.6 1.5-.6s.7-.1 1.5-.1h1.5c.8 0 .7.1 1.5.1.7 0 .7.5 1.5.5.7 0 .7-.5 1.5-.5.7 0 .7.5 1.5.5.7 0 .7-.8 1.5-.8s.7.5 1.5.5c.7 0 .7-.6 1.5-.6.7 0 .7.2 1.5.2.3.1.3-.2 1-.2s.7.3 1.5.3h1.5c.7 0 .7.3 1.5.3.7 0 .7.3 1.5.3.7 0 .7.1 1.5.1.7 0 .7-1 1.5-1 .7 0 .7.9 1.5.9.7 0 .7-.9 1.5-.9.7 0 .7.2 1.5.2.7 0 .7-.3 1.5-.3.7 0 .7.9 1.5.9.7 0 .7-.2 1.5-.2.7 0 .7-.4 1.5-.4.7 0 .7.5 1.5.5h1.5c.7 0 .7-.1 1.5-.1.7 0 .7-.3 1.5-.3.7 0 .7-.2 1.5-.2.7 0 .7.7 1.5.7.7 0 .7-.2 1.5-.2h6c.7 0 .7-.3 1.5-.3.7 0 .7.4 1.5.4.7 0 .7-.6 1.5-.6.7 0 .7-.1 1.4-.1s.7.8 1.5.8c.7 0 .7-.8 1.4-.8s.7.7 1.5.7.7-.6 1.5-.6.7.7 1.5.7h3c.7 0 .7-.6 1.5-.6.7 0 .7.2 1.5.2.7 0 .7.3 1.5.3.7 0 .7-.6 1.5-.6.7 0 .7.6 1.5.6.7 0 .7-.7 1.5-.7.7 0 .7.5 1.5.5.7 0 .7-.3 1.5-.3.7 0 .7-.2 1.5-.2.7 0 .7.1 1.5.1.7 0 .7.4 1.5.4.7 0 .7.2 1.5.2.7 0 .7.2 1.5.2h1.5c.7 0 .7-.8 1.5-.8.7 0 .7.6 1.5.6.7 0 .7-.3 1.5-.3.7 0 .7-.4 1.5-.4.7 0 .7.3 1.5.3.7 0 .7-.3 1.5-.3h1.5c.7 0 .7.7 1.5.7.7 0 .7.3 1.5.3.7 0 .7-.4 1.5-.4.7 0 .7-.4 1.5-.4.7 0 .7.5 1.5.5.7 0 .7-.7 1.5-.7.7 0 .7.3 1.5.3.7 0 .7.2 1.5.2.7 0 .7-.4 1.5-.4.7 0 .7.5 1.5.5.7 0 .7-.7 1.5-.7.7 0 .7.7 1.5.7.7 0 .7-.3 1.5-.3.7 0 .7.1 1.5.1.7 0 .7.4 1.5.4.7 0 .7-.6 1.5-.6h1.5c.7 0 .7-.3 1.5-.3.7 0 .7.6 1.5.6.7 0 1.5-1.2 1.9-.4.3.8-1.1.7-1.5 1.5-.4.7-.5.7-.9 1.4s-.4.8-.8 1.5 0 1.1-.4 1.9c-.4.7-.8.4-1.2 1.2-.4.7-.3.8-.7 1.6-.4.7-.3.8-.8 1.6-.4.7-.5.7-1 1.4-.4.7-.2 1-.6 1.7-.4.7-.6.6-1 1.4-.4.7-1.1.5-1.2 1.4 0 .9.9.5 1.3 1.2s.1.9.5 1.7c.4.7.4.7.8 1.5.4.7.2.9.6 1.6.4.7.6.5 1 1.3.4.7.4.8.8 1.5s.3.8.6 1.6c.4.7.5.6.9 1.3.4.7.7.5 1.1 1.3.4.7-.1 1.1.3 1.9.4.7.4.8.9 1.4-2.4.6-2 .5-2.4 1.3z"/></defs><clipPath id="SVGID_2_"><use xlink:href="#SVGID_1_" overflow="visible"/></clipPath><g opacity=".6" clip-path="url(#SVGID_2_)"><defs><path id="SVGID_3_" d="M267 48.7H-13c-2.2 0-4-1.8-4-4v-154.2c0-2.2 1.8-4 4-4h280c2.2 0 4 1.8 4 4V44.7c0 2.2-1.8 4-4 4z" opacity=".6"/></defs><clipPath id="SVGID_4_"><use xlink:href="#SVGID_3_" overflow="visible"/></clipPath><g clip-path="url(#SVGID_4_)"><defs><path id="SVGID_5_" d="M-16.9-158.5h288.4v288.4H-16.9z"/></defs><use xlink:href="#SVGID_5_" overflow="visible" opacity=".4" fill="#dff2fc"/><clipPath id="SVGID_6_"><use xlink:href="#SVGID_5_" overflow="visible" opacity=".4"/></clipPath><path class="st4" d="M271.4-130h-13.5c-2.2 0-4.6 0-6.5-.1-2.3-.2-3.8.1-5.6.1-.6 0-1.2-.1-1.8-.1-2.6-.1-5.2-.2-7.8.1-1.9-.2-3.6-.2-8-.3-1.9 0-3.5.2-5.3.1-2-.1-4.1 0-6.2 0-1.3 0-2.5-.1-3.7-.2-1.1.1-2.2.2-3.2.2-1.4 0-2.3-.3-4.1-.1-1 .1-2.6-.1-4-.1-9.9-.1-19.8.2-29.6-.2h-51.8c-.8 0-1.5.1-2 .2-1-.1-2.2-.2-2.8-.1-2 .3-4.2.2-6.4.2H73.9c-2.3 0-4.7-.2-6.9.2-.4.1-1.6 0-1.9 0-1.1-.3-2.5-.2-3.8-.2-3.3 0-6.6.1-10 .2-6.3.2-12.8.2-19.2.3H30c-.4 0-.8.1-1 .2-.6-.1-1.2-.2-1.8-.2H15.3c-1.8 0-3.4-.1-5.4 0-4.6.3-9.4-.3-14.2 0-.3-.1-.7-.1-.9-.2-1.9.1-3.6.2-5.4.2h-6.1c-.1 0-.2 0-.4.1v2.6h9.6c3.6-.1 6.9.3 10.5.2 3 0 6 .1 9-.2 1.4-.1 3.4 0 5.1 0 1.5 0 3 .1 4.4-.1 1.7-.3 3 .1 4.6.2 1.6 0 3-.3 4.5-.1 1.9.2 3.5-.1 5.1-.1 5.1 0 10-.4 15.1-.3 2 0 4.4.2 6.3-.2.3-.1 1.6-.1 1.9 0 1.3.3 2.9.1 4.3.2 2.7.1 5.2-.2 7.9-.2h20.2c6.8 0 13.6.2 20.5-.2.4.1 1.1.1 1.7.2.6-.1 1-.2 1.3-.3 1.6.1 2.6.2 3.7.2 1.2 0 2.8.1 3.5 0 1.7-.3 2.8.2 4.5.1 1.4-.1 3.1 0 4.6 0 1.6 0 3.2-.1 4.8-.2.3 0 .8 0 .9.1.9.3 2.2.2 3.3.2h24.3c6.7-.3 8.1-.3 14.7 0 1.4.1 3.4.1 4.4-.1 2-.3 3.1.1 4.6.1 2.1-.4 4.2-.2 6.2 0 .6-.1.9-.2 1.3-.3.4.1.7.1.9.2.9-.1 1.7-.2 2.4-.2 4 .1 8 0 12.1.2 4.5.2 9.3 0 14 .2 2.9.1 5.9 0 8.9.2 1.7.1 3.8 0 5.8-.2 1.7-.2 3.6.4 5.7.2 1.1-.1 2.5-.3 3.1-.2 2.3.3 4.3 0 6.5 0 2.8 0 5.2.1 7.5-.2 1.5-.2 2.5.3 4.9.4.6.2 2.9.1 3.6.3h.1v-3zM271.4-144.2c-2.4.1-4.4-.2-7.3-.1-2.1.1-4.1.1-6.2 0-2.2-.1-4.6.1-6.5-.4-2.3-.7-3.8.3-5.6.4-.6 0-1.2-.3-1.8-.4-2.6-.3-5.2-.8-7.8.4-1.9-.6-3.6-.6-8-.8-1.9-.1-3.5.5-5.3.3-2-.3-4.1 0-6.2-.1-1.3-.1-2.5-.4-3.7-.6-1.1.2-2.2.7-3.2.5-1.4-.1-2.3-1-4.1-.4-1 .4-2.6-.2-4-.3-9.9-.4-19.8.7-29.6-.7h-51.8c-.8 0-1.5.3-2 .5-1-.2-2.2-.7-2.8-.4-2 .9-4.2.6-6.4.6H73.9c-2.3 0-4.7-.6-6.9.6-.4.2-1.6.1-1.9-.1-1.1-.9-2.5-.5-3.8-.5-3.3 0-6.6.2-10 .6-6.3.6-12.8.6-19.2.8-.7 0-1.4-.1-2.1 0-.4.1-.8.4-1 .6-.6-.2-1.2-.6-1.8-.6-2.1-.1-4.1 0-6.2 0h-5.7c-1.8 0-3.4-.5-5.4-.1-4.6.9-9.4-1.1-14.2.1-.3-.2-.7-.4-.9-.6-1.9.2-3.6.5-5.4.6-2 .1-4.1 0-6.1 0-.1.1-.2.2-.4.2v8.2c3.3 0 6.5.1 9.6-.1 3.6-.2 6.9.9 10.5.7 3-.1 6 .3 9-.6 1.4-.5 3.4 0 5.1-.1 1.5-.1 3 .4 4.4-.5 1.7-1 3 .5 4.6.6 1.6.1 3-.8 4.5-.3 1.9.6 3.5-.3 5.1-.3 5.1 0 10-1.2 15.1-.9 2 .1 4.4.6 6.3-.6.3-.2 1.6-.2 1.9.1 1.3 1 2.9.4 4.3.6 2.7.4 5.2-.6 7.9-.7 6.7-.1 13.5.1 20.2-.1 6.8-.1 13.6.7 20.5-.6.4.2 1.1.5 1.7.7.6-.4 1-.6 1.3-.8 1.6.3 2.6.6 3.7.7 1.2.1 2.8.3 3.5-.1 1.7-.9 2.8.6 4.5.2 1.4-.3 3.1 0 4.6-.1 1.6-.1 3.2-.5 4.8-.7.3 0 .8 0 .9.2.9.8 2.2.5 3.3.5h21.7c.9 0 1.8.1 2.6 0 6.7-.9 8.1-.9 14.7 0 1.4.2 3.4.2 4.4-.3 2-1 3.1.2 4.6.4 2.1-1.3 4.2-.7 6.2.1.6-.4.9-.6 1.3-.8.4.2.7.4.9.5.9-.2 1.7-.6 2.4-.5 4 .2 8-.1 12.1.5 4.5.7 9.3.1 14 .8 2.9.4 5.9 0 8.9.7 1.7.4 3.8.1 5.8-.5 1.7-.5 3.6 1.1 5.7.6 1.1-.2 2.5-.9 3.1-.6 2.3 1 4.3 0 6.5 0 2.8.1 5.2 1.1 7.4.2 1.5-.6 2.5.2 4.9.4 2.1 1.7 2.2-.6 3.8.8v-8.4zM271.4-153.5c-2.5 0-4.4-.1-7.3-.1h-6.2c-2.2 0-4.6 0-6.5-.1-2.3-.2-3.8.1-5.6.1-.6 0-1.2-.1-1.8-.1-2.6-.1-5.2-.2-7.8.1-1.9-.2-3.6-.2-8-.3-1.9 0-3.5.2-5.3.1-2-.1-4.1 0-6.2 0-1.3 0-2.5-.1-3.7-.2-1.1.1-2.2.2-3.2.2-1.4 0-2.3-.3-4.1-.1-1 .1-2.6-.1-4-.1-9.9-.1-19.8.2-29.6-.2h-51.8c-.8 0-1.5.1-2 .1-1-.1-2.2-.2-2.8-.1-2 .3-4.2.2-6.4.2H73.9c-2.3 0-4.7-.2-6.9.2-.4.1-1.6 0-1.9 0-1.1-.3-2.5-.2-3.8-.2-3.3 0-6.6.1-10 .2-6.3.2-12.8.2-19.2.3H30c-.4 0-.8.1-1 .2-.6-.1-1.2-.2-1.8-.2H15.3c-1.8 0-3.4-.2-5.4 0-4.6.3-9.4-.3-14.2 0-.3-.1-.7-.1-.9-.2-1.9.1-3.6.2-5.4.2h-6.1c-.1 0-.2 0-.4.1v2.6h9.6c3.6-.1 6.9.3 10.5.2 3 0 6 .1 9-.2 1.4-.1 3.4 0 5.1 0 1.5 0 3 .1 4.4-.2 1.7-.3 3 .1 4.6.2 1.6 0 3-.3 4.5-.1 1.9.2 3.5-.1 5.1-.1 5.1 0 10-.4 15.1-.3 2 0 4.4.2 6.3-.2.3-.1 1.6-.1 1.9 0 1.3.3 2.9.1 4.3.2 2.7.1 5.2-.2 7.9-.2h20.2c6.8 0 13.6.2 20.5-.2.4.1 1.1.1 1.7.2.6-.1 1-.2 1.3-.3 1.6.1 2.6.2 3.7.2 1.2 0 2.8.1 3.5 0 1.7-.3 2.8.2 4.5.1 1.4-.1 3.1 0 4.6 0 1.6 0 3.2-.1 4.8-.2.3 0 .8 0 .9.1.9.3 2.2.2 3.3.2h24.3c6.7-.3 8.1-.3 14.7 0 1.4.1 3.4.1 4.4-.1 2-.3 3.1.1 4.6.1 2.1-.4 4.2-.2 6.2 0 .6-.1.9-.2 1.3-.3.4.1.7.1.9.2.9-.1 1.7-.2 2.4-.2 4 .1 8 0 12.1.2 4.5.2 9.3 0 14 .2 2.9.1 5.9 0 8.9.2 1.7.1 3.8 0 5.8-.2 1.7-.2 3.6.4 5.7.2 1.1-.1 2.5-.3 3.1-.2 2.3.3 4.3 0 6.5 0 2.8 0 5.2-.2 7.4-.5 1.5-.2 2.7.6 5.1.6.6.2 2.2.1 2.9.2h.7v-2.5zM271.4-93.9h-13.5c-2.2 0-4.6 0-6.5-.1-2.3-.2-3.8.1-5.6.1-.6 0-1.2-.1-1.8-.1-2.6-.1-5.2-.2-7.8.1-1.9-.2-3.6-.2-8-.3-1.9 0-3.5.2-5.3.1-2-.1-4.1 0-6.2 0-1.3 0-2.5-.1-3.7-.2-1.1.1-2.2.2-3.2.2-1.4 0-2.3-.3-4.1-.1-1 .1-2.6-.1-4-.1-9.9-.1-19.8.2-29.6-.2h-51.8c-.8 0-1.5.1-2 .2-1-.1-2.2-.2-2.8-.1-2 .3-4.2.2-6.4.2H73.9c-2.3 0-4.7-.2-6.9.2-.4.1-1.6 0-1.9 0-1.1-.3-2.5-.2-3.8-.2-3.3 0-6.6.1-10 .2H30.1c-.4 0-.8.1-1 .2-.6-.1-1.2-.2-1.8-.2H15.4c-1.8 0-3.4-.2-5.4 0-4.6.3-9.4-.3-14.2 0-.3-.1-.7-.1-.9-.2-1.9.1-3.6.2-5.4.2h-6.1c-.1 0-.2 0-.4.1v2.6h9.6c3.6-.1 6.9.3 10.5.2 3 0 6 .1 9-.2 1.4-.1 3.4 0 5.1 0 1.5 0 3 .1 4.4-.1 1.7-.3 3 .1 4.6.2 1.6 0 3-.3 4.5-.1 1.9.2 3.5-.1 5.1-.1 5.1 0 10-.4 15.1-.3 2 0 4.4.2 6.3-.2.3-.1 1.6-.1 1.9 0 1.3.3 2.9.1 4.3.2 2.7.1 5.2-.2 7.9-.2h20.2c6.8 0 13.6.2 20.5-.2.4.1 1.1.1 1.7.2.6-.1 1-.2 1.3-.3 1.6.1 2.6.2 3.7.2 1.2 0 2.8.1 3.5 0 1.7-.3 2.8.2 4.5.1 1.4-.1 3.1 0 4.6 0 1.6 0 3.2-.1 4.8-.2.3 0 .8 0 .9.1.9.3 2.2.2 3.3.2h24.3c6.7-.3 8.1-.3 14.7 0 1.4.1 3.4.1 4.4-.1 2-.3 3.1.1 4.6.1 2.1-.4 4.2-.2 6.2 0 .6-.1.9-.2 1.3-.3.4.1.7.1.9.2.9-.1 1.7-.2 2.4-.2 4 .1 8 0 12.1.2 4.5.2 9.3 0 14 .3 2.9.1 5.9 0 8.9.2 1.7.1 3.8 0 5.8-.2 1.7-.2 3.6.4 5.7.2 1.1-.1 2.5-.3 3.1-.2 2.3.3 4.3 0 6.5 0 2.8 0 5.2.1 7.5-.2 1.5-.2 2.5.3 4.9.4.6.2 2.9.1 3.6.3h.1v-2.8zM271.4-108.1c-2.4.1-4.4-.1-7.3-.1-2.1.1-4.1.1-6.2 0-2.2-.1-4.6.1-6.5-.4-2.3-.7-3.8.3-5.6.4-.6 0-1.2-.3-1.8-.4-2.6-.3-5.2-.8-7.8.4-1.9-.6-3.6-.6-8-.8-1.9-.1-3.5.5-5.3.3-2-.3-4.1 0-6.2-.1-1.3-.1-2.5-.4-3.7-.6-1.1.2-2.2.6-3.2.5-1.4-.1-2.3-1-4.1-.4-1 .4-2.6-.2-4-.3-9.9-.4-19.8.7-29.6-.7h-51.8c-.8 0-1.5.3-2 .5-1-.2-2.2-.7-2.8-.4-2 .9-4.2.6-6.4.6H73.9c-2.3 0-4.7-.6-6.9.6-.4.2-1.6.1-1.9-.1-1.1-.9-2.5-.5-3.8-.6-3.3 0-6.6.2-10 .6-6.3.6-12.8.6-19.2.8-.7 0-1.4-.1-2.1 0-.4.1-.8.4-1 .6-.6-.2-1.2-.6-1.8-.6-2.1-.1-4.1 0-6.2 0h-5.7c-1.8 0-3.4-.5-5.4-.1-4.6.9-9.4-1.1-14.2.1-.3-.2-.7-.4-.9-.6-1.9.2-3.6.5-5.4.6-2 .1-4.1 0-6.1 0-.1.1-.2.2-.4.2v8.2c3.3 0 6.5.1 9.6-.1 3.6-.2 6.9.9 10.5.7 3-.1 6 .3 9-.6 1.4-.5 3.4 0 5.1-.1 1.5-.1 3 .4 4.4-.5 1.7-1 3 .5 4.6.6 1.6.1 3-.8 4.5-.3 1.9.6 3.5-.3 5.1-.3 5.1 0 10-1.2 15.1-.9 2 .1 4.4.6 6.3-.6.3-.2 1.6-.2 1.9.1 1.3 1 2.9.4 4.3.6 2.7.4 5.2-.6 7.9-.7 6.7-.1 13.5.1 20.2-.1 6.8-.1 13.6.7 20.5-.6.4.2 1.1.5 1.7.7.6-.4 1-.6 1.3-.8 1.6.3 2.6.6 3.7.7 1.2.1 2.8.3 3.5-.1 1.7-.9 2.8.6 4.5.2 1.4-.3 3.1 0 4.6-.1 1.6-.1 3.2-.5 4.8-.7.3 0 .8 0 .9.2.9.8 2.2.5 3.3.5h21.7c.9 0 1.8.1 2.6 0 6.7-.9 8.1-.9 14.7 0 1.4.2 3.4.2 4.4-.3 2-1 3.1.2 4.6.4 2.1-1.3 4.2-.7 6.2.1.6-.4.9-.6 1.3-.8.4.2.7.4.9.5.9-.2 1.7-.6 2.4-.5 4 .2 8-.1 12.1.5 4.5.7 9.3.1 14 .8 2.9.4 5.9-.1 8.9.7 1.7.4 3.8.1 5.8-.5 1.7-.5 3.6 1.1 5.7.6 1.1-.2 2.5-.9 3.1-.6 2.3 1 4.3 0 6.5 0 2.8.1 5.2 1.1 7.4.2 1.5-.6 2.5.2 4.9.4 2.1 1.7 2.2-.6 3.8.8v-8.3zM271.4-117.4c-2.5 0-4.4-.1-7.3 0h-6.2c-2.2 0-4.6 0-6.5-.1-2.3-.2-3.8.1-5.6.1-.6 0-1.2-.1-1.8-.1-2.6-.1-5.2-.2-7.8.1-1.9-.2-3.6-.2-8-.3-1.9 0-3.5.2-5.3.1-2-.1-4.1 0-6.2 0-1.3 0-2.5-.1-3.7-.2-1.1.1-2.2.2-3.2.2-1.4 0-2.3-.3-4.1-.1-1 .1-2.6-.1-4-.1-9.9-.1-19.8.2-29.6-.2h-51.8c-.8 0-1.5.1-2 .2-1-.1-2.2-.2-2.8-.1-2 .3-4.2.2-6.4.2H73.9c-2.3 0-4.7-.2-6.9.2-.4.1-1.6 0-1.9 0-1.1-.3-2.5-.2-3.8-.2-3.3 0-6.6.1-10 .2-6.3.2-12.8.2-19.2.3H30c-.4 0-.8.1-1 .2-.6-.1-1.2-.2-1.8-.2H15.3c-1.8 0-3.4-.2-5.4 0-4.6.3-9.4-.3-14.2 0-.3-.1-.7-.1-.9-.2-1.9.1-3.6.2-5.4.2h-6.1c-.1 0-.2 0-.4.1v2.6h9.6c3.6-.1 6.9.3 10.5.2 3 0 6 .1 9-.2 1.4-.1 3.4 0 5.1 0 1.5 0 3 .1 4.4-.2 1.7-.3 3 .1 4.6.2 1.6 0 3-.3 4.5-.1 1.9.2 3.5-.1 5.1-.1 5.1 0 10-.4 15.1-.3 2 0 4.4.2 6.3-.2.3-.1 1.6-.1 1.9 0 1.3.3 2.9.1 4.3.2 2.7.1 5.2-.2 7.9-.2h20.2c6.8 0 13.6.2 20.5-.2.4.1 1.1.1 1.7.2.6-.1 1-.2 1.3-.3 1.6.1 2.6.2 3.7.2 1.2 0 2.8.1 3.5 0 1.7-.3 2.8.2 4.5.1 1.4-.1 3.1 0 4.6 0 1.6 0 3.2-.1 4.8-.2.3 0 .8 0 .9.1.9.3 2.2.2 3.3.2h24.3c6.7-.3 8.1-.3 14.7 0 1.4.1 3.4.1 4.4-.1 2-.3 3.1.1 4.6.1 2.1-.4 4.2-.2 6.2 0 .6-.1.9-.2 1.3-.3.4.1.7.1.9.2.9-.1 1.7-.2 2.4-.2 4 .1 8 0 12.1.2 4.5.2 9.3 0 14 .2 2.9.1 5.9 0 8.9.2 1.7.1 3.8 0 5.8-.2 1.7-.2 3.6.4 5.7.2 1.1-.1 2.5-.3 3.1-.2 2.3.3 4.3 0 6.5 0 2.8 0 5.2-.2 7.4-.5 1.5-.2 2.7.6 5.1.6.6.2 2.2.1 2.9.2h.7v-2.7zM271.4-57.9h-13.5c-2.2 0-4.6 0-6.5-.1-2.3-.2-3.8.1-5.6.1-.6 0-1.2-.1-1.8-.1-2.6-.1-5.2-.2-7.8.1-1.9-.2-3.6-.2-8-.3-1.9 0-3.5.2-5.3.1-2-.1-4.1 0-6.2 0-1.3 0-2.5-.1-3.7-.2-1.1.1-2.2.2-3.2.2-1.4 0-2.3-.3-4.1-.1-1 .1-2.6-.1-4-.1-9.9-.1-19.8.2-29.6-.2h-51.8c-.8 0-1.5.1-2 .2-1-.1-2.2-.2-2.8-.1-2 .3-4.2.2-6.4.2H73.9c-2.3 0-4.7-.2-6.9.2-.4.1-1.6 0-1.9 0-1.1-.3-2.5-.2-3.8-.2-3.3 0-6.6.1-10 .2-6.3.2-12.8.2-19.2.3H30c-.4 0-.8.1-1 .2-.6-.1-1.2-.2-1.8-.2H15.3c-1.8 0-3.4-.2-5.4 0-4.6.3-9.4-.3-14.2 0-.3-.1-.7-.1-.9-.2-1.9.1-3.6.2-5.4.2h-6.1c-.1 0-.2 0-.4.1v2.6h9.6c3.6-.1 6.9.3 10.5.2 3 0 6 .1 9-.2 1.4-.1 3.4 0 5.1 0 1.5 0 3 .1 4.4-.1 1.7-.3 3 .1 4.6.2 1.6 0 3-.3 4.5-.1 1.9.2 3.5-.1 5.1-.1 5.1 0 10-.4 15.1-.3 2 0 4.4.2 6.3-.2.3-.1 1.6-.1 1.9 0 1.3.3 2.9.1 4.3.2 2.7.1 5.2-.2 7.9-.2h20.2c6.8 0 13.6.2 20.5-.2.4.1 1.1.1 1.7.2.6-.1 1-.2 1.3-.3 1.6.1 2.6.2 3.7.2 1.2 0 2.8.1 3.5 0 1.7-.3 2.8.2 4.5.1 1.4-.1 3.1 0 4.6 0 1.6 0 3.2-.1 4.8-.2.3 0 .8 0 .9.1.9.3 2.2.2 3.3.2h24.3c6.7-.3 8.1-.3 14.7 0 1.4.1 3.4.1 4.4-.1 2-.3 3.1.1 4.6.1 2.1-.4 4.2-.2 6.2 0 .6-.1.9-.2 1.3-.3.4.1.7.1.9.2.9-.1 1.7-.2 2.4-.2 4 .1 8 0 12.1.2 4.5.2 9.3 0 14 .3 2.9.1 5.9 0 8.9.2 1.7.1 3.8 0 5.8-.2 1.7-.2 3.6.4 5.7.2 1.1-.1 2.5-.3 3.1-.2 2.3.3 4.3 0 6.5 0 2.8 0 5.2.1 7.5-.2 1.5-.2 2.5.3 4.9.4.6.2 2.9.1 3.6.3h.1v-3.1zM271.4-72c-2.4.1-4.4-.1-7.3-.1-2.1.1-4.1.1-6.2 0-2.2-.1-4.6.1-6.5-.4-2.3-.7-3.8.3-5.6.4-.6 0-1.2-.3-1.8-.4-2.6-.3-5.2-.8-7.8.4-1.9-.6-3.6-.6-8-.8-1.9-.1-3.5.5-5.3.3-2-.3-4.1 0-6.2-.1-1.3-.1-2.5-.4-3.7-.6-1.1.2-2.2.6-3.2.5-1.4-.1-2.3-1-4.1-.4-1 .4-2.6-.2-4-.3-9.9-.4-19.8.7-29.6-.7h-51.8c-.8 0-1.5.3-2 .5-1-.2-2.2-.7-2.8-.4-2 .9-4.2.6-6.4.6H73.9c-2.3 0-4.7-.6-6.9.6-.4.2-1.6.1-1.9-.1-1.1-.9-2.5-.5-3.8-.6-3.3 0-6.6.2-10 .6-6.3.6-12.8.6-19.2.8-.7 0-1.4-.1-2.1 0-.4.1-.8.4-1 .6-.6-.2-1.2-.6-1.8-.6-2.1-.1-4.1 0-6.2 0h-5.7c-1.8 0-3.4-.5-5.4-.1-4.5 1.1-9.3-.9-14 .3-.3-.2-.7-.4-.9-.6-1.9.2-3.6.5-5.4.6-2 .1-4.1 0-6.1 0-.1.1-.2.2-.4.2v8.2c3.3 0 6.5.1 9.6-.1 3.6-.2 6.9.9 10.5.7 3-.1 6 .3 9-.6 1.4-.5 3.4 0 5.1-.1 1.5-.1 3 .4 4.4-.5 1.7-1 3 .5 4.6.6 1.6.1 3-.8 4.5-.3 1.9.6 3.5-.3 5.1-.3 5.1 0 10-1.2 15.1-.9 2 .1 4.4.6 6.3-.6.3-.2 1.6-.2 1.9.1 1.3 1 2.9.4 4.3.6 2.7.4 5.2-.6 7.9-.7 6.7-.1 13.5.1 20.2-.1 6.8-.1 13.6.7 20.5-.6.4.2 1.1.5 1.7.7.6-.4 1-.6 1.3-.8 1.6.3 2.6.6 3.7.7 1.2.1 2.8.3 3.5-.1 1.7-.9 2.8.6 4.5.2 1.4-.3 3.1 0 4.6-.1 1.6-.1 3.2-.5 4.8-.7.3 0 .8 0 .9.2.9.8 2.2.5 3.3.5h21.7c.9 0 1.8.1 2.6 0 6.7-.9 8.1-.9 14.7 0 1.4.2 3.4.2 4.4-.3 2-1 3.1.2 4.6.4 2.1-1.3 4.2-.7 6.2.1.6-.4.9-.6 1.3-.8.4.2.7.4.9.5.9-.2 1.7-.6 2.4-.5 4 .2 8-.1 12.1.5 4.5.7 9.3.1 14 .8 2.9.4 5.9-.1 8.9.7 1.7.4 3.8.1 5.8-.5 1.7-.5 3.6 1.1 5.7.6 1.1-.2 2.5-.9 3.1-.6 2.3 1 4.3 0 6.5 0 2.8.1 5.2 1.1 7.4.2 1.5-.6 2.5.2 4.9.4 2.1 1.7 2.2-.6 3.8.8V-72zM271.4-81.3c-2.5 0-4.4-.1-7.3 0h-6.2c-2.2 0-4.6 0-6.5-.1-2.3-.2-3.8.1-5.6.1-.6 0-1.2-.1-1.8-.1-2.6-.1-5.2-.2-7.8.1-1.9-.2-3.6-.2-8-.3-1.9 0-3.5.2-5.3.1-2-.1-4.1 0-6.2 0-1.3 0-2.5-.1-3.7-.2-1.1.1-2.2.2-3.2.2-1.4 0-2.3-.3-4.1-.1-1 .1-2.6-.1-4-.1-9.9-.1-19.8.2-29.6-.2h-51.8c-.8 0-1.5.1-2 .2-1-.1-2.2-.2-2.8-.1-2 .3-4.2.2-6.4.2H73.9c-2.3 0-4.7-.2-6.9.2-.4.1-1.6 0-1.9 0-1.1-.3-2.5-.2-3.8-.2-3.3 0-6.6.1-10 .2-6.3.2-12.8.2-19.2.3H30c-.4 0-.8.1-1 .2-.6-.1-1.2-.2-1.8-.2H15.3c-1.8 0-3.4-.2-5.4 0-4.6.3-9.4-.3-14.2 0-.3-.1-.7-.1-.9-.2-1.9.1-3.6.2-5.4.2h-6.1c-.1 0-.2 0-.4.1v2.6h9.6c3.6-.1 6.9.3 10.5.2 3 0 6 .1 9-.2 1.4-.1 3.4 0 5.1 0 1.5 0 3 .1 4.4-.2 1.7-.3 3 .1 4.6.2 1.6 0 3-.3 4.5-.1 1.9.2 3.5-.1 5.1-.1 5.1 0 10-.4 15.1-.3 2 0 4.4.2 6.3-.2.3-.1 1.6-.1 1.9 0 1.3.3 2.9.1 4.3.2 2.7.1 5.2-.2 7.9-.2h20.2c6.8 0 13.6.2 20.5-.2.4.1 1.1.1 1.7.2.6-.1 1-.2 1.3-.3 1.6.1 2.6.2 3.7.2 1.2 0 2.8.1 3.5 0 1.7-.3 2.8.2 4.5.1 1.4-.1 3.1 0 4.6 0 1.6 0 3.2-.1 4.8-.2.3 0 .8 0 .9.1.9.3 2.2.2 3.3.2h24.3c6.7-.3 8.1-.3 14.7 0 1.4.1 3.4.1 4.4-.1 2-.3 3.1.1 4.6.1 2.1-.4 4.2-.2 6.2 0 .6-.1.9-.2 1.3-.3.4.1.7.1.9.2.9-.1 1.7-.2 2.4-.2 4 .1 8 0 12.1.2 4.5.2 9.3 0 14 .2 2.9.1 5.9 0 8.9.2 1.7.1 3.8 0 5.8-.2 1.7-.2 3.6.4 5.7.2 1.1-.1 2.5-.3 3.1-.2 2.3.3 4.3 0 6.5 0 2.8 0 5.2-.2 7.4-.5 1.5-.2 2.7.6 5.1.6.6.2 2.2.1 2.9.2h.7v-2.7zM271.4-21.8h-13.5c-2.2 0-4.6 0-6.5-.1-2.3-.2-3.8.1-5.6.1-.6 0-1.2-.1-1.8-.1-2.6-.1-5.2-.2-7.8.1-1.9-.2-3.6-.2-8-.3-1.9 0-3.5.2-5.3.1-2-.1-4.1 0-6.2 0-1.3 0-2.5-.1-3.7-.2-1.1.1-2.2.2-3.2.2-1.4 0-2.3-.3-4.1-.1-1 .1-2.6-.1-4-.1-9.9-.1-19.8.2-29.6-.2h-51.8c-.8 0-1.5.1-2 .1-1-.1-2.2-.2-2.8-.1-2 .3-4.2.2-6.4.2H73.9c-2.3 0-4.7-.2-6.9.2-.4.1-1.6 0-1.9 0-1.1-.3-2.5-.2-3.8-.2-3.3 0-6.6.1-10 .2-6.3.2-12.8.2-19.2.3H30c-.4 0-.8.1-1 .2-.6-.1-1.2-.2-1.8-.2H15.3c-1.8 0-3.4-.2-5.4 0-4.6.3-9.4-.3-14.2 0-.3-.1-.7-.1-.9-.2-1.9.1-3.6.2-5.4.2h-6.1c-.1 0-.2 0-.4.1v2.6h9.6c3.6-.1 6.9.3 10.5.2 3 0 6 .1 9-.2 1.4-.1 3.4 0 5.1 0 1.5 0 3 .1 4.4-.2 1.7-.3 3 .1 4.6.2 1.6 0 3-.3 4.5-.1 1.9.2 3.5-.1 5.1-.1 5.1 0 10-.4 15.1-.3 2 0 4.4.2 6.3-.2.3-.1 1.6-.1 1.9 0 1.3.3 2.9.1 4.3.2 2.7.1 5.2-.2 7.9-.2h20.2c6.8 0 13.6.2 20.5-.2.4.1 1.1.1 1.7.2.6-.1 1-.2 1.3-.3 1.6.1 2.6.2 3.7.2 1.2 0 2.8.1 3.5 0 1.7-.3 2.8.2 4.5.1 1.4-.1 3.1 0 4.6 0 1.6 0 3.2-.1 4.8-.2.3 0 .8 0 .9.1.9.3 2.2.2 3.3.2h24.3c6.7-.3 8.1-.3 14.7 0 1.4.1 3.4.1 4.4-.1 2-.3 3.1.1 4.6.1 2.1-.4 4.2-.2 6.2 0 .6-.1.9-.2 1.3-.3.4.1.7.1.9.2.9-.1 1.7-.2 2.4-.2 4 .1 8 0 12.1.2 4.5.2 9.3 0 14 .2 2.9.1 5.9 0 8.9.2 1.7.1 3.8 0 5.8-.2 1.7-.2 3.6.4 5.7.2 1.1-.1 2.5-.3 3.1-.2 2.3.3 4.3 0 6.5 0 2.8 0 5.2.1 7.5-.2 1.5-.2 2.5.3 4.9.4.6.2 2.9.1 3.6.3h.1v-2.8zM271.4-35.9c-2.4.1-4.4-.1-7.3-.1-2.1.1-4.1.1-6.2 0-2.2-.1-4.6.1-6.5-.4-2.3-.7-3.8.3-5.6.4-.6 0-1.2-.3-1.8-.4-2.6-.3-5.2-.8-7.8.4-1.9-.6-3.6-.6-8-.8-1.9-.1-3.5.5-5.3.3-2-.3-4.1 0-6.2-.1-1.3-.1-2.5-.4-3.7-.6-1.1.2-2.2.6-3.2.5-1.4-.1-2.3-1-4.1-.4-1 .4-2.6-.2-4-.3-9.9-.4-19.8.7-29.6-.7h-51.8c-.8 0-1.5.3-2 .5-1-.2-2.2-.7-2.8-.4-2 .9-4.2.6-6.4.6H73.9c-2.3 0-4.7-.6-6.9.6-.4.2-1.6.1-1.9-.1-1.1-.9-2.5-.5-3.8-.6-3.3 0-6.6.2-10 .6-6.3.6-12.8.6-19.2.8-.7 0-1.4-.1-2.1 0-.4.1-.8.4-1 .6-.6-.2-1.2-.6-1.8-.6-2.1-.1-4.1 0-6.2 0h-5.7c-1.8 0-3.4-.5-5.4-.1-4.5 1.1-9.3-.9-14 .2-.3-.2-.7-.4-.9-.6-2 .3-3.7.6-5.5.6-2 .1-4.1 0-6.1 0-.1.1-.2.2-.4.2v8.2c3.3 0 6.5.1 9.6-.1 3.6-.2 6.9.9 10.5.7 3-.1 6 .3 9-.6 1.4-.5 3.4 0 5.1-.1 1.5-.1 3 .4 4.4-.5 1.7-1 3 .5 4.6.6 1.6.1 3-.8 4.5-.3 1.9.6 3.5-.3 5.1-.3 5.1 0 10-1.2 15.1-.9 2 .1 4.4.6 6.3-.6.3-.2 1.6-.2 1.9.1 1.3 1 2.9.4 4.3.6 2.7.4 5.2-.6 7.9-.7 6.7-.1 13.5.1 20.2-.1 6.8-.1 13.6.7 20.5-.6.4.2 1.1.5 1.7.7.6-.4 1-.6 1.3-.8 1.6.3 2.6.6 3.7.7 1.2.1 2.8.3 3.5-.1 1.7-.9 2.8.6 4.5.2 1.4-.3 3.1 0 4.6-.1 1.6-.1 3.2-.5 4.8-.7.3 0 .8 0 .9.2.9.8 2.2.5 3.3.5H162c.9 0 1.8.1 2.6 0 6.7-.9 8.1-.9 14.7 0 1.4.2 3.4.2 4.4-.3 2-1 3.1.2 4.6.4 2.1-1.3 4.2-.7 6.2.1.6-.4.9-.6 1.3-.8.4.2.7.4.9.5.9-.2 1.7-.6 2.4-.5 4 .2 8-.1 12.1.5 4.5.7 9.3.1 14 .8 2.9.4 5.9 0 8.9.7 1.7.4 3.8.1 5.8-.5 1.7-.6 3.6 1.1 5.7.6 1.1-.2 2.5-.9 3.1-.6 2.3 1 4.3 0 6.5 0 2.8 0 5.2 1.1 7.4.2 1.5-.6 2.5.2 4.9.4 2.1 1.7 2.2-.6 3.8.8v-8.4zM271.4-45.2c-2.5 0-4.4-.1-7.3 0h-6.2c-2.2 0-4.6 0-6.5-.1-2.3-.2-3.8.1-5.6.1-.6 0-1.2-.1-1.8-.1-2.6-.1-5.2-.2-7.8.1-1.9-.2-3.6-.2-8-.3-1.9 0-3.5.2-5.3.1-2-.1-4.1 0-6.2 0-1.3 0-2.5-.1-3.7-.2-1.1.1-2.2.2-3.2.2-1.4 0-2.3-.3-4.1-.1-1 .1-2.6-.1-4-.1-9.9-.1-19.8.2-29.6-.2h-51.8c-.8 0-1.5.1-2 .2-1-.1-2.2-.2-2.8-.1-2 .3-4.2.2-6.4.2H73.9c-2.3 0-4.7-.2-6.9.2-.4.1-1.6 0-1.9 0-1.1-.3-2.5-.2-3.8-.2-3.3 0-6.6.1-10 .2-6.3.2-12.8.2-19.2.3H30c-.4 0-.8.1-1 .2-.6-.1-1.2-.2-1.8-.2H15.3c-1.8 0-3.4-.2-5.4 0-4.6.3-9.4-.3-14.2 0-.3-.1-.7-.1-.9-.2-1.9.1-3.6.2-5.4.2h-6.1c-.1 0-.2.1-.4.1v2.6h9.6c3.6-.1 6.9.3 10.5.2 3 0 6 .1 9-.2 1.4-.1 3.4 0 5.1 0 1.5 0 3 .1 4.4-.2 1.7-.3 3 .1 4.6.2 1.6 0 3-.3 4.5-.1 1.9.2 3.5-.1 5.1-.1 5.1 0 10-.4 15.1-.3 2 0 4.4.2 6.3-.2.3-.1 1.6-.1 1.9 0 1.3.3 2.9.1 4.3.2 2.7.1 5.2-.2 7.9-.2h20.2c6.8 0 13.6.2 20.5-.2.4.1 1.1.1 1.7.2.6-.1 1-.2 1.3-.3 1.6.1 2.6.2 3.7.2 1.2 0 2.8.1 3.5 0 1.7-.3 2.8.2 4.5.1 1.4-.1 3.1 0 4.6 0 1.6 0 3.2-.1 4.8-.2.3 0 .8 0 .9.1.9.3 2.2.2 3.3.2h24.3c6.7-.3 8.1-.3 14.7 0 1.4.1 3.4.1 4.4-.1 2-.3 3.1.1 4.6.1 2.1-.4 4.2-.2 6.2 0 .6-.1.9-.2 1.3-.3.4.1.7.1.9.2.9-.1 1.7-.2 2.4-.2 4 .1 8 0 12.1.2 4.5.2 9.3 0 14 .2 2.9.1 5.9 0 8.9.2 1.7.1 3.8 0 5.8-.2 1.7-.2 3.6.4 5.7.2 1.1-.1 2.5-.3 3.1-.2 2.3.3 4.3 0 6.5 0 2.8 0 5.2-.2 7.4-.5 1.5-.2 2.7.6 5.1.6.6.2 2.2.1 2.9.2h.7v-2.7zM271.4 14.3h-13.5c-2.2 0-4.6 0-6.5-.1-2.3-.2-3.8.1-5.6.1-.6 0-1.2-.1-1.8-.1-2.6-.1-5.2-.2-7.8.1-1.9-.2-3.6-.2-8-.3-1.9 0-3.5.2-5.3.1-2-.1-4.1 0-6.2 0-1.3 0-2.5-.1-3.7-.2-1.1.1-2.2.2-3.2.2-1.4 0-2.3-.3-4.1-.1-1 .1-2.6-.1-4-.1-9.9-.1-19.8.2-29.6-.2h-51.8c-.8 0-1.5.1-2 .1-1-.1-2.2-.2-2.8-.1-2 .3-4.2.2-6.4.2H73.9c-2.3 0-4.7-.2-6.9.2-.4.1-1.6 0-1.9 0-1.1-.3-2.5-.2-3.8-.2-3.3 0-6.6.1-10 .2-6.3.2-12.8.2-19.2.3H30c-.4 0-.8.1-1 .2-.6-.1-1.2-.2-1.8-.2H15.3c-1.8 0-3.4-.2-5.4 0-4.6.3-9.4-.3-14.2 0-.3-.1-.7-.1-.9-.2-1.9.1-3.6.2-5.4.2h-6.1c-.1 0-.2 0-.4.1V17h9.6c3.6-.1 6.9.3 10.5.2 3 0 6 .1 9-.2 1.4-.1 3.4 0 5.1 0 1.5 0 3 .1 4.4-.1 1.7-.3 3 .1 4.6.2 1.6 0 3-.3 4.5-.1 1.9.2 3.5-.1 5.1-.1 5.1 0 10-.4 15.1-.3 2 0 4.4.2 6.3-.2.3-.1 1.6-.1 1.9 0 1.3.3 2.9.1 4.3.2 2.7.1 5.2-.2 7.9-.2h20.2c6.8 0 13.6.2 20.5-.2.4.1 1.1.1 1.7.2.6-.1 1-.2 1.3-.3 1.6.1 2.6.2 3.7.2 1.2 0 2.8.1 3.5 0 1.7-.3 2.8.2 4.5.1 1.4-.1 3.1 0 4.6 0 1.6 0 3.2-.1 4.8-.2.3 0 .8 0 .9.1.9.3 2.2.2 3.3.2h24.3c6.7-.3 8.1-.3 14.7 0 1.4.1 3.4.1 4.4-.1 2-.3 3.1.1 4.6.1 2.1-.4 4.2-.2 6.2 0 .6-.1.9-.2 1.3-.3.4.1.7.1.9.2.9-.1 1.7-.2 2.4-.2 4 .1 8 0 12.1.2 4.5.2 9.3 0 14 .2 2.9.1 5.9 0 8.9.2 1.7.1 3.8 0 5.8-.2 1.7-.2 3.6.4 5.7.2 1.1-.1 2.5-.3 3.1-.2 2.3.3 4.3 0 6.5 0 2.8 0 5.2.1 7.5-.2 1.5-.2 2.5.3 4.9.4.6.2 2.9.1 3.6.3h.1v-2.8zM271.4.2c-2.4.1-4.4-.1-7.3-.1-2.1.1-4.1.1-6.2 0-2.2-.1-4.6.1-6.5-.4-2.3-.7-3.8.3-5.6.4-.6 0-1.2-.3-1.8-.4-2.6-.3-5.2-.8-7.8.4-1.9-.6-3.6-.6-8-.8-1.9-.1-3.5.5-5.3.3-2-.3-4.1 0-6.2-.1-1.3-.1-2.5-.4-3.7-.6-1.1.2-2.2.6-3.2.5-1.4-.1-2.3-1-4.1-.4-1 .4-2.6-.2-4-.3-9.9-.4-19.8.7-29.6-.7h-51.8c-.8 0-1.5.3-2 .5-1-.2-2.2-.7-2.8-.4-2 .9-4.2.6-6.4.6H73.9c-2.3 0-4.7-.6-6.9.6-.4.2-1.6.1-1.9-.1-1.1-.9-2.5-.5-3.8-.5-3.3 0-6.6.2-10 .6-6.2.7-12.7.6-19.1.9-.7 0-1.4-.1-2.1 0-.4.1-.8.4-1 .6-.6-.2-1.2-.6-1.8-.6-2.1-.1-4.1 0-6.2 0h-5.7C13.6.2 12-.3 10 .1 5.4 1 .6-1-4.1.1c-.3-.2-.7-.4-.9-.6-2 .3-3.7.6-5.5.6-2 .1-4.1 0-6.1 0-.1.1-.2.2-.4.2v8.2c3.3 0 6.5.1 9.6-.1 3.6-.2 6.9.9 10.5.7 3-.1 6 .3 9-.6 1.4-.5 3.4 0 5.1-.1 1.5-.1 3 .4 4.4-.5 1.7-1 3 .5 4.6.6 1.6.1 3-.8 4.5-.3 1.9.8 3.4-.2 5-.2 5.1 0 10-1.2 15.1-.9 2 .1 4.4.6 6.3-.6.3-.2 1.6-.2 1.9.1 1.3 1 2.9.4 4.3.6 2.7.4 5.2-.6 7.9-.7 6.8-.1 13.6.1 20.3 0 6.8-.1 13.6.7 20.5-.6.4.2 1.1.5 1.7.7.6-.4 1-.6 1.3-.8 1.6.3 2.6.6 3.7.7 1.2.1 2.8.3 3.5-.1 1.7-.9 2.8.6 4.5.2 1.4-.3 3.1 0 4.6-.1 1.6-.1 3.2-.5 4.8-.7.3 0 .8 0 .9.2.9.8 2.2.5 3.3.5H162c.9 0 1.8.1 2.6 0 6.7-.9 8.1-.9 14.7 0 1.4.2 3.4.2 4.4-.3 2-1 3.1.2 4.6.4 2.1-1.3 4.2-.7 6.2.1.6-.4.9-.6 1.3-.8.4.2.7.4.9.5.9-.2 1.7-.6 2.4-.5 4 .2 8-.1 12.1.5 4.5.7 9.3.1 14 .8 2.9.4 5.9 0 8.9.7 1.7.4 3.8.1 5.8-.5 1.7-.5 3.6 1.1 5.7.6 1.1-.2 2.5-.9 3.1-.6 2.3 1 4.3 0 6.5 0 2.8 0 5.2 1.1 7.4.2 1.5-.6 2.5.2 4.9.4 2.1 1.7 2.2-.6 3.8.8V.2zM271.4-9.1c-2.5 0-4.4-.1-7.3 0h-6.2c-2.2 0-4.6 0-6.5-.1-2.3-.2-3.8.1-5.6.1-.6 0-1.2-.1-1.8-.1-2.6-.1-5.2-.2-7.8.1-1.9-.2-3.6-.2-8-.3-1.9 0-3.5.2-5.3.1-2-.1-4.1 0-6.2 0-1.3 0-2.5-.1-3.7-.2-1.1.1-2.2.2-3.2.2-1.4 0-2.3-.3-4.1-.1-1 .1-2.6-.1-4-.1-9.9-.1-19.8.2-29.6-.2h-51.8c-.8 0-1.5.1-2 .2-1-.1-2.2-.2-2.8-.1-2 .3-4.2.2-6.4.2H73.9c-2.3 0-4.7-.2-6.9.2-.4.1-1.6 0-1.9 0-1.1-.3-2.5-.2-3.8-.2-3.3 0-6.6.1-10 .2-6.3.2-12.8.2-19.2.3H30c-.4 0-.8.1-1 .2-.6-.1-1.2-.2-1.8-.2H15.3c-1.8 0-3.4-.1-5.4 0-4.6.3-9.4-.3-14.2 0-.3-.1-.7-.1-.9-.2-1.8-.2-3.5-.1-5.3-.1h-6.1c-.1 0-.2 0-.4.1v2.6h9.6c3.6-.1 6.9.3 10.5.2 3 0 6 .1 9-.2 1.4-.1 3.4 0 5.1 0 1.5 0 3 .1 4.4-.1 1.7-.3 3 .1 4.6.2 1.6 0 3-.3 4.5-.1 1.9.2 3.5-.1 5.1-.1 5.1 0 10-.4 15.1-.3 2 0 4.4.2 6.3-.2.3-.1 1.6-.1 1.9 0 1.3.3 2.9.1 4.4.2 2.7.1 5.2-.2 7.9-.2h20.2c6.8 0 13.6.2 20.5-.2.4.1 1.1.1 1.7.2.6-.1 1-.2 1.3-.3 1.6.1 2.6.2 3.7.2 1.2 0 2.8.1 3.5 0 1.7-.3 2.8.2 4.5.1 1.4-.1 3.1 0 4.6 0 1.6 0 3.2-.1 4.8-.2.3 0 .8 0 .9.1.9.3 2.2.2 3.3.2h24.3c6.7-.3 8.1-.3 14.7 0 1.4.1 3.4.1 4.4-.1 2-.3 3.1.1 4.6.1 2.1-.4 4.2-.2 6.2 0 .6-.1.9-.2 1.3-.3.4.1.7.1.9.2.9-.1 1.7-.2 2.4-.2 4 .1 8 0 12.1.2 4.5.2 9.3 0 14 .2 2.9.1 5.9 0 8.9.2 1.7.1 3.8 0 5.8-.2 1.7-.2 3.6.4 5.7.2 1.1-.1 2.5-.3 3.1-.2 2.3.3 4.3 0 6.5 0 2.8 0 5.2-.2 7.4-.5 1.5-.2 2.7.6 5.1.6.6.2 2.2.1 2.9.2h.7v-2.5zM271.4 50.4h-13.5c-2.2 0-4.6 0-6.5-.1-2.3-.2-3.8.1-5.6.1-.6 0-1.2-.1-1.8-.1-2.6-.1-5.2-.2-7.8.1-1.9-.2-3.6-.2-8-.3-1.9 0-3.5.2-5.3.1-2-.1-4.1 0-6.2 0-1.3 0-2.5-.1-3.7-.2-1.1.1-2.2.2-3.2.2-1.4 0-2.3-.3-4.1-.1-1 .1-2.6-.1-4-.1-9.9-.1-19.8.2-29.6-.2h-51.8c-.8 0-1.5.1-2 .1-1-.1-2.2-.2-2.8-.1-2 .3-4.2.2-6.4.2H73.9c-2.3 0-4.7-.2-6.9.2-.4.1-1.6 0-1.9 0-1.1-.3-2.5-.2-3.8-.2-3.3 0-6.6.1-10 .2-6.3.2-12.8.2-19.2.3H30c-.4 0-.8.1-1 .2-.6-.1-1.2-.2-1.8-.2H15.3c-1.8 0-3.4-.2-5.4 0-4.6.3-9.4-.3-14.2 0-.3-.1-.7-.1-.9-.2-1.9.1-3.6.2-5.4.2h-6.1c-.1 0-.2 0-.4.1v2.6h9.6c3.6-.1 6.9.3 10.5.2 3 0 6 .1 9-.2 1.4-.1 3.4 0 5.1 0 1.5 0 3 .1 4.4-.1 1.7-.3 3 .1 4.6.2 1.6 0 3-.3 4.5-.1 1.9.2 3.5-.1 5.1-.1 5.1 0 10-.4 15.1-.3 2 0 4.4.2 6.3-.2.3-.1 1.6-.1 1.9 0 1.3.3 2.9.1 4.3.2 2.7.1 5.2-.2 7.9-.2h20.2c6.8 0 13.6.2 20.5-.2.4.1 1.1.1 1.7.2.6-.1 1-.2 1.3-.3 1.6.1 2.6.2 3.7.2 1.2 0 2.8.1 3.5 0 1.7-.3 2.8.2 4.5.1 1.4-.1 3.1 0 4.6 0 1.6 0 3.2-.1 4.8-.2.3 0 .8 0 .9.1.9.3 2.2.2 3.3.2h24.3c6.7-.3 8.1-.3 14.7 0 1.4.1 3.4.1 4.4-.1 2-.3 3.1.1 4.6.1 2.1-.4 4.2-.2 6.2 0 .6-.1.9-.2 1.3-.3.4.1.7.1.9.2.9-.1 1.7-.2 2.4-.2 4 .1 8 0 12.1.2 4.5.2 9.3 0 14 .2 2.9.1 5.9 0 8.9.2 1.7.1 3.8 0 5.8-.2 1.7-.2 3.6.4 5.7.2 1.1-.1 2.5-.3 3.1-.2 2.3.3 4.3 0 6.5 0 2.8 0 5.2.1 7.5-.2 1.5-.2 2.5.3 4.9.4.6.2 2.9.1 3.6.3h.1v-2.9zM271.4 36.3c-2.4.1-4.4-.1-7.3-.1-2.1.1-4.1.1-6.2 0-2.2-.1-4.6.1-6.5-.4-2.3-.7-3.8.3-5.6.4-.6 0-1.2-.3-1.8-.4-2.6-.3-5.2-.8-7.8.4-1.9-.6-3.6-.6-8-.8-1.9-.1-3.5.5-5.3.3-2-.3-4.1 0-6.2-.1-1.3-.1-2.5-.4-3.7-.6-1.1.2-2.2.6-3.2.5-1.4-.1-2.3-1-4.1-.4-1 .4-2.6-.2-4-.3-9.9-.4-19.8.7-29.6-.7h-51.8c-.8 0-1.5.3-2 .5-1-.2-2.2-.7-2.8-.4-2 .9-4.2.6-6.4.6H73.9c-2.3 0-4.7-.6-6.9.6-.4.2-1.6.1-1.9-.1-1.1-.9-2.5-.5-3.8-.6-3.3 0-6.6.2-10 .6-6.3.6-12.8.6-19.2.8-.7 0-1.4-.1-2.1 0-.4.1-.8.4-1 .6-.6-.2-1.2-.6-1.8-.6-2.1-.1-4.1 0-6.2 0h-5.7c-1.8 0-3.4-.5-5.4-.1-4.6.9-9.4-1.1-14.2.1-.3-.2-.7-.4-.9-.6-1.9.2-3.6.5-5.4.6-2 .1-4.1 0-6.1 0-.1.1-.2.2-.4.2v8.2c3.3 0 6.5.1 9.6-.1 3.6-.2 6.9.9 10.5.7 3-.1 6 .3 9-.6 1.4-.5 3.4 0 5.1-.1 1.5-.1 3 .4 4.4-.5 1.7-1 3 .5 4.6.6 1.6.1 3-.8 4.5-.3 1.9.6 3.5-.3 5.1-.3 5.1 0 10-1.2 15.1-.9 2 .1 4.4.6 6.3-.6.3-.2 1.6-.2 1.9.1 1.3 1 2.9.4 4.3.6 2.7.4 5.2-.6 7.9-.7 6.7-.1 13.5.1 20.2-.1 6.8-.1 13.6.7 20.5-.6.4.2 1.1.5 1.7.7.6-.4 1-.6 1.3-.8 1.6.3 2.6.6 3.7.7 1.2.1 2.8.3 3.5-.1 1.7-.9 2.8.6 4.5.2 1.4-.3 3.1 0 4.6-.1 1.6-.1 3.2-.5 4.8-.7.3 0 .8 0 .9.2.9.8 2.2.5 3.3.5h21.7c.9 0 1.8.1 2.6 0 6.7-.9 8.1-.9 14.7 0 1.4.2 3.4.2 4.4-.3 2-1 3.1.2 4.6.4 2.1-1.3 4.2-.7 6.2.1.6-.4.9-.6 1.3-.8.4.2.7.4.9.5.9-.2 1.7-.6 2.4-.5 4 .2 8-.1 12.1.5 4.5.7 9.3.1 14 .8 2.9.4 5.9-.1 8.9.7 1.7.4 3.8.1 5.8-.5 1.7-.6 3.6 1.1 5.7.6 1.1-.2 2.5-.9 3.1-.6 2.3 1 4.3 0 6.5 0 2.8.1 5.2 1.1 7.4.2 1.5-.6 2.5.2 4.9.4 2.1 1.7 2.2-.6 3.8.8v-8.3zM271.4 27c-2.5 0-4.4-.1-7.3 0h-6.2c-2.2 0-4.6 0-6.5-.1-2.3-.2-3.8.1-5.6.1-.6 0-1.2-.1-1.8-.1-2.6-.1-5.2-.2-7.8.1-1.9-.2-3.6-.2-8-.3-1.9 0-3.5.2-5.3.1-2-.1-4.1 0-6.2 0-1.3 0-2.5-.1-3.7-.2-1.1.1-2.2.2-3.2.2-1.4 0-2.3-.3-4.1-.1-1 .1-2.6-.1-4-.1-9.9-.1-19.8.2-29.6-.2h-51.8c-.8 0-1.5.1-2 .2-1-.1-2.2-.2-2.8-.1-2 .3-4.2.2-6.4.2H73.9c-2.3 0-4.7-.2-6.9.2-.4.1-1.6 0-1.9 0-1.1-.3-2.5-.2-3.8-.2-3.3 0-6.6.1-10 .2-6.3.2-12.8.2-19.2.3H30c-.4 0-.8.1-1 .2-.6-.1-1.2-.2-1.8-.2H15.3c-1.8 0-3.4-.2-5.4 0-4.6.3-9.4-.3-14.2 0-.3-.1-.7-.1-.9-.2-1.9.1-3.6.2-5.4.2h-6.1c-.1 0-.2 0-.4.1v2.6h9.6c3.6-.1 6.9.3 10.5.2 3 0 6 .1 9-.2 1.4-.1 3.4 0 5.1 0 1.5 0 3 .1 4.4-.1 1.7-.3 3 .1 4.6.2 1.6 0 3-.3 4.5-.1 1.9.2 3.5-.1 5.1-.1 5.1 0 10-.4 15.1-.3 2 0 4.4.2 6.3-.2.3-.1 1.6-.1 1.9 0 1.3.3 2.9.1 4.3.2 2.7.1 5.2-.2 7.9-.2h20.2c6.8 0 13.6.2 20.5-.2.4.1 1.1.1 1.7.2.6-.1 1-.2 1.3-.3 1.6.1 2.6.2 3.7.2 1.2 0 2.8.1 3.5 0 1.7-.3 2.8.2 4.5.1 1.4-.1 3.1 0 4.6 0 1.6 0 3.2-.1 4.8-.2.3 0 .8 0 .9.1.9.3 2.2.2 3.3.2h24.3c6.7-.3 8.1-.3 14.7 0 1.4.1 3.4.1 4.4-.1 2-.3 3.1.1 4.6.1 2.1-.4 4.2-.2 6.2 0 .6-.1.9-.2 1.3-.3.4.1.7.1.9.2.9-.1 1.7-.2 2.4-.2 4 .1 8 0 12.1.2 4.5.2 9.3 0 14 .2 2.9.1 5.9 0 8.9.2 1.7.1 3.8 0 5.8-.2 1.7-.2 3.6.4 5.7.2 1.1-.1 2.5-.3 3.1-.2 2.3.3 4.3 0 6.5 0 2.8 0 5.2-.2 7.4-.5 1.5-.2 2.7.6 5.1.6.6.2 2.2.1 2.9.2h.7V27zM271.4 86.5h-13.5c-2.2 0-4.6 0-6.5-.1-2.3-.2-3.8.1-5.6.1-.6 0-1.2-.1-1.8-.1-2.6-.1-5.2-.2-7.8.1-1.9-.2-3.6-.2-8-.3-1.9 0-3.5.2-5.3.1-2-.1-4.1 0-6.2 0-1.3 0-2.5-.1-3.7-.2-1.1.1-2.2.2-3.2.2-1.4 0-2.3-.3-4.1-.1-1 .1-2.6-.1-4-.1-9.9-.1-19.8.2-29.6-.2h-51.8c-.8 0-1.5.1-2 .1-1-.1-2.2-.2-2.8-.1-2 .3-4.2.2-6.4.2H73.9c-2.3 0-4.7-.2-6.9.2-.4.1-1.6 0-1.9 0-1.1-.3-2.5-.2-3.8-.2-3.3 0-6.6.1-10 .2-6.3.2-12.8.2-19.2.3H30c-.4 0-.8.1-1 .2-.6-.1-1.2-.2-1.8-.2H15.3c-1.8 0-3.4-.2-5.4 0-4.6.3-9.4-.3-14.2 0-.3-.1-.7-.1-.9-.2-1.9.1-3.6.2-5.4.2h-6.1c-.1 0-.2 0-.4.1v2.6h9.6c3.6-.1 6.9.3 10.5.2 3 0 6 .1 9-.2 1.4-.1 3.4 0 5.1 0 1.5 0 3 .1 4.4-.1 1.7-.3 3 .1 4.6.2 1.6 0 3-.3 4.5-.1 1.9.2 3.5-.1 5.1-.1 5.1 0 10-.4 15.1-.3 2 0 4.4.2 6.3-.2.3-.1 1.6-.1 1.9 0 1.3.3 2.9.1 4.3.2 2.7.1 5.2-.2 7.9-.2h20.2c6.8 0 13.6.2 20.5-.2.4.1 1.1.1 1.7.2.6-.1 1-.2 1.3-.3 1.6.1 2.6.2 3.7.2 1.2 0 2.8.1 3.5 0 1.7-.3 2.8.2 4.5.1 1.4-.1 3.1 0 4.6 0 1.6 0 3.2-.1 4.8-.2.3 0 .8 0 .9.1.9.3 2.2.2 3.3.2h24.3c6.7-.3 8.1-.3 14.7 0 1.4.1 3.4.1 4.4-.1 2-.3 3.1.1 4.6.1 2.1-.4 4.2-.2 6.2 0 .6-.1.9-.2 1.3-.3.4.1.7.1.9.2.9-.1 1.7-.2 2.4-.2 4 .1 8 0 12.1.2 4.5.2 9.3 0 14 .2 2.9.1 5.9 0 8.9.2 1.7.1 3.8 0 5.8-.2 1.7-.2 3.6.4 5.7.2 1.1-.1 2.5-.3 3.1-.2 2.3.3 4.3 0 6.5 0 2.8 0 5.2.1 7.5-.2 1.5-.2 2.5.3 4.9.4.6.2 2.9.1 3.6.3h.1v-2.9zM271.4 72.4c-2.4.1-4.4-.1-7.3-.1-2.1.1-4.1.1-6.2 0-2.2-.1-4.6.1-6.5-.4-2.3-.7-3.8.3-5.6.4-.6 0-1.2-.3-1.8-.4-2.6-.3-5.2-.8-7.8.4-1.9-.6-3.6-.6-8-.8-1.9-.1-3.5.5-5.3.3-2-.3-4.1 0-6.2-.1-1.3-.1-2.5-.4-3.7-.6-1.1.2-2.2.6-3.2.5-1.4-.1-2.3-1-4.1-.4-1 .4-2.6-.2-4-.3-9.9-.4-19.8.7-29.6-.7h-51.8c-.8 0-1.5.3-2 .5-1-.2-2.2-.7-2.8-.4-2 .9-4.2.6-6.4.6H73.9c-2.3 0-4.7-.6-6.9.6-.4.2-1.6.1-1.9-.1-1.1-.9-2.5-.5-3.8-.6-3.3 0-6.6.2-10 .6-6.3.6-12.8.6-19.2.8-.7 0-1.4-.1-2.1 0-.4.1-.8.4-1 .6-.6-.2-1.2-.6-1.8-.6-2.1-.1-4.1 0-6.2 0h-5.7c-1.8 0-3.4-.5-5.4-.1-4.6.9-9.4-1.1-14.2.1-.3-.2-.7-.4-.9-.6-1.9.2-3.6.5-5.4.6-2 .1-4.1 0-6.1 0-.1.1-.2.2-.4.2v8.2c3.3 0 6.5.1 9.6-.1 3.6-.2 6.9.9 10.5.7 3-.1 6 .3 9-.6 1.4-.5 3.4 0 5.1-.1 1.5-.1 3 .4 4.4-.5 1.7-1 3 .5 4.6.6 1.6.1 3-.8 4.5-.3 1.9.6 3.5-.3 5.1-.3 5.1 0 10-1.2 15.1-.9 2 .1 4.4.6 6.3-.6.3-.2 1.6-.2 1.9.1 1.3 1 2.9.4 4.3.6 2.7.4 5.2-.6 7.9-.7 6.7-.1 13.5.1 20.2-.1 6.8-.1 13.6.7 20.5-.6.4.2 1.1.5 1.7.7.6-.4 1-.6 1.3-.8 1.6.3 2.6.6 3.7.7 1.2.1 2.8.3 3.5-.1 1.7-.9 2.8.6 4.5.2 1.4-.3 3.1 0 4.6-.1 1.6-.1 3.2-.5 4.8-.7.3 0 .8 0 .9.2.9.8 2.2.5 3.3.5h21.7c.9 0 1.8.1 2.6 0 6.7-.9 8.1-.9 14.7 0 1.4.2 3.4.2 4.4-.3 2-1 3.1.2 4.6.4 2.1-1.3 4.2-.7 6.2.1.6-.4.9-.6 1.3-.8.4.2.7.4.9.5.9-.2 1.7-.6 2.4-.5 4 .2 8-.1 12.1.5 4.5.7 9.3.1 14 .8 2.9.4 5.9-.1 8.9.7 1.7.4 3.8.1 5.8-.5 1.7-.6 3.6 1.1 5.7.6 1.1-.2 2.5-.9 3.1-.6 2.3 1 4.3 0 6.5 0 2.8.1 5.2 1.1 7.4.2 1.5-.6 2.5.2 4.9.4 2.1 1.7 2.2-.6 3.8.8v-8.3zM271.4 63.1c-2.5 0-4.4-.1-7.3 0h-6.2c-2.2 0-4.6 0-6.5-.1-2.3-.2-3.8.1-5.6.1-.6 0-1.2-.1-1.8-.1-2.6-.1-5.2-.2-7.8.1-1.9-.2-3.6-.2-8-.3-1.9 0-3.5.2-5.3.1-2-.1-4.1 0-6.2 0-1.3 0-2.5-.1-3.7-.2-1.1.1-2.2.2-3.2.2-1.4 0-2.3-.3-4.1-.1-1 .1-2.6-.1-4-.1-9.9-.1-19.8.2-29.6-.2h-51.8c-.8 0-1.5.1-2 .2-1-.1-2.2-.2-2.8-.1-2 .3-4.2.2-6.4.2H73.9c-2.3 0-4.7-.2-6.9.2-.4.1-1.6 0-1.9 0-1.1-.3-2.5-.2-3.8-.2-3.3 0-6.6.1-10 .2-6.3.2-12.8.2-19.2.3H30c-.4 0-.8.1-1 .2-.6-.1-1.2-.2-1.8-.2H15.3c-1.8 0-3.4-.2-5.4 0-4.6.3-9.4-.3-14.2 0-.3-.1-.7-.1-.9-.2-1.8-.2-3.5-.1-5.3-.1h-6.1c-.1 0-.2 0-.4.1v2.6h9.6c3.6-.1 6.9.3 10.5.2 3 0 6 .1 9-.2 1.4-.1 3.4 0 5.1 0 1.5 0 3 .1 4.4-.1 1.7-.3 3 .1 4.6.2 1.6 0 3-.3 4.5-.1 1.9.2 3.5-.1 5.1-.1 5.1 0 10-.4 15.1-.3 2 0 4.4.2 6.3-.2.3-.1 1.6-.1 1.9 0 1.3.3 2.9.1 4.3.2 2.7.1 5.2-.2 7.9-.2h20.2c6.8 0 13.6.2 20.5-.2.4.1 1.1.1 1.7.2.6-.1 1-.2 1.3-.3 1.6.1 2.6.2 3.7.2 1.2 0 2.8.1 3.5 0 1.7-.3 2.8.2 4.5.1 1.4-.1 3.1 0 4.6 0 1.6 0 3.2-.1 4.8-.2.3 0 .8 0 .9.1.9.3 2.2.2 3.3.2h24.3c6.7-.3 8.1-.3 14.7 0 1.4.1 3.4.1 4.4-.1 2-.3 3.1.1 4.6.1 2.1-.4 4.2-.2 6.2 0 .6-.1.9-.2 1.3-.3.4.1.7.1.9.2.9-.1 1.7-.2 2.4-.2 4 .1 8 0 12.1.2 4.5.2 9.3 0 14 .2 2.9.1 5.9 0 8.9.2 1.7.1 3.8 0 5.8-.2 1.7-.2 3.6.4 5.7.2 1.1-.1 2.5-.3 3.1-.2 2.3.3 4.3 0 6.5 0 2.8 0 5.2-.2 7.4-.5 1.5-.2 2.7.6 5.1.6.6.2 2.2.1 2.9.2h.7v-2.5zM271.4 122.6h-13.5c-2.2 0-4.6 0-6.5-.1-2.3-.2-3.8.1-5.6.1-.6 0-1.2-.1-1.8-.1-2.6-.1-5.2-.2-7.8.1-1.9-.2-3.6-.2-8-.3-1.9 0-3.5.2-5.3.1-2-.1-4.1 0-6.2 0-1.3 0-2.5-.1-3.7-.2-1.1.1-2.2.2-3.2.2-1.4 0-2.3-.3-4.1-.1-1 .1-2.6-.1-4-.1-9.9-.1-19.8.2-29.6-.2h-51.8c-.8 0-1.5.1-2 .1-1-.1-2.2-.2-2.8-.1-2 .3-4.2.2-6.4.2H73.9c-2.3 0-4.7-.2-6.9.2-.4.1-1.6 0-1.9 0-1.1-.3-2.5-.2-3.8-.2-3.3 0-6.6.1-10 .2-6.3.2-12.8.2-19.2.3H30c-.4 0-.8.1-1 .2-.6-.1-1.2-.2-1.8-.2H15.3c-1.8 0-3.4-.2-5.4 0-4.6.3-9.4-.3-14.2 0-.3-.1-.7-.1-.9-.2-1.9.1-3.6.2-5.4.2h-6.1c-.1 0-.2 0-.4.1v2.6h9.6c3.6-.1 6.9.3 10.5.2 3 0 6 .1 9-.2 1.4-.1 3.4 0 5.1 0 1.5 0 3 .1 4.4-.1 1.7-.3 3 .1 4.6.2 1.6 0 3-.3 4.5-.1 1.9.2 3.5-.1 5.1-.1 5.1 0 10-.4 15.1-.3 2 0 4.4.2 6.3-.2.3-.1 1.6-.1 1.9 0 1.3.3 2.9.1 4.3.2 2.7.1 5.2-.2 7.9-.2h20.2c6.8 0 13.6.2 20.5-.2.4.1 1.1.1 1.7.2.6-.1 1-.2 1.3-.3 1.6.1 2.6.2 3.7.2 1.2 0 2.8.1 3.5 0 1.7-.3 2.8.2 4.5.1 1.4-.1 3.1 0 4.6 0 1.6 0 3.2-.1 4.8-.2.3 0 .8 0 .9.1.9.3 2.2.2 3.3.2h24.3c6.7-.3 8.1-.3 14.7 0 1.4.1 3.4.1 4.4-.1 2-.3 3.1.1 4.6.1 2.1-.4 4.2-.2 6.2 0 .6-.1.9-.2 1.3-.3.4.1.7.1.9.2.9-.1 1.7-.2 2.4-.2 4 .1 8 0 12.1.2 4.5.2 9.3 0 14 .2 2.9.1 5.9 0 8.9.2 1.7.1 3.8 0 5.8-.2 1.7-.2 3.6.4 5.7.2 1.1-.1 2.5-.3 3.1-.2 2.3.3 4.3 0 6.5 0 2.8 0 5.2.1 7.5-.2 1.5-.2 2.5.3 4.9.4.6.2 2.9.1 3.6.3h.1v-2.9zM271.4 108.5c-2.4.1-4.4-.1-7.3-.1-2.1.1-4.1.1-6.2 0-2.2-.1-4.6.1-6.5-.4-2.3-.7-3.8.3-5.6.4-.6 0-1.2-.3-1.8-.4-2.6-.3-5.2-.8-7.8.4-1.9-.6-3.6-.6-8-.8-1.9-.1-3.5.5-5.3.3-2-.3-4.1 0-6.2-.1-1.3-.1-2.5-.4-3.7-.6-1.1.2-2.2.6-3.2.5-1.4-.1-2.3-1-4.1-.4-1 .4-2.6-.2-4-.3-9.9-.4-19.8.7-29.6-.7h-51.8c-.8 0-1.5.3-2 .5-1-.2-2.2-.7-2.8-.4-2 .9-4.2.6-6.4.6H73.9c-2.3 0-4.7-.6-6.9.6-.4.2-1.6.1-1.9-.1-1.1-.9-2.5-.5-3.8-.5-3.3 0-6.6.2-10 .6-6.3.6-12.8.6-19.2.8-.7 0-1.4-.1-2.1 0-.4.1-.8.4-1 .6-.6-.2-1.2-.6-1.8-.6-2.1-.1-4.1 0-6.2 0h-5.7c-1.8 0-3.4-.5-5.4-.1-4.6.9-9.4-1.1-14.2.1-.3-.2-.7-.4-.9-.6-1.9.2-3.6.5-5.4.6-2 .1-4.1 0-6.1 0-.1.1-.2.2-.4.2v8.2c3.3 0 6.5.1 9.6-.1 3.6-.2 6.9.9 10.5.7 3-.1 6 .3 9-.6 1.4-.5 3.4 0 5.1-.1 1.5-.1 3 .4 4.4-.5 1.7-1 3 .5 4.6.6 1.6.1 3-.8 4.5-.3 1.9.6 3.5-.3 5.1-.3 5.1 0 10-1.2 15.1-.9 2 .1 4.4.6 6.3-.6.3-.2 1.6-.2 1.9.1 1.3 1 2.9.4 4.3.6 2.7.4 5.2-.6 7.9-.7 6.7-.1 13.5.1 20.2-.1 6.8-.1 13.6.7 20.5-.6.4.2 1.1.5 1.7.7.6-.4 1-.6 1.3-.8 1.6.3 2.6.6 3.7.7 1.2.1 2.8.3 3.5-.1 1.7-.9 2.8.6 4.5.2 1.4-.3 3.1 0 4.6-.1 1.6-.1 3.2-.5 4.8-.7.3 0 .8 0 .9.2.9.8 2.2.5 3.3.5h21.7c.9 0 1.8.1 2.6 0 6.7-.9 8.1-.9 14.7 0 1.4.2 3.4.2 4.4-.3 2-1 3.1.2 4.6.4 2.1-1.3 4.2-.7 6.2.1.6-.4.9-.6 1.3-.8.4.2.7.4.9.5.9-.2 1.7-.6 2.4-.5 4 .2 8-.1 12.1.5 4.5.7 9.3.1 14 .8 2.9.4 5.9 0 8.9.7 1.7.4 3.8.1 5.8-.5 1.7-.6 3.6 1.1 5.7.6 1.1-.2 2.5-.9 3.1-.6 2.3 1 4.3 0 6.5 0 2.8.1 5.2 1.1 7.4.2 1.5-.6 2.5.2 4.9.4 2.1 1.7 2.2-.6 3.8.8v-8.4zM271.4 99.1c-2.5 0-4.4-.1-7.3 0h-6.2c-2.2 0-4.6 0-6.5-.1-2.3-.2-3.8.1-5.6.1-.6 0-1.2-.1-1.8-.1-2.6-.1-5.2-.2-7.8.1-1.9-.2-3.6-.2-8-.3-1.9 0-3.5.2-5.3.1-2-.1-4.1 0-6.2 0-1.3 0-2.5-.1-3.7-.2-1.1.1-2.2.2-3.2.2-1.4 0-2.3-.3-4.1-.1-1 .1-2.6-.1-4-.1-9.9-.1-19.8.2-29.6-.2h-51.8c-.8 0-1.5.1-2 .2-1-.1-2.2-.2-2.8-.1-2 .3-4.2.2-6.4.2H73.9c-2.3 0-4.7-.2-6.9.2-.4.1-1.6 0-1.9 0-1.1-.3-2.5-.2-3.8-.2-3.3 0-6.6.1-10 .2-6.2 0-12.7 0-19.1.1h-2.1c-.4 0-.8.1-1 .2-.6-.1-1.2-.2-1.8-.2H15.4c-1.8 0-3.4-.2-5.4 0-4.6.3-9.4-.3-14.2 0-.3-.1-.6-.1-.9-.2-1.9.1-3.6.2-5.4.2h-6.1c-.1 0-.2 0-.4.1v2.6h9.6c3.6-.1 6.9.3 10.5.2 3 0 6 .1 9-.2 1.4-.1 3.4 0 5.1 0 1.5 0 3 .1 4.4-.1 1.7-.3 3 .1 4.6.2 1.6 0 3-.3 4.5-.1 1.9.2 3.5-.1 5.1-.1 5.1 0 10-.4 15.1-.3 2 0 4.4.2 6.3-.2.3-.1 1.6-.1 1.9 0 1.3.3 2.9.1 4.3.2 2.7.1 5.2-.2 7.9-.2h20.2c6.8 0 13.6.2 20.5-.2.4.1 1.1.1 1.7.2.6-.1 1-.2 1.3-.3 1.6.1 2.6.2 3.7.2 1.2 0 2.8.1 3.5 0 1.7-.3 2.8.2 4.5.1 1.4-.1 3.1 0 4.6 0 1.6 0 3.2-.1 4.8-.2.3 0 .8 0 .9.1.9.3 2.2.2 3.3.2h24.3c6.7-.3 8.1-.3 14.7 0 1.4.1 3.4.1 4.4-.1 2-.3 3.1.1 4.6.1 2.1-.4 4.2-.2 6.2 0 .6-.1.9-.2 1.3-.3.4.1.7.1.9.2.9-.1 1.7-.2 2.4-.2 4 .1 8 0 12.1.2 4.5.2 9.3 0 14 .2 2.9.1 5.9 0 8.9.2 1.7.1 3.8 0 5.8-.2 1.7-.2 3.6.4 5.7.2 1.1-.1 2.5-.3 3.1-.2 2.3.3 4.3 0 6.5 0 2.8 0 5.2-.2 7.4-.5 1.5-.2 2.7.6 5.1.6.6.2 2.2.1 2.9.2h.7v-2.6z"/><path class="st4" d="M11.6-158.5v13.5c0 2.2 0 4.6-.1 6.5-.2 2.3.1 3.8.1 5.6 0 .6-.1 1.2-.1 1.8-.1 2.6-.2 5.2.1 7.8-.2 1.9-.2 3.6-.3 8 0 1.9.2 3.5.1 5.3-.1 2 0 4.1 0 6.2 0 1.3-.1 2.5-.2 3.7.1 1.1.2 2.2.2 3.2 0 1.4-.3 2.3-.1 4.1.1 1-.1 2.6-.1 4-.2 9.8.1 19.7-.3 29.6v51.8c0 .8.1 1.5.2 2-.1 1-.2 2.2-.1 2.8.3 2 .2 4.2.2 6.4V39c0 2.3-.2 4.7.2 6.9.1.4 0 1.6 0 1.9-.3 1.1-.2 2.5-.2 3.8 0 3.3.1 6.6.2 10 .2 6.3.2 12.8.3 19.2v2.1c0 .4.1.7.2 1-.1.6-.2 1.2-.2 1.8v11.9c0 1.8-.2 3.4 0 5.4.3 4.6-.3 9.4 0 14.2-.1.3-.1.7-.2.9.1 1.9.2 3.6.2 5.4v6.1c0 .1.1.2.1.4h2.6v-9.6c-.1-3.6.3-6.9.2-10.5 0-3 .1-6-.2-9-.1-1.4 0-3.4 0-5.1 0-1.5.1-3-.2-4.4-.3-1.7.1-3 .2-4.6 0-1.6-.3-3-.1-4.5.2-1.9-.1-3.5-.1-5.1 0-5.1-.4-10-.3-15.1 0-2 .2-4.4-.2-6.3-.1-.3-.1-1.6 0-1.9.3-1.3.1-2.9.2-4.3.1-2.7-.2-5.2-.2-7.9V21.5c0-6.8.2-13.6-.2-20.5.1-.4.1-1.1.2-1.7-.1-.6-.2-1-.3-1.3.1-1.6.2-2.6.2-3.7 0-1.2.1-2.8 0-3.5-.3-1.7.2-2.8.1-4.5-.1-1.4 0-3.1 0-4.6 0-1.6-.1-3.2-.2-4.8 0-.3 0-.8.1-.9.3-.9.2-2.2.2-3.3V-49v-2.6c-.3-6.7-.3-8.1 0-14.7.1-1.4.1-3.4-.1-4.4-.3-2 .1-3.1.1-4.6-.4-2.1-.2-4.2 0-6.2-.1-.6-.2-.9-.3-1.3.1-.4.1-.7.2-.9-.1-.9-.2-1.7-.2-2.4.1-4 0-8 .2-12.1.2-4.5 0-9.3.2-14 .1-2.9 0-5.9.2-8.9.1-1.7 0-3.8-.2-5.8-.2-1.7.4-3.6.2-5.7-.1-1.1-.3-2.5-.2-3.1.3-2.3 0-4.3 0-6.5 0-2.8.1-5.2-.2-7.5-.2-1.5.3-2.5.4-4.9.2-.6.1-2.9.3-3.6v-.1h-2.8zM-2.6-158.5c.1 2.4-.2 4.4-.1 7.3.1 2.1.1 4.1 0 6.2-.1 2.2.1 4.6-.4 6.5-.7 2.3.3 3.8.4 5.6 0 .6-.3 1.2-.4 1.8-.3 2.6-.8 5.2.4 7.8-.6 1.9-.6 3.6-.8 8-.1 1.9.5 3.5.3 5.3-.3 2 0 4.1-.1 6.2-.1 1.3-.4 2.5-.6 3.7.2 1.1.6 2.2.5 3.2-.1 1.4-1 2.3-.4 4.1.4 1-.2 2.6-.3 4-.3 9.8.8 19.7-.6 29.6v51.8c0 .8.3 1.5.5 2-.2 1-.7 2.2-.4 2.8.9 2 .6 4.2.6 6.3v35.2c0 2.3-.6 4.7.6 6.9.2.4.1 1.6-.1 1.9-.9 1.1-.5 2.5-.5 3.8 0 3.3.2 6.6.6 10 .6 6.3.6 12.8.8 19.2 0 .7-.1 1.4 0 2.1.1.4.4.7.6 1-.2.6-.6 1.2-.6 1.8-.1 2.1 0 4.1 0 6.2v5.7c0 1.8-.5 3.4-.1 5.4.9 4.6-1.1 9.4.1 14.2-.2.3-.4.7-.6.9.2 1.9.5 3.6.6 5.4.1 2.1 0 4.1 0 6.1.1.1.2.2.2.4h8.2c0-3.3.1-6.5-.1-9.6-.2-3.6.9-6.9.7-10.5-.1-3 .3-6-.6-9-.4-1.4 0-3.4-.1-5.1-.1-1.5.4-3-.5-4.4-1.1-1.7.5-3 .6-4.6.1-1.6-.8-3-.3-4.5.6-1.9-.3-3.5-.3-5.1 0-5.1-1.2-10-.9-15.1.1-2 .6-4.4-.6-6.3-.2-.3-.2-1.6.1-1.9 1-1.3.4-2.9.6-4.3.4-2.7-.6-5.2-.7-7.9-.1-6.7.1-13.5-.1-20.2 0-6.8.8-13.6-.5-20.6.2-.4.5-1.1.7-1.7-.3-.6-.5-.9-.8-1.3.3-1.6.6-2.6.7-3.7.1-1.2.3-2.8-.1-3.5-.9-1.7.6-2.8.2-4.5-.3-1.4 0-3.1-.1-4.6-.1-1.6-.5-3.2-.7-4.8 0-.3 0-.8.2-.9.8-.9.5-2.2.5-3.3v-21.7c0-.9.1-1.8 0-2.6-.9-6.7-.9-8.1 0-14.7.2-1.4.2-3.4-.3-4.4-1-2 .2-3.1.4-4.6-1.3-2.1-.7-4.2.1-6.2-.4-.6-.6-1-.9-1.3.2-.4.4-.7.5-.9-.2-.9-.6-1.7-.5-2.4.2-4-.1-8 .5-12.1.7-4.5.1-9.3.8-14 .4-2.9-.1-5.9.7-8.9.4-1.7.1-3.8-.5-5.8-.5-1.7 1.1-3.6.6-5.7-.2-1.1-.9-2.5-.6-3.1 1-2.3 0-4.3 0-6.5.1-2.8 1.1-5.2.2-7.4-.6-1.5.2-2.5.4-4.9 1.7-2.1-.6-2.2.8-3.8h-8.5zM-11.9-158.5c0 2.5-.1 4.4 0 7.3v6.2c0 2.2 0 4.6-.1 6.5-.2 2.3.1 3.8.1 5.6 0 .6-.1 1.2-.1 1.8-.1 2.6-.2 5.2.1 7.8-.2 1.9-.2 3.6-.3 8 0 1.9.2 3.5.1 5.3-.1 2 0 4.1 0 6.2 0 1.3-.1 2.5-.2 3.7.1 1.1.2 2.2.2 3.2 0 1.4-.3 2.3-.1 4.1.1 1-.1 2.6-.1 4-.1 9.9.2 19.8-.2 29.6v51.8c0 .8.1 1.5.2 2-.1 1-.2 2.2-.1 2.8.3 2 .2 4.2.2 6.4V39c0 2.3-.2 4.7.2 6.9.1.4 0 1.6 0 1.9-.3 1.1-.2 2.5-.2 3.8 0 3.3.1 6.6.2 10 .2 6.3.2 12.8.3 19.2v2.1c0 .4.1.7.2 1-.1.6-.2 1.2-.2 1.8v11.9c0 1.8-.2 3.4 0 5.4.3 4.6-.3 9.4 0 14.2-.1.3-.1.7-.2.9.1 1.9.2 3.6.2 5.4v6.1c0 .1 0 .2.1.4H-9v-9.6c-.1-3.6.3-6.9.2-10.5 0-3 .1-6-.2-9-.1-1.4 0-3.4 0-5.1 0-1.5.1-3-.2-4.4-.3-1.7.1-3 .2-4.6 0-1.6-.3-3-.1-4.5.2-1.9-.1-3.5-.1-5.1 0-5.1-.4-10-.3-15.1 0-2 .2-4.4-.2-6.3-.1-.3-.1-1.6 0-1.9.3-1.3.1-2.9.2-4.3.1-2.7-.2-5.2-.2-7.9V21.5c0-6.8.2-13.6-.2-20.5.1-.4.1-1.1.2-1.7-.1-.6-.2-1-.3-1.3.1-1.6.2-2.6.2-3.7 0-1.2.1-2.8 0-3.5-.3-1.7.2-2.8.1-4.5-.1-1.4 0-3.1 0-4.6 0-1.6-.1-3.2-.2-4.8 0-.3 0-.8.1-.9.3-.9.2-2.2.2-3.3V-49v-2.6c-.3-6.7-.3-8.1 0-14.7.1-1.4.1-3.4-.1-4.4-.3-2 .1-3.1.1-4.6-.4-2.1-.2-4.2 0-6.2-.1-.6-.2-.9-.3-1.3.1-.4.1-.7.2-.9-.1-.9-.2-1.7-.2-2.4.1-4 0-8 .2-12.1.2-4.5 0-9.3.2-14 .1-2.9 0-5.9.2-8.9.1-1.7 0-3.8-.2-5.8-.2-1.7.4-3.6.2-5.7-.1-1.1-.3-2.5-.2-3.1.3-2.3 0-4.3 0-6.5 0-2.8-.2-5.2-.5-7.4-.2-1.5.6-2.7.6-5.1.2-.6.1-2.2.2-2.9v-.7h-2.7zM47.7-158.5v13.5c0 2.2 0 4.6-.1 6.5-.2 2.3.1 3.8.1 5.6 0 .6-.1 1.2-.1 1.8-.1 2.6-.2 5.2.1 7.8-.2 1.9-.2 3.6-.3 8 0 1.9.2 3.5.1 5.3-.1 2 0 4.1 0 6.2 0 1.3-.1 2.5-.2 3.7.1 1.1.2 2.2.2 3.2 0 1.4-.3 2.3-.1 4.1.1 1-.1 2.6-.1 4-.2 9.8.1 19.7-.3 29.6v51.8c0 .8.1 1.5.2 2-.1 1-.2 2.2-.1 2.8.3 2 .2 4.2.2 6.4V39c0 2.3-.2 4.7.2 6.9.1.4 0 1.6 0 1.9-.3 1.1-.2 2.5-.2 3.8 0 3.3.1 6.6.2 10 .2 6.3.2 12.8.3 19.2v2.1c0 .4.1.7.2 1-.1.6-.2 1.2-.2 1.8v11.9c0 1.8-.2 3.4 0 5.4.3 4.6-.3 9.4 0 14.2-.1.3-.1.7-.2.9.1 1.9.2 3.6.2 5.4v6.1c0 .1.1.2.1.4h2.6v-9.6c-.1-3.6.3-6.9.2-10.5 0-3 .1-6-.2-9-.1-1.4 0-3.4 0-5.1 0-1.5.1-3-.2-4.4-.3-1.7.1-3 .2-4.6 0-1.6-.3-3-.1-4.5.2-1.9-.1-3.5-.1-5.1 0-5.1-.4-10-.3-15.1 0-2 .2-4.4-.2-6.3-.1-.3-.1-1.6 0-1.9.3-1.3.1-2.9.2-4.3.1-2.7-.2-5.2-.2-7.9V21.5c0-6.8.2-13.6-.2-20.5.1-.4.1-1.1.2-1.7-.1-.6-.2-1-.3-1.3.1-1.6.2-2.6.2-3.7 0-1.2.1-2.8 0-3.5-.3-1.7.2-2.8.1-4.5-.1-1.4 0-3.1 0-4.6 0-1.6-.1-3.2-.2-4.8 0-.3 0-.8.1-.9.3-.9.2-2.2.2-3.3V-49v-2.6c-.3-6.7-.3-8.1 0-14.7.1-1.4.1-3.4-.1-4.4-.3-2 .1-3.1.1-4.6-.4-2.1-.2-4.2 0-6.2-.1-.6-.2-.9-.3-1.3.1-.4.1-.7.2-.9-.1-.9-.2-1.7-.2-2.4.1-4 0-8 .2-12.1.2-4.5 0-9.3.3-14 .1-2.9 0-5.9.2-8.9.1-1.7 0-3.8-.2-5.8-.2-1.7.4-3.6.2-5.7-.1-1.1-.3-2.5-.2-3.1.3-2.3 0-4.3 0-6.5 0-2.8.1-5.2-.2-7.5-.2-1.5.3-2.5.4-4.9.2-.6.1-2.9.3-3.6v-.1h-2.9zM33.5-158.5c.1 2.4-.2 4.4-.1 7.3.1 2.1.1 4.1 0 6.2-.1 2.2.1 4.6-.4 6.5-.7 2.3.3 3.8.4 5.6 0 .6-.3 1.2-.4 1.8-.3 2.6-.8 5.2.4 7.8-.6 1.9-.6 3.6-.8 8-.1 1.9.5 3.5.3 5.3-.3 2 0 4.1-.1 6.2-.1 1.3-.4 2.5-.6 3.7.2 1.1.6 2.2.5 3.2-.1 1.4-1 2.3-.4 4.1.4 1-.2 2.6-.3 4-.4 9.9.7 19.8-.7 29.6v51.8c0 .8.3 1.5.5 2-.2 1-.7 2.2-.4 2.8.9 2 .6 4.2.6 6.4V39c0 2.3-.6 4.7.6 6.9.2.4.1 1.6-.1 1.9-.9 1.1-.5 2.5-.5 3.8 0 3.3.2 6.6.6 10 .6 6.3.6 12.8.8 19.2 0 .7-.1 1.4 0 2.1.1.4.4.7.6 1-.2.6-.6 1.2-.6 1.8-.1 2.1 0 4.1 0 6.2v5.7c0 1.8-.5 3.4-.1 5.4.9 4.6-1.1 9.4.1 14.2-.2.3-.4.7-.6.9.2 1.9.5 3.6.6 5.4.1 2.1 0 4.1 0 6.1.1.1.2.2.2.4H42c0-3.3.1-6.5-.1-9.6-.2-3.6.9-6.9.7-10.5-.1-3 .3-6-.6-9-.4-1.4 0-3.4-.1-5.1-.1-1.5.4-3-.5-4.4-1.1-1.7.5-3 .6-4.6.1-1.6-.8-3-.3-4.5.6-1.9-.3-3.5-.3-5.1 0-5.1-1.2-10-.9-15.1.1-2 .6-4.4-.6-6.3-.2-.3-.2-1.6.1-1.9 1-1.3.4-2.9.6-4.3.4-2.7-.6-5.2-.7-7.9-.1-6.7.1-13.5-.1-20.2-.1-6.8.7-13.6-.6-20.5.2-.4.5-1.1.7-1.7-.4-.6-.6-1-.8-1.3.3-1.6.6-2.6.7-3.7.1-1.2.3-2.8-.1-3.5-.9-1.7.6-2.8.2-4.5-.3-1.4 0-3.1-.1-4.6-.1-1.6-.5-3.2-.7-4.8 0-.3 0-.8.2-.9.8-.9.5-2.2.5-3.3V-49c0-.9.1-1.8 0-2.6-.9-6.7-.9-8.1 0-14.7.2-1.4.2-3.4-.3-4.4-1-2 .2-3.1.4-4.6-1.3-2.1-.7-4.2.1-6.2-.4-.6-.6-.9-.8-1.3.2-.4.4-.7.5-.9-.2-.9-.6-1.7-.5-2.4.2-4-.1-8 .5-12.1.7-4.5.1-9.3.8-14 .4-2.9-.1-5.9.7-8.9.4-1.7.1-3.8-.5-5.8-.5-1.7 1.1-3.6.6-5.7-.2-1.1-.9-2.5-.6-3.1 1-2.3 0-4.3 0-6.5.1-2.8 1.1-5.2.2-7.4-.6-1.5.2-2.5.4-4.9 1.7-2.1-.6-2.2.8-3.8h-8.6zM24.2-158.5c0 2.5-.1 4.4 0 7.3v6.2c0 2.2 0 4.6-.1 6.5-.2 2.3.1 3.8.1 5.6 0 .6-.1 1.2-.1 1.8-.1 2.6-.2 5.2.1 7.8-.2 1.9-.2 3.6-.3 8 0 1.9.2 3.5.1 5.3-.1 2 0 4.1 0 6.2 0 1.3-.1 2.5-.2 3.7.1 1.1.2 2.2.2 3.2 0 1.4-.3 2.3-.1 4.1.1 1-.1 2.6-.1 4-.1 9.9.2 19.8-.2 29.6v51.8c0 .8.1 1.5.2 2-.1 1-.2 2.2-.1 2.8.3 2 .2 4.2.2 6.4V39c0 2.3-.2 4.7.2 6.9.1.4 0 1.6 0 1.9-.3 1.1-.2 2.5-.2 3.8 0 3.3.1 6.6.2 10 .2 6.3.2 12.8.3 19.2v2.1c0 .4.1.7.2 1-.1.6-.2 1.2-.2 1.8v11.9c0 1.8-.2 3.4 0 5.4.3 4.6-.3 9.4 0 14.2-.1.3-.1.7-.2.9.1 1.9.2 3.6.2 5.4v6.1c0 .1.1.2.1.4h2.6v-9.6c-.1-3.6.3-6.9.2-10.5 0-3 .1-6-.2-9-.1-1.4 0-3.4 0-5.1 0-1.5.1-3-.2-4.4-.3-1.7.1-3 .2-4.6 0-1.6-.3-3-.1-4.5.2-1.9-.1-3.5-.1-5.1 0-5.1-.4-10-.3-15.1 0-2 .2-4.4-.2-6.3-.1-.3-.1-1.6 0-1.9.3-1.3.1-2.9.2-4.3.1-2.7-.2-5.2-.2-7.9V21.5c0-6.8.2-13.6-.2-20.5.1-.4.1-1.1.2-1.7-.1-.6-.2-1-.3-1.3.1-1.6.2-2.6.2-3.7 0-1.2.1-2.8 0-3.5-.3-1.7.2-2.8.1-4.5-.1-1.4 0-3.1 0-4.6 0-1.6-.1-3.2-.2-4.8 0-.3 0-.8.1-.9.3-.9.2-2.2.2-3.3V-49v-2.6c-.3-6.7-.3-8.1 0-14.7.1-1.4.1-3.4-.1-4.4-.3-2 .1-3.1.1-4.6-.4-2.1-.2-4.2 0-6.2-.1-.6-.2-.9-.3-1.3.1-.4.1-.7.2-.9-.1-.9-.2-1.7-.2-2.4.1-4 0-8 .2-12.1.2-4.5 0-9.3.3-14 .1-2.9 0-5.9.2-8.9.1-1.7 0-3.8-.2-5.8-.2-1.7.4-3.6.2-5.7-.1-1.1-.3-2.5-.2-3.1.3-2.3 0-4.3 0-6.5 0-2.8-.2-5.2-.5-7.4-.2-1.5.5-2.7.6-5.1.2-.6.1-2.2.2-2.9v-.7h-2.8zM83.7-158.5v13.5c0 2.2 0 4.6-.1 6.5-.2 2.3.1 3.8.1 5.6 0 .6-.1 1.2-.1 1.8-.1 2.6-.2 5.2.1 7.8-.2 1.9-.2 3.6-.3 8 0 1.9.2 3.5.1 5.3-.1 2 0 4.1 0 6.2 0 1.3-.1 2.5-.2 3.7.1 1.1.2 2.2.2 3.2 0 1.4-.3 2.3-.1 4.1.1 1-.1 2.6-.1 4-.1 9.9.2 19.8-.2 29.6v51.8c0 .8.1 1.5.2 2-.1 1-.2 2.2-.1 2.8.3 2 .2 4.2.2 6.4V39c0 2.3-.2 4.7.2 6.9.1.4 0 1.6 0 1.9-.3 1.1-.2 2.5-.2 3.8 0 3.3.1 6.6.2 10 .2 6.3.2 12.8.3 19.2v2.1c0 .4.1.7.2 1-.1.6-.2 1.2-.2 1.8v11.9c0 1.8-.2 3.4 0 5.4.3 4.6-.3 9.4 0 14.2-.1.3-.1.7-.2.9.1 1.9.2 3.6.2 5.4v6.1c0 .1 0 .2.1.4h2.6v-9.6c-.1-3.6.3-6.9.2-10.5 0-3 .1-6-.2-9-.1-1.4 0-3.4 0-5.1 0-1.5.1-3-.2-4.4-.3-1.7.1-3 .2-4.6s-.3-3-.1-4.5c.2-1.9-.1-3.5-.1-5.1 0-5.1-.4-10-.3-15.1 0-2 .2-4.4-.2-6.3-.1-.3-.1-1.6 0-1.9.3-1.3.1-2.9.2-4.3.1-2.7-.2-5.2-.2-7.9V21.5c0-6.8.2-13.6-.2-20.5.1-.4.1-1.1.2-1.7-.1-.6-.2-1-.3-1.3.1-1.6.2-2.6.2-3.7 0-1.2.1-2.8 0-3.5-.3-1.7.2-2.8.1-4.5-.1-1.4 0-3.1 0-4.6 0-1.6-.1-3.2-.2-4.8 0-.3 0-.8.1-.9.3-.9.2-2.2.2-3.3V-49v-2.6c-.3-6.7-.3-8.1 0-14.7.1-1.4.1-3.4-.1-4.4-.3-2 .1-3.1.1-4.6-.4-2.1-.2-4.2 0-6.2-.1-.6-.2-.9-.3-1.3.1-.4.1-.7.2-.9-.1-.9-.2-1.7-.2-2.4.1-4 0-8 .2-12.1.2-4.5 0-9.3.3-14 .1-2.9 0-5.9.2-8.9.1-1.7 0-3.8-.2-5.8-.2-1.7.4-3.6.2-5.7-.1-1.1-.3-2.5-.2-3.1.3-2.3 0-4.3 0-6.5 0-2.8.1-5.2-.2-7.5-.2-1.5.3-2.5.4-4.9.2-.6.1-2.9.3-3.6v-.1h-3zM69.6-158.5c.1 2.4-.2 4.4-.1 7.3.1 2.1.1 4.1 0 6.2-.1 2.2.1 4.6-.4 6.5-.7 2.3.3 3.8.4 5.6 0 .6-.3 1.2-.4 1.8-.3 2.6-.8 5.2.4 7.8-.6 1.9-.6 3.6-.8 8-.1 1.9.5 3.5.3 5.3-.3 2 0 4.1-.1 6.2-.1 1.3-.4 2.5-.6 3.7.2 1.1.6 2.2.5 3.2-.1 1.4-1 2.3-.4 4.1.4 1-.2 2.6-.3 4-.4 9.9.7 19.8-.7 29.6v51.8c0 .8.3 1.5.5 2-.2 1-.7 2.2-.4 2.8.9 2 .6 4.2.6 6.4V39c0 2.3-.6 4.7.6 6.9.2.4.1 1.6-.1 1.9-.9 1.1-.5 2.5-.5 3.8 0 3.3.2 6.6.6 10 .6 6.3.6 12.8.8 19.2 0 .7-.1 1.4 0 2.1.1.4.4.7.6 1-.2.6-.6 1.2-.6 1.8-.1 2.1 0 4.1 0 6.2v5.7c0 1.8-.5 3.4-.1 5.4.9 4.6-1.1 9.4.1 14.2-.2.3-.4.7-.6.9.2 1.9.5 3.6.6 5.4.1 2.1 0 4.1 0 6.1.1.1.2.2.2.4H78c0-3.3.1-6.5-.1-9.6-.2-3.6.9-6.9.7-10.5-.1-3 .3-6-.6-9-.5-1.4 0-3.4-.1-5.1-.1-1.5.4-3-.5-4.4-1.1-1.7.5-3 .6-4.6s-.8-3-.3-4.5c.6-1.9-.3-3.5-.3-5.1 0-5.1-1.2-10-.9-15.1.1-2 .6-4.4-.6-6.3-.2-.3-.2-1.6.1-1.9 1-1.3.4-2.9.6-4.3.4-2.7-.6-5.2-.7-7.9-.1-6.7.1-13.5-.1-20.2-.1-6.8.7-13.6-.6-20.5.2-.4.5-1.1.7-1.7-.4-.6-.6-1-.8-1.3.3-1.6.6-2.6.7-3.7.1-1.2.3-2.8-.1-3.5-.9-1.7.6-2.8.2-4.5-.3-1.4 0-3.1-.1-4.6-.1-1.6-.5-3.2-.7-4.8 0-.3 0-.8.2-.9.8-.9.5-2.2.5-3.3V-49c0-.9.1-1.8 0-2.6-.9-6.7-.9-8.1 0-14.7.2-1.4.2-3.4-.3-4.4-1-2 .2-3.1.4-4.6-1.3-2.1-.7-4.2.1-6.2-.4-.6-.6-.9-.8-1.3.2-.4.4-.7.5-.9-.2-.9-.6-1.7-.5-2.4.2-4-.1-8 .5-12.1.7-4.5.1-9.3.8-14 .4-2.9-.1-5.9.7-8.9.4-1.7.1-3.8-.5-5.8-.5-1.7 1.1-3.6.6-5.7-.2-1.1-.9-2.5-.6-3.1 1-2.3 0-4.3 0-6.5.1-2.8 1.1-5.2.2-7.4-.6-1.5.2-2.5.4-4.9 1.7-2.1-.6-2.2.8-3.8h-8.5zM60.3-158.5c0 2.5-.1 4.4 0 7.3v6.2c0 2.2 0 4.6-.1 6.5-.2 2.3.1 3.8.1 5.6 0 .6-.1 1.2-.1 1.8-.1 2.6-.2 5.2.1 7.8-.2 1.9-.2 3.6-.3 8 0 1.9.2 3.5.1 5.3-.1 2 0 4.1 0 6.2 0 1.3-.1 2.5-.2 3.7.1 1.1.2 2.2.2 3.2 0 1.4-.3 2.3-.1 4.1.1 1-.1 2.6-.1 4-.2 9.8.1 19.7-.3 29.6v51.8c0 .8.1 1.5.2 2-.1 1-.2 2.2-.1 2.8.3 2 .2 4.2.2 6.4V39c0 2.3-.2 4.7.2 6.9.1.4 0 1.6 0 1.9-.3 1.1-.2 2.5-.2 3.8 0 3.3.1 6.6.2 10 .2 6.3.2 12.8.3 19.2v2.1c0 .4.1.7.2 1-.1.6-.2 1.2-.2 1.8v11.9c0 1.8-.2 3.4 0 5.4.3 4.6-.3 9.4 0 14.2-.1.3-.1.7-.2.9.1 1.9.2 3.6.2 5.4v6.1c0 .1.1.2.1.4h2.6v-9.6c-.1-3.6.3-6.9.2-10.5 0-3 .1-6-.2-9-.1-1.4 0-3.4 0-5.1 0-1.5.1-3-.2-4.4-.3-1.7.1-3 .2-4.6 0-1.6-.3-3-.1-4.5.2-1.9-.1-3.5-.1-5.1 0-5.1-.4-10-.3-15.1 0-2 .2-4.4-.2-6.3-.1-.3-.1-1.6 0-1.9.3-1.3.1-2.9.2-4.3.1-2.7-.2-5.2-.2-7.9V21.5c0-6.8.2-13.6-.2-20.5.1-.4.1-1.1.2-1.7-.1-.6-.2-1-.3-1.3.1-1.6.2-2.6.2-3.7 0-1.2.1-2.8 0-3.5-.3-1.7.2-2.8.1-4.5-.1-1.4 0-3.1 0-4.6 0-1.6-.1-3.2-.2-4.8 0-.3 0-.8.1-.9.3-.9.2-2.2.2-3.3V-49v-2.6c-.3-6.7-.3-8.1 0-14.7.1-1.4.1-3.4-.1-4.4-.3-2 .1-3.1.1-4.6-.4-2.1-.2-4.2 0-6.2-.1-.6-.2-.9-.3-1.3.1-.4.1-.7.2-.9-.1-.9-.2-1.7-.2-2.4.1-4 0-8 .2-12.1.2-4.5 0-9.3.3-14 .1-2.9 0-5.9.2-8.9.1-1.7 0-3.8-.2-5.8-.2-1.7.4-3.6.2-5.7-.1-1.1-.3-2.5-.2-3.1.3-2.3 0-4.3 0-6.5 0-2.8-.2-5.2-.5-7.4-.2-1.5.5-2.7.6-5.1.2-.6.1-2.2.2-2.9v-.7h-2.7zM119.8-158.5v13.5c0 2.2 0 4.6-.1 6.5-.2 2.3.1 3.8.1 5.6 0 .6-.1 1.2-.1 1.8-.1 2.6-.2 5.2.1 7.8-.2 1.9-.2 3.6-.3 8 0 1.9.2 3.5.1 5.3-.1 2 0 4.1 0 6.2 0 1.3-.1 2.5-.2 3.7.1 1.1.2 2.2.2 3.2 0 1.4-.3 2.3-.1 4.1.1 1-.1 2.6-.1 4-.1 9.9.2 19.8-.2 29.6v51.8c0 .8.1 1.5.2 2-.1 1-.2 2.2-.1 2.8.3 2 .2 4.2.2 6.4V39c0 2.3-.2 4.7.2 6.9.1.4 0 1.6 0 1.9-.3 1.1-.2 2.5-.2 3.8 0 3.3.1 6.6.2 10 .2 6.3.2 12.8.3 19.2v2.1c0 .4.1.7.2 1-.1.6-.2 1.2-.2 1.8v11.9c0 1.8-.2 3.4 0 5.4.3 4.6-.3 9.4 0 14.2-.1.3-.1.7-.2.9.1 1.9.2 3.6.2 5.4v6.1c0 .1 0 .2.1.4h2.6v-9.6c-.1-3.6.3-6.9.2-10.5 0-3 .1-6-.2-9-.1-1.4 0-3.4 0-5.1 0-1.5.1-3-.2-4.4-.3-1.7.2-3 .2-4.6 0-1.6-.3-3-.1-4.5.2-1.9-.1-3.5-.1-5.1 0-5.1-.4-10-.3-15.1 0-2 .2-4.4-.2-6.3-.1-.3-.1-1.6 0-1.9.3-1.3.1-2.9.2-4.3.1-2.7-.2-5.2-.2-7.9V21.5c0-6.8.2-13.6-.2-20.5.1-.4.1-1.1.2-1.7-.1-.6-.2-1-.3-1.3.1-1.6.2-2.6.2-3.7 0-1.2.1-2.8 0-3.5-.3-1.7.2-2.8.1-4.5-.1-1.4 0-3.1 0-4.6 0-1.6-.1-3.2-.2-4.8 0-.3 0-.8.1-.9.3-.9.2-2.2.2-3.3V-49v-2.6c-.3-6.7-.3-8.1 0-14.7.1-1.4.1-3.4-.1-4.4-.3-2 .1-3.1.1-4.6-.4-2.1-.2-4.2 0-6.2-.1-.6-.2-.9-.3-1.3.1-.4.1-.7.2-.9-.1-.9-.2-1.7-.2-2.4.1-4 0-8 .2-12.1.2-4.5 0-9.3.2-14 .1-2.9 0-5.9.2-8.9.1-1.7 0-3.8-.2-5.8-.2-1.7.4-3.6.2-5.7-.1-1.1-.3-2.5-.2-3.1.3-2.3 0-4.3 0-6.5 0-2.8.1-5.2-.2-7.5-.2-1.5.3-2.5.4-4.9.2-.6.1-2.9.3-3.6v-.1h-2.9zM105.7-158.5c.1 2.4-.2 4.4-.1 7.3.1 2.1.1 4.1 0 6.2-.1 2.2.1 4.6-.4 6.5-.7 2.3.3 3.8.4 5.6 0 .6-.3 1.2-.4 1.8-.3 2.6-.8 5.2.4 7.8-.6 1.9-.6 3.6-.8 8-.1 1.9.5 3.5.3 5.3-.3 2 0 4.1-.1 6.2-.1 1.3-.4 2.5-.6 3.7.2 1.1.6 2.2.5 3.2-.1 1.4-1 2.3-.4 4.1.4 1-.2 2.6-.3 4-.4 9.9.7 19.8-.7 29.6v51.8c0 .8.3 1.5.5 2-.2 1-.7 2.2-.4 2.8.9 2 .6 4.2.6 6.4V39c0 2.3-.6 4.7.6 6.9.2.4.1 1.6-.1 1.9-.9 1.1-.5 2.5-.5 3.8 0 3.3.2 6.6.6 10 .6 6.3.6 12.8.8 19.2 0 .7-.1 1.4 0 2.1.1.4.4.7.6 1-.2.6-.6 1.2-.6 1.8-.1 2.1 0 4.1 0 6.2v5.7c0 1.8-.5 3.4-.1 5.4.9 4.6-1.1 9.4.1 14.2-.2.3-.4.7-.6.9.2 1.9.5 3.6.6 5.4.1 2.1 0 4.1 0 6.1.1.1.2.2.2.4h8.2c0-3.3.1-6.5-.1-9.6-.2-3.6.9-6.9.7-10.5-.1-3 .3-6-.6-9-.5-1.4 0-3.4-.1-5.1-.1-1.5.4-3-.5-4.4-1.1-1.7.5-3 .6-4.6.1-1.6-.8-3-.3-4.5.6-1.9-.3-3.5-.3-5.1 0-5.1-1.2-10-.9-15.1.1-2 .6-4.4-.6-6.3-.2-.3-.2-1.6.1-1.9 1-1.3.4-2.9.6-4.3.4-2.7-.6-5.2-.7-7.9-.1-6.7.1-13.5-.1-20.2-.1-6.8.7-13.6-.6-20.5.2-.4.5-1.1.7-1.7-.4-.6-.6-1-.8-1.3.3-1.6.6-2.6.7-3.7.1-1.2.3-2.8-.1-3.5-.9-1.7.6-2.8.2-4.5-.3-1.4 0-3.1-.1-4.6-.1-1.6-.5-3.2-.7-4.8 0-.3 0-.8.2-.9.8-.9.5-2.2.5-3.3V-49c0-.9.1-1.8 0-2.6-.9-6.7-.9-8.1 0-14.7.2-1.4.2-3.4-.3-4.4-1-2 .2-3.1.4-4.6-1.3-2.1-.7-4.2.1-6.2-.4-.6-.6-.9-.8-1.3.2-.4.4-.7.5-.9-.2-.9-.6-1.7-.5-2.4.2-4-.1-8 .5-12.1.7-4.5.1-9.3.8-14 .4-2.9-.1-5.9.7-8.9.4-1.7.1-3.8-.5-5.8-.5-1.7 1.1-3.6.6-5.7-.2-1.1-.9-2.5-.6-3.1 1-2.3 0-4.3 0-6.5.1-2.8 1.1-5.2.2-7.4-.6-1.5.2-2.5.4-4.9 1.7-2.1-.6-2.2.8-3.8h-8.4zM96.4-158.5c0 2.5-.1 4.4-.1 7.3v6.2c0 2.2 0 4.6-.1 6.5-.2 2.3.1 3.8.1 5.6 0 .6-.1 1.2-.1 1.8-.1 2.6-.2 5.2.1 7.8-.2 1.9-.2 3.6-.3 8 0 1.9.2 3.5.1 5.3-.1 2 0 4.1 0 6.2 0 1.3-.1 2.5-.2 3.7.1 1.1.2 2.2.2 3.2 0 1.4-.3 2.3-.1 4.1.1 1-.1 2.6-.1 4-.1 9.9.2 19.8-.2 29.6v51.8c0 .8.1 1.5.2 2-.1 1-.2 2.2-.1 2.8.3 2 .2 4.2.2 6.4V39c0 2.3-.2 4.7.2 6.9.1.4 0 1.6 0 1.9-.3 1.1-.2 2.5-.2 3.8 0 3.3.1 6.6.2 10 .2 6.3.2 12.8.3 19.2v2.1c0 .4.1.7.2 1-.1.6-.2 1.2-.2 1.8v11.9c0 1.8-.2 3.4 0 5.4.3 4.6-.3 9.4 0 14.2-.1.3-.1.7-.2.9.1 1.9.2 3.6.2 5.4v6.1c0 .1 0 .2.1.4H99v-9.6c-.1-3.6.3-6.9.2-10.5 0-3 .1-6-.2-9-.1-1.4 0-3.4 0-5.1 0-1.5.1-3-.2-4.4-.3-1.7.1-3 .2-4.6 0-1.6-.3-3-.1-4.5.2-1.9-.1-3.5-.1-5.1 0-5.1-.4-10-.3-15.1 0-2 .2-4.4-.2-6.3-.1-.3-.1-1.6 0-1.9.3-1.3.1-2.9.2-4.3.1-2.7-.2-5.2-.2-7.9V21.5c0-6.8.2-13.6-.2-20.5.1-.4.1-1.1.2-1.7-.1-.6-.2-1-.3-1.3.1-1.6.2-2.6.2-3.7 0-1.2.1-2.8 0-3.5-.3-1.7.2-2.8.1-4.5-.1-1.4 0-3.1 0-4.6 0-1.6-.1-3.2-.2-4.8 0-.3 0-.8.1-.9.3-.9.2-2.2.2-3.3V-49v-2.6c-.3-6.7-.3-8.1 0-14.7.1-1.4.1-3.4-.1-4.4-.3-2 .1-3.1.1-4.6-.4-2.1-.2-4.2 0-6.2-.1-.6-.2-.9-.3-1.3.1-.4.1-.7.2-.9-.1-.9-.2-1.7-.2-2.4.1-4 0-8 .2-12.1.2-4.5 0-9.3.2-14 .1-2.9 0-5.9.2-8.9.1-1.7 0-3.8-.2-5.8-.2-1.7.4-3.6.2-5.7-.1-1.1-.3-2.5-.2-3.1.3-2.3 0-4.3 0-6.5 0-2.8-.2-5.2-.5-7.4-.2-1.5.5-2.7.6-5.1.2-.6.1-2.2.2-2.9v-.7h-2.4zM155.9-158.5v13.5c0 2.2 0 4.6-.1 6.5-.2 2.3.1 3.8.1 5.6 0 .6-.1 1.2-.1 1.8-.1 2.6-.2 5.2.1 7.8-.2 1.9-.2 3.6-.3 8 0 1.9.2 3.5.1 5.3-.1 2 0 4.1 0 6.2 0 1.3-.1 2.5-.2 3.7.1 1.1.2 2.2.2 3.2 0 1.4-.3 2.3-.1 4.1.1 1-.1 2.6-.1 4-.1 9.9.2 19.8-.2 29.6v51.8c0 .8.1 1.5.2 2-.1 1-.2 2.2-.1 2.8.3 2 .2 4.2.2 6.4V39c0 2.3-.2 4.7.2 6.9.1.4 0 1.6 0 1.9-.3 1.1-.2 2.5-.2 3.8 0 3.3.1 6.6.2 10 .2 6.3.2 12.8.3 19.2v2.1c0 .4.1.7.2 1-.1.6-.2 1.2-.2 1.8v11.9c0 1.8-.2 3.4 0 5.4.3 4.6-.3 9.4 0 14.2-.1.3-.1.7-.2.9.1 1.9.2 3.6.2 5.4v6.1c0 .1 0 .2.1.4h2.6v-9.6c-.1-3.6.3-6.9.2-10.5 0-3 .1-6-.2-9-.1-1.4 0-3.4 0-5.1 0-1.5.1-3-.2-4.4-.3-1.7.1-3 .2-4.6 0-1.6-.3-3-.1-4.5.2-1.9-.1-3.5-.1-5.1 0-5.1-.4-10-.3-15.1 0-2 .2-4.4-.2-6.3-.1-.3-.1-1.6 0-1.9.3-1.3.1-2.9.2-4.3.1-2.7-.2-5.2-.2-7.9V21.5c0-6.8.2-13.6-.2-20.5.1-.4.1-1.1.2-1.7-.1-.6-.2-1-.3-1.3.1-1.6.2-2.6.2-3.7 0-1.2.1-2.8 0-3.5-.3-1.7.2-2.8.1-4.5-.1-1.4 0-3.1 0-4.6 0-1.6-.1-3.2-.2-4.8 0-.3 0-.8.1-.9.3-.9.2-2.2.2-3.3V-49v-2.6c-.3-6.7-.3-8.1 0-14.7.1-1.4.1-3.4-.1-4.4-.3-2 .1-3.1.1-4.6-.4-2.1-.2-4.2 0-6.2-.1-.6-.2-.9-.3-1.3.1-.4.1-.7.2-.9-.1-.9-.2-1.7-.2-2.4.1-4 0-8 .2-12.1.2-4.5 0-9.3.2-14 .1-2.9 0-5.9.2-8.9.1-1.7 0-3.8-.2-5.8-.2-1.7.4-3.6.2-5.7-.1-1.1-.3-2.5-.2-3.1.3-2.3 0-4.3 0-6.5 0-2.8.1-5.2-.2-7.5-.2-1.5.3-2.5.4-4.9.2-.6.1-2.9.3-3.6v-.1h-2.9zM141.8-158.5c.1 2.4-.2 4.4-.1 7.3.1 2.1.1 4.1 0 6.2-.1 2.2.1 4.6-.4 6.5-.7 2.3.3 3.8.4 5.6 0 .6-.3 1.2-.4 1.8-.3 2.6-.8 5.2.4 7.8-.6 1.9-.6 3.6-.8 8-.1 1.9.5 3.5.3 5.3-.3 2 0 4.1-.1 6.2-.1 1.3-.4 2.5-.6 3.7.2 1.1.6 2.2.5 3.2-.1 1.4-1 2.3-.4 4.1.4 1-.2 2.6-.3 4-.4 9.9.7 19.8-.7 29.6v51.8c0 .8.3 1.5.5 2-.2 1-.7 2.2-.4 2.8.9 2 .6 4.2.6 6.4V39c0 2.3-.6 4.7.6 6.9.2.4.1 1.6-.1 1.9-.9 1.1-.5 2.5-.5 3.8 0 3.3.2 6.6.6 10 .6 6.3.6 12.8.8 19.2 0 .7-.1 1.4 0 2.1.1.4.4.7.6 1-.2.6-.6 1.2-.6 1.8-.1 2.1 0 4.1 0 6.2v5.7c0 1.8-.5 3.4-.1 5.4.9 4.6-1.1 9.4.1 14.2-.2.3-.4.7-.6.9.2 1.9.5 3.6.6 5.4.1 2.1 0 4.1 0 6.1.1.1.2.2.2.4h8.2c0-3.3.1-6.5-.1-9.6-.2-3.6.9-6.9.7-10.5-.1-3 .3-6-.6-9-.5-1.4 0-3.4-.1-5.1-.1-1.5.4-3-.5-4.4-1.1-1.7.5-3 .6-4.6.1-1.6-.8-3-.3-4.5.6-1.9-.3-3.5-.3-5.1 0-5.1-1.2-10-.9-15.1.1-2 .6-4.4-.6-6.3-.2-.3-.2-1.6.1-1.9 1-1.3.4-2.9.6-4.3.4-2.7-.6-5.2-.7-7.9-.1-6.7.1-13.5-.1-20.2-.1-6.8.7-13.6-.6-20.5.2-.4.5-1.1.7-1.7-.4-.6-.6-1-.8-1.3.3-1.6.6-2.6.7-3.7.1-1.2.3-2.8-.1-3.5-.9-1.7.6-2.8.2-4.5-.3-1.4 0-3.1-.1-4.6-.1-1.6-.5-3.2-.7-4.8 0-.3 0-.8.2-.9.8-.9.5-2.2.5-3.3V-49c0-.9.1-1.8 0-2.6-.9-6.7-.9-8.1 0-14.7.2-1.4.2-3.4-.3-4.4-1-2 .2-3.1.4-4.6-1.3-2.1-.7-4.2.1-6.2-.4-.6-.6-.9-.8-1.3.2-.4.4-.7.5-.9-.2-.9-.6-1.7-.5-2.4.2-4-.1-8 .5-12.1.7-4.5.1-9.3.8-14 .4-2.9 0-5.9.7-8.9.4-1.7.1-3.8-.5-5.8-.5-1.7 1.1-3.6.6-5.7-.2-1.1-.9-2.5-.6-3.1 1-2.3 0-4.3 0-6.5.1-2.8 1.1-5.2.2-7.4-.6-1.5.2-2.5.4-4.9 1.7-2.1-.6-2.2.8-3.8h-8.4zM132.5-158.5c0 2.5-.1 4.4 0 7.3v6.2c0 2.2 0 4.6-.1 6.5-.2 2.3.1 3.8.1 5.6 0 .6-.1 1.2-.1 1.8-.1 2.6-.2 5.2.1 7.8-.2 1.9-.2 3.6-.3 8 0 1.9.2 3.5.1 5.3-.1 2 0 4.1 0 6.2 0 1.3-.1 2.5-.2 3.7.1 1.1.2 2.2.2 3.2 0 1.4-.3 2.3-.1 4.1.1 1-.1 2.6-.1 4-.1 9.9.2 19.8-.2 29.6v51.8c0 .8.1 1.5.2 2-.1 1-.2 2.2-.1 2.8.3 2 .2 4.2.2 6.4V39c0 2.3-.2 4.7.2 6.9.1.4 0 1.6 0 1.9-.3 1.1-.2 2.5-.2 3.8 0 3.3.1 6.6.2 10 .2 6.3.2 12.8.3 19.2v2.1c0 .4.1.7.2 1-.1.6-.2 1.2-.2 1.8v11.9c0 1.8-.2 3.4 0 5.4.3 4.6-.3 9.4 0 14.2-.1.3-.1.7-.2.9.1 1.9.2 3.6.2 5.4v6.1c0 .1 0 .2.1.4h2.6v-9.6c-.1-3.6.3-6.9.2-10.5 0-3 .1-6-.2-9-.1-1.4 0-3.4 0-5.1 0-1.5.1-3-.2-4.4-.3-1.7.1-3 .2-4.6 0-1.6-.3-3-.1-4.5.2-1.9-.1-3.5-.1-5.1 0-5.1-.4-10-.3-15.1 0-2 .2-4.4-.2-6.3-.1-.3-.1-1.6 0-1.9.3-1.3.1-2.9.2-4.3.1-2.7-.2-5.2-.2-7.9V21.5c0-6.8.2-13.6-.2-20.5.1-.4.1-1.1.2-1.7-.1-.6-.2-1-.3-1.3.1-1.6.2-2.6.2-3.7 0-1.2.1-2.8 0-3.5-.3-1.7.2-2.8.1-4.5-.1-1.4 0-3.1 0-4.6 0-1.6-.1-3.2-.2-4.8 0-.3 0-.8.1-.9.3-.9.2-2.2.2-3.3V-49v-2.6c-.3-6.7-.3-8.1 0-14.7.1-1.4.1-3.4-.1-4.4-.3-2 .1-3.1.1-4.6-.4-2.1-.2-4.2 0-6.2-.1-.6-.2-.9-.3-1.3.1-.4.1-.7.2-.9-.1-.9-.2-1.7-.2-2.4.1-4 0-8 .2-12.1.2-4.5 0-9.3.2-14 .1-2.9 0-5.9.2-8.9.1-1.7 0-3.8-.2-5.8-.2-1.7.4-3.6.2-5.7-.1-1.1-.3-2.5-.2-3.1.3-2.3 0-4.3 0-6.5 0-2.8-.2-5.2-.5-7.4-.2-1.5.5-2.7.6-5.1.2-.6.1-2.2.2-2.9v-.7h-2.7zM192-158.5v13.5c0 2.2 0 4.6-.1 6.5-.2 2.3.1 3.8.1 5.6 0 .6-.1 1.2-.1 1.8-.1 2.6-.2 5.2.1 7.8-.2 1.9-.2 3.6-.3 8 0 1.9.2 3.5.1 5.3-.1 2 0 4.1 0 6.2 0 1.3-.1 2.5-.2 3.7.1 1.1.2 2.2.2 3.2 0 1.4-.3 2.3-.1 4.1.1 1-.1 2.6-.1 4-.1 9.9.2 19.8-.2 29.6v51.8c0 .8.1 1.5.2 2-.1 1-.2 2.2-.1 2.8.3 2 .2 4.2.2 6.4V39c0 2.3-.2 4.7.2 6.9.1.4 0 1.6 0 1.9-.3 1.1-.2 2.5-.2 3.8 0 3.3.1 6.6.2 10 .2 6.3.2 12.8.3 19.2v2.1c0 .4.1.7.2 1-.1.6-.2 1.2-.2 1.8v11.9c0 1.8-.2 3.4 0 5.4.3 4.6-.3 9.4 0 14.2-.1.3-.1.7-.2.9.1 1.9.2 3.6.2 5.4v6.1c0 .1.1.2.1.4h2.6v-9.6c-.1-3.6.3-6.9.2-10.5 0-3 .1-6-.2-9-.1-1.4 0-3.4 0-5.1 0-1.5.1-3-.2-4.4-.3-1.7.1-3 .2-4.6 0-1.6-.3-3-.1-4.5.2-1.9-.1-3.5-.1-5.1 0-5.1-.4-10-.3-15.1 0-2 .2-4.4-.2-6.3-.1-.3-.1-1.6 0-1.9.3-1.3.1-2.9.2-4.3.1-2.7-.2-5.2-.2-7.9V21.5c0-6.8.2-13.6-.2-20.5.1-.4.1-1.1.2-1.7-.1-.6-.2-1-.3-1.3.1-1.6.2-2.6.2-3.7 0-1.2.1-2.8 0-3.5-.3-1.7.2-2.8.1-4.5-.1-1.4 0-3.1 0-4.6 0-1.6-.1-3.2-.2-4.8 0-.3 0-.8.1-.9.3-.9.2-2.2.2-3.3V-49v-2.6c-.3-6.7-.3-8.1 0-14.7.1-1.4.1-3.4-.1-4.4-.3-2 .1-3.1.1-4.6-.4-2.1-.2-4.2 0-6.2-.1-.6-.2-.9-.3-1.3.1-.4.1-.7.2-.9-.1-.9-.2-1.7-.2-2.4.1-4 0-8 .2-12.1.2-4.5 0-9.3.2-14 .1-2.9 0-5.9.2-8.9.1-1.7 0-3.8-.2-5.8-.2-1.7.4-3.6.2-5.7-.1-1.1-.3-2.5-.2-3.1.3-2.3 0-4.3 0-6.5 0-2.8.1-5.2-.2-7.5-.2-1.5.3-2.5.4-4.9.2-.6.1-2.9.3-3.6v-.1H192zM177.9-158.5c.1 2.4-.1 4.4-.1 7.3.1 2.1.1 4.1 0 6.2-.1 2.2.1 4.6-.4 6.5-.7 2.3.3 3.8.4 5.6 0 .6-.3 1.2-.4 1.8-.3 2.6-.8 5.2.4 7.8-.6 1.9-.6 3.6-.8 8-.1 1.9.5 3.5.3 5.3-.3 2 0 4.1-.1 6.2-.1 1.3-.4 2.5-.6 3.7.2 1.1.6 2.2.5 3.2-.1 1.4-1 2.3-.4 4.1.4 1-.2 2.6-.3 4-.4 9.9.7 19.8-.7 29.6v51.8c0 .8.3 1.5.5 2-.2 1-.7 2.2-.4 2.8.9 2 .6 4.2.6 6.4V39c0 2.3-.6 4.7.6 6.9.2.4.1 1.6-.1 1.9-.9 1.1-.5 2.5-.5 3.8 0 3.3.2 6.6.6 10 .6 6.3.6 12.8.8 19.2 0 .7-.1 1.4 0 2.1.1.4.4.7.6 1-.2.6-.6 1.2-.6 1.8-.1 2.1 0 4.1 0 6.2v5.7c0 1.8-.5 3.4-.1 5.4.9 4.6-1.1 9.4.1 14.2-.2.3-.4.7-.6.9.2 1.9.5 3.6.6 5.4.1 2.1 0 4.1 0 6.1.1.1.2.2.2.4h8.2c0-3.3.1-6.5-.1-9.6-.2-3.6.9-6.9.7-10.5-.1-3 .3-6-.6-9-.5-1.4 0-3.4-.1-5.1-.1-1.5.4-3-.5-4.4-1.1-1.7.5-3 .6-4.6.1-1.6-.8-3-.3-4.5.6-1.9-.3-3.5-.3-5.1 0-5.1-1.2-10-.9-15.1.1-2 .6-4.4-.6-6.3-.2-.3-.2-1.6.1-1.9 1-1.3.4-2.9.6-4.3.4-2.7-.6-5.2-.7-7.9-.1-6.7.1-13.5-.1-20.2-.1-6.8.7-13.6-.6-20.5.2-.4.5-1.1.7-1.7-.4-.6-.6-1-.8-1.3.3-1.6.6-2.6.7-3.7.1-1.2.3-2.8-.1-3.5-.9-1.7.6-2.8.2-4.5-.3-1.4 0-3.1-.1-4.6-.1-1.6-.5-3.2-.7-4.8 0-.3 0-.8.2-.9.8-.9.5-2.2.5-3.3V-49c0-.9.1-1.8 0-2.6-.9-6.7-.9-8.1 0-14.7.2-1.4.2-3.4-.3-4.4-1-2 .2-3.1.4-4.6-1.3-2.1-.7-4.2.1-6.2-.4-.6-.6-.9-.8-1.3.2-.4.4-.7.5-.9-.2-.9-.6-1.7-.5-2.4.2-4-.1-8 .5-12.1.7-4.5.1-9.3.8-14 .4-2.9 0-5.9.7-8.9.4-1.7.1-3.8-.5-5.8-.5-1.7 1.1-3.6.6-5.7-.2-1.1-.9-2.5-.6-3.1 1-2.3 0-4.3 0-6.5.1-2.8 1.1-5.2.2-7.4-.6-1.5.2-2.5.4-4.9 1.7-2.1-.6-2.2.8-3.8h-8.4zM168.6-158.5c0 2.5-.1 4.4 0 7.3v6.2c0 2.2 0 4.6-.1 6.5-.2 2.3.1 3.8.1 5.6 0 .6-.1 1.2-.1 1.8-.1 2.6-.2 5.2.1 7.8-.2 1.9-.2 3.6-.3 8 0 1.9.2 3.5.1 5.3-.1 2 0 4.1 0 6.2 0 1.3-.1 2.5-.2 3.7.1 1.1.2 2.2.2 3.2 0 1.4-.3 2.3-.1 4.1.1 1-.1 2.6-.1 4-.1 9.9.2 19.8-.2 29.6v51.8c0 .8.1 1.5.2 2-.1 1-.2 2.2-.1 2.8.3 2 .2 4.2.2 6.4V39c0 2.3-.2 4.7.2 6.9.1.4 0 1.6 0 1.9-.3 1.1-.2 2.5-.2 3.8 0 3.3.1 6.6.2 10 .2 6.3.2 12.8.3 19.2v2.1c0 .4.1.7.2 1-.1.6-.2 1.2-.2 1.8v11.9c0 1.8-.2 3.4 0 5.4.3 4.6-.3 9.4 0 14.2-.1.3-.1.7-.2.9.1 1.9.2 3.6.2 5.4v6.1c0 .1 0 .2.1.4h2.6v-9.6c-.1-3.6.3-6.9.2-10.5 0-3 .1-6-.2-9-.1-1.4 0-3.4 0-5.1 0-1.5.1-3-.2-4.4-.3-1.7.1-3 .2-4.6 0-1.6-.3-3-.1-4.5.2-1.9-.1-3.5-.1-5.1 0-5.1-.4-10-.3-15.1 0-2 .2-4.4-.2-6.3-.1-.3-.1-1.6 0-1.9.3-1.3.1-2.9.2-4.3.1-2.7-.2-5.2-.2-7.9V21.5c0-6.8.2-13.6-.2-20.5.1-.4.1-1.1.2-1.7-.1-.6-.2-1-.3-1.3.1-1.6.2-2.6.2-3.7 0-1.2.1-2.8 0-3.5-.3-1.7.2-2.8.1-4.5-.1-1.4 0-3.1 0-4.6 0-1.6-.1-3.2-.2-4.8 0-.3 0-.8.1-.9.3-.9.2-2.2.2-3.3V-49v-2.6c-.3-6.7-.3-8.1 0-14.7.1-1.4.1-3.4-.1-4.4-.3-2 .1-3.1.1-4.6-.4-2.1-.2-4.2 0-6.2-.1-.6-.2-.9-.3-1.3.1-.4.1-.7.2-.9-.1-.9-.2-1.7-.2-2.4.1-4 0-8 .2-12.1.2-4.5 0-9.3.2-14 .1-2.9 0-5.9.2-8.9.1-1.7 0-3.8-.2-5.8-.2-1.7.4-3.6.2-5.7-.1-1.1-.3-2.5-.2-3.1.3-2.3 0-4.3 0-6.5 0-2.8-.2-5.2-.5-7.4-.2-1.5.6-2.7.6-5.1.2-.6.1-2.2.2-2.9v-.7h-2.7zM228.1-158.5v13.5c0 2.2 0 4.6-.1 6.5-.2 2.3.1 3.8.1 5.6 0 .6-.1 1.2-.1 1.8-.1 2.6-.2 5.2.1 7.8-.2 1.9-.2 3.6-.3 8 0 1.9.2 3.5.1 5.3-.1 2 0 4.1 0 6.2 0 1.3-.1 2.5-.2 3.7.1 1.1.2 2.2.2 3.2 0 1.4-.3 2.3-.1 4.1.1 1-.1 2.6-.1 4-.1 9.9.2 19.8-.2 29.6v51.8c0 .8.1 1.5.2 2-.1 1-.2 2.2-.1 2.8.3 2 .2 4.2.2 6.4V39c0 2.3-.2 4.7.2 6.9.1.4 0 1.6 0 1.9-.3 1.1-.2 2.5-.2 3.8 0 3.3.1 6.6.2 10 .2 6.3.2 12.8.3 19.2v2.1c0 .4.1.7.2 1-.1.6-.2 1.2-.2 1.8v11.9c0 1.8-.2 3.4 0 5.4.3 4.6-.3 9.4 0 14.2-.1.3-.1.7-.2.9.1 1.9.2 3.6.2 5.4v6.1c0 .1.1.2.1.4h2.6v-9.6c-.1-3.6.3-6.9.2-10.5 0-3 .1-6-.2-9-.1-1.4 0-3.4 0-5.1 0-1.5.1-3-.2-4.4-.3-1.7.1-3 .2-4.6s-.3-3-.1-4.5c.2-1.9-.1-3.5-.1-5.1 0-5.1-.4-10-.3-15.1 0-2 .2-4.4-.2-6.3-.1-.3-.1-1.6 0-1.9.3-1.3.1-2.9.2-4.3.1-2.7-.2-5.2-.2-7.9V21.5c0-6.8.2-13.6-.2-20.5.1-.4.1-1.1.2-1.7-.1-.6-.2-1-.3-1.3.1-1.6.2-2.6.2-3.7 0-1.2.1-2.8 0-3.5-.3-1.7.2-2.8.1-4.5-.1-1.4 0-3.1 0-4.6 0-1.6-.1-3.2-.2-4.8 0-.3 0-.8.1-.9.3-.9.2-2.2.2-3.3V-49v-2.6c-.3-6.7-.3-8.1 0-14.7.1-1.4.1-3.4-.1-4.4-.3-2 .1-3.1.1-4.6-.4-2.1-.2-4.2 0-6.2-.1-.6-.2-.9-.3-1.3.1-.4.1-.7.2-.9-.1-.9-.2-1.7-.2-2.4.1-4 0-8 .2-12.1.2-4.5 0-9.3.3-14 .1-2.9 0-5.9.2-8.9.1-1.7 0-3.8-.2-5.8-.2-1.7.4-3.6.2-5.7-.1-1.1-.3-2.5-.2-3.1.3-2.3 0-4.3 0-6.5 0-2.8.1-5.2-.2-7.5-.2-1.5.3-2.5.4-4.9.2-.6.1-2.9.3-3.6v-.1h-3zM214-158.5c.1 2.4-.1 4.4-.1 7.3.1 2.1.1 4.1 0 6.2-.1 2.2.1 4.6-.4 6.5-.7 2.3.3 3.8.4 5.6 0 .6-.3 1.2-.4 1.8-.3 2.6-.8 5.2.4 7.8-.6 1.9-.6 3.6-.8 8-.1 1.9.5 3.5.3 5.3-.3 2 0 4.1-.1 6.2-.1 1.3-.4 2.5-.6 3.7.2 1.1.6 2.2.5 3.2-.1 1.4-1 2.3-.4 4.1.4 1-.2 2.6-.3 4-.4 9.9.7 19.8-.7 29.6v51.8c0 .8.3 1.5.5 2-.2 1-.7 2.2-.4 2.8.9 2 .6 4.2.6 6.4V39c0 2.3-.6 4.7.6 6.9.2.4.1 1.6-.1 1.9-.9 1.1-.5 2.5-.5 3.8 0 3.3.2 6.6.6 10 .6 6.3.6 12.8.8 19.2 0 .7-.1 1.4 0 2.1.1.4.4.7.6 1-.2.6-.6 1.2-.6 1.8-.1 2.1 0 4.1 0 6.2v5.7c0 1.8-.5 3.4-.1 5.4.9 4.6-1.1 9.4.1 14.2-.2.3-.4.7-.6.9.2 1.9.5 3.6.6 5.4.1 2.1 0 4.1 0 6.1.1.1.2.2.2.4h8.2c0-3.3.1-6.5-.1-9.6-.2-3.6.9-6.9.7-10.5-.1-3 .3-6-.6-9-.4-1.4 0-3.4-.1-5.1-.1-1.5.4-3-.5-4.4-1.1-1.7.5-3 .6-4.6.1-1.6-.8-3-.3-4.5.6-1.9-.3-3.5-.3-5.1 0-5.1-1.2-10-.9-15.1.1-2 .6-4.4-.6-6.3-.2-.3-.2-1.6.1-1.9 1-1.3.4-2.9.6-4.3.4-2.7-.6-5.2-.7-7.9-.1-6.7.1-13.5-.1-20.2-.1-6.8.7-13.6-.6-20.5.2-.4.5-1.1.7-1.7-.4-.6-.6-1-.8-1.3.3-1.6.6-2.6.7-3.7.1-1.2.3-2.8-.1-3.5-.9-1.7.6-2.8.2-4.5-.3-1.4 0-3.1-.1-4.6-.1-1.6-.5-3.2-.7-4.8 0-.3 0-.8.2-.9.8-.9.5-2.2.5-3.3V-49c0-.9.1-1.8 0-2.6-.9-6.7-.9-8.1 0-14.7.2-1.4.2-3.4-.3-4.4-1-2 .2-3.1.4-4.6-1.3-2.1-.7-4.2.1-6.2-.4-.6-.6-.9-.8-1.3.2-.4.4-.7.5-.9-.2-.9-.6-1.7-.5-2.4.2-4-.1-8 .5-12.1.7-4.5.1-9.3.8-14 .4-2.9-.1-5.9.7-8.9.4-1.7.1-3.8-.5-5.8-.5-1.7 1.1-3.6.6-5.7-.2-1.1-.9-2.5-.6-3.1 1-2.3 0-4.3 0-6.5.1-2.8 1.1-5.2.2-7.4-.6-1.5.2-2.5.4-4.9 1.7-2.1-.6-2.2.8-3.8H214zM204.6-158.5c0 2.5-.1 4.4 0 7.3v6.2c0 2.2 0 4.6-.1 6.5-.2 2.3.1 3.8.1 5.6 0 .6-.1 1.2-.1 1.8-.1 2.6-.2 5.2.1 7.8-.2 1.9-.2 3.6-.3 8 0 1.9.2 3.5.1 5.3-.1 2 0 4.1 0 6.2 0 1.3-.1 2.5-.2 3.7.1 1.1.2 2.2.2 3.2 0 1.4-.3 2.3-.1 4.1.1 1-.1 2.6-.1 4-.1 9.9.2 19.8-.2 29.6v51.8c0 .8.1 1.5.2 2-.1 1-.2 2.2-.1 2.8.3 2 .2 4.2.2 6.4V39c0 2.3-.2 4.7.2 6.9.1.4 0 1.6 0 1.9-.3 1.1-.2 2.5-.2 3.8 0 3.3.1 6.6.2 10 .2 6.3.2 12.8.3 19.2v2.1c0 .4.1.7.2 1-.1.6-.2 1.2-.2 1.8v11.9c0 1.8-.2 3.4 0 5.4.3 4.6-.3 9.4 0 14.2-.1.3-.1.7-.2.9.1 1.9.2 3.6.2 5.4v6.1c0 .1 0 .2.1.4h2.6v-9.6c-.1-3.6.3-6.9.2-10.5 0-3 .1-6-.2-9-.1-1.4 0-3.4 0-5.1 0-1.5.1-3-.2-4.4-.3-1.7.1-3 .2-4.6s-.3-3-.1-4.5c.2-1.9-.1-3.5-.1-5.1 0-5.1-.4-10-.3-15.1 0-2 .2-4.4-.2-6.3-.1-.3-.1-1.6 0-1.9.3-1.3.1-2.9.2-4.3.1-2.7-.2-5.2-.2-7.9V21.5c0-6.8.2-13.6-.2-20.5.1-.4.1-1.1.2-1.7-.1-.6-.2-1-.3-1.3.1-1.6.2-2.6.2-3.7 0-1.2.1-2.8 0-3.5-.3-1.7.2-2.8.1-4.5-.1-1.4 0-3.1 0-4.6 0-1.6-.1-3.2-.2-4.8 0-.3 0-.8.1-.9.3-.9.2-2.2.2-3.3V-49v-2.6c-.3-6.7-.3-8.1 0-14.7.1-1.4.1-3.4-.1-4.4-.3-2 .1-3.1.1-4.6-.4-2.1-.2-4.2 0-6.2-.1-.6-.2-.9-.3-1.3.1-.4.1-.7.2-.9-.1-.9-.2-1.7-.2-2.4.1-4 0-8 .2-12.1.2-4.5 0-9.3.2-14 .1-2.9 0-5.9.2-8.9.1-1.7 0-3.8-.2-5.8-.2-1.7.4-3.6.2-5.7-.1-1.1-.3-2.5-.2-3.1.3-2.3 0-4.3 0-6.5 0-2.8-.2-5.2-.5-7.4-.2-1.5.6-2.7.6-5.1.2-.6.1-2.2.2-2.9v-.7h-2.7zM264.2-158.5v13.5c0 2.2 0 4.6-.1 6.5-.2 2.3.1 3.8.1 5.6 0 .6-.1 1.2-.1 1.8-.1 2.6-.2 5.2.1 7.8-.2 1.9-.2 3.6-.3 8 0 1.9.2 3.5.1 5.3-.1 2 0 4.1 0 6.2 0 1.3-.1 2.5-.2 3.7.1 1.1.2 2.2.2 3.2 0 1.4-.3 2.3-.1 4.1.1 1-.1 2.6-.1 4-.1 9.9.2 19.8-.2 29.6v51.8c0 .8.1 1.5.2 2-.1 1-.2 2.2-.1 2.8.3 2 .2 4.2.2 6.4V39c0 2.3-.2 4.7.2 6.9.1.4 0 1.6 0 1.9-.3 1.1-.2 2.5-.2 3.8 0 3.3.1 6.6.2 10 .2 6.3.2 12.8.3 19.2v2.1c0 .4.1.7.2 1-.1.6-.2 1.2-.2 1.8v11.9c0 1.8-.2 3.4 0 5.4.3 4.6-.3 9.4 0 14.2-.1.3-.1.7-.2.9.1 1.9.2 3.6.2 5.4v6.1c0 .1.1.2.1.4h2.6v-9.6c-.1-3.6.3-6.9.2-10.5 0-3 .1-6-.2-9-.1-1.4 0-3.4 0-5.1 0-1.5.1-3-.2-4.4-.3-1.7.1-3 .2-4.6s-.3-3-.1-4.5c.2-1.9-.1-3.5-.1-5.1 0-5.1-.4-10-.3-15.1 0-2 .2-4.4-.2-6.3-.1-.3-.1-1.6 0-1.9.3-1.3.1-2.9.2-4.3.1-2.7-.2-5.2-.2-7.9V21.5c0-6.8.2-13.6-.2-20.5.1-.4.1-1.1.2-1.7-.1-.6-.2-1-.3-1.3.1-1.6.2-2.6.2-3.7 0-1.2.1-2.8 0-3.5-.3-1.7.2-2.8.1-4.5-.1-1.4 0-3.1 0-4.6 0-1.6-.1-3.2-.2-4.8 0-.3 0-.8.1-.9.3-.9.2-2.2.2-3.3V-49v-2.6c-.3-6.7-.3-8.1 0-14.7.1-1.4.1-3.4-.1-4.4-.3-2 .1-3.1.1-4.6-.4-2.1-.2-4.2 0-6.2-.1-.6-.2-.9-.3-1.3.1-.4.1-.7.2-.9-.1-.9-.2-1.7-.2-2.4.1-4 0-8 .2-12.1.2-4.5 0-9.3.3-14 .1-2.9 0-5.9.2-8.9.1-1.7 0-3.8-.2-5.8-.2-1.7.4-3.6.2-5.7-.1-1.1-.3-2.5-.2-3.1.3-2.3 0-4.3 0-6.5 0-2.8.1-5.2-.2-7.5-.2-1.5.3-2.5.4-4.9.2-.6.1-2.9.3-3.6v-.1h-3zM250.1-158.5c.1 2.4-.2 4.4-.1 7.3.1 2.1.1 4.1 0 6.2-.1 2.2.1 4.6-.4 6.5-.7 2.3.3 3.8.4 5.6 0 .6-.3 1.2-.4 1.8-.3 2.6-.8 5.2.4 7.8-.6 1.9-.6 3.6-.8 8-.1 1.9.5 3.5.3 5.3-.3 2 0 4.1-.1 6.2-.1 1.3-.4 2.5-.6 3.7.2 1.1.6 2.2.5 3.2-.1 1.4-1 2.3-.4 4.1.4 1-.2 2.6-.3 4-.4 9.9.7 19.8-.7 29.6v51.8c0 .8.3 1.5.5 2-.2 1-.7 2.2-.4 2.8.9 2 .6 4.2.6 6.4V39c0 2.3-.6 4.7.6 6.9.2.4.1 1.6-.1 1.9-.9 1.1-.5 2.5-.5 3.8 0 3.3.2 6.6.6 10 .6 6.3.6 12.8.8 19.2 0 .7-.1 1.4 0 2.1.1.4.4.7.6 1-.2.6-.6 1.2-.6 1.8-.1 2.1 0 4.1 0 6.2v5.7c0 1.8-.5 3.4-.1 5.4.9 4.6-1.1 9.4.1 14.2-.2.3-.4.7-.6.9.2 1.9.5 3.6.6 5.4.1 2.1 0 4.1 0 6.1.1.1.2.2.2.4h8.2c0-3.3.1-6.5-.1-9.6-.2-3.6.9-6.9.7-10.5-.1-3 .3-6-.6-9-.4-1.4 0-3.4-.1-5.1-.1-1.5.4-3-.5-4.4-1.1-1.7.5-3 .6-4.6.1-1.6-.8-3-.3-4.5.6-1.9-.3-3.5-.3-5.1 0-5.1-1.2-10-.9-15.1.1-2 .6-4.4-.6-6.3-.2-.3-.2-1.6.1-1.9 1-1.3.4-2.9.6-4.3.4-2.7-.6-5.2-.7-7.9-.1-6.7.1-13.5-.1-20.2-.1-6.8.7-13.6-.6-20.5.2-.4.5-1.1.7-1.7-.4-.6-.6-1-.8-1.3.3-1.6.6-2.6.7-3.7.1-1.2.3-2.8-.1-3.5-.9-1.7.6-2.8.2-4.5-.3-1.4 0-3.1-.1-4.6-.1-1.6-.5-3.2-.7-4.8 0-.3 0-.8.2-.9.8-.9.5-2.2.5-3.3V-49c0-.9.1-1.8 0-2.6-.9-6.7-.9-8.1 0-14.7.2-1.4.2-3.4-.3-4.4-1-2 .2-3.1.4-4.6-1.3-2.1-.7-4.2.1-6.2-.4-.6-.6-.9-.8-1.3.2-.4.4-.7.5-.9-.2-.9-.6-1.7-.5-2.4.2-4-.1-8 .5-12.1.7-4.5.1-9.3.8-14 .4-2.9-.1-5.9.7-8.9.4-1.7.1-3.8-.5-5.8-.5-1.7 1.1-3.6.6-5.7-.2-1.1-.9-2.5-.6-3.1 1-2.3 0-4.3 0-6.5.1-2.8 1.1-5.2.2-7.4-.6-1.5.2-2.5.4-4.9 1.7-2.1-.6-2.2.8-3.8h-8.4zM240.7-158.5c0 2.5-.1 4.4 0 7.3v6.2c0 2.2 0 4.6-.1 6.5-.2 2.3.1 3.8.1 5.6 0 .6-.1 1.2-.1 1.8-.1 2.6-.2 5.2.1 7.8-.2 1.9-.2 3.6-.3 8 0 1.9.2 3.5.1 5.3-.1 2 0 4.1 0 6.2 0 1.3-.1 2.5-.2 3.7.1 1.1.2 2.2.2 3.2 0 1.4-.3 2.3-.1 4.1.1 1-.1 2.6-.1 4-.1 9.9.2 19.8-.2 29.6v51.8c0 .8.1 1.5.2 2-.1 1-.2 2.2-.1 2.8.3 2 .2 4.2.2 6.4V39c0 2.3-.2 4.7.2 6.9.1.4 0 1.6 0 1.9-.3 1.1-.2 2.5-.2 3.8 0 3.3.1 6.6.2 10 .2 6.3.2 12.8.3 19.2v2.1c0 .4.1.7.2 1-.1.6-.2 1.2-.2 1.8v11.9c0 1.8-.2 3.4 0 5.4.3 4.6-.3 9.4 0 14.2-.1.3-.1.7-.2.9.1 1.9.2 3.6.2 5.4v6.1c0 .1.1.2.1.4h2.6v-9.6c-.1-3.6.3-6.9.2-10.5 0-3 .1-6-.2-9-.1-1.4 0-3.4 0-5.1 0-1.5.1-3-.2-4.4-.3-1.7.1-3 .2-4.6s-.3-3-.1-4.5c.2-1.9-.1-3.5-.1-5.1 0-5.1-.4-10-.3-15.1 0-2 .2-4.4-.2-6.3-.1-.3-.1-1.6 0-1.9.3-1.3.1-2.9.2-4.3.1-2.7-.2-5.2-.2-7.9V21.5c0-6.8.2-13.6-.2-20.5.1-.4.1-1.1.2-1.7-.1-.6-.2-1-.3-1.3.1-1.6.2-2.6.2-3.7 0-1.2.1-2.8 0-3.5-.3-1.7.2-2.8.1-4.5-.1-1.4 0-3.1 0-4.6 0-1.6-.1-3.2-.2-4.8 0-.3 0-.8.1-.9.3-.9.2-2.2.2-3.3V-49v-2.6c-.3-6.7-.3-8.1 0-14.7.1-1.4.1-3.4-.1-4.4-.3-2 .1-3.1.1-4.6-.4-2.1-.2-4.2 0-6.2-.1-.6-.2-.9-.3-1.3.1-.4.1-.7.2-.9-.1-.9-.2-1.7-.2-2.4.1-4 0-8 .2-12.1.2-4.5 0-9.3.3-14 .1-2.9 0-5.9.2-8.9.1-1.7 0-3.8-.2-5.8-.2-1.7.4-3.6.2-5.7-.1-1.1-.3-2.5-.2-3.1.3-2.3 0-4.3 0-6.5 0-2.8-.2-5.2-.5-7.4-.2-1.5.5-2.7.6-5.1.2-.6.1-2.2.2-2.9v-.7h-2.8z"/></g></g></g></svg>