<svg xmlns="http://www.w3.org/2000/svg" viewBox="0 0 60.88 59.45"><defs><style>.cls-1{fill:#3a2e25}</style></defs><g id="レイヤー_2" data-name="レイヤー 2"><g id="レイヤー_1-2" data-name="レイヤー 1"><path class="cls-1" d="M56.69 25.4l-.39-.08a4.6 4.6 0 0 0 .2-.66 5.44 5.44 0 0 0-.79-4.29.68.68 0 0 1-.12-.12 4.73 4.73 0 0 0-3.06-1.62 5.75 5.75 0 0 0-4.28 1.54 1.08 1.08 0 0 1-.84.26 4.34 4.34 0 0 0-2.48.42 1.05 1.05 0 0 1-.85 0 1 1 0 0 1-.6-.61 4.39 4.39 0 0 0-8.23 0 1.06 1.06 0 0 1-.87.68 4.41 4.41 0 0 0-3.77 3.35 4.34 4.34 0 0 0-.11 1.29 1 1 0 0 1-.66 1 5.58 5.58 0 0 0-.69.35 1.1 1.1 0 0 1-.55.4 4.35 4.35 0 0 0-1.42 2.33 1.07 1.07 0 0 1-1 .81 1 1 0 0 1-.24 0 1.05 1.05 0 0 1-.78-1.26 6.46 6.46 0 0 1 2.26-3.57c0-.12 0-.25.05-.37a3.82 3.82 0 0 0-.87-2.82A4.23 4.23 0 0 0 23.68 21a4.4 4.4 0 0 0-2.76.69 1 1 0 0 1-.82.14 1.06 1.06 0 0 1-.67-.5 4.14 4.14 0 0 0-3.29-2.07 4.23 4.23 0 0 0-1.62.16 1 1 0 0 1-.58 0h-.16a2 2 0 0 1-1.14-.32 2.9 2.9 0 0 0-2.16-.28l-.46.14a5.2 5.2 0 0 0-1.83 1.81 6.5 6.5 0 0 0-.9-.16 5.21 5.21 0 0 0-5.7 4.56A4.75 4.75 0 0 0 2 27.64a4.93 4.93 0 0 0 1.72 8.76 4.64 4.64 0 0 0-.11.65 5.06 5.06 0 0 0 4.72 5.45 5.4 5.4 0 0 0 3.58-1 5.16 5.16 0 0 0 4.4 3.22 5.39 5.39 0 0 0 4-1.33c3 4.4 3.42 5.83 3.26 7.15a39.1 39.1 0 0 0 0 5.14 1.52 1.52 0 0 0 .12.51c1.08 2.37 5.38 3.22 8.74 3.22 5 0 8.24-1.75 8.41-4.55v-.09c0-5.46.13-7.32 1.93-10.81a5.46 5.46 0 0 0 5.55-2.4 5.5 5.5 0 0 0 2.12 1 5.44 5.44 0 0 0 6.54-4 5.32 5.32 0 0 0 0-2.66 5.43 5.43 0 0 0-.28-10.51zM32.45 56.61c-3.27 0-5.5-.85-6.05-1.41a33.76 33.76 0 0 1 0-4.27c.27-2.2-.44-4.17-3.46-8.67h.09a5.46 5.46 0 0 0 2.62-.43l2 3.15a1.42 1.42 0 0 0 2.6-1l-1.34-8.48a5 5 0 0 0 1 .41 5.46 5.46 0 0 0 3.57 5.85l-.29 3.68A1.42 1.42 0 0 0 36 46l1.33-4.27a5.5 5.5 0 0 0 1.46-.86 5.4 5.4 0 0 0 1.43 1.91c-2 3.94-2.21 6.13-2.21 12-.09.89-2.18 1.83-5.56 1.83z"/><path class="cls-1" d="M13.74 17.29h.43a6.47 6.47 0 0 1 2.15-.18 6.3 6.3 0 0 1 4.36 2.28 6.53 6.53 0 0 1 3.18-.53 6.27 6.27 0 0 1 4.32 2.23 6 6 0 0 1 .82 1.4A6.54 6.54 0 0 1 33.53 19 6.49 6.49 0 0 1 45 18.57a6.85 6.85 0 0 1 2.2-.27 7.87 7.87 0 0 1 5.29-1.78 4.32 4.32 0 0 0 2.08-3.74 4.4 4.4 0 0 0-3.65-4.19 4.24 4.24 0 0 0 .18-1.29A4.48 4.48 0 0 0 46.45 3a4.64 4.64 0 0 0-3.16 1.29 4.53 4.53 0 0 0-4.4-3 4.76 4.76 0 0 0-1.52.27 8.19 8.19 0 0 1 1.39 3.94 6.35 6.35 0 0 1 4.29 6.75 1 1 0 0 1-1 .91H42a1 1 0 0 1-.91-1.09 4.3 4.3 0 0 0-3.42-4.77 1 1 0 0 1-.85-1c0-1.72-.86-5.06-4.19-5.34h-.17a4.85 4.85 0 0 0-3.3 1.64 5 5 0 0 0-3.8-2.6 4.93 4.93 0 0 0-5.05 3 4.76 4.76 0 0 0-2.06-.73A5.08 5.08 0 0 0 12.74 7a5.69 5.69 0 0 0 .36 2.6 5.27 5.27 0 0 0-3 4.32 5.58 5.58 0 0 0 .41 2.74 4.89 4.89 0 0 1 3.23.63z"/></g></g></svg>