<svg xmlns="http://www.w3.org/2000/svg" viewBox="0 0 71.6 45.25"><defs><style>.cls-1{fill:#3a2e25}</style></defs><g id="レイヤー_2" data-name="レイヤー 2"><g id="レイヤー_1-2" data-name="レイヤー 1"><path class="cls-1" d="M41.65 37.7q-1.57.61-3.18 1.11c1.3.61 5 2.29 5.33 2.37a4.77 4.77 0 0 0 2.71-1.12l-4.64-2.22a1.18 1.18 0 0 1-.22-.14zM51.52 34.71a13 13 0 0 0 1-2.74c-1 .5-2.1 1.13-3.35 1.85zM44.5 36.44l4.13 2a14.22 14.22 0 0 0 1.6-1.63l-3.69-1.43q-1 .55-2.04 1.06zM32.18 42c.52-.82.9-1.5 1.14-1.93-1.21.2-2.45.35-3.7.46zM20.86 40.38c1.88 1.35 5.58 3.85 8.46 4.8.57.17.65 0 1-.45l.56-.77-5.79-3.34c-1.41-.02-2.81-.1-4.23-.24zM51.59 15.52a13.32 13.32 0 0 0-1.11-2.74 8.13 8.13 0 0 0-1.74-2l-1.14 2.29c1.4.8 2.74 1.62 3.99 2.45zM26.25 5.52L30.87.9C29.82.55 28.79.24 27.8 0a3.12 3.12 0 0 0-1.4.35 66.46 66.46 0 0 0-5.75 5.09c.77-.07 1.56-.11 2.38-.11a29 29 0 0 1 3.22.19zM33.13 6.9l3.49-3.66c-1.08-.51-2.18-1-3.27-1.43L29.2 6c1.34.22 2.66.54 3.93.9zM39.35 9.05l2.42-3.11c-.93-.54-1.9-1.07-2.9-1.59l-3.18 3.34c1.31.44 2.53.9 3.66 1.36zM45.5 11.92l1.34-2.68a34.7 34.7 0 0 0-3-2L41.63 10c1.3.62 2.6 1.25 3.87 1.92zM23.67 26.6c0 .13-.07.27-.1.4a16.82 16.82 0 0 0 4 1.47 2.12 2.12 0 0 0 1.74-.47 3.22 3.22 0 0 0 .48-.43zM24 24.46v.21l7 1.12a13.45 13.45 0 0 0 .59-1.51L24 24.4z"/><path class="cls-1" d="M70.21 33.16l-7.26-3a1.2 1.2 0 0 1 .9-2.22l4.65 1.9c-.73-1.36-1.38-2.57-1.83-3.39h-3.22a1.2 1.2 0 0 1 0-2.4h3.2c.49-1 1.1-2.15 1.72-3.31l-4.22 1.72a1 1 0 0 1-.45.09 1.2 1.2 0 0 1-.45-2.31l7-2.85c.49-.86.92-1.6 1.23-2.11s0-1-.4-1a.78.78 0 0 0-.26 0c-3.41 1.32-6.74 3.66-10 6-1.32.93-2.24 1.52-3.27 1.52s-2.18-.59-3.94-2C47.27 14.84 33.82 7.74 23 7.74a17.73 17.73 0 0 0-7.16 1.36C5.63 13.62.17 22.13 0 25.94s8.45 9.81 16.12 11.32a50.86 50.86 0 0 0 9.71 1 39.13 39.13 0 0 0 19.81-5.16c5.08-2.93 8.07-4.74 10.37-4.74a3.87 3.87 0 0 1 2.19.64c3 2 8 5.29 12.3 7a.34.34 0 0 0 .16 0 .69.69 0 0 0 .52-.92c-.31-.6-.63-1.26-.97-1.92zm-59.49-7.41h-.11a2.27 2.27 0 0 1 .1-4.54h.11a2.27 2.27 0 0 1-.1 4.54zm23.2-3.24c-.22 1.7-1.21 5.38-3.43 7.06a4.18 4.18 0 0 1-2.53.88 5.14 5.14 0 0 1-.66-.05 18.39 18.39 0 0 1-4.3-1.5 16.06 16.06 0 0 1-2.44 4.83 1.2 1.2 0 0 1-1.78-1.61 18.31 18.31 0 0 0 2.81-7.8c.16-2.68-1.39-5.29-4.75-8a1.2 1.2 0 1 1 1.51-1.87 15.82 15.82 0 0 1 5 6.11 18.73 18.73 0 0 1 8.72-1.35c1.34.25 2.07 1.54 1.85 3.3z"/><path class="cls-1" d="M32 22.32v-.06c0-.27.07-1.06-.25-1.12a17.09 17.09 0 0 0-7.81 1.31z"/></g></g></svg>