<svg xmlns="http://www.w3.org/2000/svg" viewBox="0 0 50.81 44.8"><defs><style>.cls-1{fill:#3a2e25}</style></defs><g id="レイヤー_2" data-name="レイヤー 2"><g id="レイヤー_1-2" data-name="レイヤー 1"><path class="cls-1" d="M36.89 7.48a9.08 9.08 0 0 1-.77.62l2 1.25a2.87 2.87 0 0 1 1.36 3.16 2.71 2.71 0 0 1-2.62 2h-.39a17.06 17.06 0 0 1-4.22-.51c-.88-.23-1.75-.39-2.55-.53a9.08 9.08 0 0 1-.84 2.82c-.12.27-.24.55-.36.87a1.17 1.17 0 0 1-.05.11 3 3 0 0 1-2.76 2h-.12a3 3 0 0 1-2.76-2 1.17 1.17 0 0 1 0-.11c-.12-.32-.24-.6-.36-.87a9.08 9.08 0 0 1-.84-2.82c-.8.14-1.67.3-2.56.53a16.94 16.94 0 0 1-4.22.52h-.43a2.7 2.7 0 0 1-2.62-2 2.86 2.86 0 0 1 1.36-3.16c.67-.41 1.28-.8 2-1.25-.29-.22-.58-.46-.86-.71C5.82 9.57 0 14.57 0 22.75c0 11.43 11.37 22 25.4 22s25.41-10.62 25.41-22c0-8.07-5.66-13.04-13.92-15.27zM8.94 30.19a1.5 1.5 0 0 1-2.53 1.62 15.75 15.75 0 0 1-2.61-8.5 11.57 11.57 0 0 1 3.14-8.15 1.5 1.5 0 1 1 2.19 2.05 8.65 8.65 0 0 0-2.33 6.1 12.7 12.7 0 0 0 2.14 6.88z"/><path class="cls-1" d="M24.09 6.25a15.16 15.16 0 0 0-5.21-1.95 21.5 21.5 0 0 1-4.18-1.2.82.82 0 0 0-.28-.1c-.25 0-.35.19-.2.5a8.3 8.3 0 0 0 3 3.07c1.2.79 2.47 1 3.13 1.39a21 21 0 0 0-3.48 1.86c-.91.58-1.65 1.05-2.45 1.54-.42.27-.43.67 0 .68h.33a14.52 14.52 0 0 0 3.62-.44c2.44-.6 4.63-.7 5.63-1.2-.34 3.49.26 3.89 1 5.85q.27.6.57.6h.12q.3 0 .57-.6c.76-2 1.36-2.36 1-5.85 1 .5 3.16.61 5.58 1.24a14.44 14.44 0 0 0 3.61.44h.34c.48 0 .47-.41 0-.68-.81-.49-1.54-1-2.46-1.54A20.85 20.85 0 0 0 30.93 8c.66-.44 1.93-.6 3.12-1.39a8.34 8.34 0 0 0 3-3.07c.15-.31.05-.5-.2-.5a.93.93 0 0 0-.29.07 21.21 21.21 0 0 1-4.17 1.2 15.12 15.12 0 0 0-6 2.43 1.21 1.21 0 0 0 .06-.38 5.63 5.63 0 0 1 1-3 9.06 9.06 0 0 1 1-1.29 1.2 1.2 0 0 0 0-1.7 1.19 1.19 0 0 0-1.69 0 10.69 10.69 0 0 0-2.29 3.45 7.06 7.06 0 0 0-.38 2.43z"/></g></g></svg>