<svg xmlns="http://www.w3.org/2000/svg" viewBox="0 0 43.28 61.54"><g data-name="レイヤー 2"><path d="M42.79 32.23v-.45c-.06-.57-.13-1.55-.22-2.69a102.17 102.17 0 0 0-1.47-12.44c0-.19-.09-.36-.14-.52C39.37 7.64 36.76 2.28 32 .35c-1.5-.61-3.71-.61-4 1.63a6.39 6.39 0 0 1 1.67 1.22 7.37 7.37 0 0 1 2.07 4.67 8.14 8.14 0 0 1 2 5.11 3.19 3.19 0 0 1 1.26.92v.1a.36.36 0 0 1 .07.1 7.18 7.18 0 0 1 1 4.34 16.07 16.07 0 0 1-.18 2.07c.94 4.16 2.16 10.12 2.56 12.8.32-2.56-1.15-14.92-1-16.05.08-.89 1.14-1.43 1.42-.1C39.88 22 40.22 29.67 40.48 32c.33 2.91 1.42 11.11-1 18l-.18.47c-.12.33-.25.64-.39 1v.06l-.21.45a14.81 14.81 0 0 1-4 5.14 6.24 6.24 0 0 1-1.91 1c3.65-3.88 4.83-11.52 4.74-15.3a.72.72 0 0 0-.71-.7.71.71 0 0 0-.69.73c.08 3.74-1.41 14.29-7 16-.67.07-1.34.11-2 .12l.17-.14c3.48-3.14 5.71-7.5 6.64-13a48.66 48.66 0 0 0 .33-11.19v-.53c0-.46 0-1.35-.09-2.38 0-.75 0-1.45-.07-2.1.42-2.67 1.56-6.15-.07-7.55.91-2.66 1.19-8.46-1.85-8a6.23 6.23 0 0 0-1.85-5.7c.08-3.58-3.18-6.16-5.23-5.38-.34-.89-2.05-2-3.75-2.43s-5 .53-4.56 3.69c-3.39.31-4.87 7.24-3.25 10.44-3.15.17-2.66 5.78-.75 7.93a7 7 0 0 0 .29 8.27c-.64 3.79 1.94 5.8 3.09 6.89A16.66 16.66 0 0 0 18 44.22c.05 1.65 1 2.72 1.77 4.2a14.71 14.71 0 0 1-2 7.54c-.63-.58-1.23-1.15-1.8-1.72-.35-3.86.52-6.67.68-9.54v-.12a18.8 18.8 0 0 1-1.77-6.19 10.49 10.49 0 0 1-2.5-3.18 7.39 7.39 0 0 1-.67-3.92 7.81 7.81 0 0 1-1.42-4.17 9.07 9.07 0 0 1 .93-4.41 9.19 9.19 0 0 1-1.24-4.16v-.09a6.87 6.87 0 0 1 .42-2.89 3.82 3.82 0 0 1 1.45-1.77 10.81 10.81 0 0 1-.24-3.27 11.83 11.83 0 0 1 1.34-4.83 5.71 5.71 0 0 1 2.52-2.52 4.53 4.53 0 0 1 .46-1.58A3.75 3.75 0 0 0 11.69.33C6 2.62 3.37 9.82 1.94 21.42A101.41 101.41 0 0 0 .58 31.65c0 .45-.09 1.11-.16 1.86A55 55 0 0 0 .29 45.6C1 51.5 3.18 56 6.74 58.9 9.25 61 13 61.28 15 61.28a18.14 18.14 0 0 0 2-.11 2.18 2.18 0 0 0 .71.22 14.41 14.41 0 0 0 2.07.15 12.71 12.71 0 0 0 3.56-.48 20.85 20.85 0 0 0 3.24.22c2.51 0 7.09-.3 9.59-2.35C40 55.77 42.3 50.87 43 44.37a53.57 53.57 0 0 0-.21-12.14zm-33 23.53A17.07 17.07 0 0 1 5.06 43.4a.72.72 0 0 0-.66-.77.7.7 0 0 0-.76.66 18.55 18.55 0 0 0 5.08 13.45 14.39 14.39 0 0 0 1.82 1.63 6.89 6.89 0 0 1-2.36-1.23C0 50.4 2.63 35.85 2.85 31.77 3 28.22 4.63 18 5.87 14.27c.18-.54.73-.66.62.39-.19 1.94-2.24 14.15-2.24 20.23.67-2.38 2.51-11.11 3.61-13.89.21-.52.94-.72.86.28C8.56 23.1 5 35.65 6.44 45.15c0 0 .63-8.07 2.85-12.16.24-.43.84-.07.76.47-3.92 14.54.4 18.84 6.17 24.24a2.35 2.35 0 0 0-.51 1.3h-.48a10.16 10.16 0 0 1-5.47-3.24zm11.66 3.38c4-3.91 4.59-12.43 4.15-16.44a.71.71 0 0 0-.78-.64.72.72 0 0 0-.63.79c.39 3.64-.18 13.95-5.28 16.39l-.9-.1a11.45 11.45 0 0 0 2.37-3.27c2.86-5.86 2.36-16-3.75-31.34a.81.81 0 0 1 1.37-.76 124.55 124.55 0 0 1 5.24 11.68c-1.08-5.39-3.82-16-4.48-20.23a.92.92 0 1 1 1.8-.38c1.26 3.54 3.28 11.68 3.9 14.44.35-3.7-1.9-15.48-2.28-17.1s1.23-2.28 1.9-.38 2.57 14 3 18c-.08-2.8-.4-12.58-.5-15.53.09-1.14 1.57-.88 1.71.1.28 2 1 17.24 1.3 20.6.21-2.47.43-10.68.49-11.83s1-1 1.25 0c.44 1.48.55 9.34.66 11.21.25 4.32 1 13.44-3.79 20.15a16.92 16.92 0 0 1-1.33 1.63 17.28 17.28 0 0 0 1.26-3.48 38.35 38.35 0 0 0 .51-13.2.71.71 0 1 0-1.41.16 36.89 36.89 0 0 1-.48 12.69c-.81 3.19-2.14 5.38-4 6.54a10.4 10.4 0 0 1-1.33.3zm5.31.21z" fill="#3a2e25" data-name="レイヤー 1"/></g></svg>