<svg xmlns="http://www.w3.org/2000/svg" viewBox="0 0 58.34 48.72"><defs><style>.cls-1{fill:#3a2e25}</style></defs><g id="レイヤー_2" data-name="レイヤー 2"><g id="レイヤー_1-2" data-name="レイヤー 1"><path class="cls-1" d="M22.56 31.64c4.39 3.71 4.39-3.72 2-4.05a2.35 2.35 0 0 0-2 4.05zM25.5 13.8c-2.47-2-4.27.9-6.52 2.25s.94 6.65 2.25 8.33c1.57 2 4.05-.68 4.95-2.7s1.82-5.85-.68-7.88zM30.9 26c2.93-.9 7.87-4.5 7.65-6.75s-4-2.92-5.4-2.92-4.81 4.77-5.4 7.42c-.45 1.98.25 3.1 3.15 2.25zM40.35 24.83c-1.8-1.35-6.8 2.25-9 3.82-1.57 1.13 1.58 3.6 3.6 4.5s4.72 1.58 6.75-1.15.45-5.82-1.35-7.17zM32.25 35c-1.8-1.35-4.05-1.12-4.05 1.35s1.13 5.4 2.7 5.4a4.35 4.35 0 0 0 3.6-1.8c.99-1.29-.45-3.65-2.25-4.95zM20.78 38.55c-.68 2.25-.67 3.16.9 4.05s2.47.68 4.05-.22-.23-4.28-1.13-6.3-3.15.22-3.82 2.47zM15.15 29.1c2.69-.25 4.28-1.8 2.25-3.82-1.35-2-4.5-5.85-6.07-5.18s-4 3.38-3.38 5.18 2.48 4.27 7.2 3.82zM15.6 31.58c-2.7 0-4.5.22-4.95 1.8s1.35 4 2.7 3.82 1.8-1.35 2.93-2.92.45-2.48-.68-2.7zM17.85 35.4c-1.12.68-3.17 3.86-1.8 4.73 2.48 1.57 2.79-.26 3.15-1.35.9-2.7-.2-4.05-1.35-3.38z"/><path class="cls-1" d="M43.57 0c-5.42 0-17.14 2.05-28.43 7.61a19.27 19.27 0 0 0-5 2.79C5 14.4-1.38 25.31.26 32.18a20 20 0 0 0 9 13 26.65 26.65 0 0 0 14.15 3.55A41.45 41.45 0 0 0 42.57 44 13.81 13.81 0 0 0 46 41.37c8.4-7.8 11.66-15.62 12.3-22.8C59.17 8.4 51.07 0 43.57 0zm2.61 33.79A10.42 10.42 0 0 1 41 41.16a38.46 38.46 0 0 1-17.52 4.26c-7.58 0-17.2-2.43-20-14C2.2 26.11 7.92 16.33 12.18 13c3.86-3 8.65-3.64 12-3.64 7 0 14.55 2.86 17.48 6.65 3.13 4.05 5.78 11.65 4.52 17.78z"/></g></g></svg>