<svg xmlns="http://www.w3.org/2000/svg" viewBox="0 0 46.84 57.42"><defs><style>.cls-1{fill:#3a2e25}</style></defs><g id="レイヤー_2" data-name="レイヤー 2"><g id="レイヤー_1-2" data-name="レイヤー 1"><path class="cls-1" d="M12.7 26.54c-.52-.48-1.41-1.31-2.41-2.32v-.05a3.11 3.11 0 0 1-.65-3.25.61.61 0 0 1 0-.12 10.37 10.37 0 0 1-1.25-4.91c.05-2.32 1.07-4 2.82-4.62 5.93-2.1 19.39 5 32 16.88a1.07 1.07 0 0 0 1.49-.05 1.05 1.05 0 0 0 0-1.48 91.65 91.65 0 0 0-18.6-13.81C21.47 10.3 15 7.65 10.49 9.25c-2.58.92-4.16 3.37-4.22 6.55a13 13 0 0 0 2.31 7.34c-4.86-3.6-7.39-8.67-6.17-13.54a9.28 9.28 0 0 1 6.2-6.5c3.39-1.26 7.71-1.32 12.5-.17a50.13 50.13 0 0 1 17 8.17 1.05 1.05 0 1 0 1.21-1.72C27.75 1.2 16-1.88 7.88 1.13a11.46 11.46 0 0 0-7.51 8c-1 4.2.15 8.6 3.36 12.4a24.14 24.14 0 0 0 9.73 6.68 11 11 0 0 1-.76-1.67zM17 33.13l-4.43-1.6a1 1 0 0 0-.76 0l-8 3.26a1 1 0 1 0 .79 1.94l7.6-3.1c.85.31 3.07 1.12 5.83 2.09l-4.49-.68a1.08 1.08 0 0 0-.72.16l-6 3.86a1.05 1.05 0 0 0-.32 1.45 1 1 0 0 0 1.45.32l5.71-3.65L22 38.45a47.24 47.24 0 0 1-5-5.32zM30 45.24a5.12 5.12 0 0 0-.33-3.59L21 40.28a1.08 1.08 0 0 0-.4 0L12.86 42a1 1 0 0 0-.8 1.25 1.06 1.06 0 0 0 1.26.8l7.53-1.68 5.72.9-3.71-.1h-.21l-5.63 1a1 1 0 0 0 .19 2.08.68.68 0 0 0 .2 0l5.51-1 7 .18a1.24 1.24 0 0 1 .08-.19zM46.3 47.74a10.31 10.31 0 0 1-2.11 1 14.91 14.91 0 0 1-4.78.74 17 17 0 0 1-8.35-2.13 7.5 7.5 0 0 1-3.77 1.82c1.9 3.65 5.11 7.43 7.24 7.84 5.69-1.13 10-4.65 11.77-9.27zM15.86 52.92a25.66 25.66 0 0 1 2.19-4 57.66 57.66 0 0 0-9.75-2h-.15c-.51 0-1.05.3-.51.87 1 1 3 2.74 7.21 4.54.33.17.67.38 1.01.59zM28.47 55.44a29 29 0 0 1-3.8-5.91h-1.7c-.59 0-1.49 0-2.28-.08a24.36 24.36 0 0 0-2.64 4.66 27.11 27.11 0 0 0 12.34 3.26 18.66 18.66 0 0 1-1.92-1.93zM32.22 45.14a14.33 14.33 0 0 0 11.15 1.24 5.06 5.06 0 0 0 3.38-2.94 1 1 0 0 1 .09-.21 17.07 17.07 0 0 0-5.16-9.93c-.87 4.55-5.36 7.5-7.88 8.13a10.08 10.08 0 0 1-1.89.25 7.17 7.17 0 0 1 .31 3.46z"/><path class="cls-1" d="M14.55 21c-.8 0-1.59 0-2.37.11-.57.05-1.08.82-.39 1.6 1.52 1.55 2.8 2.68 2.8 2.68.24 2.17 6.5 9.8 9.4 12a12.85 12.85 0 0 0 7.35 2.2 8.12 8.12 0 0 0 1.95-.2c1.93-.48 6.44-3.3 6.44-7.64C36.52 27.05 25 21 14.55 21zm4.16 6a1.37 1.37 0 1 1 1.37-1.36 1.37 1.37 0 0 1-1.37 1.43z"/></g></g></svg>