<svg xmlns="http://www.w3.org/2000/svg" viewBox="0 0 34.92 46.67"><defs><style>.cls-1{fill:#3a2e25}</style></defs><g id="レイヤー_2" data-name="レイヤー 2"><g id="レイヤー_1-2" data-name="レイヤー 1"><path class="cls-1" d="M34.91 27.05a38.77 38.77 0 0 0-5.24-17.77 25.38 25.38 0 0 0-5.14-6.38A10.65 10.65 0 0 0 17.78 0h-.09a10.75 10.75 0 0 0-6.79 2.79 25.32 25.32 0 0 0-5.25 6.26A38.66 38.66 0 0 0 0 26.65a19.68 19.68 0 0 0 5.31 14.46 16.85 16.85 0 0 0 11.92 5.56h.17a17 17 0 0 0 12-5.37 19.73 19.73 0 0 0 5.51-14.25zM17.4 43.83h-.14c-7.7-.09-14.9-7.85-14.4-17 .63-11.42 8.31-24 14.83-24 6.53.08 14 12.84 14.33 24.3.34 9.15-6.96 16.7-14.62 16.7z"/><path class="cls-1" d="M15.93 7.33c-2.54.92-4.54 3.5-5.77 5.5A28.89 28.89 0 0 0 6.58 22a1.51 1.51 0 0 0 1.17 1.77 1.53 1.53 0 0 0 .3 0 1.5 1.5 0 0 0 1.47-1.2c1.2-5.8 4.54-11.38 7.43-12.43a1.51 1.51 0 0 0 .9-1.93 1.49 1.49 0 0 0-1.92-.88z"/></g></g></svg>