<svg xmlns="http://www.w3.org/2000/svg" viewBox="0 0 52.61 58.3"><defs><style>.cls-1{fill:#3a2e25}</style></defs><g id="レイヤー_2" data-name="レイヤー 2"><g id="レイヤー_1-2" data-name="レイヤー 1"><path class="cls-1" d="M10 15.81A4.22 4.22 0 0 1 8.17 15a4.84 4.84 0 0 0-2.61-.75 6.91 6.91 0 0 0-3 .76H2.5a.15.15 0 0 1-.13-.07A3.22 3.22 0 0 1 1.74 12a1.24 1.24 0 0 1 1.16-.68c2.47-.07 3.42-1 3.4-3.3a4.4 4.4 0 0 1 1-3.11 2.57 2.57 0 0 1 1.9-.79 3.6 3.6 0 0 1 1.26.24 5.7 5.7 0 0 0 1.95.38 2.93 2.93 0 0 0 3-2C16 1 17 .66 17.81.66a4.44 4.44 0 0 1 3 1.51 1.45 1.45 0 0 0 1.09.5 2.89 2.89 0 0 0 .81-.15.17.17 0 0 1 .12 0 .17.17 0 0 1 0 .17 5.69 5.69 0 0 0-.52 2.65.17.17 0 0 1 0 .12.17.17 0 0 1-.1 0 5.83 5.83 0 0 0-1.57-.21 7 7 0 0 0-5 2.14 5.32 5.32 0 0 0-1.48 3.06.13.13 0 0 1-.08.11 6.73 6.73 0 0 0-2.58 2.87 7.2 7.2 0 0 1-1.46 2.29H10zM44.13 15.33a.15.15 0 0 1-.11 0 .15.15 0 0 1 0-.16 4.72 4.72 0 0 0-.59-4.4 5.55 5.55 0 0 0-4.56-2.33 6.11 6.11 0 0 0-1.64.22 3.51 3.51 0 0 1-.91.16h-.11a.19.19 0 0 1-.12-.07 6.66 6.66 0 0 1-.53-1.54l-.12-.41a4.35 4.35 0 0 0-4.24-3.15 4 4 0 0 0-3.68 2.26A2 2 0 0 1 25.7 7a2.48 2.48 0 0 1-.89-.18.14.14 0 0 1-.08-.09 13.3 13.3 0 0 1-.43-1.33 3 3 0 0 1 .58-2.18 2 2 0 0 1 1.56-.47h1.63a2.78 2.78 0 0 0 2.78-1.46A2.37 2.37 0 0 1 33 0a3.46 3.46 0 0 1 3 2.55 2.89 2.89 0 0 0 2.85 1.82A5.42 5.42 0 0 0 41 3.86a3.67 3.67 0 0 1 1.41-.31c1.67 0 2.83 1.45 2.95 3.7s1.07 3.1 3.29 3.1H49a1.52 1.52 0 0 1 1.3.78 3.79 3.79 0 0 1 .09 3.32.15.15 0 0 1-.14.1h-.05a6.74 6.74 0 0 0-2.2-.43 5 5 0 0 0-2.25.51c-.39.19-1 .47-1.57.69z"/><path class="cls-1" d="M30.58 15.72a.14.14 0 0 1-.12-.06c-1.11-1.43-3-2.95-5.05-2.95a3.23 3.23 0 0 0-2.71 1.37 8.18 8.18 0 0 1-.7.92.15.15 0 0 1-.11 0 .17.17 0 0 1-.11-.06 8.52 8.52 0 0 1-.64-1.23c-1-2.3-2.7-3.65-4.66-3.7a.12.12 0 0 1-.12-.07.14.14 0 0 1 0-.14 4.87 4.87 0 0 1 4.33-2.61 3.78 3.78 0 0 1 2.21.68 4.83 4.83 0 0 0 2.85 1 3.87 3.87 0 0 0 3.49-2.25 2.11 2.11 0 0 1 2-1.18 2.48 2.48 0 0 1 2.42 1.78c0 .11.12.4.12.4.42 1.51.78 2.81 2.26 3a.15.15 0 0 1 .14.14.16.16 0 0 1-.12.16 6.91 6.91 0 0 0-4.61 3.51l-.45.8-.22.4a.16.16 0 0 1-.12.08zM42 14.79a.15.15 0 0 1-.13-.11 1.21 1.21 0 0 1-.05-.18 4.79 4.79 0 0 0-4.53-3.67.14.14 0 0 1-.14-.14.13.13 0 0 1 .12-.15l.47-.12a4.34 4.34 0 0 1 1.13-.16 3.65 3.65 0 0 1 3 1.53 2.88 2.88 0 0 1 .37 2.67c0 .06-.06.15-.1.25a.16.16 0 0 1-.14.08z"/><path class="cls-1" d="M28.16 57.72a6.72 6.72 0 0 1-1-.07.17.17 0 0 1-.13-.18c.25-1.06.48-2.42.76-4A57.55 57.55 0 0 1 30 43.92c.27-.7.53-1.41.79-2.11v-.08c1.17-3.18 2.39-6.48 3.88-7.8a5 5 0 0 0 1.29-5.61 5.23 5.23 0 0 0-5-3.39h-.66a.16.16 0 0 1-.14-.13 8.37 8.37 0 0 1 1.24-4.14 3.66 3.66 0 0 0 .23-2.76.17.17 0 0 1 0-.12c.3-.48.6-1 .91-1.58v-.05c.15-.25.29-.51.44-.78a4.78 4.78 0 0 1 4-2.66A2.9 2.9 0 0 1 40 15c.44 1.75 1.34 2.6 2.74 2.6a9.35 9.35 0 0 0 3.89-1.24A3.21 3.21 0 0 1 48 16c2 0 4.35 1.68 4.59 2.93.09.46-.14.8-.66 1-2.33.93-7.8 3.07-5.93 11.94a22.89 22.89 0 0 1-1.46 15 19.7 19.7 0 0 1-7.16 7.94.11.11 0 0 1-.08 0 .18.18 0 0 1-.12 0 .16.16 0 0 1 0-.2 23.92 23.92 0 0 0 6.52-12 29.08 29.08 0 0 0-.24-9c-.51-3.85-1-7.48.95-10.54a1.06 1.06 0 0 0-.9-1.62 1.05 1.05 0 0 0-.89.49c-1.94 3.08-1.88 6.49-1.53 9.71a.14.14 0 0 1-.11.16.15.15 0 0 1-.14-.11 16.59 16.59 0 0 1-.92-6.7 1.05 1.05 0 0 0-.26-.76 1 1 0 0 0-.73-.35h-.06a1 1 0 0 0-1 1 21 21 0 0 0 2 9.94 18.62 18.62 0 0 1 1.81 7.33 19.59 19.59 0 0 1-3.16 7.47.16.16 0 0 1-.12.06h-.05a.15.15 0 0 1-.1-.14 97.93 97.93 0 0 0-1.1-10.9 1 1 0 0 0-1-.88h-.17a1.06 1.06 0 0 0-.93 1.23c0 .08 1.31 8.23 1.06 13.46v.11a.15.15 0 0 1 0 .11 30.9 30.9 0 0 1-5.73 4.77h-.06c-.4.07-.8.13-1.17.17a7.86 7.86 0 0 1-.95 0z"/><path class="cls-1" d="M23.66 58.3a9.32 9.32 0 0 1-2.66-.53c-1-.86-1.94-1.67-2.76-2.48a.13.13 0 0 1 0-.14 62.05 62.05 0 0 1 8.67-19.76A1.05 1.05 0 1 0 25 34.24a65.16 65.16 0 0 0-8.56 18.87.14.14 0 0 1-.11.11.17.17 0 0 1-.12 0c-.32-.38-.62-.76-.9-1.13s0 0 0-.05c-3.56-5.65 1-13.19 3.47-17.23.42-.7.78-1.29 1.05-1.79a21.88 21.88 0 0 0 2.82-8 1 1 0 0 0-.21-.78 1.07 1.07 0 0 0-.7-.4h-.13a1.07 1.07 0 0 0-1 .93A19.35 19.35 0 0 1 17.92 32c-.24.45-.59 1-1 1.69a37.51 37.51 0 0 0-4.57 9.7.16.16 0 0 1-.15.12.15.15 0 0 1-.14-.14 17.12 17.12 0 0 1 2.12-8.12c3.07-6 2.6-8.94 1.81-13.75v-.12c0-.28-.09-.57-.14-.87a1 1 0 0 0-1-.89h-.17a1.06 1.06 0 0 0-.68.43 1 1 0 0 0-.19.78c.05.34.11.67.16 1 .72 4.38 1.11 6.8-1.21 11.64a.13.13 0 0 1-.13.09.16.16 0 0 1-.11-.16 23.39 23.39 0 0 0-1.22-8.88 1 1 0 0 0-.9-.65 1 1 0 0 0-.3.05.93.93 0 0 0-.54.47.9.9 0 0 0-.05.72c1.62 4.88 1.18 8.46.76 11.92a24.88 24.88 0 0 0-.09 8 16.21 16.21 0 0 0 1.58 5.15A21.3 21.3 0 0 0 13.42 53v.07a1 1 0 0 0 .14.17q.29.39.6.78a.15.15 0 0 1 0 .2.16.16 0 0 1-.11.05h-.09a16.43 16.43 0 0 1-4.31-4c-3.2-4.7-2.83-8.45-2.45-12.43.32-3.24.64-6.59-1-10.55A12.77 12.77 0 0 0 .29 20.7C0 20.59 0 20.37 0 20c.27-1.29 3-3.93 5.54-3.93a2.89 2.89 0 0 1 1.59.45A5.71 5.71 0 0 0 10 17.7c1.4 0 2.17-1.32 3.19-3.34.78-1.55 1.93-2.44 3.13-2.44s2.33.93 3 2.56c.79 1.81 1.55 2.66 2.41 2.66s1.48-.6 2.45-2a1.38 1.38 0 0 1 1.18-.59c1.26 0 3 1.26 4 2.81a2.44 2.44 0 0 1 .36 2.38c-1 2-2 4.76-1.13 6.16a2 2 0 0 0 1.86.88h.45A3.36 3.36 0 0 1 34.18 29a3.17 3.17 0 0 1-.78 3.53c-1.85 1.64-3.09 5-4.4 8.56-.25.67-.53 1.43-.81 2.17a57.52 57.52 0 0 0-2.28 9.9c-.33 1.87-.6 3.48-.88 4.48-.13.45-.58.67-1.37.67z"/></g></g></svg>