<svg xmlns="http://www.w3.org/2000/svg" viewBox="0 0 44.13 74.85"><defs><style>.cls-1{fill:#3a2e25}</style></defs><g id="レイヤー_2" data-name="レイヤー 2"><g id="レイヤー_1-2" data-name="レイヤー 1"><path class="cls-1" d="M43.64 6.84a1.42 1.42 0 0 0-2 .15l-4.73 5.49 4-6.6a1.42 1.42 0 1 0-2.38-1.48l-4.26 7L37.74 4a1.42 1.42 0 1 0-2.56-1.21l-3.47 7.3 2.7-7.69a1.44 1.44 0 0 0-.87-1.77 1.42 1.42 0 0 0-1.81.87l-2.56 7.3 1.26-7.13a1.42 1.42 0 1 0-2.79-.5l-2.11 11.94h-.84a9.57 9.57 0 0 0-6.39 2.45 20.75 20.75 0 0 0-4.88 7C10.05 29.58 4 43.27 1 55.25a35.45 35.45 0 0 0-.2 15.58c.07.41.14.76.17 1a3.34 3.34 0 0 0 1.68 2.8 2.46 2.46 0 0 0 1.06.23 4.19 4.19 0 0 0 2.17-.7l.88-.49a35.67 35.67 0 0 0 12-10c7.39-9.88 14.15-23.26 17.52-30.36 3.18-6.68 3.08-11.66-.39-15.3l7.93-9.19a1.41 1.41 0 0 0-.18-1.98zM20.45 56.23L18 55.07a1.05 1.05 0 0 0-.9 1.9l2.17 1c-.93 1.38-1.88 2.72-2.83 4a32.9 32.9 0 0 1-11.05 9.2l-1 .56a1.9 1.9 0 0 1-.49.24 1.83 1.83 0 0 1-.13-.53c0-.3-.11-.66-.19-1.12a33.49 33.49 0 0 1-.25-12.67l2.25 1.06a1 1 0 0 0 .44.1 1 1 0 0 0 1-.6 1.05 1.05 0 0 0-.49-1.4l-2.72-1.27c2.27-8.9 6.36-18.93 9.42-25.83l1.75.83a1 1 0 0 0 .45.11 1.05 1.05 0 0 0 .45-2l-1.79-.86c.73-1.63 1.38-3 1.89-4.09 3.32-7 6.56-7.78 8.71-7.78a12.2 12.2 0 0 1 5.18 1.38c3.16 1.5 5 3.32 5.6 5.55s.07 5.37-1.78 9.26a224.08 224.08 0 0 1-13.24 24.12z"/><path class="cls-1" d="M16 45.38l-4.05-1.93a1.06 1.06 0 0 0-1.4.5 1 1 0 0 0 .5 1.4l4.05 1.92a1 1 0 0 0 .45.11 1.05 1.05 0 0 0 .45-2zM25.45 38.92l-2.85-1.35a1.05 1.05 0 0 0-.9 1.9l2.85 1.35a1 1 0 0 0 .45.1 1.05 1.05 0 0 0 .95-.6 1.06 1.06 0 0 0-.5-1.4z"/></g></g></svg>