<svg xmlns="http://www.w3.org/2000/svg" viewBox="0 0 39.3 35.02"><g data-name="レイヤー 2"><path d="M18.6 33.76A27.72 27.72 0 0 1 2 13c-.81-5.07.57-11.9 7.13-11.23 5.81.6 8.49 6.35 9.76 11.37.26 1 1.58.67 1.69-.23a12.93 12.93 0 0 1 8.31-10.49c2.72-1 5.75-.82 7.38 1.85a11.3 11.3 0 0 1 .93 8.27c-1.07 4.61-4.24 8.64-7.3 12.12a33 33 0 0 1-11.17 8.66c-1 .45-.13 1.93.86 1.48 5.8-2.61 10.33-7.16 14.15-12.15C37.31 18 40.52 12.08 38.85 6c-1.51-5.43-6.37-7-11.4-4.85a14.72 14.72 0 0 0-8.59 11.76l1.69-.23C19.16 7.22 16.23 1.31 10.15.17 4.76-.84.77 2.8.14 8c-1.39 11.6 7.49 23 17.94 27 .71.26 1.22-.93.52-1.23z" fill="#352722" data-name="レイヤー 1"/></g></svg>