<svg xmlns="http://www.w3.org/2000/svg" viewBox="0 0 19 15.44"><g data-name="レイヤー 2"><path d="M6 15.44A11 11 0 0 0 17.07 4.35v-.51a7.89 7.89 0 0 0 1.94-2 7.92 7.92 0 0 1-2.24.61 3.91 3.91 0 0 0 1.7-2.17 7.58 7.58 0 0 1-2.47 1 3.9 3.9 0 0 0-6.64 3.5 11 11 0 0 1-8-4.07 3.9 3.9 0 0 0 1.21 5.2 3.78 3.78 0 0 1-1.81-.48v.05A3.91 3.91 0 0 0 3.89 9.3a3.88 3.88 0 0 1-1.76.06 3.9 3.9 0 0 0 3.64 2.71 7.75 7.75 0 0 1-4.84 1.67c-.31 0-.62 0-.93-.05a11.1 11.1 0 0 0 6 1.75" fill="#3a2e25" data-name="レイヤー 1"/></g></svg>