<svg version="1.1" id="レイヤー_1" xmlns="http://www.w3.org/2000/svg" x="0" y="0" viewBox="0 0 18 18" xml:space="preserve"><style>.st0{fill:#fffaf3}</style><g id="レイヤー_1-2"><path class="st0" d="M9 1.6h3.6c.6 0 1.1.2 1.7.4.4.2.7.4 1 .7.3.3.5.6.7 1 .2.5.3 1.1.3 1.7v7.2c0 .6-.1 1.1-.3 1.7-.3.8-.9 1.4-1.7 1.7-.5.2-1.1.3-1.7.3H5.4c-.6 0-1.1-.1-1.7-.3-.4-.2-.7-.4-1-.7-.3-.3-.5-.6-.7-1-.2-.5-.3-1.1-.3-1.7V9 5.4c0-.6.1-1.1.3-1.7.2-.4.4-.7.7-1 .3-.3.6-.5 1-.7.5-.2 1.1-.3 1.7-.3.9 0 1.2 0 3.6-.1M9 0C6.6 0 6.2 0 5.3.1c-.7 0-1.5.2-2.2.4-.6.2-1.1.5-1.6 1-.4.5-.8 1-1 1.6-.3.7-.4 1.4-.4 2.2C0 6.2 0 6.6 0 9s0 2.8.1 3.7c0 .7.2 1.5.4 2.2.2.6.6 1.1 1 1.6.5.4 1 .8 1.6 1 .7.3 1.4.5 2.2.5h7.4c.7 0 1.5-.2 2.2-.4 1.2-.5 2.2-1.4 2.6-2.6.3-.7.4-1.5.5-2.2V9.1 5.4c0-.7-.2-1.5-.4-2.2-.2-.6-.6-1.1-1-1.6-.5-.4-1-.8-1.6-1-.7-.3-1.5-.4-2.3-.5-1 0-1.3 0-3.7-.1z"/><path class="st0" d="M9 4.4c-2.6 0-4.6 2-4.6 4.6s2.1 4.6 4.6 4.6 4.6-2.1 4.6-4.6-2-4.6-4.6-4.6zM9 12c-1.7 0-3-1.3-3-3s1.3-3 3-3 3 1.3 3 3-1.3 3-3 3z"/><circle class="st0" cx="13.8" cy="4.2" r="1.1"/></g></svg>