<svg xmlns="http://www.w3.org/2000/svg" viewBox="0 0 31.12 43.18"><defs><style>.cls-1{fill:#3a2e25}</style></defs><g id="レイヤー_2" data-name="レイヤー 2"><g id="レイヤー_1-2" data-name="レイヤー 1"><path class="cls-1" d="M7.56 19.14c-.34 2.81-.31 6-1.27 8.63s-3.47 3.8-5.9 4.83c-.67.27-.39 1.4.31 1.12 1.79-.62 3.72-1.3 5.29.56a7.85 7.85 0 0 1 1 2.44 50 50 0 0 1 1.59 6 .6.6 0 0 0 1.17-.16 57 57 0 0 1 .15-6.4c.18-2.06.51-2.65 2.65-3.68.92-.44 1.93-.76 2.88-1.13a.58.58 0 0 0 0-1.1c-2.37-.69-4.43-1.44-5.52-3.85a13.51 13.51 0 0 1-1.22-6.31c0-.6-1-.75-1.05-.15a12.86 12.86 0 0 0 1.54 7.7c1.26 2.24 3.61 3 6 3.71v-1.1c-1.75.69-5.06 1.24-6 3.14a10 10 0 0 0-.46 3.26c-.15 2-.18 3.94-.15 5.91l1.17-.15c-.58-2.82-1.12-7-3.12-9.25C5 31.33 2.49 31.88.39 32.6l.31 1.12c2.34-.93 4.84-2 6.18-4.29 1.66-2.81 1.57-7.15 1.61-10.29 0-.62-.86-.58-.93 0zM8.44 16.84a8.9 8.9 0 0 0 8.94-3.79C20 9.49 20.18 4.76 20.33.51h-1.07c.49 3.75.86 8.7 3.1 11.88 1.84 2.63 5.23 3 8.18 3.15l-.15-1.15c-3.06.92-6.49 2.07-8.27 4.94-2.24 3.63-2.3 9.19-2.37 13.32l1.15-.15c-1-4.34-.07-8.36-3-12.09a12 12 0 0 0-9.3-4.58.62.62 0 0 0 0 1.23 10.88 10.88 0 0 1 9.2 5.19c2 3.26 1.14 7 2 10.56a.58.58 0 0 0 1.14-.16c.06-3.79.19-8.23 1.75-11.76 1.44-3.26 4.86-4.38 8-5.37a.59.59 0 0 0-.16-1.16c-3.29-.18-6.64-.65-8-4.09a40.26 40.26 0 0 1-2.2-9.76.54.54 0 0 0-1.07 0C19 6.56 17.41 17.67 8.69 16c-.58-.12-.83.76-.25.89z"/></g></g></svg>