<svg xmlns="http://www.w3.org/2000/svg" viewBox="0 0 30.23 36.6"><defs><style>.cls-1{fill:#352722}</style></defs><g id="レイヤー_2" data-name="レイヤー 2"><g id="レイヤー_1-2" data-name="レイヤー 1"><path class="cls-1" d="M15.35.67c-.52 4.93-1.52 9.74-2.3 14.62-.11.72.92 1 1.11.31A94.07 94.07 0 0 0 16.4.67c.07-.68-1-.67-1 0z" transform="translate(-.1 -.14)"/><path class="cls-1" d="M15.52.66c.1 5.13.33 10.26.37 15.39h1.3c-.31-3.94-.64-7.88-1-11.81a.64.64 0 0 0-1.28 0 107.43 107.43 0 0 1-1.17 12.15c-.13.8 1.1 1.16 1.23.34a106.67 106.67 0 0 0 1.26-12.49H15c.31 3.94.61 7.87.94 11.81a.65.65 0 0 0 1.3 0c-.1-5.13-.24-10.28-.66-15.39-.06-.66-1.08-.66-1.06 0z" transform="translate(-.1 -.14)"/><path class="cls-1" d="M13.37 14.91C10.58 18.18 4.56 18.58.59 19.2c-.79.13-.54 1.29.18 1.33 2.74.15 5.47.2 8.22.12 1.79 0 4.31.27 5.95-.52a.69.69 0 0 0 .14-1.08L15 19a.7.7 0 0 0-.82-.1l-.1.05a.68.68 0 0 0 .69 1.17h.09l-.82-.1.09.09.3-1.14c-1.84.77-4.87.41-6.87.44-2.26 0-4.52 0-6.77-.14L1 20.51c4.15-.67 10.67-1.05 13.19-5 .29-.46-.4-1-.77-.59z" transform="translate(-.1 -.14)"/><path class="cls-1" d="M8 20.15c2.26.25 4.63.06 6.91.15l-.23-1.3c-.68.25-1.33.53-2 .84s-.17 1.2.44 1 1.27-.36 1.9-.59a.68.68 0 0 0-.16-1.25 37.71 37.71 0 0 0-7 .16c-.64.11-.41 1 .14 1z" transform="translate(-.1 -.14)"/><path class="cls-1" d="M10.55 20.82c3.58-1.72 3.71 6.42 3.91 8l1 7.25a.67.67 0 0 0 1.34 0c.68-6 1.1-12 1.21-18 0-.72-1.17-.92-1.28-.18q-1.19 7.93-1.82 15.94h1.31c0-6-.17-12.06-.41-18.08 0-.69-1.11-.91-1.26-.17a12.9 12.9 0 0 1-1.28 3.65l1-.13a3.41 3.41 0 0 0-3.06-1.22.67.67 0 0 0-.18 1.3 8.52 8.52 0 0 0 5 .36.67.67 0 0 0 .4-1l-.18-2.18-1.11.29a5.19 5.19 0 0 0 1.39 1.1c1.11.39 3.1.14 4.27.15 3 0 5.89-.08 8.83-.28l-.19-1.39a37.1 37.1 0 0 1-12.54 2.43v1.41A102.62 102.62 0 0 0 28 18.76c.89-.16.51-1.51-.38-1.35a100.6 100.6 0 0 1-10.67 1.32c-.9.06-.92 1.43 0 1.41a37.61 37.61 0 0 0 12.92-2.47c.68-.27.66-1.45-.19-1.39-2.32.16-4.64.27-7 .29-2 0-5 .57-6.58-.79a.68.68 0 0 0-1.11.29 3.61 3.61 0 0 0 .31 3.21l.4-1a7.1 7.1 0 0 1-4.33-.28l-.17 1.29a2 2 0 0 1 2.13.82.66.66 0 0 0 1-.13 13.89 13.89 0 0 0 1.39-4l-1.26-.17q.39 9 .38 18.08a.66.66 0 0 0 1.31 0Q16.8 26 18 18.28l-1.28-.17a177.25 177.25 0 0 1-1.25 18h1.34c-.56-4.43-.58-9.42-1.88-13.71-.67-2.2-2.68-3.83-4.92-2.56-.65.37-.08 1.32.59 1z" transform="translate(-.1 -.14)"/><path class="cls-1" d="M15.4 16.09a84.88 84.88 0 0 0 14.12 1.74l-.19-1.41c-6.12 1.81-12.45 1.43-18.73 1l.19 1.42c1.87-.28 3.76-.53 5.62-.87.76-.13.59-1.43-.18-1.34-2 .23-3.89.53-5.83.82-.85.12-.56 1.36.2 1.42 6.41.47 12.87.83 19.11-1a.72.72 0 0 0-.19-1.41c-4.7-.23-9.31-.82-14-1.43-.65-.09-.78 1-.16 1.13zM.29 7a21.94 21.94 0 0 0 5.14 4.66c.68.45 1.33-.66.64-1.09A25.33 25.33 0 0 1 1 6.3c-.44-.5-1.11.22-.71.7zM5.82 3.5a25.58 25.58 0 0 0 3 4.57c.44.5 1.3-.16.93-.71-1-1.47-2.08-2.85-3-4.39a.53.53 0 0 0-.91.53zM22.24 7.77c1-1.22 2-2.5 3-3.77.48-.62-.58-1.22-1-.61-1 1.22-1.9 2.45-2.78 3.72-.34.5.45 1.12.85.66zM23.56 13.21a14.87 14.87 0 0 1 4.57-2.82c.72-.29.4-1.47-.33-1.18a16.2 16.2 0 0 0-5 3.25c-.51.47.25 1.22.76.75zM6.4 26.76a8.13 8.13 0 0 0-3.56 3.59c-.37.71.71 1.34 1.08.63A9 9 0 0 1 7 27.7a.55.55 0 0 0-.55-.94zM9.68 27.18a17.62 17.62 0 0 0-3 4.85c-.3.75.91 1.07 1.22.33A18.1 18.1 0 0 1 10.51 28c.45-.57-.33-1.4-.83-.82zM23.28 25.45a27.38 27.38 0 0 1 4.14 1.85c.7.39 1.33-.7.62-1.06a29 29 0 0 0-4.47-1.84c-.68-.22-.95.83-.29 1.05zM20.13 29.51a37.36 37.36 0 0 1 5 3.59c.6.49 1.46-.32.87-.87a26 26 0 0 0-5.29-3.65c-.61-.33-1.16.59-.55.93z" transform="translate(-.1 -.14)"/></g></g></svg>