<svg xmlns="http://www.w3.org/2000/svg" viewBox="0 0 69 39.92"><defs><style>.cls-1{fill:#3a2e25}</style></defs><g id="レイヤー_2" data-name="レイヤー 2"><g id="レイヤー_1-2" data-name="レイヤー 1"><path class="cls-1" d="M60.05 27a34.25 34.25 0 0 1-6.35-.65 13.49 13.49 0 0 0-2.7-.24c-4.75 0-8.36 2.64-11 4.57a11.33 11.33 0 0 1-3.95 2.24 82.62 82.62 0 0 1-15 1.78H18.1a21.2 21.2 0 0 1-9-1.7A20.2 20.2 0 0 1 0 24.23a26.61 26.61 0 0 0 .38 4.6c.85 4.39 6.26 10.73 16 11.05s19.12-1.73 21.75-2.76S46 32.61 48.7 32s10.33.51 14.21-.09c4.21-.66 5.15-2.34 5.8-6.56.07-.41.18-.83.29-1.27C67.22 26 64.22 27 60.05 27z"/><path class="cls-1" d="M51 23.45a15.88 15.88 0 0 1 3.06.31 31.9 31.9 0 0 0 5.95.61c5.26 0 10.78-1.72 7.79-9.55C66.13 10.34 54.27 0 31.74 0c-.94 0-1.9 0-2.87.06C10 .77-4.18 11.34 1.42 22c4.85 9.18 12.34 10.18 16.76 10.18.68 0 1.29 0 1.81-.05a82 82 0 0 0 15.7-1.78c2.44-.54 7.37-6.9 15.31-6.9zM29.52 9.72c-.88-.87-4.18-.82-5.36-1.34s3.2-1.38 5.26-1.75 9.3.45 11.13 1c3 1 2.37 1.91-.1 1.29a19.43 19.43 0 0 0-6.39-.73c-2.01.2-3.67 2.41-4.54 1.53zm1.81 6.53c-1.28-1-1.39-2.18.47-3.38s8.13-1.7 9.3-.91.06 2.15-2 2-3.49 1.04-4.53 2.19a2.25 2.25 0 0 1-3.24.1zm22.74 3.62c-1.35 1.31-5.78-.46-7.11-.48s-3.94-.33-4.33 1.46-3 5.23-3.59 3c-.4-1.6-.13-4.31-1-5.29s2.25-3 4.39-1.72 4.88 2.14 6.32 1.65 6.68.08 5.32 1.38zm-5.2-6.45c-1.3.33-5.36-2.09-4-2.71s6.55.82 8.63 2.5 5.31 3.14 6.85 5.92c.91 1.66-10.19-6.04-11.48-5.71zM5.25 22.85c-1.74-1.3-4.07-6.49-1.54-9.68S14.33 3.2 25.48 2.43s22.69.92 31.31 5.74S68.34 17.84 65.74 20c-1.12 1-.14-5.66-11.15-10.33a57.74 57.74 0 0 0-17-5.07c-9.69-1.11-18.67-.16-23.3 3.1S6.4 16.43 7.45 21.19c.55 2.41-.17 3.17-2.2 1.66zm8.67 4.57c-.65 1.73-3.57-.78-3.75-2.43s2.09-2.21 3.25-1.42.91 2.75.5 3.85zm1-7.09C13.6 19.24 17.3 16.6 16 16.58s-3.34-.2-4 1.52-2 1.95-2.35 0 2.54-4.48 4-4.16 4.64.22 5.47-1.19 4.32-1.67 6.05-1.29-.23 2-2 1.9-3.14 2.5-3.78 4.21-3.22 3.78-4.47 2.76zm13.72 5.05c-2.55-.56-5.07 0-5.66 1.44s-2.2 2.73-3.73 2.39a2.34 2.34 0 0 1-1.07-3.71c1.05-1.11 4.05-.18 4.81-2.42s3.83-7.72 4.15-5.52S27 21.82 28.85 22s6.49-1.52 6.35.32-4.01 3.62-6.56 3.06z"/></g></g></svg>