<svg xmlns="http://www.w3.org/2000/svg" viewBox="0 0 58.65 43.91"><defs><style>.cls-1{fill:#3a2e25}</style></defs><g id="レイヤー_2" data-name="レイヤー 2"><g id="レイヤー_1-2" data-name="レイヤー 1"><path class="cls-1" d="M13.74 21.05a1.39 1.39 0 1 1 2-2c.88.87 1.32.7 2.19.38a6.7 6.7 0 0 1 .93-.28 1.37 1.37 0 0 1 .28 0A25.49 25.49 0 0 1 21.53 16a15.27 15.27 0 0 1 5.14-3.44 2.9 2.9 0 0 0-2-.72A1.39 1.39 0 0 1 24 9.15c2-.54 4.53.84 5.51 2.41a18.61 18.61 0 0 1 4.93-.72h.61c0-.16 0-.32.07-.47.44-3.31-.8-7.42-3.55-8.28a40.87 40.87 0 0 0-11-2.1h-.7C11.3 0 4.51 4.44 3.71 10.56A22 22 0 0 1 1.93 16C.65 19-.67 22.12.38 25.31c1.7 5.21 7.33 6.9 9.79 6.9a31.43 31.43 0 0 0 4.07-.2 26.87 26.87 0 0 1 2.93-9.56h-.3a4.36 4.36 0 0 1-3.13-1.4zm6.7-17.38c.24-.12.51-.23.83-.36a5.4 5.4 0 0 0 1.52-.76 1.39 1.39 0 0 1 2.64.89C25 4.85 23.36 5.49 22.28 5.9c-.21.09-.45.18-.54.23a1.39 1.39 0 0 1-1.3-2.46zM6.89 27.45a1.47 1.47 0 0 1-.46.07 1.39 1.39 0 0 1-1.31-.93c-.07-.22-.69-.62-2.47-.58a1.39 1.39 0 1 1-.07-2.78c3.54-.09 4.76 1.28 5.17 2.45a1.4 1.4 0 0 1-.86 1.77zM8.64 12a1.39 1.39 0 1 1 1.14-2.49 1.68 1.68 0 0 0 2.3-.6 1.39 1.39 0 1 1 2.16 1.75 4.53 4.53 0 0 1-3.54 1.86A4.94 4.94 0 0 1 8.64 12z"/><path class="cls-1" d="M55.68 16.79c-1.16-2.34-5.72-4.1-9-4.1a6.85 6.85 0 0 0-1.37.13c-.83.18-1.56.36-2.27.54a22.15 22.15 0 0 1-5.92.89c-.59 0-1.2 0-1.86-.08h-.83c-3.76 0-8.35 1.79-10.45 4.08-2.52 2.74-6.32 9.05-6.5 15.19-.12 4.21 2.23 7.12 7.19 8.9a21.1 21.1 0 0 0 6.86 1.6 7.13 7.13 0 0 0 3.59-.94 19.29 19.29 0 0 1 7.41-2.09 18.92 18.92 0 0 0 6.55-1.73c2.62-1.34 7.07-6.32 9-10 1.25-2.47.45-6.63-2.4-12.39zM22.09 35.17a1.46 1.46 0 0 1-.78.22 1.5 1.5 0 0 1-.79-2.77c.22-.13.5-.88 0-2.74a1.5 1.5 0 1 1 2.91-.72c.96 3.7-.2 5.31-1.34 6.01zM30 23.41a1.49 1.49 0 0 1 1.45-1.54 1.82 1.82 0 0 0 1.93-1.69 1.5 1.5 0 1 1 2.92.66 4.75 4.75 0 0 1-4.75 4h-.05a1.51 1.51 0 0 1-1.5-1.43zm7.17 14.42a1.5 1.5 0 0 1-1.36.87 1.41 1.41 0 0 1-.63-.14 4.24 4.24 0 0 0-.52-.16 4.63 4.63 0 0 1-3.85-4.08 1.5 1.5 0 0 1 2.95-.52c.23 1.31.72 1.45 1.69 1.71a6.76 6.76 0 0 1 1 .33 1.5 1.5 0 0 1 .68 1.99zm10.88-10.66a3.28 3.28 0 0 0-1.81 2.32A1.51 1.51 0 0 1 44.78 31a1.5 1.5 0 0 1-1.5-1.46c-.05-2 2-5 4.31-5.36a1.5 1.5 0 1 1 .5 3zm2.12-9.27a2.78 2.78 0 0 1-1.19.26 7.26 7.26 0 0 1-3.06-1l-.57-.27a1.5 1.5 0 1 1 1-2.82 9.29 9.29 0 0 1 .89.41 6.17 6.17 0 0 0 1.7.65 1.5 1.5 0 0 1 1.21 2.74z"/></g></g></svg>